G04 DipTrace 2.4.0.2*
%IN64xAPA102Crigid.gbs*%
%MOMM*%
%ADD21O,1.185X1.23*%
%ADD31C,2.05*%
%ADD33C,1.828*%
%FSLAX53Y53*%
G04*
G71*
G90*
G75*
G01*
%LNBotMask*%
%LPD*%
G36*
X32860Y44468D2*
X33910D1*
Y49118D1*
X32860D1*
Y44468D1*
G37*
G36*
X30860D2*
X31910D1*
Y49118D1*
X30860D1*
Y44468D1*
G37*
G36*
X34960Y53718D2*
Y50268D1*
X36610D1*
Y53718D1*
X34960D1*
G37*
G36*
X28160D2*
Y50268D1*
X29810D1*
Y53718D1*
X28160D1*
G37*
D21*
X22537Y62236D3*
G36*
X22763Y61621D2*
X20763D1*
Y62851D1*
X22763D1*
Y61621D1*
G37*
D21*
X20989Y62236D3*
G36*
X20892Y61611D2*
X21661D1*
Y62861D1*
X20892D1*
X20724Y62798D1*
X20517Y62653D1*
X20412Y62444D1*
X20375Y62236D1*
X20412Y62028D1*
X20517Y61819D1*
X20724Y61673D1*
X20892Y61611D1*
G37*
G36*
X22634Y62861D2*
X21864D1*
Y61611D1*
X22634D1*
X22801Y61673D1*
X23009Y61819D1*
X23113Y62028D1*
X23150Y62236D1*
X23113Y62444D1*
X23009Y62653D1*
X22801Y62798D1*
X22634Y62861D1*
G37*
D33*
X24189Y31951D3*
Y34491D3*
Y37031D3*
Y39571D3*
X11489Y31951D3*
Y34491D3*
Y37031D3*
Y39571D3*
D31*
X11250Y16730D3*
Y19270D3*
Y14190D3*
Y21810D3*
D33*
X11488Y42110D3*
X24189D3*
D31*
X82750Y16730D3*
Y19270D3*
Y14190D3*
Y21810D3*
D21*
X21017Y59263D3*
G36*
X20791Y59878D2*
X22791D1*
Y58648D1*
X20791D1*
Y59878D1*
G37*
D21*
X22564Y59263D3*
G36*
X22662Y59888D2*
X21892D1*
Y58638D1*
X22662D1*
X22829Y58700D1*
X23036Y58846D1*
X23141Y59055D1*
X23178Y59263D1*
X23141Y59471D1*
X23036Y59679D1*
X22829Y59825D1*
X22662Y59888D1*
G37*
G36*
X20920Y58638D2*
X21689D1*
Y59888D1*
X20920D1*
X20752Y59825D1*
X20545Y59679D1*
X20440Y59471D1*
X20403Y59263D1*
X20440Y59055D1*
X20545Y58846D1*
X20752Y58700D1*
X20920Y58638D1*
G37*
M02*
