G04 DipTrace 2.4.0.2*
%IN64xAPA102Cx16mm.gtp*%
%MOMM*%
%ADD20O,1.5X1.0*%
%ADD22O,1.0X1.5*%
%FSLAX53Y53*%
G04*
G71*
G90*
G75*
G01*
%LNTopPaste*%
%LPD*%
D20*
X15500Y19850D3*
Y18000D3*
Y16150D3*
X20500D3*
Y18000D3*
Y19850D3*
D22*
X16150Y31500D3*
X18000D3*
X19850D3*
Y36500D3*
X18000D3*
X16150D3*
D20*
X31500Y35850D3*
Y34000D3*
Y32150D3*
X36500D3*
Y34000D3*
Y35850D3*
D22*
X35850Y20500D3*
X34000D3*
X32150D3*
Y15500D3*
X34000D3*
X35850D3*
D20*
X47500Y19850D3*
Y18000D3*
Y16150D3*
X52500D3*
Y18000D3*
Y19850D3*
D22*
X48150Y31500D3*
X50000D3*
X51850D3*
Y36500D3*
X50000D3*
X48150D3*
Y47500D3*
X50000D3*
X51850D3*
Y52500D3*
X50000D3*
X48150D3*
D20*
X36500Y48150D3*
Y50000D3*
Y51850D3*
X31500D3*
Y50000D3*
Y48150D3*
X20500D3*
Y50000D3*
Y51850D3*
X15500D3*
Y50000D3*
Y48150D3*
D22*
X16150Y63500D3*
X18000D3*
X19850D3*
Y68500D3*
X18000D3*
X16150D3*
D20*
X31500Y67850D3*
Y66000D3*
Y64150D3*
X36500D3*
Y66000D3*
Y67850D3*
X47500D3*
Y66000D3*
Y64150D3*
X52500D3*
Y66000D3*
Y67850D3*
X63500D3*
Y66000D3*
Y64150D3*
X68500D3*
Y66000D3*
Y67850D3*
D22*
X67850Y52500D3*
X66000D3*
X64150D3*
Y47500D3*
X66000D3*
X67850D3*
Y36500D3*
X66000D3*
X64150D3*
Y31500D3*
X66000D3*
X67850D3*
Y20500D3*
X66000D3*
X64150D3*
Y15500D3*
X66000D3*
X67850D3*
D20*
X79500Y19850D3*
Y18000D3*
Y16150D3*
X84500D3*
Y18000D3*
Y19850D3*
D22*
X80150Y31500D3*
X82000D3*
X83850D3*
Y36500D3*
X82000D3*
X80150D3*
Y47500D3*
X82000D3*
X83850D3*
Y52500D3*
X82000D3*
X80150D3*
Y63500D3*
X82000D3*
X83850D3*
Y68500D3*
X82000D3*
X80150D3*
Y79500D3*
X82000D3*
X83850D3*
Y84500D3*
X82000D3*
X80150D3*
D20*
X68500Y80150D3*
Y82000D3*
Y83850D3*
X63500D3*
Y82000D3*
Y80150D3*
X52500D3*
Y82000D3*
Y83850D3*
X47500D3*
Y82000D3*
Y80150D3*
X36500D3*
Y82000D3*
Y83850D3*
X31500D3*
Y82000D3*
Y80150D3*
X20500D3*
Y82000D3*
Y83850D3*
X15500D3*
Y82000D3*
Y80150D3*
D22*
X16150Y95500D3*
X18000D3*
X19850D3*
Y100500D3*
X18000D3*
X16150D3*
D20*
X31500Y99850D3*
Y98000D3*
Y96150D3*
X36500D3*
Y98000D3*
Y99850D3*
X47500D3*
Y98000D3*
Y96150D3*
X52500D3*
Y98000D3*
Y99850D3*
X63500D3*
Y98000D3*
Y96150D3*
X68500D3*
Y98000D3*
Y99850D3*
X79500D3*
Y98000D3*
Y96150D3*
X84500D3*
Y98000D3*
Y99850D3*
X95500D3*
Y98000D3*
Y96150D3*
X100500D3*
Y98000D3*
Y99850D3*
D22*
X99850Y84500D3*
X98000D3*
X96150D3*
Y79500D3*
X98000D3*
X99850D3*
Y68500D3*
X98000D3*
X96150D3*
Y63500D3*
X98000D3*
X99850D3*
Y52500D3*
X98000D3*
X96150D3*
Y47500D3*
X98000D3*
X99850D3*
Y36500D3*
X98000D3*
X96150D3*
Y31500D3*
X98000D3*
X99850D3*
Y20500D3*
X98000D3*
X96150D3*
Y15500D3*
X98000D3*
X99850D3*
D20*
X111500Y19850D3*
Y18000D3*
Y16150D3*
X116500D3*
Y18000D3*
Y19850D3*
D22*
X112150Y31500D3*
X114000D3*
X115850D3*
Y36500D3*
X114000D3*
X112150D3*
Y47500D3*
X114000D3*
X115850D3*
Y52500D3*
X114000D3*
X112150D3*
Y63500D3*
X114000D3*
X115850D3*
Y68500D3*
X114000D3*
X112150D3*
Y79500D3*
X114000D3*
X115850D3*
Y84500D3*
X114000D3*
X112150D3*
Y95500D3*
X114000D3*
X115850D3*
Y100500D3*
X114000D3*
X112150D3*
Y111500D3*
X114000D3*
X115850D3*
Y116500D3*
X114000D3*
X112150D3*
D20*
X100500Y112150D3*
Y114000D3*
Y115850D3*
X95500D3*
Y114000D3*
Y112150D3*
X84500D3*
Y114000D3*
Y115850D3*
X79500D3*
Y114000D3*
Y112150D3*
X68500D3*
Y114000D3*
Y115850D3*
X63500D3*
Y114000D3*
Y112150D3*
X52500D3*
Y114000D3*
Y115850D3*
X47500D3*
Y114000D3*
Y112150D3*
X36500D3*
Y114000D3*
Y115850D3*
X31500D3*
Y114000D3*
Y112150D3*
X20500D3*
Y114000D3*
Y115850D3*
X15500D3*
Y114000D3*
Y112150D3*
D22*
X16150Y127500D3*
X18000D3*
X19850D3*
Y132500D3*
X18000D3*
X16150D3*
D20*
X31500Y131850D3*
Y130000D3*
Y128150D3*
X36500D3*
Y130000D3*
Y131850D3*
X47500D3*
Y130000D3*
Y128150D3*
X52500D3*
Y130000D3*
Y131850D3*
X63500D3*
Y130000D3*
Y128150D3*
X68500D3*
Y130000D3*
Y131850D3*
X79500D3*
Y130000D3*
Y128150D3*
X84500D3*
Y130000D3*
Y131850D3*
X95500D3*
Y130000D3*
Y128150D3*
X100500D3*
Y130000D3*
Y131850D3*
X111500D3*
Y130000D3*
Y128150D3*
X116500D3*
Y130000D3*
Y131850D3*
X127500D3*
Y130000D3*
Y128150D3*
X132500D3*
Y130000D3*
Y131850D3*
D22*
X131850Y116500D3*
X130000D3*
X128150D3*
Y111500D3*
X130000D3*
X131850D3*
Y100500D3*
X130000D3*
X128150D3*
Y95500D3*
X130000D3*
X131850D3*
Y84500D3*
X130000D3*
X128150D3*
Y79500D3*
X130000D3*
X131850D3*
Y68500D3*
X130000D3*
X128150D3*
Y63500D3*
X130000D3*
X131850D3*
Y52500D3*
X130000D3*
X128150D3*
Y47500D3*
X130000D3*
X131850D3*
Y36500D3*
X130000D3*
X128150D3*
Y31500D3*
X130000D3*
X131850D3*
Y20500D3*
X130000D3*
X128150D3*
Y15500D3*
X130000D3*
X131850D3*
M02*
