G04 DipTrace 2.4.0.2*
%IN64xAPA102Cx16mm.gbo*%
%MOMM*%
%ADD35C,1.412*%
%ADD36C,1.882*%
%FSLAX53Y53*%
G04*
G71*
G90*
G75*
G01*
%LNBotSilk*%
%LPD*%
X125066Y121531D2*
D35*
X130756D1*
Y112343D1*
Y117154D2*
X127259D1*
X121798Y118468D2*
X119180Y112343D1*
X120049Y110594D1*
X120928Y109715D1*
X121798Y109280D1*
X122242D1*
X116552Y118468D2*
X119180Y112343D1*
X113728Y121531D2*
Y112343D1*
Y117154D2*
X112849Y118033D1*
X111980Y118468D1*
X110666D1*
X109796Y118033D1*
X108917Y117154D1*
X108482Y115840D1*
Y114971D1*
X108917Y113657D1*
X109796Y112787D1*
X110666Y112343D1*
X111980D1*
X112849Y112787D1*
X113728Y113657D1*
X105659Y115840D2*
X100413D1*
Y116719D1*
X100847Y117599D1*
X101282Y118033D1*
X102161Y118468D1*
X103475D1*
X104345Y118033D1*
X105224Y117154D1*
X105659Y115840D1*
Y114971D1*
X105224Y113657D1*
X104345Y112787D1*
X103475Y112343D1*
X102161D1*
X101282Y112787D1*
X100413Y113657D1*
X97589Y118468D2*
Y112343D1*
Y115840D2*
X97145Y117154D1*
X96275Y118033D1*
X95396Y118468D1*
X94082D1*
X82370Y121531D2*
Y112343D1*
X77124D1*
X69055Y118468D2*
Y112343D1*
Y117154D2*
X69924Y118033D1*
X70804Y118468D1*
X72107D1*
X72987Y118033D1*
X73856Y117154D1*
X74301Y115840D1*
Y114971D1*
X73856Y113657D1*
X72987Y112787D1*
X72107Y112343D1*
X70804D1*
X69924Y112787D1*
X69055Y113657D1*
X66231Y121531D2*
Y112343D1*
Y117154D2*
X65352Y118033D1*
X64483Y118468D1*
X63169D1*
X62300Y118033D1*
X61420Y117154D1*
X60986Y115840D1*
Y114971D1*
X61420Y113657D1*
X62300Y112787D1*
X63169Y112343D1*
X64483D1*
X65352Y112787D1*
X66231Y113657D1*
X53351Y117154D2*
X53785Y118033D1*
X55099Y118468D1*
X56413D1*
X57727Y118033D1*
X58162Y117154D1*
X57727Y116285D1*
X56848Y115840D1*
X54665Y115405D1*
X53785Y114971D1*
X53351Y114091D1*
Y113657D1*
X53785Y112787D1*
X55099Y112343D1*
X56413D1*
X57727Y112787D1*
X58162Y113657D1*
X41639Y121531D2*
Y112343D1*
X38816Y118468D2*
Y112343D1*
Y116719D2*
X37502Y118033D1*
X36622Y118468D1*
X35318D1*
X34439Y118033D1*
X34004Y116719D1*
Y112343D1*
X25925Y117154D2*
X26804Y118033D1*
X27683Y118468D1*
X28987D1*
X29867Y118033D1*
X30736Y117154D1*
X31181Y115840D1*
Y114971D1*
X30736Y113657D1*
X29867Y112787D1*
X28987Y112343D1*
X27683D1*
X26804Y112787D1*
X25925Y113657D1*
X22667Y113222D2*
X23101Y112777D1*
X22667Y112343D1*
X22222Y112777D1*
X22667Y113222D1*
X53795Y76655D2*
D36*
Y77234D1*
X53215Y78407D1*
X52636Y78986D1*
X51463Y79566D1*
X49132D1*
X47973Y78986D1*
X47393Y78407D1*
X46800Y77234D1*
Y76075D1*
X47393Y74903D1*
X48552Y73164D1*
X54388Y67329D1*
X46221D1*
X38952Y79566D2*
X40704Y78986D1*
X41876Y77234D1*
X42456Y74323D1*
Y72571D1*
X41876Y69660D1*
X40704Y67908D1*
X38952Y67329D1*
X37793D1*
X36041Y67908D1*
X34882Y69660D1*
X34289Y72571D1*
Y74323D1*
X34882Y77234D1*
X36041Y78986D1*
X37793Y79566D1*
X38952D1*
X34882Y77234D2*
X41876Y69660D1*
X30524Y77234D2*
X29352Y77827D1*
X27600Y79566D1*
Y67329D1*
X16840Y79566D2*
X22662D1*
X23242Y74323D1*
X22662Y74903D1*
X20910Y75496D1*
X19172D1*
X17420Y74903D1*
X16247Y73744D1*
X15668Y71992D1*
Y70833D1*
X16247Y69081D1*
X17420Y67908D1*
X19172Y67329D1*
X20910D1*
X22662Y67908D1*
X23242Y68501D1*
X23835Y69660D1*
X130968Y73482D2*
X125725D1*
X123973Y74075D1*
X123380Y74655D1*
X122801Y75814D1*
Y76986D1*
X123380Y78145D1*
X123973Y78738D1*
X125725Y79318D1*
X130968D1*
Y67067D1*
X126884Y73482D2*
X122801Y67067D1*
X119036Y71730D2*
X112041D1*
Y72903D1*
X112621Y74075D1*
X113200Y74655D1*
X114373Y75234D1*
X116125D1*
X117284Y74655D1*
X118456Y73482D1*
X119036Y71730D1*
Y70571D1*
X118456Y68819D1*
X117284Y67660D1*
X116125Y67067D1*
X114373D1*
X113200Y67660D1*
X112041Y68819D1*
X108277Y75234D2*
X104773Y67067D1*
X101282Y75234D1*
X82163Y79304D2*
X83915Y78725D1*
X85087Y76973D1*
X85667Y74062D1*
Y72310D1*
X85087Y69399D1*
X83915Y67647D1*
X82163Y67067D1*
X81004D1*
X79252Y67647D1*
X78092Y69399D1*
X77500Y72310D1*
Y74062D1*
X78092Y76973D1*
X79252Y78725D1*
X81004Y79304D1*
X82163D1*
X78092Y76973D2*
X85087Y69399D1*
X73155Y68240D2*
X73735Y67647D1*
X73155Y67067D1*
X72562Y67647D1*
X73155Y68240D1*
X61803Y77566D2*
X62383Y78725D1*
X64135Y79304D1*
X65294D1*
X67046Y78725D1*
X68218Y76973D1*
X68798Y74062D1*
Y71151D1*
X68218Y68819D1*
X67046Y67647D1*
X65294Y67067D1*
X64714D1*
X62976Y67647D1*
X61803Y68819D1*
X61224Y70571D1*
Y71151D1*
X61803Y72903D1*
X62976Y74062D1*
X64714Y74641D1*
X65294D1*
X67046Y74062D1*
X68218Y72903D1*
X68798Y71151D1*
X124206Y55715D2*
X124785Y56874D1*
X126537Y57453D1*
X127696D1*
X129448Y56874D1*
X130621Y55122D1*
X131200Y52211D1*
Y49300D1*
X130621Y46968D1*
X129448Y45796D1*
X127696Y45216D1*
X127117D1*
X125378Y45796D1*
X124206Y46968D1*
X123626Y48720D1*
Y49300D1*
X124206Y51052D1*
X125378Y52211D1*
X127117Y52790D1*
X127696D1*
X129448Y52211D1*
X130621Y51052D1*
X131200Y49300D1*
X114026Y45216D2*
Y57453D1*
X119862Y49300D1*
X111115D1*
X86160Y45216D2*
X90837Y57467D1*
X95500Y45216D1*
X93748Y49300D2*
X87912D1*
X82395Y51052D2*
X77139D1*
X75401Y51631D1*
X74808Y52224D1*
X74228Y53383D1*
Y55135D1*
X74808Y56294D1*
X75401Y56887D1*
X77139Y57467D1*
X82395D1*
Y45216D1*
X61124D2*
X65801Y57467D1*
X70464Y45216D1*
X68712Y49300D2*
X62876D1*
X48613Y54556D2*
X49192Y55715D1*
X50365Y56887D1*
X51524Y57467D1*
X53855D1*
X55028Y56887D1*
X56187Y55715D1*
X56780Y54556D1*
X57359Y52804D1*
Y49879D1*
X56780Y48141D1*
X56187Y46968D1*
X55028Y45809D1*
X53855Y45216D1*
X51524D1*
X50365Y45809D1*
X49192Y46968D1*
X48613Y48141D1*
X44848Y55122D2*
X43676Y55715D1*
X41924Y57453D1*
Y45216D1*
X34655Y57453D2*
X36407Y56874D1*
X37579Y55122D1*
X38159Y52211D1*
Y50459D1*
X37579Y47548D1*
X36407Y45796D1*
X34655Y45216D1*
X33496D1*
X31744Y45796D1*
X30585Y47548D1*
X29992Y50459D1*
Y52211D1*
X30585Y55122D1*
X31744Y56874D1*
X33496Y57453D1*
X34655D1*
X30585Y55122D2*
X37579Y47548D1*
X25634Y54542D2*
Y55122D1*
X25055Y56294D1*
X24475Y56874D1*
X23303Y57453D1*
X20971D1*
X19812Y56874D1*
X19233Y56294D1*
X18640Y55122D1*
Y53963D1*
X19233Y52790D1*
X20392Y51052D1*
X26227Y45216D1*
X18060D1*
X130556Y99671D2*
Y87420D1*
X123561D1*
X119797Y99671D2*
X119217Y99091D1*
X118624Y99671D1*
X119217Y100264D1*
X119797Y99671D1*
X119217Y95587D2*
Y87420D1*
X107865Y95008D2*
Y85668D1*
X108444Y83930D1*
X109024Y83337D1*
X110196Y82757D1*
X111948D1*
X113107Y83337D1*
X107865Y93256D2*
X109024Y94415D1*
X110196Y95008D1*
X111948D1*
X113107Y94415D1*
X114280Y93256D1*
X114859Y91504D1*
Y90331D1*
X114280Y88593D1*
X113107Y87420D1*
X111948Y86841D1*
X110196D1*
X109024Y87420D1*
X107865Y88593D1*
X104100Y99671D2*
Y87420D1*
Y93256D2*
X102348Y95008D1*
X101176Y95587D1*
X99424D1*
X98265Y95008D1*
X97685Y93256D1*
Y87420D1*
X92168Y99671D2*
Y89752D1*
X91589Y88013D1*
X90416Y87420D1*
X89257D1*
X93920Y95587D2*
X89837D1*
X65475Y97919D2*
X66634Y99091D1*
X68386Y99671D1*
X70717D1*
X72469Y99091D1*
X73642Y97919D1*
Y96760D1*
X73049Y95587D1*
X72469Y95008D1*
X71310Y94428D1*
X67806Y93256D1*
X66634Y92676D1*
X66054Y92083D1*
X65475Y90924D1*
Y89172D1*
X66634Y88013D1*
X68386Y87420D1*
X70717D1*
X72469Y88013D1*
X73642Y89172D1*
X54716Y95587D2*
Y83337D1*
Y93835D2*
X55875Y94994D1*
X57047Y95587D1*
X58799D1*
X59958Y94994D1*
X61131Y93835D1*
X61710Y92083D1*
Y90911D1*
X61131Y89172D1*
X59958Y88000D1*
X58799Y87420D1*
X57047D1*
X55875Y88000D1*
X54716Y89172D1*
X50951Y95587D2*
Y89752D1*
X50371Y88013D1*
X49199Y87420D1*
X47447D1*
X46288Y88013D1*
X44536Y89752D1*
Y95587D2*
Y87420D1*
X33777Y95587D2*
Y87420D1*
Y93835D2*
X34936Y95008D1*
X36108Y95587D1*
X37847D1*
X39019Y95008D1*
X40178Y93835D1*
X40771Y92083D1*
Y90924D1*
X40178Y89172D1*
X39019Y88013D1*
X37847Y87420D1*
X36108D1*
X34936Y88013D1*
X33777Y89172D1*
X30012Y95587D2*
Y87420D1*
Y92083D2*
X29419Y93835D1*
X28260Y95008D1*
X27087Y95587D1*
X25335D1*
X21571Y92083D2*
X14576D1*
Y93256D1*
X15156Y94428D1*
X15735Y95008D1*
X16908Y95587D1*
X18660D1*
X19819Y95008D1*
X20991Y93835D1*
X21571Y92083D1*
Y90924D1*
X20991Y89172D1*
X19819Y88013D1*
X18660Y87420D1*
X16908D1*
X15735Y88013D1*
X14576Y89172D1*
M02*
