G04 DipTrace 2.4.0.2*
%IN64xAPA102Crigid.gtl*%
%MOMM*%
%ADD13C,1.27*%
%ADD14C,1.25*%
%ADD15C,1.0*%
%ADD16C,0.508*%
%ADD17C,0.711*%
%ADD22C,1.778*%
%ADD23R,1.25X2.0*%
%ADD24C,2.0*%
%ADD26O,1.0X1.5*%
%ADD27C,1.372*%
%FSLAX53Y53*%
G04*
G71*
G90*
G75*
G01*
%LNTop*%
%LPD*%
X21850Y15500D2*
D13*
Y16277D1*
X20232Y17894D1*
X18956D1*
X17982D1*
X16611Y19265D1*
Y21226D1*
Y24562D1*
X17787Y25738D1*
X20378D1*
X22233Y23883D1*
X21850Y23500D1*
X16611Y24562D2*
Y32391D1*
X18248Y34028D1*
X19687D1*
X21932Y31783D1*
Y31582D1*
X21850Y31500D1*
X16611Y32391D2*
Y40908D1*
X17733Y42030D1*
X19975D1*
X21990Y40015D1*
Y39640D1*
X21850Y39500D1*
X16611Y40908D2*
Y48907D1*
X17471Y49767D1*
X20666D1*
X21850Y48583D1*
Y47500D1*
X16611Y48907D2*
Y56574D1*
X17831Y57794D1*
X20546D1*
X21924Y56416D1*
Y55574D1*
X21850Y55500D1*
X16611Y56574D2*
Y60554D1*
Y64627D1*
X18293Y66309D1*
X19538D1*
X21978Y63869D1*
Y63628D1*
X21850Y63500D1*
X16611Y64627D2*
Y72476D1*
X17487Y73352D1*
X20666D1*
X21966Y72052D1*
Y71616D1*
X21850Y71500D1*
X26150Y20500D2*
Y18987D1*
X27228Y17909D1*
X31637D1*
X35955D1*
X37850Y16013D1*
Y15500D1*
X26150Y28500D2*
Y27157D1*
X26876Y26432D1*
X31470D1*
X31658D1*
X35860D1*
X37850Y24441D1*
Y23500D1*
X26150Y36500D2*
Y35751D1*
X27862Y34039D1*
X31347D1*
X31620D1*
X37257D1*
X37850Y33446D1*
Y31500D1*
X26150Y44500D2*
Y43847D1*
X27183Y42814D1*
X31352D1*
Y42562D1*
X31545D1*
X32735D1*
X35530D1*
X37850Y40241D1*
Y39500D1*
X26150Y52500D2*
Y51571D1*
X27469Y50252D1*
X31374D1*
X31761D1*
X36322D1*
X37850Y48724D1*
Y47500D1*
X26150Y60500D2*
Y59385D1*
X27550Y57984D1*
X31608D1*
X36746D1*
X37850Y56881D1*
Y55500D1*
X26150Y68500D2*
Y67687D1*
X27469Y66368D1*
X31610D1*
X32022D1*
X35694D1*
X37850Y64212D1*
Y63500D1*
X26150Y76500D2*
Y75745D1*
X28283Y73612D1*
X31685D1*
X36700D1*
X37850Y72462D1*
Y71500D1*
X31637Y17909D2*
X32569Y18841D1*
Y25332D1*
X31470Y26432D1*
X31658D2*
X32446Y27220D1*
Y32939D1*
X31347Y34039D1*
X31620D2*
X32630Y35049D1*
Y41536D1*
X31352Y42814D1*
X31545Y42562D2*
X32513Y43529D1*
Y49113D1*
X31374Y50252D1*
X31761D2*
X32705Y51197D1*
Y56887D1*
X31608Y57984D1*
X32548Y58925D1*
Y65430D1*
X31610Y66368D1*
X32022D2*
X32378Y66724D1*
Y72920D1*
X31685Y73612D1*
X53850Y15500D2*
Y15973D1*
X52196Y17627D1*
X47654D1*
X47451D1*
X44144D1*
X41272Y20500D1*
X42150D1*
Y28500D2*
Y27673D1*
X43164Y26660D1*
X47670D1*
X51910D1*
X53850Y24719D1*
Y23500D1*
Y31500D2*
Y32298D1*
X51928Y34220D1*
X47731D1*
X47501D1*
X43126D1*
X42150Y35196D1*
Y36500D1*
X53850Y39500D2*
Y41249D1*
X52851Y42248D1*
X47801D1*
X42857D1*
X42150Y42956D1*
Y44500D1*
X53850Y47500D2*
Y48200D1*
X52096Y49954D1*
X47565D1*
X43648D1*
X42150Y51452D1*
Y52500D1*
X53850Y55500D2*
Y56556D1*
X52207Y58199D1*
X47355D1*
X47164D1*
X43057D1*
X41794Y59462D1*
Y60500D1*
X42150D1*
X53850Y63500D2*
Y64167D1*
X52157Y65860D1*
X47612D1*
X42923D1*
X42150Y66633D1*
Y68500D1*
X53850Y71500D2*
Y72412D1*
X52449Y73812D1*
X47584D1*
X43946D1*
X42150Y75608D1*
Y76500D1*
X47584Y73812D2*
X48491Y72905D1*
Y66739D1*
X47612Y65860D1*
X48326Y65145D1*
Y59361D1*
X47164Y58199D1*
X47355D2*
X48409Y57144D1*
Y50798D1*
X47565Y49954D1*
X48612Y48908D1*
Y43059D1*
X47801Y42248D1*
X48612Y41438D1*
Y35101D1*
X47731Y34220D1*
X47501D2*
X48612Y33109D1*
Y27601D1*
X47670Y26660D1*
X48350Y25979D1*
Y18527D1*
X47451Y17627D1*
X69850Y15500D2*
Y16140D1*
X68236Y17754D1*
X64107D1*
X63791D1*
X60238D1*
X58150Y19842D1*
Y20500D1*
X69850Y23500D2*
Y23869D1*
X67533Y26185D1*
X63594D1*
X59762D1*
X58150Y27798D1*
Y28500D1*
X69850Y31500D2*
Y32412D1*
X68523Y33739D1*
X63594D1*
X59933D1*
X58150Y35522D1*
Y36500D1*
X69850Y39500D2*
Y40292D1*
X68324Y41819D1*
X63861D1*
X63505D1*
X59736D1*
X58004Y43551D1*
Y44500D1*
X58150D1*
X69850Y47500D2*
Y48461D1*
X68499Y49811D1*
X63829D1*
X63635D1*
X59601D1*
X58150Y51263D1*
Y52500D1*
X69850Y55500D2*
Y55927D1*
X68309Y57469D1*
X63936D1*
X63710D1*
X60101D1*
X58150Y59419D1*
Y60500D1*
X69850Y63500D2*
Y64220D1*
X68384Y65686D1*
X63861D1*
X63559D1*
X60090D1*
X58150Y67625D1*
Y68500D1*
X69850Y71500D2*
Y71833D1*
X68309Y73375D1*
X63409D1*
X60224D1*
X58150Y75449D1*
Y76500D1*
X63409Y73375D2*
X64389Y72395D1*
Y66515D1*
X63559Y65686D1*
X63861D2*
X64633Y64913D1*
Y58392D1*
X63710Y57469D1*
X63936D2*
X64766Y56639D1*
Y50942D1*
X63635Y49811D1*
X63829D2*
X64690Y48950D1*
Y42648D1*
X63861Y41819D1*
X63505D2*
X64446Y40878D1*
Y34590D1*
X63594Y33739D1*
X64507Y32826D1*
Y27098D1*
X63594Y26185D1*
X64773Y25007D1*
Y18736D1*
X63791Y17754D1*
X74150Y20500D2*
Y19885D1*
X75611Y18424D1*
X79017D1*
X80780Y20188D1*
Y24752D1*
X79488Y26045D1*
X76959D1*
X75551D1*
X74150Y27446D1*
Y28500D1*
X80780Y24752D2*
Y31941D1*
X78518Y34203D1*
X75236D1*
X74019Y35419D1*
Y36500D1*
X74150D1*
X80780Y31941D2*
Y40018D1*
X78680Y42118D1*
X75700D1*
X74150Y43668D1*
Y44500D1*
X80780Y40018D2*
Y47772D1*
X80514Y48038D1*
X78357Y50195D1*
X75263D1*
X74150Y51308D1*
Y52500D1*
X80514Y48038D2*
Y56172D1*
X78711Y57974D1*
X75783D1*
X74288Y59470D1*
Y60500D1*
X74150D1*
X80514Y56172D2*
Y64080D1*
X78581Y66013D1*
X75357D1*
X74288Y67082D1*
Y68500D1*
X74150D1*
X80514Y64080D2*
Y72118D1*
X78581Y74051D1*
X75566D1*
X74288Y75329D1*
Y76500D1*
X74150D1*
X18956Y17991D2*
Y17894D1*
X47654Y17700D2*
Y17627D1*
X76959Y26251D2*
Y26045D1*
X64107Y17939D2*
Y17754D1*
X31653Y17907D2*
X31637Y17909D1*
X11250Y21810D2*
X10625D1*
X16027D1*
X16611Y21226D1*
X82750Y21810D2*
Y22158D1*
X80780Y20188D1*
X83375Y21810D2*
D14*
X82750D1*
X11250D2*
X10625D1*
X16537Y60554D2*
D13*
X16611D1*
X32735Y42632D2*
Y42562D1*
X18150Y23500D2*
D16*
Y20500D1*
X20000Y23500D2*
Y20500D1*
X82750Y19270D2*
X82093D1*
X78323Y15500D1*
X77850D1*
X82750Y19270D2*
D17*
X83375D1*
X82750Y16730D2*
D16*
X82055D1*
X79406Y14082D1*
X77320D1*
X76037Y15365D1*
Y15537D1*
X76000Y15500D1*
X82750Y16730D2*
D17*
X83375D1*
X18150Y31500D2*
D16*
Y28500D1*
X20000Y31500D2*
Y28500D1*
X18150Y39500D2*
Y36500D1*
X20000Y39500D2*
Y36500D1*
X18150Y47500D2*
Y44500D1*
X20000Y47500D2*
Y44500D1*
X18150Y55500D2*
Y52500D1*
X20000Y55500D2*
Y52500D1*
X18150Y63500D2*
Y60500D1*
X20000Y63500D2*
Y60500D1*
X18150Y71500D2*
Y68500D1*
X20000Y71500D2*
Y68500D1*
X29850Y71500D2*
Y68500D1*
X28000Y71500D2*
Y68500D1*
X61850Y15500D2*
X66150D1*
X60000D2*
X60022D1*
X61436Y14086D1*
X66586D1*
X68000Y15500D1*
X29850Y63500D2*
Y60500D1*
X28000Y63500D2*
Y60500D1*
X29850Y52500D2*
Y55500D1*
X28000Y52500D2*
Y55500D1*
X29850Y44500D2*
Y47500D1*
X28000Y44500D2*
Y47500D1*
X29850Y36500D2*
Y39500D1*
X28000Y36500D2*
Y39500D1*
X29850Y28500D2*
Y31500D1*
X28000Y28500D2*
Y31500D1*
X29850Y20500D2*
Y23500D1*
X28000Y20500D2*
Y23500D1*
X34150Y20500D2*
Y23500D1*
X36000Y20500D2*
Y23500D1*
X10625Y19270D2*
X14380D1*
X18150Y15500D1*
X11250Y19270D2*
X10625D1*
X11250D2*
D17*
X10625D1*
X11489Y37031D2*
X13389D1*
X13960Y36460D1*
Y28710D1*
X14150Y28519D1*
X10625Y16730D2*
D16*
Y16796D1*
X13724D1*
X16573Y13948D1*
X18673D1*
X20168Y15443D1*
X20057D1*
X20000Y15500D1*
X11250Y16730D2*
X10625D1*
X11250D2*
D17*
X10625D1*
X34150Y28500D2*
D16*
Y31500D1*
X36000Y28500D2*
Y31500D1*
X34150Y36500D2*
Y39500D1*
X36000Y36500D2*
Y39500D1*
X34150Y44500D2*
Y47500D1*
X36000Y44500D2*
Y47500D1*
X34150Y52500D2*
Y55500D1*
X36000Y52500D2*
Y55500D1*
X34150Y60500D2*
Y63500D1*
X36000Y60500D2*
Y63500D1*
X34150Y71500D2*
Y68500D1*
X36000D2*
Y71500D1*
X45850Y68500D2*
Y71500D1*
X44000Y68500D2*
Y71500D1*
X45850Y60500D2*
Y63500D1*
X44000Y60500D2*
Y63500D1*
X45850Y52500D2*
Y55500D1*
X44000Y52500D2*
Y55500D1*
X45850Y44500D2*
Y47500D1*
X44000Y44500D2*
Y47500D1*
X45850Y36500D2*
Y39500D1*
X44000Y36500D2*
Y39500D1*
X45850Y28500D2*
Y31500D1*
X44000Y28500D2*
Y31500D1*
X45850Y20500D2*
Y23500D1*
X44000Y20500D2*
Y23500D1*
X50150Y20500D2*
Y23500D1*
X52000Y20500D2*
Y23500D1*
X50150Y28500D2*
Y31500D1*
X52000Y28500D2*
Y31500D1*
X50150Y36500D2*
Y39500D1*
X52000Y36500D2*
Y39500D1*
X50150Y44500D2*
Y47500D1*
X52000Y44500D2*
Y47500D1*
X50150Y52500D2*
Y55500D1*
X52000Y52500D2*
Y55500D1*
X50150Y60500D2*
Y63500D1*
X52000Y60500D2*
Y63500D1*
X50150Y68500D2*
Y71500D1*
X51934Y67835D2*
Y71434D1*
X52000Y71500D1*
X61850Y68500D2*
Y71500D1*
X60000Y68500D2*
Y71500D1*
X61850Y60500D2*
Y63500D1*
X60000Y60500D2*
Y63500D1*
X61850Y52500D2*
Y55500D1*
X60000Y52500D2*
Y55500D1*
X61850Y44500D2*
Y47500D1*
X60000Y44500D2*
Y47500D1*
X61850Y36500D2*
Y39500D1*
X60000Y36500D2*
Y39500D1*
X61850Y28500D2*
Y31500D1*
X60000Y28500D2*
Y31500D1*
X61850Y20500D2*
Y23500D1*
X60000Y20500D2*
Y23500D1*
X66150Y20500D2*
Y23500D1*
X68000Y20500D2*
Y23500D1*
X66150Y28500D2*
Y31500D1*
X68000Y28500D2*
Y31500D1*
X66150Y36500D2*
Y39500D1*
X68000Y36500D2*
Y39500D1*
X66150Y44500D2*
Y47500D1*
X68000Y44500D2*
Y47500D1*
X66150Y52500D2*
Y55500D1*
X68000Y52500D2*
Y55500D1*
X66150Y60500D2*
Y63500D1*
X68000Y60500D2*
Y63500D1*
X66150Y68500D2*
Y71500D1*
X68000Y68500D2*
Y71500D1*
X77850Y68500D2*
Y71500D1*
X76000Y68500D2*
Y71500D1*
X77850Y76500D2*
Y77308D1*
X76162Y78996D1*
X68646D1*
X66150Y76500D1*
X68000D2*
Y76709D1*
X69477Y78186D1*
X74314D1*
X76000Y76500D1*
X77850Y60500D2*
Y63500D1*
X76000Y60500D2*
Y63500D1*
X77850Y52500D2*
Y55500D1*
X76000Y52500D2*
Y55500D1*
X77850Y44500D2*
Y47500D1*
X76000Y44500D2*
Y47500D1*
X77850Y36500D2*
Y39500D1*
X76000Y36500D2*
Y39500D1*
X77850Y28500D2*
Y31500D1*
X76000Y28500D2*
Y31500D1*
X77850Y20500D2*
Y23500D1*
X76000Y20500D2*
Y23500D1*
X20000Y76500D2*
Y76785D1*
X21413Y78199D1*
X26302D1*
X28000Y76500D1*
X29850D2*
Y77828D1*
X28281Y79397D1*
X21047D1*
X18150Y76500D1*
X45850D2*
Y77730D1*
X44776Y78804D1*
X36454D1*
X34150Y76500D1*
X36000D2*
Y76619D1*
X37294Y77914D1*
X42586D1*
X44000Y76500D1*
X52000D2*
Y76944D1*
X53089Y78032D1*
X58468D1*
X60000Y76500D1*
X61850D2*
X61806D1*
X59383Y78923D1*
X52573D1*
X50150Y76500D1*
X29850Y15500D2*
X34150D1*
X28000D2*
Y15024D1*
X29130Y13894D1*
X34394D1*
X36000Y15500D1*
X50150D2*
X49721Y15071D1*
X46279D1*
X45850Y15500D1*
X44000D2*
Y15296D1*
X45069Y14227D1*
X50727D1*
X52000Y15500D1*
X26150D2*
D13*
Y16200D1*
X21850Y20500D1*
X23150D1*
X26150Y23500D1*
Y24200D1*
X21850Y28500D1*
X23545D1*
X26150Y31105D1*
Y31500D1*
Y39500D2*
Y40200D1*
X21850Y44500D2*
X22627D1*
X23150D1*
X26150Y47500D1*
Y48200D1*
X21850Y52500D1*
X23150D1*
X26150Y55500D1*
Y56200D1*
X21850Y60500D1*
X23150D1*
X26150Y63500D1*
Y64200D1*
X21850Y68500D1*
X23150D1*
X26150Y71500D1*
Y72200D1*
X23773Y74577D1*
X21850Y76500D1*
X37850D2*
Y75800D1*
X39670Y73980D1*
X42150Y71500D1*
X40850D1*
X37850Y68500D1*
Y67800D1*
X42150Y63500D1*
X40850D1*
X37850Y60500D1*
Y59800D1*
X42150Y55500D1*
X40850D1*
X37850Y52500D1*
Y51800D1*
X42150Y47500D1*
X40850D1*
X37850Y44500D1*
Y43800D1*
X42150Y39500D1*
X40850D1*
X37850Y36500D1*
Y35800D1*
X42150Y31500D1*
X40850D1*
X37850Y28500D1*
Y27800D1*
X42150Y23500D1*
X40850D1*
X37850Y20500D1*
Y19800D1*
X42150Y15500D1*
Y13978D1*
X43006Y13122D1*
X55772D1*
X58150Y15500D1*
Y16200D1*
X53850Y20500D1*
X55150D1*
X58150Y23500D1*
Y24200D1*
X53850Y28500D1*
X55150D1*
X58150Y31500D1*
Y32200D1*
X53850Y36500D1*
X55150D1*
X58150Y39500D1*
Y40200D1*
X53850Y44500D1*
X55150D1*
X58150Y47500D1*
Y48200D1*
X53850Y52500D1*
X55150D1*
X58150Y55500D1*
Y56200D1*
X53850Y60500D1*
X55150D1*
X58150Y63500D1*
Y64200D1*
X53850Y68500D1*
X55150D1*
X58150Y71500D1*
X69850Y76500D2*
Y75800D1*
X71467Y74183D1*
X74150Y71500D1*
X72850D1*
X69850Y68500D1*
Y67800D1*
X74150Y63500D1*
X72850D1*
X69850Y60500D1*
Y59800D1*
X74150Y55500D1*
X72850D1*
X69850Y52500D1*
Y51800D1*
X74150Y47500D1*
X72850D1*
X69850Y44500D1*
Y43800D1*
X74150Y39500D1*
X72850D1*
X69850Y36500D1*
Y35800D1*
X74150Y31500D1*
X72850D1*
X69850Y28500D1*
Y27800D1*
X74150Y23500D1*
X72850D1*
X69850Y20500D1*
Y19319D1*
X73669Y15500D1*
X74150D1*
X26150D2*
Y14942D1*
X28687Y12405D1*
X39055D1*
X42150Y15500D1*
X23863Y74667D2*
X23773Y74577D1*
X56409Y74323D2*
X56350Y74264D1*
X58150Y72464D1*
Y71500D1*
X56409Y74323D2*
X56027D1*
X53850Y76500D1*
X11250Y14190D2*
X10625D1*
Y12453D1*
X23103D1*
X25171Y14521D1*
D15*
X26150Y15500D1*
X82750Y14190D2*
D13*
Y14430D1*
X81135Y12815D1*
X75530D1*
X73669Y14677D1*
Y15500D1*
X82750Y14190D2*
D14*
X83375D1*
X11250D2*
X10625D1*
X23806Y29006D2*
D13*
X23545Y28500D1*
X21850Y36500D2*
D15*
Y35115D1*
D13*
Y35114D1*
X22032Y34932D1*
X22627Y44686D2*
Y44500D1*
X26150Y39500D2*
D15*
Y38772D1*
D13*
X26573Y38349D1*
D27*
X18956Y17991D3*
X47654Y17700D3*
X76959Y26251D3*
X64107Y17939D3*
X23863Y74667D3*
X39690Y74001D3*
X56409Y74323D3*
X71445Y74161D3*
X31653Y17907D3*
X23806Y29006D3*
X22032Y34932D3*
X22627Y44686D3*
X26573Y38349D3*
X16537Y60554D3*
X14150Y28519D3*
X32735Y42632D3*
D22*
X24189Y31951D3*
Y34491D3*
Y37031D3*
Y39571D3*
X11489Y31951D3*
Y34491D3*
Y37031D3*
Y39571D3*
D23*
X10625Y16730D3*
D24*
X11250D3*
D23*
X10625Y14190D3*
Y19270D3*
D24*
X11250D3*
Y14190D3*
D23*
X10625Y21810D3*
D24*
X11250D3*
D22*
X11488Y42110D3*
X24189D3*
D23*
X83375Y16730D3*
D24*
X82750D3*
D23*
X83375Y14190D3*
Y19270D3*
D24*
X82750D3*
Y14190D3*
D23*
X83375Y21810D3*
D24*
X82750D3*
D26*
X18150Y15500D3*
X20000D3*
X21850D3*
Y20500D3*
X20000D3*
X18150D3*
Y23500D3*
X20000D3*
X21850D3*
Y28500D3*
X20000D3*
X18150D3*
Y31500D3*
X20000D3*
X21850D3*
Y36500D3*
X20000D3*
X18150D3*
Y39500D3*
X20000D3*
X21850D3*
Y44500D3*
X20000D3*
X18150D3*
Y47500D3*
X20000D3*
X21850D3*
Y52500D3*
X20000D3*
X18150D3*
Y55500D3*
X20000D3*
X21850D3*
Y60500D3*
X20000D3*
X18150D3*
Y63500D3*
X20000D3*
X21850D3*
Y68500D3*
X20000D3*
X18150D3*
Y71500D3*
X20000D3*
X21850D3*
Y76500D3*
X20000D3*
X18150D3*
X29850D3*
X28000D3*
X26150D3*
Y71500D3*
X28000D3*
X29850D3*
Y68500D3*
X28000D3*
X26150D3*
Y63500D3*
X28000D3*
X29850D3*
Y60500D3*
X28000D3*
X26150D3*
Y55500D3*
X28000D3*
X29850D3*
Y52500D3*
X28000D3*
X26150D3*
Y47500D3*
X28000D3*
X29850D3*
Y44500D3*
X28000D3*
X26150D3*
Y39500D3*
X28000D3*
X29850D3*
Y36500D3*
X28000D3*
X26150D3*
Y31500D3*
X28000D3*
X29850D3*
Y28500D3*
X28000D3*
X26150D3*
Y23500D3*
X28000D3*
X29850D3*
Y20500D3*
X28000D3*
X26150D3*
Y15500D3*
X28000D3*
X29850D3*
X34150D3*
X36000D3*
X37850D3*
Y20500D3*
X36000D3*
X34150D3*
Y23500D3*
X36000D3*
X37850D3*
Y28500D3*
X36000D3*
X34150D3*
Y31500D3*
X36000D3*
X37850D3*
Y36500D3*
X36000D3*
X34150D3*
Y39500D3*
X36000D3*
X37850D3*
Y44500D3*
X36000D3*
X34150D3*
Y47500D3*
X36000D3*
X37850D3*
Y52500D3*
X36000D3*
X34150D3*
Y55500D3*
X36000D3*
X37850D3*
Y60500D3*
X36000D3*
X34150D3*
Y63500D3*
X36000D3*
X37850D3*
Y68500D3*
X36000D3*
X34150D3*
Y71500D3*
X36000D3*
X37850D3*
Y76500D3*
X36000D3*
X34150D3*
X45850D3*
X44000D3*
X42150D3*
Y71500D3*
X44000D3*
X45850D3*
Y68500D3*
X44000D3*
X42150D3*
Y63500D3*
X44000D3*
X45850D3*
Y60500D3*
X44000D3*
X42150D3*
Y55500D3*
X44000D3*
X45850D3*
Y52500D3*
X44000D3*
X42150D3*
Y47500D3*
X44000D3*
X45850D3*
Y44500D3*
X44000D3*
X42150D3*
Y39500D3*
X44000D3*
X45850D3*
Y36500D3*
X44000D3*
X42150D3*
Y31500D3*
X44000D3*
X45850D3*
Y28500D3*
X44000D3*
X42150D3*
Y23500D3*
X44000D3*
X45850D3*
Y20500D3*
X44000D3*
X42150D3*
Y15500D3*
X44000D3*
X45850D3*
X50150D3*
X52000D3*
X53850D3*
Y20500D3*
X52000D3*
X50150D3*
Y23500D3*
X52000D3*
X53850D3*
Y28500D3*
X52000D3*
X50150D3*
Y31500D3*
X52000D3*
X53850D3*
Y36500D3*
X52000D3*
X50150D3*
Y39500D3*
X52000D3*
X53850D3*
Y44500D3*
X52000D3*
X50150D3*
Y47500D3*
X52000D3*
X53850D3*
Y52500D3*
X52000D3*
X50150D3*
Y55500D3*
X52000D3*
X53850D3*
Y60500D3*
X52000D3*
X50150D3*
Y63500D3*
X52000D3*
X53850D3*
Y68500D3*
X52000D3*
X50150D3*
Y71500D3*
X52000D3*
X53850D3*
Y76500D3*
X52000D3*
X50150D3*
X61850D3*
X60000D3*
X58150D3*
Y71500D3*
X60000D3*
X61850D3*
Y68500D3*
X60000D3*
X58150D3*
Y63500D3*
X60000D3*
X61850D3*
Y60500D3*
X60000D3*
X58150D3*
Y55500D3*
X60000D3*
X61850D3*
Y52500D3*
X60000D3*
X58150D3*
Y47500D3*
X60000D3*
X61850D3*
Y44500D3*
X60000D3*
X58150D3*
Y39500D3*
X60000D3*
X61850D3*
Y36500D3*
X60000D3*
X58150D3*
Y31500D3*
X60000D3*
X61850D3*
Y28500D3*
X60000D3*
X58150D3*
Y23500D3*
X60000D3*
X61850D3*
Y20500D3*
X60000D3*
X58150D3*
Y15500D3*
X60000D3*
X61850D3*
X66150D3*
X68000D3*
X69850D3*
Y20500D3*
X68000D3*
X66150D3*
Y23500D3*
X68000D3*
X69850D3*
Y28500D3*
X68000D3*
X66150D3*
Y31500D3*
X68000D3*
X69850D3*
Y36500D3*
X68000D3*
X66150D3*
Y39500D3*
X68000D3*
X69850D3*
Y44500D3*
X68000D3*
X66150D3*
Y47500D3*
X68000D3*
X69850D3*
Y52500D3*
X68000D3*
X66150D3*
Y55500D3*
X68000D3*
X69850D3*
Y60500D3*
X68000D3*
X66150D3*
Y63500D3*
X68000D3*
X69850D3*
Y68500D3*
X68000D3*
X66150D3*
Y71500D3*
X68000D3*
X69850D3*
Y76500D3*
X68000D3*
X66150D3*
X77850D3*
X76000D3*
X74150D3*
Y71500D3*
X76000D3*
X77850D3*
Y68500D3*
X76000D3*
X74150D3*
Y63500D3*
X76000D3*
X77850D3*
Y60500D3*
X76000D3*
X74150D3*
Y55500D3*
X76000D3*
X77850D3*
Y52500D3*
X76000D3*
X74150D3*
Y47500D3*
X76000D3*
X77850D3*
Y44500D3*
X76000D3*
X74150D3*
Y39500D3*
X76000D3*
X77850D3*
Y36500D3*
X76000D3*
X74150D3*
Y31500D3*
X76000D3*
X77850D3*
Y28500D3*
X76000D3*
X74150D3*
Y23500D3*
X76000D3*
X77850D3*
Y20500D3*
X76000D3*
X74150D3*
Y15500D3*
X76000D3*
X77850D3*
M02*
