G04 DipTrace 2.4.0.2*
%IN64xAPA102Crigid.gto*%
%MOMM*%
%ADD10C,0.25*%
%ADD25O,0.925X0.975*%
%ADD34C,0.118*%
%ADD38C,0.157*%
%FSLAX53Y53*%
G04*
G71*
G90*
G75*
G01*
%LNTopSilk*%
%LPD*%
X17500Y20600D2*
D10*
Y18600D1*
X22500Y20600D2*
Y18600D1*
Y17400D2*
Y15400D1*
X17500Y17400D2*
Y15400D1*
D25*
X17138Y15537D3*
X17500Y28600D2*
D10*
Y26600D1*
X22500Y28600D2*
Y26600D1*
Y25400D2*
Y23400D1*
X17500Y25400D2*
Y23400D1*
D25*
X17138Y23537D3*
X17500Y36600D2*
D10*
Y34600D1*
X22500Y36600D2*
Y34600D1*
Y33400D2*
Y31400D1*
X17500Y33400D2*
Y31400D1*
D25*
X17138Y31537D3*
X17500Y44600D2*
D10*
Y42600D1*
X22500Y44600D2*
Y42600D1*
Y41400D2*
Y39400D1*
X17500Y41400D2*
Y39400D1*
D25*
X17138Y39537D3*
X17500Y52600D2*
D10*
Y50600D1*
X22500Y52600D2*
Y50600D1*
Y49400D2*
Y47400D1*
X17500Y49400D2*
Y47400D1*
D25*
X17138Y47537D3*
X17500Y60600D2*
D10*
Y58600D1*
X22500Y60600D2*
Y58600D1*
Y57400D2*
Y55400D1*
X17500Y57400D2*
Y55400D1*
D25*
X17138Y55537D3*
X17500Y68600D2*
D10*
Y66600D1*
X22500Y68600D2*
Y66600D1*
Y65400D2*
Y63400D1*
X17500Y65400D2*
Y63400D1*
D25*
X17138Y63537D3*
X17500Y76600D2*
D10*
Y74600D1*
X22500Y76600D2*
Y74600D1*
Y73400D2*
Y71400D1*
X17500Y73400D2*
Y71400D1*
D25*
X17138Y71537D3*
X30500Y71400D2*
D10*
Y73400D1*
X25500Y71400D2*
Y73400D1*
Y74600D2*
Y76600D1*
X30500Y74600D2*
Y76600D1*
D25*
X30862Y76463D3*
X30500Y63400D2*
D10*
Y65400D1*
X25500Y63400D2*
Y65400D1*
Y66600D2*
Y68600D1*
X30500Y66600D2*
Y68600D1*
D25*
X30862Y68463D3*
X30500Y55400D2*
D10*
Y57400D1*
X25500Y55400D2*
Y57400D1*
Y58600D2*
Y60600D1*
X30500Y58600D2*
Y60600D1*
D25*
X30862Y60463D3*
X30500Y47400D2*
D10*
Y49400D1*
X25500Y47400D2*
Y49400D1*
Y50600D2*
Y52600D1*
X30500Y50600D2*
Y52600D1*
D25*
X30862Y52463D3*
X30500Y39400D2*
D10*
Y41400D1*
X25500Y39400D2*
Y41400D1*
Y42600D2*
Y44600D1*
X30500Y42600D2*
Y44600D1*
D25*
X30862Y44463D3*
X30500Y31400D2*
D10*
Y33400D1*
X25500Y31400D2*
Y33400D1*
Y34600D2*
Y36600D1*
X30500Y34600D2*
Y36600D1*
D25*
X30862Y36463D3*
X30500Y23400D2*
D10*
Y25400D1*
X25500Y23400D2*
Y25400D1*
Y26600D2*
Y28600D1*
X30500Y26600D2*
Y28600D1*
D25*
X30862Y28463D3*
X30500Y15400D2*
D10*
Y17400D1*
X25500Y15400D2*
Y17400D1*
Y18600D2*
Y20600D1*
X30500Y18600D2*
Y20600D1*
D25*
X30862Y20463D3*
X33500Y20600D2*
D10*
Y18600D1*
X38500Y20600D2*
Y18600D1*
Y17400D2*
Y15400D1*
X33500Y17400D2*
Y15400D1*
D25*
X33138Y15537D3*
X33500Y28600D2*
D10*
Y26600D1*
X38500Y28600D2*
Y26600D1*
Y25400D2*
Y23400D1*
X33500Y25400D2*
Y23400D1*
D25*
X33138Y23537D3*
X33500Y36600D2*
D10*
Y34600D1*
X38500Y36600D2*
Y34600D1*
Y33400D2*
Y31400D1*
X33500Y33400D2*
Y31400D1*
D25*
X33138Y31537D3*
X33500Y44600D2*
D10*
Y42600D1*
X38500Y44600D2*
Y42600D1*
Y41400D2*
Y39400D1*
X33500Y41400D2*
Y39400D1*
D25*
X33138Y39537D3*
X33500Y52600D2*
D10*
Y50600D1*
X38500Y52600D2*
Y50600D1*
Y49400D2*
Y47400D1*
X33500Y49400D2*
Y47400D1*
D25*
X33138Y47537D3*
X33500Y60600D2*
D10*
Y58600D1*
X38500Y60600D2*
Y58600D1*
Y57400D2*
Y55400D1*
X33500Y57400D2*
Y55400D1*
D25*
X33138Y55537D3*
X33500Y68600D2*
D10*
Y66600D1*
X38500Y68600D2*
Y66600D1*
Y65400D2*
Y63400D1*
X33500Y65400D2*
Y63400D1*
D25*
X33138Y63537D3*
X33500Y76600D2*
D10*
Y74600D1*
X38500Y76600D2*
Y74600D1*
Y73400D2*
Y71400D1*
X33500Y73400D2*
Y71400D1*
D25*
X33138Y71537D3*
X46500Y71400D2*
D10*
Y73400D1*
X41500Y71400D2*
Y73400D1*
Y74600D2*
Y76600D1*
X46500Y74600D2*
Y76600D1*
D25*
X46862Y76463D3*
X46500Y63400D2*
D10*
Y65400D1*
X41500Y63400D2*
Y65400D1*
Y66600D2*
Y68600D1*
X46500Y66600D2*
Y68600D1*
D25*
X46862Y68463D3*
X46500Y55400D2*
D10*
Y57400D1*
X41500Y55400D2*
Y57400D1*
Y58600D2*
Y60600D1*
X46500Y58600D2*
Y60600D1*
D25*
X46862Y60463D3*
X46500Y47400D2*
D10*
Y49400D1*
X41500Y47400D2*
Y49400D1*
Y50600D2*
Y52600D1*
X46500Y50600D2*
Y52600D1*
D25*
X46862Y52463D3*
X46500Y39400D2*
D10*
Y41400D1*
X41500Y39400D2*
Y41400D1*
Y42600D2*
Y44600D1*
X46500Y42600D2*
Y44600D1*
D25*
X46862Y44463D3*
X46500Y31400D2*
D10*
Y33400D1*
X41500Y31400D2*
Y33400D1*
Y34600D2*
Y36600D1*
X46500Y34600D2*
Y36600D1*
D25*
X46862Y36463D3*
X46500Y23400D2*
D10*
Y25400D1*
X41500Y23400D2*
Y25400D1*
Y26600D2*
Y28600D1*
X46500Y26600D2*
Y28600D1*
D25*
X46862Y28463D3*
X46500Y15400D2*
D10*
Y17400D1*
X41500Y15400D2*
Y17400D1*
Y18600D2*
Y20600D1*
X46500Y18600D2*
Y20600D1*
D25*
X46862Y20463D3*
X49500Y20600D2*
D10*
Y18600D1*
X54500Y20600D2*
Y18600D1*
Y17400D2*
Y15400D1*
X49500Y17400D2*
Y15400D1*
D25*
X49138Y15537D3*
X49500Y28600D2*
D10*
Y26600D1*
X54500Y28600D2*
Y26600D1*
Y25400D2*
Y23400D1*
X49500Y25400D2*
Y23400D1*
D25*
X49138Y23537D3*
X49500Y36600D2*
D10*
Y34600D1*
X54500Y36600D2*
Y34600D1*
Y33400D2*
Y31400D1*
X49500Y33400D2*
Y31400D1*
D25*
X49138Y31537D3*
X49500Y44600D2*
D10*
Y42600D1*
X54500Y44600D2*
Y42600D1*
Y41400D2*
Y39400D1*
X49500Y41400D2*
Y39400D1*
D25*
X49138Y39537D3*
X49500Y52600D2*
D10*
Y50600D1*
X54500Y52600D2*
Y50600D1*
Y49400D2*
Y47400D1*
X49500Y49400D2*
Y47400D1*
D25*
X49138Y47537D3*
X49500Y60600D2*
D10*
Y58600D1*
X54500Y60600D2*
Y58600D1*
Y57400D2*
Y55400D1*
X49500Y57400D2*
Y55400D1*
D25*
X49138Y55537D3*
X49500Y68600D2*
D10*
Y66600D1*
X54500Y68600D2*
Y66600D1*
Y65400D2*
Y63400D1*
X49500Y65400D2*
Y63400D1*
D25*
X49138Y63537D3*
X49500Y76600D2*
D10*
Y74600D1*
X54500Y76600D2*
Y74600D1*
Y73400D2*
Y71400D1*
X49500Y73400D2*
Y71400D1*
D25*
X49138Y71537D3*
X62500Y71400D2*
D10*
Y73400D1*
X57500Y71400D2*
Y73400D1*
Y74600D2*
Y76600D1*
X62500Y74600D2*
Y76600D1*
D25*
X62862Y76463D3*
X62500Y63400D2*
D10*
Y65400D1*
X57500Y63400D2*
Y65400D1*
Y66600D2*
Y68600D1*
X62500Y66600D2*
Y68600D1*
D25*
X62862Y68463D3*
X62500Y55400D2*
D10*
Y57400D1*
X57500Y55400D2*
Y57400D1*
Y58600D2*
Y60600D1*
X62500Y58600D2*
Y60600D1*
D25*
X62862Y60463D3*
X62500Y47400D2*
D10*
Y49400D1*
X57500Y47400D2*
Y49400D1*
Y50600D2*
Y52600D1*
X62500Y50600D2*
Y52600D1*
D25*
X62862Y52463D3*
X62500Y39400D2*
D10*
Y41400D1*
X57500Y39400D2*
Y41400D1*
Y42600D2*
Y44600D1*
X62500Y42600D2*
Y44600D1*
D25*
X62862Y44463D3*
X62500Y31400D2*
D10*
Y33400D1*
X57500Y31400D2*
Y33400D1*
Y34600D2*
Y36600D1*
X62500Y34600D2*
Y36600D1*
D25*
X62862Y36463D3*
X62500Y23400D2*
D10*
Y25400D1*
X57500Y23400D2*
Y25400D1*
Y26600D2*
Y28600D1*
X62500Y26600D2*
Y28600D1*
D25*
X62862Y28463D3*
X62500Y15400D2*
D10*
Y17400D1*
X57500Y15400D2*
Y17400D1*
Y18600D2*
Y20600D1*
X62500Y18600D2*
Y20600D1*
D25*
X62862Y20463D3*
X65500Y20600D2*
D10*
Y18600D1*
X70500Y20600D2*
Y18600D1*
Y17400D2*
Y15400D1*
X65500Y17400D2*
Y15400D1*
D25*
X65138Y15537D3*
X65500Y28600D2*
D10*
Y26600D1*
X70500Y28600D2*
Y26600D1*
Y25400D2*
Y23400D1*
X65500Y25400D2*
Y23400D1*
D25*
X65138Y23537D3*
X65500Y36600D2*
D10*
Y34600D1*
X70500Y36600D2*
Y34600D1*
Y33400D2*
Y31400D1*
X65500Y33400D2*
Y31400D1*
D25*
X65138Y31537D3*
X65500Y44600D2*
D10*
Y42600D1*
X70500Y44600D2*
Y42600D1*
Y41400D2*
Y39400D1*
X65500Y41400D2*
Y39400D1*
D25*
X65138Y39537D3*
X65500Y52600D2*
D10*
Y50600D1*
X70500Y52600D2*
Y50600D1*
Y49400D2*
Y47400D1*
X65500Y49400D2*
Y47400D1*
D25*
X65138Y47537D3*
X65500Y60600D2*
D10*
Y58600D1*
X70500Y60600D2*
Y58600D1*
Y57400D2*
Y55400D1*
X65500Y57400D2*
Y55400D1*
D25*
X65138Y55537D3*
X65500Y68600D2*
D10*
Y66600D1*
X70500Y68600D2*
Y66600D1*
Y65400D2*
Y63400D1*
X65500Y65400D2*
Y63400D1*
D25*
X65138Y63537D3*
X65500Y76600D2*
D10*
Y74600D1*
X70500Y76600D2*
Y74600D1*
Y73400D2*
Y71400D1*
X65500Y73400D2*
Y71400D1*
D25*
X65138Y71537D3*
X78500Y71400D2*
D10*
Y73400D1*
X73500Y71400D2*
Y73400D1*
Y74600D2*
Y76600D1*
X78500Y74600D2*
Y76600D1*
D25*
X78862Y76463D3*
X78500Y63400D2*
D10*
Y65400D1*
X73500Y63400D2*
Y65400D1*
Y66600D2*
Y68600D1*
X78500Y66600D2*
Y68600D1*
D25*
X78862Y68463D3*
X78500Y55400D2*
D10*
Y57400D1*
X73500Y55400D2*
Y57400D1*
Y58600D2*
Y60600D1*
X78500Y58600D2*
Y60600D1*
D25*
X78862Y60463D3*
X78500Y47400D2*
D10*
Y49400D1*
X73500Y47400D2*
Y49400D1*
Y50600D2*
Y52600D1*
X78500Y50600D2*
Y52600D1*
D25*
X78862Y52463D3*
X78500Y39400D2*
D10*
Y41400D1*
X73500Y39400D2*
Y41400D1*
Y42600D2*
Y44600D1*
X78500Y42600D2*
Y44600D1*
D25*
X78862Y44463D3*
X78500Y31400D2*
D10*
Y33400D1*
X73500Y31400D2*
Y33400D1*
Y34600D2*
Y36600D1*
X78500Y34600D2*
Y36600D1*
D25*
X78862Y36463D3*
X78500Y23400D2*
D10*
Y25400D1*
X73500Y23400D2*
Y25400D1*
Y26600D2*
Y28600D1*
X78500Y26600D2*
Y28600D1*
D25*
X78862Y28463D3*
X78500Y15400D2*
D10*
Y17400D1*
X73500Y15400D2*
Y17400D1*
Y18600D2*
Y20600D1*
X78500Y18600D2*
Y20600D1*
D25*
X78862Y20463D3*
X11692Y23926D2*
D34*
Y23160D1*
X12139Y23926D2*
Y23160D1*
X11833Y23926D1*
Y23160D1*
X81577Y23926D2*
X81533Y23890D1*
X81490Y23816D1*
X81467Y23744D1*
X81446Y23634D1*
Y23452D1*
X81467Y23343D1*
X81490Y23270D1*
X81533Y23197D1*
X81577Y23160D1*
X81664D1*
X81708Y23197D1*
X81752Y23270D1*
X81774Y23343D1*
X81795Y23452D1*
Y23634D1*
X81774Y23744D1*
X81752Y23816D1*
X81708Y23890D1*
X81664Y23926D1*
X81577D1*
X81936D2*
Y23379D1*
X81958Y23270D1*
X82002Y23197D1*
X82068Y23160D1*
X82111D1*
X82177Y23197D1*
X82221Y23270D1*
X82243Y23379D1*
Y23926D1*
X82537D2*
Y23160D1*
X82384Y23926D2*
X82690D1*
X19309Y22366D2*
Y21819D1*
X19331Y21710D1*
X19375Y21637D1*
X19440Y21600D1*
X19484D1*
X19550Y21637D1*
X19593Y21710D1*
X19615Y21819D1*
Y22366D1*
X19756Y22219D2*
X19800Y22256D1*
X19866Y22365D1*
Y21600D1*
X19211Y30366D2*
Y29819D1*
X19232Y29710D1*
X19276Y29637D1*
X19342Y29600D1*
X19386D1*
X19451Y29637D1*
X19495Y29710D1*
X19517Y29819D1*
Y30366D1*
X19680Y30183D2*
Y30219D1*
X19702Y30293D1*
X19724Y30329D1*
X19768Y30365D1*
X19855D1*
X19899Y30329D1*
X19920Y30293D1*
X19943Y30219D1*
Y30147D1*
X19920Y30074D1*
X19877Y29965D1*
X19658Y29600D1*
X19964D1*
X19211Y38366D2*
Y37819D1*
X19232Y37710D1*
X19276Y37637D1*
X19342Y37600D1*
X19386D1*
X19451Y37637D1*
X19495Y37710D1*
X19517Y37819D1*
Y38366D1*
X19702Y38365D2*
X19942D1*
X19811Y38074D1*
X19877D1*
X19920Y38037D1*
X19942Y38001D1*
X19964Y37892D1*
Y37819D1*
X19942Y37710D1*
X19899Y37636D1*
X19833Y37600D1*
X19767D1*
X19702Y37636D1*
X19680Y37674D1*
X19658Y37746D1*
X19200Y46366D2*
Y45819D1*
X19222Y45710D1*
X19265Y45637D1*
X19331Y45600D1*
X19375D1*
X19440Y45637D1*
X19484Y45710D1*
X19506Y45819D1*
Y46366D1*
X19866Y45600D2*
Y46365D1*
X19647Y45855D1*
X19975D1*
X19211Y54366D2*
Y53819D1*
X19232Y53710D1*
X19276Y53637D1*
X19342Y53600D1*
X19386D1*
X19451Y53637D1*
X19495Y53710D1*
X19517Y53819D1*
Y54366D1*
X19920Y54365D2*
X19702D1*
X19680Y54037D1*
X19702Y54074D1*
X19768Y54111D1*
X19833D1*
X19899Y54074D1*
X19943Y54001D1*
X19964Y53892D1*
Y53819D1*
X19943Y53710D1*
X19899Y53636D1*
X19833Y53600D1*
X19768D1*
X19702Y53636D1*
X19680Y53674D1*
X19658Y53746D1*
X19222Y62366D2*
Y61819D1*
X19243Y61710D1*
X19287Y61637D1*
X19353Y61600D1*
X19397D1*
X19462Y61637D1*
X19506Y61710D1*
X19528Y61819D1*
Y62366D1*
X19932Y62256D2*
X19910Y62329D1*
X19844Y62365D1*
X19801D1*
X19735Y62329D1*
X19691Y62219D1*
X19669Y62037D1*
Y61855D1*
X19691Y61710D1*
X19735Y61636D1*
X19801Y61600D1*
X19822D1*
X19888Y61636D1*
X19932Y61710D1*
X19953Y61819D1*
Y61855D1*
X19932Y61965D1*
X19888Y62037D1*
X19822Y62074D1*
X19801D1*
X19735Y62037D1*
X19691Y61965D1*
X19669Y61855D1*
X19211Y70366D2*
Y69819D1*
X19232Y69710D1*
X19276Y69637D1*
X19342Y69600D1*
X19386D1*
X19451Y69637D1*
X19495Y69710D1*
X19517Y69819D1*
Y70366D1*
X19746Y69600D2*
X19964Y70365D1*
X19658D1*
X19211Y78366D2*
Y77819D1*
X19233Y77710D1*
X19277Y77637D1*
X19342Y77600D1*
X19386D1*
X19451Y77637D1*
X19495Y77710D1*
X19517Y77819D1*
Y78366D1*
X19768Y78365D2*
X19702Y78329D1*
X19680Y78256D1*
Y78183D1*
X19702Y78111D1*
X19746Y78074D1*
X19833Y78037D1*
X19899Y78001D1*
X19942Y77928D1*
X19964Y77855D1*
Y77746D1*
X19942Y77674D1*
X19921Y77636D1*
X19855Y77600D1*
X19768D1*
X19702Y77636D1*
X19680Y77674D1*
X19658Y77746D1*
Y77855D1*
X19680Y77928D1*
X19724Y78001D1*
X19789Y78037D1*
X19877Y78074D1*
X19921Y78111D1*
X19942Y78183D1*
Y78256D1*
X19921Y78329D1*
X19855Y78365D1*
X19768D1*
X28047Y78366D2*
Y77819D1*
X28068Y77710D1*
X28112Y77637D1*
X28178Y77600D1*
X28221D1*
X28287Y77637D1*
X28331Y77710D1*
X28353Y77819D1*
Y78366D1*
X28778Y78111D2*
X28756Y78001D1*
X28713Y77928D1*
X28647Y77892D1*
X28625D1*
X28560Y77928D1*
X28516Y78001D1*
X28494Y78111D1*
Y78147D1*
X28516Y78256D1*
X28560Y78329D1*
X28625Y78365D1*
X28647D1*
X28713Y78329D1*
X28756Y78256D1*
X28778Y78111D1*
Y77928D1*
X28756Y77746D1*
X28713Y77636D1*
X28647Y77600D1*
X28604D1*
X28538Y77636D1*
X28516Y77710D1*
X27910Y70366D2*
Y69819D1*
X27932Y69710D1*
X27976Y69637D1*
X28042Y69600D1*
X28085D1*
X28151Y69637D1*
X28195Y69710D1*
X28216Y69819D1*
Y70366D1*
X28358Y70219D2*
X28402Y70256D1*
X28467Y70365D1*
Y69600D1*
X28740Y70365D2*
X28674Y70329D1*
X28630Y70219D1*
X28609Y70037D1*
Y69928D1*
X28630Y69746D1*
X28674Y69636D1*
X28740Y69600D1*
X28783D1*
X28849Y69636D1*
X28893Y69746D1*
X28915Y69928D1*
Y70037D1*
X28893Y70219D1*
X28849Y70329D1*
X28783Y70365D1*
X28740D1*
X28893Y70219D2*
X28630Y69746D1*
X28009Y62366D2*
Y61819D1*
X28030Y61710D1*
X28074Y61637D1*
X28140Y61600D1*
X28183D1*
X28249Y61637D1*
X28293Y61710D1*
X28315Y61819D1*
Y62366D1*
X28456Y62219D2*
X28500Y62256D1*
X28566Y62365D1*
Y61600D1*
X28707Y62219D2*
X28751Y62256D1*
X28816Y62365D1*
Y61600D1*
X27910Y54366D2*
Y53819D1*
X27932Y53710D1*
X27976Y53637D1*
X28042Y53600D1*
X28085D1*
X28151Y53637D1*
X28195Y53710D1*
X28216Y53819D1*
Y54366D1*
X28358Y54219D2*
X28402Y54256D1*
X28467Y54365D1*
Y53600D1*
X28631Y54183D2*
Y54219D1*
X28652Y54293D1*
X28674Y54329D1*
X28718Y54365D1*
X28806D1*
X28849Y54329D1*
X28871Y54293D1*
X28893Y54219D1*
Y54147D1*
X28871Y54074D1*
X28827Y53965D1*
X28609Y53600D1*
X28915D1*
X27910Y46366D2*
Y45819D1*
X27932Y45710D1*
X27976Y45637D1*
X28042Y45600D1*
X28085D1*
X28151Y45637D1*
X28195Y45710D1*
X28216Y45819D1*
Y46366D1*
X28358Y46219D2*
X28402Y46256D1*
X28467Y46365D1*
Y45600D1*
X28652Y46365D2*
X28893D1*
X28762Y46074D1*
X28827D1*
X28871Y46037D1*
X28893Y46001D1*
X28915Y45892D1*
Y45819D1*
X28893Y45710D1*
X28849Y45636D1*
X28783Y45600D1*
X28718D1*
X28652Y45636D1*
X28631Y45674D1*
X28609Y45746D1*
X27899Y38366D2*
Y37819D1*
X27921Y37710D1*
X27965Y37637D1*
X28031Y37600D1*
X28074D1*
X28140Y37637D1*
X28184Y37710D1*
X28206Y37819D1*
Y38366D1*
X28347Y38219D2*
X28391Y38256D1*
X28456Y38365D1*
Y37600D1*
X28816D2*
Y38365D1*
X28598Y37855D1*
X28926D1*
X27910Y30366D2*
Y29819D1*
X27932Y29710D1*
X27976Y29637D1*
X28042Y29600D1*
X28085D1*
X28151Y29637D1*
X28195Y29710D1*
X28216Y29819D1*
Y30366D1*
X28358Y30219D2*
X28402Y30256D1*
X28467Y30365D1*
Y29600D1*
X28871Y30365D2*
X28652D1*
X28631Y30037D1*
X28652Y30074D1*
X28718Y30111D1*
X28783D1*
X28849Y30074D1*
X28893Y30001D1*
X28915Y29892D1*
Y29819D1*
X28893Y29710D1*
X28849Y29636D1*
X28783Y29600D1*
X28718D1*
X28652Y29636D1*
X28631Y29674D1*
X28609Y29746D1*
X27921Y22366D2*
Y21819D1*
X27943Y21710D1*
X27987Y21637D1*
X28053Y21600D1*
X28096D1*
X28162Y21637D1*
X28206Y21710D1*
X28228Y21819D1*
Y22366D1*
X28369Y22219D2*
X28413Y22256D1*
X28478Y22365D1*
Y21600D1*
X28882Y22256D2*
X28860Y22329D1*
X28794Y22365D1*
X28751D1*
X28685Y22329D1*
X28641Y22219D1*
X28620Y22037D1*
Y21855D1*
X28641Y21710D1*
X28685Y21636D1*
X28751Y21600D1*
X28773D1*
X28838Y21636D1*
X28882Y21710D1*
X28904Y21819D1*
Y21855D1*
X28882Y21965D1*
X28838Y22037D1*
X28773Y22074D1*
X28751D1*
X28685Y22037D1*
X28641Y21965D1*
X28620Y21855D1*
X35085Y22366D2*
Y21819D1*
X35107Y21710D1*
X35151Y21637D1*
X35217Y21600D1*
X35260D1*
X35326Y21637D1*
X35370Y21710D1*
X35391Y21819D1*
Y22366D1*
X35533Y22219D2*
X35577Y22256D1*
X35642Y22365D1*
Y21600D1*
X35871D2*
X36090Y22365D1*
X35784D1*
X35085Y30366D2*
Y29819D1*
X35107Y29710D1*
X35151Y29637D1*
X35217Y29600D1*
X35260D1*
X35326Y29637D1*
X35370Y29710D1*
X35392Y29819D1*
Y30366D1*
X35533Y30219D2*
X35577Y30256D1*
X35643Y30365D1*
Y29600D1*
X35893Y30365D2*
X35828Y30329D1*
X35805Y30256D1*
Y30183D1*
X35828Y30111D1*
X35871Y30074D1*
X35959Y30037D1*
X36024Y30001D1*
X36068Y29928D1*
X36090Y29855D1*
Y29746D1*
X36068Y29674D1*
X36046Y29636D1*
X35980Y29600D1*
X35893D1*
X35828Y29636D1*
X35805Y29674D1*
X35784Y29746D1*
Y29855D1*
X35805Y29928D1*
X35849Y30001D1*
X35915Y30037D1*
X36002Y30074D1*
X36046Y30111D1*
X36068Y30183D1*
Y30256D1*
X36046Y30329D1*
X35980Y30365D1*
X35893D1*
X35096Y38366D2*
Y37819D1*
X35118Y37710D1*
X35162Y37637D1*
X35227Y37600D1*
X35271D1*
X35337Y37637D1*
X35381Y37710D1*
X35402Y37819D1*
Y38366D1*
X35544Y38219D2*
X35587Y38256D1*
X35653Y38365D1*
Y37600D1*
X36079Y38111D2*
X36057Y38001D1*
X36013Y37928D1*
X35948Y37892D1*
X35926D1*
X35860Y37928D1*
X35817Y38001D1*
X35794Y38111D1*
Y38147D1*
X35817Y38256D1*
X35860Y38329D1*
X35926Y38365D1*
X35948D1*
X36013Y38329D1*
X36057Y38256D1*
X36079Y38111D1*
Y37928D1*
X36057Y37746D1*
X36013Y37636D1*
X35948Y37600D1*
X35904D1*
X35838Y37636D1*
X35817Y37710D1*
X34987Y46366D2*
Y45819D1*
X35009Y45710D1*
X35053Y45637D1*
X35118Y45600D1*
X35162D1*
X35227Y45637D1*
X35271Y45710D1*
X35293Y45819D1*
Y46366D1*
X35457Y46183D2*
Y46219D1*
X35478Y46293D1*
X35500Y46329D1*
X35544Y46365D1*
X35631D1*
X35675Y46329D1*
X35697Y46293D1*
X35719Y46219D1*
Y46147D1*
X35697Y46074D1*
X35653Y45965D1*
X35434Y45600D1*
X35741D1*
X36013Y46365D2*
X35948Y46329D1*
X35904Y46219D1*
X35882Y46037D1*
Y45928D1*
X35904Y45746D1*
X35948Y45636D1*
X36013Y45600D1*
X36057D1*
X36122Y45636D1*
X36166Y45746D1*
X36188Y45928D1*
Y46037D1*
X36166Y46219D1*
X36122Y46329D1*
X36057Y46365D1*
X36013D1*
X36166Y46219D2*
X35904Y45746D1*
X35085Y54366D2*
Y53819D1*
X35107Y53710D1*
X35151Y53637D1*
X35217Y53600D1*
X35260D1*
X35326Y53637D1*
X35370Y53710D1*
X35391Y53819D1*
Y54366D1*
X35555Y54183D2*
Y54219D1*
X35577Y54293D1*
X35598Y54329D1*
X35642Y54365D1*
X35730D1*
X35773Y54329D1*
X35795Y54293D1*
X35817Y54219D1*
Y54147D1*
X35795Y54074D1*
X35751Y53965D1*
X35533Y53600D1*
X35839D1*
X35980Y54219D2*
X36024Y54256D1*
X36090Y54365D1*
Y53600D1*
X34987Y62366D2*
Y61819D1*
X35009Y61710D1*
X35053Y61637D1*
X35118Y61600D1*
X35162D1*
X35227Y61637D1*
X35271Y61710D1*
X35293Y61819D1*
Y62366D1*
X35457Y62183D2*
Y62219D1*
X35478Y62293D1*
X35500Y62329D1*
X35544Y62365D1*
X35631D1*
X35675Y62329D1*
X35697Y62293D1*
X35719Y62219D1*
Y62147D1*
X35697Y62074D1*
X35653Y61965D1*
X35434Y61600D1*
X35741D1*
X35904Y62183D2*
Y62219D1*
X35926Y62293D1*
X35948Y62329D1*
X35991Y62365D1*
X36079D1*
X36122Y62329D1*
X36144Y62293D1*
X36166Y62219D1*
Y62147D1*
X36144Y62074D1*
X36101Y61965D1*
X35882Y61600D1*
X36188D1*
X34987Y70366D2*
Y69819D1*
X35009Y69710D1*
X35053Y69637D1*
X35118Y69600D1*
X35162D1*
X35227Y69637D1*
X35271Y69710D1*
X35293Y69819D1*
Y70366D1*
X35457Y70183D2*
Y70219D1*
X35478Y70293D1*
X35500Y70329D1*
X35544Y70365D1*
X35631D1*
X35675Y70329D1*
X35697Y70293D1*
X35719Y70219D1*
Y70147D1*
X35697Y70074D1*
X35653Y69965D1*
X35434Y69600D1*
X35741D1*
X35926Y70365D2*
X36166D1*
X36035Y70074D1*
X36101D1*
X36144Y70037D1*
X36166Y70001D1*
X36188Y69892D1*
Y69819D1*
X36166Y69710D1*
X36122Y69636D1*
X36057Y69600D1*
X35991D1*
X35926Y69636D1*
X35904Y69674D1*
X35882Y69746D1*
X34976Y78366D2*
Y77819D1*
X34998Y77710D1*
X35042Y77637D1*
X35107Y77600D1*
X35151D1*
X35217Y77637D1*
X35261Y77710D1*
X35282Y77819D1*
Y78366D1*
X35446Y78183D2*
Y78219D1*
X35467Y78293D1*
X35489Y78329D1*
X35533Y78365D1*
X35621D1*
X35664Y78329D1*
X35686Y78293D1*
X35708Y78219D1*
Y78147D1*
X35686Y78074D1*
X35642Y77965D1*
X35424Y77600D1*
X35730D1*
X36090D2*
Y78365D1*
X35871Y77855D1*
X36199D1*
X43812Y78366D2*
Y77819D1*
X43834Y77710D1*
X43878Y77637D1*
X43943Y77600D1*
X43987D1*
X44052Y77637D1*
X44096Y77710D1*
X44118Y77819D1*
Y78366D1*
X44282Y78183D2*
Y78219D1*
X44303Y78293D1*
X44325Y78329D1*
X44369Y78365D1*
X44456D1*
X44500Y78329D1*
X44522Y78293D1*
X44544Y78219D1*
Y78147D1*
X44522Y78074D1*
X44478Y77965D1*
X44259Y77600D1*
X44566D1*
X44969Y78365D2*
X44751D1*
X44729Y78037D1*
X44751Y78074D1*
X44816Y78111D1*
X44882D1*
X44947Y78074D1*
X44991Y78001D1*
X45013Y77892D1*
Y77819D1*
X44991Y77710D1*
X44947Y77636D1*
X44882Y77600D1*
X44816D1*
X44751Y77636D1*
X44729Y77674D1*
X44707Y77746D1*
X43823Y70366D2*
Y69819D1*
X43845Y69710D1*
X43889Y69637D1*
X43954Y69600D1*
X43998D1*
X44064Y69637D1*
X44108Y69710D1*
X44129Y69819D1*
Y70366D1*
X44293Y70183D2*
Y70219D1*
X44314Y70293D1*
X44336Y70329D1*
X44380Y70365D1*
X44468D1*
X44511Y70329D1*
X44533Y70293D1*
X44555Y70219D1*
Y70147D1*
X44533Y70074D1*
X44489Y69965D1*
X44270Y69600D1*
X44577D1*
X44980Y70256D2*
X44958Y70329D1*
X44893Y70365D1*
X44849D1*
X44784Y70329D1*
X44740Y70219D1*
X44718Y70037D1*
Y69855D1*
X44740Y69710D1*
X44784Y69636D1*
X44849Y69600D1*
X44871D1*
X44936Y69636D1*
X44980Y69710D1*
X45002Y69819D1*
Y69855D1*
X44980Y69965D1*
X44936Y70037D1*
X44871Y70074D1*
X44849D1*
X44784Y70037D1*
X44740Y69965D1*
X44718Y69855D1*
X43812Y62366D2*
Y61819D1*
X43834Y61710D1*
X43878Y61637D1*
X43943Y61600D1*
X43987D1*
X44052Y61637D1*
X44096Y61710D1*
X44118Y61819D1*
Y62366D1*
X44282Y62183D2*
Y62219D1*
X44303Y62293D1*
X44325Y62329D1*
X44369Y62365D1*
X44456D1*
X44500Y62329D1*
X44522Y62293D1*
X44544Y62219D1*
Y62147D1*
X44522Y62074D1*
X44478Y61965D1*
X44259Y61600D1*
X44566D1*
X44794D2*
X45013Y62365D1*
X44707D1*
X43812Y54366D2*
Y53819D1*
X43834Y53710D1*
X43878Y53637D1*
X43944Y53600D1*
X43987D1*
X44053Y53637D1*
X44097Y53710D1*
X44118Y53819D1*
Y54366D1*
X44282Y54183D2*
Y54219D1*
X44304Y54293D1*
X44325Y54329D1*
X44369Y54365D1*
X44457D1*
X44500Y54329D1*
X44522Y54293D1*
X44544Y54219D1*
Y54147D1*
X44522Y54074D1*
X44478Y53965D1*
X44260Y53600D1*
X44566D1*
X44816Y54365D2*
X44751Y54329D1*
X44729Y54256D1*
Y54183D1*
X44751Y54111D1*
X44794Y54074D1*
X44882Y54037D1*
X44948Y54001D1*
X44991Y53928D1*
X45013Y53855D1*
Y53746D1*
X44991Y53674D1*
X44969Y53636D1*
X44904Y53600D1*
X44816D1*
X44751Y53636D1*
X44729Y53674D1*
X44707Y53746D1*
Y53855D1*
X44729Y53928D1*
X44773Y54001D1*
X44838Y54037D1*
X44925Y54074D1*
X44969Y54111D1*
X44991Y54183D1*
Y54256D1*
X44969Y54329D1*
X44904Y54365D1*
X44816D1*
X43823Y46366D2*
Y45819D1*
X43845Y45710D1*
X43888Y45637D1*
X43954Y45600D1*
X43998D1*
X44063Y45637D1*
X44107Y45710D1*
X44129Y45819D1*
Y46366D1*
X44292Y46183D2*
Y46219D1*
X44314Y46293D1*
X44336Y46329D1*
X44380Y46365D1*
X44467D1*
X44511Y46329D1*
X44533Y46293D1*
X44555Y46219D1*
Y46147D1*
X44533Y46074D1*
X44489Y45965D1*
X44270Y45600D1*
X44576D1*
X45002Y46111D2*
X44980Y46001D1*
X44937Y45928D1*
X44871Y45892D1*
X44849D1*
X44783Y45928D1*
X44740Y46001D1*
X44718Y46111D1*
Y46147D1*
X44740Y46256D1*
X44783Y46329D1*
X44849Y46365D1*
X44871D1*
X44937Y46329D1*
X44980Y46256D1*
X45002Y46111D1*
Y45928D1*
X44980Y45746D1*
X44937Y45636D1*
X44871Y45600D1*
X44827D1*
X44762Y45636D1*
X44740Y45710D1*
X43812Y38366D2*
Y37819D1*
X43834Y37710D1*
X43878Y37637D1*
X43943Y37600D1*
X43987D1*
X44052Y37637D1*
X44096Y37710D1*
X44118Y37819D1*
Y38366D1*
X44303Y38365D2*
X44543D1*
X44413Y38074D1*
X44478D1*
X44522Y38037D1*
X44543Y38001D1*
X44566Y37892D1*
Y37819D1*
X44543Y37710D1*
X44500Y37636D1*
X44434Y37600D1*
X44369D1*
X44303Y37636D1*
X44282Y37674D1*
X44259Y37746D1*
X44838Y38365D2*
X44773Y38329D1*
X44729Y38219D1*
X44707Y38037D1*
Y37928D1*
X44729Y37746D1*
X44773Y37636D1*
X44838Y37600D1*
X44882D1*
X44947Y37636D1*
X44991Y37746D1*
X45013Y37928D1*
Y38037D1*
X44991Y38219D1*
X44947Y38329D1*
X44882Y38365D1*
X44838D1*
X44991Y38219D2*
X44729Y37746D1*
X43910Y30366D2*
Y29819D1*
X43932Y29710D1*
X43976Y29637D1*
X44042Y29600D1*
X44085D1*
X44151Y29637D1*
X44195Y29710D1*
X44216Y29819D1*
Y30366D1*
X44402Y30365D2*
X44642D1*
X44511Y30074D1*
X44576D1*
X44620Y30037D1*
X44642Y30001D1*
X44664Y29892D1*
Y29819D1*
X44642Y29710D1*
X44598Y29636D1*
X44533Y29600D1*
X44467D1*
X44402Y29636D1*
X44380Y29674D1*
X44358Y29746D1*
X44805Y30219D2*
X44849Y30256D1*
X44915Y30365D1*
Y29600D1*
X43812Y22366D2*
Y21819D1*
X43834Y21710D1*
X43878Y21637D1*
X43943Y21600D1*
X43987D1*
X44052Y21637D1*
X44096Y21710D1*
X44118Y21819D1*
Y22366D1*
X44303Y22365D2*
X44543D1*
X44413Y22074D1*
X44478D1*
X44522Y22037D1*
X44543Y22001D1*
X44566Y21892D1*
Y21819D1*
X44543Y21710D1*
X44500Y21636D1*
X44434Y21600D1*
X44369D1*
X44303Y21636D1*
X44282Y21674D1*
X44259Y21746D1*
X44729Y22183D2*
Y22219D1*
X44751Y22293D1*
X44773Y22329D1*
X44816Y22365D1*
X44904D1*
X44947Y22329D1*
X44969Y22293D1*
X44991Y22219D1*
Y22147D1*
X44969Y22074D1*
X44926Y21965D1*
X44707Y21600D1*
X45013D1*
X50987Y22366D2*
Y21819D1*
X51009Y21710D1*
X51053Y21637D1*
X51118Y21600D1*
X51162D1*
X51227Y21637D1*
X51271Y21710D1*
X51293Y21819D1*
Y22366D1*
X51478Y22365D2*
X51718D1*
X51587Y22074D1*
X51653D1*
X51697Y22037D1*
X51718Y22001D1*
X51741Y21892D1*
Y21819D1*
X51718Y21710D1*
X51675Y21636D1*
X51609Y21600D1*
X51544D1*
X51478Y21636D1*
X51457Y21674D1*
X51434Y21746D1*
X51926Y22365D2*
X52166D1*
X52035Y22074D1*
X52101D1*
X52144Y22037D1*
X52166Y22001D1*
X52188Y21892D1*
Y21819D1*
X52166Y21710D1*
X52122Y21636D1*
X52057Y21600D1*
X51991D1*
X51926Y21636D1*
X51904Y21674D1*
X51882Y21746D1*
X50976Y30366D2*
Y29819D1*
X50998Y29710D1*
X51042Y29637D1*
X51107Y29600D1*
X51151D1*
X51217Y29637D1*
X51261Y29710D1*
X51282Y29819D1*
Y30366D1*
X51467Y30365D2*
X51708D1*
X51577Y30074D1*
X51642D1*
X51686Y30037D1*
X51708Y30001D1*
X51730Y29892D1*
Y29819D1*
X51708Y29710D1*
X51664Y29636D1*
X51598Y29600D1*
X51533D1*
X51467Y29636D1*
X51446Y29674D1*
X51424Y29746D1*
X52090Y29600D2*
Y30365D1*
X51871Y29855D1*
X52199D1*
X50987Y38366D2*
Y37819D1*
X51009Y37710D1*
X51053Y37637D1*
X51118Y37600D1*
X51162D1*
X51227Y37637D1*
X51271Y37710D1*
X51293Y37819D1*
Y38366D1*
X51478Y38365D2*
X51718D1*
X51587Y38074D1*
X51653D1*
X51697Y38037D1*
X51718Y38001D1*
X51741Y37892D1*
Y37819D1*
X51718Y37710D1*
X51675Y37636D1*
X51609Y37600D1*
X51544D1*
X51478Y37636D1*
X51457Y37674D1*
X51434Y37746D1*
X52144Y38365D2*
X51926D1*
X51904Y38037D1*
X51926Y38074D1*
X51991Y38111D1*
X52057D1*
X52122Y38074D1*
X52166Y38001D1*
X52188Y37892D1*
Y37819D1*
X52166Y37710D1*
X52122Y37636D1*
X52057Y37600D1*
X51991D1*
X51926Y37636D1*
X51904Y37674D1*
X51882Y37746D1*
X50998Y46366D2*
Y45819D1*
X51020Y45710D1*
X51064Y45637D1*
X51129Y45600D1*
X51173D1*
X51239Y45637D1*
X51283Y45710D1*
X51304Y45819D1*
Y46366D1*
X51489Y46365D2*
X51730D1*
X51599Y46074D1*
X51664D1*
X51708Y46037D1*
X51730Y46001D1*
X51752Y45892D1*
Y45819D1*
X51730Y45710D1*
X51686Y45636D1*
X51620Y45600D1*
X51555D1*
X51489Y45636D1*
X51468Y45674D1*
X51445Y45746D1*
X52155Y46256D2*
X52133Y46329D1*
X52068Y46365D1*
X52024D1*
X51959Y46329D1*
X51915Y46219D1*
X51893Y46037D1*
Y45855D1*
X51915Y45710D1*
X51959Y45636D1*
X52024Y45600D1*
X52046D1*
X52111Y45636D1*
X52155Y45710D1*
X52177Y45819D1*
Y45855D1*
X52155Y45965D1*
X52111Y46037D1*
X52046Y46074D1*
X52024D1*
X51959Y46037D1*
X51915Y45965D1*
X51893Y45855D1*
X50987Y54366D2*
Y53819D1*
X51009Y53710D1*
X51053Y53637D1*
X51118Y53600D1*
X51162D1*
X51227Y53637D1*
X51271Y53710D1*
X51293Y53819D1*
Y54366D1*
X51478Y54365D2*
X51718D1*
X51587Y54074D1*
X51653D1*
X51697Y54037D1*
X51718Y54001D1*
X51741Y53892D1*
Y53819D1*
X51718Y53710D1*
X51675Y53636D1*
X51609Y53600D1*
X51544D1*
X51478Y53636D1*
X51457Y53674D1*
X51434Y53746D1*
X51969Y53600D2*
X52188Y54365D1*
X51882D1*
X50987Y62366D2*
Y61819D1*
X51009Y61710D1*
X51053Y61637D1*
X51119Y61600D1*
X51162D1*
X51228Y61637D1*
X51272Y61710D1*
X51293Y61819D1*
Y62366D1*
X51479Y62365D2*
X51719D1*
X51588Y62074D1*
X51653D1*
X51697Y62037D1*
X51719Y62001D1*
X51741Y61892D1*
Y61819D1*
X51719Y61710D1*
X51675Y61636D1*
X51609Y61600D1*
X51544D1*
X51479Y61636D1*
X51457Y61674D1*
X51435Y61746D1*
X51991Y62365D2*
X51926Y62329D1*
X51904Y62256D1*
Y62183D1*
X51926Y62111D1*
X51969Y62074D1*
X52057Y62037D1*
X52123Y62001D1*
X52166Y61928D1*
X52188Y61855D1*
Y61746D1*
X52166Y61674D1*
X52144Y61636D1*
X52079Y61600D1*
X51991D1*
X51926Y61636D1*
X51904Y61674D1*
X51882Y61746D1*
Y61855D1*
X51904Y61928D1*
X51948Y62001D1*
X52013Y62037D1*
X52100Y62074D1*
X52144Y62111D1*
X52166Y62183D1*
Y62256D1*
X52144Y62329D1*
X52079Y62365D1*
X51991D1*
X50998Y70366D2*
Y69819D1*
X51020Y69710D1*
X51063Y69637D1*
X51129Y69600D1*
X51173D1*
X51238Y69637D1*
X51282Y69710D1*
X51304Y69819D1*
Y70366D1*
X51489Y70365D2*
X51729D1*
X51598Y70074D1*
X51664D1*
X51708Y70037D1*
X51729Y70001D1*
X51751Y69892D1*
Y69819D1*
X51729Y69710D1*
X51686Y69636D1*
X51620Y69600D1*
X51554D1*
X51489Y69636D1*
X51467Y69674D1*
X51445Y69746D1*
X52177Y70111D2*
X52155Y70001D1*
X52112Y69928D1*
X52046Y69892D1*
X52024D1*
X51958Y69928D1*
X51915Y70001D1*
X51893Y70111D1*
Y70147D1*
X51915Y70256D1*
X51958Y70329D1*
X52024Y70365D1*
X52046D1*
X52112Y70329D1*
X52155Y70256D1*
X52177Y70111D1*
Y69928D1*
X52155Y69746D1*
X52112Y69636D1*
X52046Y69600D1*
X52002D1*
X51937Y69636D1*
X51915Y69710D1*
X50976Y78366D2*
Y77819D1*
X50998Y77710D1*
X51042Y77637D1*
X51107Y77600D1*
X51151D1*
X51217Y77637D1*
X51261Y77710D1*
X51282Y77819D1*
Y78366D1*
X51642Y77600D2*
Y78365D1*
X51424Y77855D1*
X51751D1*
X52024Y78365D2*
X51958Y78329D1*
X51914Y78219D1*
X51893Y78037D1*
Y77928D1*
X51914Y77746D1*
X51958Y77636D1*
X52024Y77600D1*
X52068D1*
X52133Y77636D1*
X52177Y77746D1*
X52199Y77928D1*
Y78037D1*
X52177Y78219D1*
X52133Y78329D1*
X52068Y78365D1*
X52024D1*
X52177Y78219D2*
X51914Y77746D1*
X59899Y78366D2*
Y77819D1*
X59921Y77710D1*
X59965Y77637D1*
X60031Y77600D1*
X60074D1*
X60140Y77637D1*
X60184Y77710D1*
X60206Y77819D1*
Y78366D1*
X60566Y77600D2*
Y78365D1*
X60347Y77855D1*
X60675D1*
X60816Y78219D2*
X60860Y78256D1*
X60926Y78365D1*
Y77600D1*
X59801Y70366D2*
Y69819D1*
X59823Y69710D1*
X59867Y69637D1*
X59932Y69600D1*
X59976D1*
X60042Y69637D1*
X60086Y69710D1*
X60107Y69819D1*
Y70366D1*
X60467Y69600D2*
Y70365D1*
X60249Y69855D1*
X60576D1*
X60740Y70183D2*
Y70219D1*
X60762Y70293D1*
X60783Y70329D1*
X60827Y70365D1*
X60915D1*
X60958Y70329D1*
X60980Y70293D1*
X61002Y70219D1*
Y70147D1*
X60980Y70074D1*
X60937Y69965D1*
X60718Y69600D1*
X61024D1*
X59801Y62366D2*
Y61819D1*
X59823Y61710D1*
X59867Y61637D1*
X59932Y61600D1*
X59976D1*
X60042Y61637D1*
X60086Y61710D1*
X60107Y61819D1*
Y62366D1*
X60467Y61600D2*
Y62365D1*
X60249Y61855D1*
X60576D1*
X60762Y62365D2*
X61002D1*
X60871Y62074D1*
X60937D1*
X60980Y62037D1*
X61002Y62001D1*
X61024Y61892D1*
Y61819D1*
X61002Y61710D1*
X60958Y61636D1*
X60893Y61600D1*
X60827D1*
X60762Y61636D1*
X60740Y61674D1*
X60718Y61746D1*
X59790Y54366D2*
Y53819D1*
X59812Y53710D1*
X59856Y53637D1*
X59922Y53600D1*
X59965D1*
X60031Y53637D1*
X60075Y53710D1*
X60096Y53819D1*
Y54366D1*
X60456Y53600D2*
Y54365D1*
X60238Y53855D1*
X60566D1*
X60926Y53600D2*
Y54365D1*
X60707Y53855D1*
X61035D1*
X59801Y46366D2*
Y45819D1*
X59823Y45710D1*
X59867Y45637D1*
X59932Y45600D1*
X59976D1*
X60042Y45637D1*
X60086Y45710D1*
X60107Y45819D1*
Y46366D1*
X60467Y45600D2*
Y46365D1*
X60249Y45855D1*
X60576D1*
X60980Y46365D2*
X60762D1*
X60740Y46037D1*
X60762Y46074D1*
X60827Y46111D1*
X60893D1*
X60958Y46074D1*
X61002Y46001D1*
X61024Y45892D1*
Y45819D1*
X61002Y45710D1*
X60958Y45636D1*
X60893Y45600D1*
X60827D1*
X60762Y45636D1*
X60740Y45674D1*
X60718Y45746D1*
X59812Y38366D2*
Y37819D1*
X59834Y37710D1*
X59878Y37637D1*
X59944Y37600D1*
X59987D1*
X60053Y37637D1*
X60097Y37710D1*
X60118Y37819D1*
Y38366D1*
X60478Y37600D2*
Y38365D1*
X60260Y37855D1*
X60588D1*
X60991Y38256D2*
X60969Y38329D1*
X60904Y38365D1*
X60860D1*
X60794Y38329D1*
X60751Y38219D1*
X60729Y38037D1*
Y37855D1*
X60751Y37710D1*
X60794Y37636D1*
X60860Y37600D1*
X60882D1*
X60947Y37636D1*
X60991Y37710D1*
X61013Y37819D1*
Y37855D1*
X60991Y37965D1*
X60947Y38037D1*
X60882Y38074D1*
X60860D1*
X60794Y38037D1*
X60751Y37965D1*
X60729Y37855D1*
X59801Y30366D2*
Y29819D1*
X59823Y29710D1*
X59867Y29637D1*
X59932Y29600D1*
X59976D1*
X60042Y29637D1*
X60086Y29710D1*
X60107Y29819D1*
Y30366D1*
X60467Y29600D2*
Y30365D1*
X60249Y29855D1*
X60576D1*
X60805Y29600D2*
X61024Y30365D1*
X60718D1*
X59801Y22366D2*
Y21819D1*
X59823Y21710D1*
X59867Y21637D1*
X59933Y21600D1*
X59976D1*
X60042Y21637D1*
X60086Y21710D1*
X60108Y21819D1*
Y22366D1*
X60468Y21600D2*
Y22365D1*
X60249Y21855D1*
X60577D1*
X60827Y22365D2*
X60762Y22329D1*
X60740Y22256D1*
Y22183D1*
X60762Y22111D1*
X60805Y22074D1*
X60893Y22037D1*
X60958Y22001D1*
X61002Y21928D1*
X61024Y21855D1*
Y21746D1*
X61002Y21674D1*
X60980Y21636D1*
X60915Y21600D1*
X60827D1*
X60762Y21636D1*
X60740Y21674D1*
X60718Y21746D1*
Y21855D1*
X60740Y21928D1*
X60784Y22001D1*
X60849Y22037D1*
X60936Y22074D1*
X60980Y22111D1*
X61002Y22183D1*
Y22256D1*
X60980Y22329D1*
X60915Y22365D1*
X60827D1*
X66987Y22366D2*
Y21819D1*
X67009Y21710D1*
X67053Y21637D1*
X67118Y21600D1*
X67162D1*
X67227Y21637D1*
X67271Y21710D1*
X67293Y21819D1*
Y22366D1*
X67653Y21600D2*
Y22365D1*
X67434Y21855D1*
X67762D1*
X68188Y22111D2*
X68166Y22001D1*
X68122Y21928D1*
X68057Y21892D1*
X68035D1*
X67969Y21928D1*
X67926Y22001D1*
X67904Y22111D1*
Y22147D1*
X67926Y22256D1*
X67969Y22329D1*
X68035Y22365D1*
X68057D1*
X68122Y22329D1*
X68166Y22256D1*
X68188Y22111D1*
Y21928D1*
X68166Y21746D1*
X68122Y21636D1*
X68057Y21600D1*
X68013D1*
X67948Y21636D1*
X67926Y21710D1*
X66987Y30366D2*
Y29819D1*
X67009Y29710D1*
X67053Y29637D1*
X67118Y29600D1*
X67162D1*
X67227Y29637D1*
X67271Y29710D1*
X67293Y29819D1*
Y30366D1*
X67697Y30365D2*
X67478D1*
X67457Y30037D1*
X67478Y30074D1*
X67544Y30111D1*
X67609D1*
X67675Y30074D1*
X67719Y30001D1*
X67741Y29892D1*
Y29819D1*
X67719Y29710D1*
X67675Y29636D1*
X67609Y29600D1*
X67544D1*
X67478Y29636D1*
X67457Y29674D1*
X67434Y29746D1*
X68013Y30365D2*
X67948Y30329D1*
X67904Y30219D1*
X67882Y30037D1*
Y29928D1*
X67904Y29746D1*
X67948Y29636D1*
X68013Y29600D1*
X68057D1*
X68122Y29636D1*
X68166Y29746D1*
X68188Y29928D1*
Y30037D1*
X68166Y30219D1*
X68122Y30329D1*
X68057Y30365D1*
X68013D1*
X68166Y30219D2*
X67904Y29746D1*
X67085Y38366D2*
Y37819D1*
X67107Y37710D1*
X67151Y37637D1*
X67217Y37600D1*
X67260D1*
X67326Y37637D1*
X67370Y37710D1*
X67391Y37819D1*
Y38366D1*
X67795Y38365D2*
X67577D1*
X67555Y38037D1*
X67577Y38074D1*
X67642Y38111D1*
X67708D1*
X67773Y38074D1*
X67817Y38001D1*
X67839Y37892D1*
Y37819D1*
X67817Y37710D1*
X67773Y37636D1*
X67708Y37600D1*
X67642D1*
X67577Y37636D1*
X67555Y37674D1*
X67533Y37746D1*
X67980Y38219D2*
X68024Y38256D1*
X68090Y38365D1*
Y37600D1*
X66987Y46366D2*
Y45819D1*
X67009Y45710D1*
X67053Y45637D1*
X67118Y45600D1*
X67162D1*
X67227Y45637D1*
X67271Y45710D1*
X67293Y45819D1*
Y46366D1*
X67697Y46365D2*
X67478D1*
X67457Y46037D1*
X67478Y46074D1*
X67544Y46111D1*
X67609D1*
X67675Y46074D1*
X67719Y46001D1*
X67741Y45892D1*
Y45819D1*
X67719Y45710D1*
X67675Y45636D1*
X67609Y45600D1*
X67544D1*
X67478Y45636D1*
X67457Y45674D1*
X67434Y45746D1*
X67904Y46183D2*
Y46219D1*
X67926Y46293D1*
X67948Y46329D1*
X67991Y46365D1*
X68079D1*
X68122Y46329D1*
X68144Y46293D1*
X68166Y46219D1*
Y46147D1*
X68144Y46074D1*
X68101Y45965D1*
X67882Y45600D1*
X68188D1*
X66987Y54366D2*
Y53819D1*
X67009Y53710D1*
X67053Y53637D1*
X67118Y53600D1*
X67162D1*
X67227Y53637D1*
X67271Y53710D1*
X67293Y53819D1*
Y54366D1*
X67697Y54365D2*
X67478D1*
X67457Y54037D1*
X67478Y54074D1*
X67544Y54111D1*
X67609D1*
X67675Y54074D1*
X67719Y54001D1*
X67741Y53892D1*
Y53819D1*
X67719Y53710D1*
X67675Y53636D1*
X67609Y53600D1*
X67544D1*
X67478Y53636D1*
X67457Y53674D1*
X67434Y53746D1*
X67926Y54365D2*
X68166D1*
X68035Y54074D1*
X68101D1*
X68144Y54037D1*
X68166Y54001D1*
X68188Y53892D1*
Y53819D1*
X68166Y53710D1*
X68122Y53636D1*
X68057Y53600D1*
X67991D1*
X67926Y53636D1*
X67904Y53674D1*
X67882Y53746D1*
X66976Y62366D2*
Y61819D1*
X66998Y61710D1*
X67042Y61637D1*
X67107Y61600D1*
X67151D1*
X67217Y61637D1*
X67261Y61710D1*
X67282Y61819D1*
Y62366D1*
X67686Y62365D2*
X67467D1*
X67446Y62037D1*
X67467Y62074D1*
X67533Y62111D1*
X67598D1*
X67664Y62074D1*
X67708Y62001D1*
X67730Y61892D1*
Y61819D1*
X67708Y61710D1*
X67664Y61636D1*
X67598Y61600D1*
X67533D1*
X67467Y61636D1*
X67446Y61674D1*
X67424Y61746D1*
X68090Y61600D2*
Y62365D1*
X67871Y61855D1*
X68199D1*
X66987Y70366D2*
Y69819D1*
X67009Y69710D1*
X67053Y69637D1*
X67118Y69600D1*
X67162D1*
X67227Y69637D1*
X67271Y69710D1*
X67293Y69819D1*
Y70366D1*
X67697Y70365D2*
X67478D1*
X67457Y70037D1*
X67478Y70074D1*
X67544Y70111D1*
X67609D1*
X67675Y70074D1*
X67719Y70001D1*
X67741Y69892D1*
Y69819D1*
X67719Y69710D1*
X67675Y69636D1*
X67609Y69600D1*
X67544D1*
X67478Y69636D1*
X67457Y69674D1*
X67434Y69746D1*
X68144Y70365D2*
X67926D1*
X67904Y70037D1*
X67926Y70074D1*
X67991Y70111D1*
X68057D1*
X68122Y70074D1*
X68166Y70001D1*
X68188Y69892D1*
Y69819D1*
X68166Y69710D1*
X68122Y69636D1*
X68057Y69600D1*
X67991D1*
X67926Y69636D1*
X67904Y69674D1*
X67882Y69746D1*
X66998Y78366D2*
Y77819D1*
X67020Y77710D1*
X67064Y77637D1*
X67129Y77600D1*
X67173D1*
X67239Y77637D1*
X67283Y77710D1*
X67304Y77819D1*
Y78366D1*
X67708Y78365D2*
X67489D1*
X67468Y78037D1*
X67489Y78074D1*
X67555Y78111D1*
X67620D1*
X67686Y78074D1*
X67730Y78001D1*
X67752Y77892D1*
Y77819D1*
X67730Y77710D1*
X67686Y77636D1*
X67620Y77600D1*
X67555D1*
X67489Y77636D1*
X67468Y77674D1*
X67445Y77746D1*
X68155Y78256D2*
X68133Y78329D1*
X68068Y78365D1*
X68024D1*
X67959Y78329D1*
X67915Y78219D1*
X67893Y78037D1*
Y77855D1*
X67915Y77710D1*
X67959Y77636D1*
X68024Y77600D1*
X68046D1*
X68111Y77636D1*
X68155Y77710D1*
X68177Y77819D1*
Y77855D1*
X68155Y77965D1*
X68111Y78037D1*
X68046Y78074D1*
X68024D1*
X67959Y78037D1*
X67915Y77965D1*
X67893Y77855D1*
X75812Y78366D2*
Y77819D1*
X75834Y77710D1*
X75878Y77637D1*
X75943Y77600D1*
X75987D1*
X76052Y77637D1*
X76096Y77710D1*
X76118Y77819D1*
Y78366D1*
X76522Y78365D2*
X76303D1*
X76282Y78037D1*
X76303Y78074D1*
X76369Y78111D1*
X76434D1*
X76500Y78074D1*
X76544Y78001D1*
X76566Y77892D1*
Y77819D1*
X76544Y77710D1*
X76500Y77636D1*
X76434Y77600D1*
X76369D1*
X76303Y77636D1*
X76282Y77674D1*
X76259Y77746D1*
X76794Y77600D2*
X77013Y78365D1*
X76707D1*
X75812Y70366D2*
Y69819D1*
X75834Y69710D1*
X75878Y69637D1*
X75944Y69600D1*
X75987D1*
X76053Y69637D1*
X76097Y69710D1*
X76118Y69819D1*
Y70366D1*
X76522Y70365D2*
X76304D1*
X76282Y70037D1*
X76304Y70074D1*
X76369Y70111D1*
X76434D1*
X76500Y70074D1*
X76544Y70001D1*
X76566Y69892D1*
Y69819D1*
X76544Y69710D1*
X76500Y69636D1*
X76434Y69600D1*
X76369D1*
X76304Y69636D1*
X76282Y69674D1*
X76260Y69746D1*
X76816Y70365D2*
X76751Y70329D1*
X76729Y70256D1*
Y70183D1*
X76751Y70111D1*
X76794Y70074D1*
X76882Y70037D1*
X76948Y70001D1*
X76991Y69928D1*
X77013Y69855D1*
Y69746D1*
X76991Y69674D1*
X76969Y69636D1*
X76904Y69600D1*
X76816D1*
X76751Y69636D1*
X76729Y69674D1*
X76707Y69746D1*
Y69855D1*
X76729Y69928D1*
X76773Y70001D1*
X76838Y70037D1*
X76925Y70074D1*
X76969Y70111D1*
X76991Y70183D1*
Y70256D1*
X76969Y70329D1*
X76904Y70365D1*
X76816D1*
X75823Y62366D2*
Y61819D1*
X75845Y61710D1*
X75888Y61637D1*
X75954Y61600D1*
X75998D1*
X76063Y61637D1*
X76107Y61710D1*
X76129Y61819D1*
Y62366D1*
X76533Y62365D2*
X76314D1*
X76292Y62037D1*
X76314Y62074D1*
X76380Y62111D1*
X76445D1*
X76511Y62074D1*
X76555Y62001D1*
X76576Y61892D1*
Y61819D1*
X76555Y61710D1*
X76511Y61636D1*
X76445Y61600D1*
X76380D1*
X76314Y61636D1*
X76292Y61674D1*
X76270Y61746D1*
X77002Y62111D2*
X76980Y62001D1*
X76937Y61928D1*
X76871Y61892D1*
X76849D1*
X76783Y61928D1*
X76740Y62001D1*
X76718Y62111D1*
Y62147D1*
X76740Y62256D1*
X76783Y62329D1*
X76849Y62365D1*
X76871D1*
X76937Y62329D1*
X76980Y62256D1*
X77002Y62111D1*
Y61928D1*
X76980Y61746D1*
X76937Y61636D1*
X76871Y61600D1*
X76827D1*
X76762Y61636D1*
X76740Y61710D1*
X75823Y54366D2*
Y53819D1*
X75845Y53710D1*
X75889Y53637D1*
X75954Y53600D1*
X75998D1*
X76064Y53637D1*
X76108Y53710D1*
X76129Y53819D1*
Y54366D1*
X76533Y54256D2*
X76511Y54329D1*
X76445Y54365D1*
X76402D1*
X76336Y54329D1*
X76292Y54219D1*
X76270Y54037D1*
Y53855D1*
X76292Y53710D1*
X76336Y53636D1*
X76402Y53600D1*
X76424D1*
X76489Y53636D1*
X76533Y53710D1*
X76555Y53819D1*
Y53855D1*
X76533Y53965D1*
X76489Y54037D1*
X76424Y54074D1*
X76402D1*
X76336Y54037D1*
X76292Y53965D1*
X76270Y53855D1*
X76827Y54365D2*
X76761Y54329D1*
X76717Y54219D1*
X76696Y54037D1*
Y53928D1*
X76717Y53746D1*
X76761Y53636D1*
X76827Y53600D1*
X76871D1*
X76936Y53636D1*
X76980Y53746D1*
X77002Y53928D1*
Y54037D1*
X76980Y54219D1*
X76936Y54329D1*
X76871Y54365D1*
X76827D1*
X76980Y54219D2*
X76717Y53746D1*
X75921Y46366D2*
Y45819D1*
X75943Y45710D1*
X75987Y45637D1*
X76053Y45600D1*
X76096D1*
X76162Y45637D1*
X76206Y45710D1*
X76228Y45819D1*
Y46366D1*
X76631Y46256D2*
X76609Y46329D1*
X76544Y46365D1*
X76500D1*
X76434Y46329D1*
X76391Y46219D1*
X76369Y46037D1*
Y45855D1*
X76391Y45710D1*
X76434Y45636D1*
X76500Y45600D1*
X76522D1*
X76587Y45636D1*
X76631Y45710D1*
X76653Y45819D1*
Y45855D1*
X76631Y45965D1*
X76587Y46037D1*
X76522Y46074D1*
X76500D1*
X76434Y46037D1*
X76391Y45965D1*
X76369Y45855D1*
X76794Y46219D2*
X76838Y46256D1*
X76904Y46365D1*
Y45600D1*
X75823Y38366D2*
Y37819D1*
X75845Y37710D1*
X75889Y37637D1*
X75954Y37600D1*
X75998D1*
X76064Y37637D1*
X76108Y37710D1*
X76129Y37819D1*
Y38366D1*
X76533Y38256D2*
X76511Y38329D1*
X76445Y38365D1*
X76402D1*
X76336Y38329D1*
X76292Y38219D1*
X76270Y38037D1*
Y37855D1*
X76292Y37710D1*
X76336Y37636D1*
X76402Y37600D1*
X76424D1*
X76489Y37636D1*
X76533Y37710D1*
X76555Y37819D1*
Y37855D1*
X76533Y37965D1*
X76489Y38037D1*
X76424Y38074D1*
X76402D1*
X76336Y38037D1*
X76292Y37965D1*
X76270Y37855D1*
X76718Y38183D2*
Y38219D1*
X76740Y38293D1*
X76761Y38329D1*
X76805Y38365D1*
X76893D1*
X76936Y38329D1*
X76958Y38293D1*
X76980Y38219D1*
Y38147D1*
X76958Y38074D1*
X76915Y37965D1*
X76696Y37600D1*
X77002D1*
X75823Y30366D2*
Y29819D1*
X75845Y29710D1*
X75889Y29637D1*
X75954Y29600D1*
X75998D1*
X76064Y29637D1*
X76108Y29710D1*
X76129Y29819D1*
Y30366D1*
X76533Y30256D2*
X76511Y30329D1*
X76445Y30365D1*
X76402D1*
X76336Y30329D1*
X76292Y30219D1*
X76270Y30037D1*
Y29855D1*
X76292Y29710D1*
X76336Y29636D1*
X76402Y29600D1*
X76424D1*
X76489Y29636D1*
X76533Y29710D1*
X76555Y29819D1*
Y29855D1*
X76533Y29965D1*
X76489Y30037D1*
X76424Y30074D1*
X76402D1*
X76336Y30037D1*
X76292Y29965D1*
X76270Y29855D1*
X76740Y30365D2*
X76980D1*
X76849Y30074D1*
X76915D1*
X76958Y30037D1*
X76980Y30001D1*
X77002Y29892D1*
Y29819D1*
X76980Y29710D1*
X76936Y29636D1*
X76871Y29600D1*
X76805D1*
X76740Y29636D1*
X76718Y29674D1*
X76696Y29746D1*
X75812Y22366D2*
Y21819D1*
X75834Y21710D1*
X75878Y21637D1*
X75944Y21600D1*
X75987D1*
X76053Y21637D1*
X76097Y21710D1*
X76118Y21819D1*
Y22366D1*
X76522Y22256D2*
X76500Y22329D1*
X76434Y22365D1*
X76391D1*
X76325Y22329D1*
X76281Y22219D1*
X76260Y22037D1*
Y21855D1*
X76281Y21710D1*
X76325Y21636D1*
X76391Y21600D1*
X76413D1*
X76478Y21636D1*
X76522Y21710D1*
X76544Y21819D1*
Y21855D1*
X76522Y21965D1*
X76478Y22037D1*
X76413Y22074D1*
X76391D1*
X76325Y22037D1*
X76281Y21965D1*
X76260Y21855D1*
X76904Y21600D2*
Y22365D1*
X76685Y21855D1*
X77013D1*
X12414Y14798D2*
D38*
X12725Y13777D1*
X13036Y14798D1*
X13753D2*
Y13777D1*
Y14312D2*
X13676Y14410D1*
X13598Y14458D1*
X13481D1*
X13404Y14410D1*
X13325Y14312D1*
X13287Y14166D1*
Y14069D1*
X13325Y13923D1*
X13404Y13827D1*
X13481Y13777D1*
X13598D1*
X13676Y13827D1*
X13753Y13923D1*
X12359Y22392D2*
X12669Y21371D1*
X12980Y22392D1*
X13659Y21906D2*
X13620Y22004D1*
X13504Y22052D1*
X13387D1*
X13270Y22004D1*
X13231Y21906D1*
X13270Y21809D1*
X13348Y21760D1*
X13542Y21712D1*
X13620Y21663D1*
X13659Y21566D1*
Y21517D1*
X13620Y21421D1*
X13504Y21371D1*
X13387D1*
X13270Y21421D1*
X13231Y21517D1*
X12522Y19856D2*
Y18836D1*
X12794D1*
X12911Y18885D1*
X12989Y18982D1*
X13028Y19079D1*
X13067Y19224D1*
Y19468D1*
X13028Y19614D1*
X12989Y19710D1*
X12911Y19808D1*
X12794Y19856D1*
X12522D1*
X13318D2*
X13356Y19808D1*
X13396Y19856D1*
X13356Y19906D1*
X13318Y19856D1*
X13356Y19516D2*
Y18836D1*
X13111Y16994D2*
X13072Y17091D1*
X12994Y17189D1*
X12917Y17237D1*
X12761D1*
X12683Y17189D1*
X12606Y17091D1*
X12566Y16994D1*
X12528Y16848D1*
Y16605D1*
X12566Y16460D1*
X12606Y16362D1*
X12683Y16265D1*
X12761Y16216D1*
X12917D1*
X12994Y16265D1*
X13072Y16362D1*
X13111Y16460D1*
X13362Y17237D2*
X13400Y17189D1*
X13440Y17237D1*
X13400Y17286D1*
X13362Y17237D1*
X13400Y16897D2*
Y16216D1*
X80283Y19767D2*
Y18746D1*
X80555D1*
X80672Y18796D1*
X80750Y18892D1*
X80789Y18990D1*
X80827Y19135D1*
Y19379D1*
X80789Y19525D1*
X80750Y19621D1*
X80672Y19719D1*
X80555Y19767D1*
X80283D1*
X81273Y19427D2*
X81195Y19379D1*
X81117Y19281D1*
X81078Y19135D1*
Y19038D1*
X81117Y18892D1*
X81195Y18796D1*
X81273Y18746D1*
X81389D1*
X81467Y18796D1*
X81545Y18892D1*
X81584Y19038D1*
Y19135D1*
X81545Y19281D1*
X81467Y19379D1*
X81389Y19427D1*
X81273D1*
X80822Y16981D2*
X80783Y17078D1*
X80705Y17175D1*
X80628Y17224D1*
X80473D1*
X80394Y17175D1*
X80317Y17078D1*
X80278Y16981D1*
X80239Y16835D1*
Y16591D1*
X80278Y16447D1*
X80317Y16349D1*
X80394Y16252D1*
X80473Y16203D1*
X80628D1*
X80705Y16252D1*
X80783Y16349D1*
X80822Y16447D1*
X81267Y16883D2*
X81190Y16835D1*
X81112Y16737D1*
X81073Y16591D1*
Y16495D1*
X81112Y16349D1*
X81190Y16252D1*
X81267Y16203D1*
X81384D1*
X81462Y16252D1*
X81539Y16349D1*
X81579Y16495D1*
Y16591D1*
X81539Y16737D1*
X81462Y16835D1*
X81384Y16883D1*
X81267D1*
X80214Y14623D2*
X80525Y13602D1*
X80836Y14623D1*
X81553D2*
Y13602D1*
Y14137D2*
X81476Y14235D1*
X81398Y14283D1*
X81281D1*
X81204Y14235D1*
X81126Y14137D1*
X81087Y13991D1*
Y13894D1*
X81126Y13748D1*
X81204Y13652D1*
X81281Y13602D1*
X81398D1*
X81476Y13652D1*
X81553Y13748D1*
X80284Y22393D2*
X80595Y21372D1*
X80906Y22393D1*
X81584Y21907D2*
X81546Y22004D1*
X81429Y22053D1*
X81312D1*
X81195Y22004D1*
X81157Y21907D1*
X81195Y21810D1*
X81273Y21761D1*
X81467Y21712D1*
X81546Y21664D1*
X81584Y21566D1*
Y21518D1*
X81546Y21421D1*
X81429Y21372D1*
X81312D1*
X81195Y21421D1*
X81157Y21518D1*
M02*
