G04 DipTrace 2.4.0.2*
%IN64xAPA102Crigid.gbl*%
%MOMM*%
%ADD13C,1.27*%
%ADD15C,1.0*%
%ADD17C,0.711*%
%ADD18C,0.61*%
%ADD22C,1.778*%
%ADD24C,2.0*%
%ADD27C,1.372*%
%FSLAX53Y53*%
G04*
G71*
G90*
G75*
G01*
%LNBottom*%
%LPD*%
X76959Y26251D2*
D13*
X72418D1*
X64107Y17939D1*
X47893D1*
X47654Y17700D1*
X31860D1*
X19247D1*
X18956Y17991D1*
X31860Y17700D2*
X31653Y17907D1*
X24189Y39571D2*
X24995D1*
X28056Y42632D1*
X32251D1*
X33488Y43869D1*
Y46690D1*
D15*
X33385Y46793D1*
X22507Y62236D2*
D13*
X26973D1*
X33607Y55601D1*
Y47015D1*
X33385Y46793D1*
X21018Y62236D2*
X18219D1*
X16537Y60554D1*
X21046Y59263D2*
X17828D1*
X16537Y60554D1*
X32735Y42632D2*
X32251D1*
X14150Y28519D2*
D17*
Y25857D1*
X15291Y24716D1*
Y23311D1*
X11250Y19270D1*
X11489Y34491D2*
X14407D1*
X16528Y32371D1*
Y22008D1*
X11250Y16730D1*
X11488Y42110D2*
D13*
X15796D1*
X22859Y49173D1*
Y58938D1*
X22535Y59263D1*
X31385Y46793D2*
D18*
X24807D1*
X24189Y46175D1*
Y42110D1*
X71445Y74161D2*
D13*
X56571D1*
X56409Y74323D1*
X40012D1*
X39690Y74001D1*
X24530D1*
X23863Y74667D1*
X23806Y29006D2*
X23524D1*
X22193Y30336D1*
Y34771D1*
X22032Y34932D1*
X22627Y44686D2*
Y43458D1*
X22077Y42909D1*
Y34978D1*
X22032Y34932D1*
X26573Y38349D2*
Y30178D1*
X25263Y28868D1*
X23943D1*
X23806Y29006D1*
D27*
X18956Y17991D3*
X47654Y17700D3*
X76959Y26251D3*
X64107Y17939D3*
X23863Y74667D3*
X39690Y74001D3*
X56409Y74323D3*
X71445Y74161D3*
X31653Y17907D3*
X23806Y29006D3*
X22032Y34932D3*
X22627Y44686D3*
X26573Y38349D3*
X16537Y60554D3*
X14150Y28519D3*
X32735Y42632D3*
G36*
X32885Y44493D2*
X33885D1*
Y49093D1*
X32885D1*
Y44493D1*
G37*
G36*
X30885D2*
X31885D1*
Y49093D1*
X30885D1*
Y44493D1*
G37*
G36*
X34985Y53693D2*
Y50293D1*
X36585D1*
Y53693D1*
X34985D1*
G37*
G36*
X28185D2*
Y50293D1*
X29785D1*
Y53693D1*
X28185D1*
G37*
G36*
X20896Y61636D2*
X21636D1*
Y62836D1*
X20896D1*
X20736Y62776D1*
X20536Y62636D1*
X20436Y62436D1*
X20401Y62236D1*
X20436Y62036D1*
X20536Y61836D1*
X20736Y61696D1*
X20896Y61636D1*
G37*
G36*
X22629Y62836D2*
X21889D1*
Y61636D1*
X22629D1*
X22789Y61696D1*
X22989Y61836D1*
X23089Y62036D1*
X23125Y62236D1*
X23089Y62436D1*
X22989Y62636D1*
X22789Y62776D1*
X22629Y62836D1*
G37*
D22*
X24189Y31951D3*
Y34491D3*
Y37031D3*
Y39571D3*
X11489Y31951D3*
Y34491D3*
Y37031D3*
Y39571D3*
D24*
X11250Y16730D3*
Y19270D3*
Y14190D3*
Y21810D3*
D22*
X11488Y42110D3*
X24189D3*
D24*
X82750Y16730D3*
Y19270D3*
Y14190D3*
Y21810D3*
G36*
X22657Y59863D2*
X21917D1*
Y58663D1*
X22657D1*
X22817Y58723D1*
X23017Y58863D1*
X23117Y59063D1*
X23153Y59263D1*
X23117Y59463D1*
X23017Y59663D1*
X22817Y59803D1*
X22657Y59863D1*
G37*
G36*
X20924Y58663D2*
X21664D1*
Y59863D1*
X20924D1*
X20764Y59803D1*
X20564Y59663D1*
X20464Y59463D1*
X20429Y59263D1*
X20464Y59063D1*
X20564Y58863D1*
X20764Y58723D1*
X20924Y58663D1*
G37*
M02*
