G04 DipTrace 2.4.0.2*
%IN64xAPA102Crigid.gbo*%
%MOMM*%
%ADD11C,0.14*%
%ADD19C,0.203*%
%ADD20C,0.15*%
%ADD34C,0.118*%
%ADD35C,0.196*%
%ADD36C,0.314*%
%ADD37C,0.784*%
%FSLAX53Y53*%
G04*
G71*
G90*
G75*
G01*
%LNBotSilk*%
%LPD*%
X34635Y53493D2*
D19*
X30135D1*
X28385Y49993D2*
Y45992D1*
X29235D1*
Y48493D1*
X30635D1*
X34135D2*
X35535D1*
Y45992D1*
X36385D1*
Y49993D1*
X20911Y62911D2*
D20*
G03X20911Y61561I80J-675D01*
G01*
X22614D2*
G03X22614Y62911I-80J675D01*
G01*
X22652Y61561D2*
X20873D1*
X22652Y62911D2*
X20873D1*
X22642Y58588D2*
G03X22642Y59938I-80J675D01*
G01*
X20939D2*
G03X20939Y58588I80J-675D01*
G01*
X20901Y59938D2*
X22680D1*
X20901Y58588D2*
X22680D1*
X11489Y54049D2*
D11*
X11356Y54042D1*
X11225Y54021D1*
X11096Y53987D1*
X10972Y53939D1*
X10854Y53879D1*
X10742Y53806D1*
X10639Y53723D1*
X10545Y53629D1*
X10461Y53525D1*
X10389Y53414D1*
X10329Y53295D1*
X10281Y53171D1*
X10247Y53043D1*
X10226Y52912D1*
X10219Y52779D1*
Y26617D1*
X10981Y25855D1*
X14283D1*
X15807Y24331D1*
X22919D1*
X24697Y26109D1*
X25459D1*
Y52779D1*
X25452Y52912D1*
X25431Y53043D1*
X25397Y53171D1*
X25349Y53295D1*
X25289Y53414D1*
X25216Y53525D1*
X25133Y53629D1*
X25039Y53723D1*
X24935Y53806D1*
X24824Y53879D1*
X24706Y53939D1*
X24581Y53987D1*
X24453Y54021D1*
X24322Y54042D1*
X24189Y54049D1*
X11489D1*
X33008Y54809D2*
D34*
Y54043D1*
X32810D1*
X32745Y54080D1*
X32723Y54116D1*
X32701Y54189D1*
Y54298D1*
X32723Y54372D1*
X32745Y54408D1*
X32810Y54444D1*
X32745Y54481D1*
X32723Y54517D1*
X32701Y54590D1*
Y54663D1*
X32723Y54735D1*
X32745Y54772D1*
X32810Y54809D1*
X33008D1*
Y54444D2*
X32810D1*
X32210Y54043D2*
X32385Y54809D1*
X32560Y54043D1*
X32494Y54298D2*
X32276D1*
X31916Y54809D2*
Y54043D1*
X32069Y54809D2*
X31762D1*
X23427Y64027D2*
Y63261D1*
X23230D1*
X23164Y63298D1*
X23143Y63334D1*
X23121Y63407D1*
Y63516D1*
X23143Y63589D1*
X23164Y63626D1*
X23230Y63662D1*
X23164Y63699D1*
X23143Y63735D1*
X23121Y63808D1*
Y63881D1*
X23143Y63953D1*
X23164Y63990D1*
X23230Y64027D1*
X23427D1*
Y63662D2*
X23230D1*
X22630Y63261D2*
X22805Y64027D1*
X22980Y63261D1*
X22914Y63516D2*
X22695D1*
X22335Y64027D2*
Y63261D1*
X22488Y64027D2*
X22182D1*
X22041Y63626D2*
X21844D1*
X21779Y63662D1*
X21756Y63699D1*
X21735Y63771D1*
Y63881D1*
X21756Y63953D1*
X21779Y63990D1*
X21844Y64027D1*
X22041D1*
Y63261D1*
X21484Y63771D2*
X21528Y63735D1*
X21572Y63662D1*
X21593Y63552D1*
Y63480D1*
X21572Y63370D1*
X21528Y63298D1*
X21484Y63261D1*
X21419D1*
X21375Y63298D1*
X21331Y63370D1*
X21309Y63480D1*
Y63552D1*
X21331Y63662D1*
X21375Y63735D1*
X21419Y63771D1*
X21484D1*
X21168D2*
X21080Y63261D1*
X20993Y63771D1*
X20905Y63261D1*
X20818Y63771D1*
X20677Y63552D2*
X20415D1*
Y63626D1*
X20436Y63699D1*
X20458Y63735D1*
X20502Y63771D1*
X20568D1*
X20611Y63735D1*
X20655Y63662D1*
X20677Y63552D1*
Y63480D1*
X20655Y63370D1*
X20611Y63298D1*
X20568Y63261D1*
X20502D1*
X20458Y63298D1*
X20415Y63370D1*
X20273Y63771D2*
Y63261D1*
Y63552D2*
X20251Y63662D1*
X20208Y63735D1*
X20164Y63771D1*
X20098D1*
X23433Y61054D2*
Y60507D1*
X23411Y60397D1*
X23367Y60325D1*
X23302Y60288D1*
X23258D1*
X23193Y60325D1*
X23149Y60397D1*
X23127Y60507D1*
Y61054D1*
X22679Y60944D2*
X22723Y61017D1*
X22789Y61054D1*
X22876D1*
X22942Y61017D1*
X22986Y60944D1*
Y60872D1*
X22963Y60798D1*
X22942Y60762D1*
X22898Y60726D1*
X22767Y60653D1*
X22723Y60616D1*
X22701Y60579D1*
X22679Y60507D1*
Y60397D1*
X22723Y60325D1*
X22789Y60288D1*
X22876D1*
X22942Y60325D1*
X22986Y60397D1*
X22538Y61054D2*
Y60288D1*
X22341D1*
X22275Y60325D1*
X22254Y60361D1*
X22232Y60434D1*
Y60543D1*
X22254Y60616D1*
X22275Y60653D1*
X22341Y60689D1*
X22275Y60726D1*
X22254Y60762D1*
X22232Y60835D1*
Y60908D1*
X22254Y60980D1*
X22275Y61017D1*
X22341Y61054D1*
X22538D1*
Y60689D2*
X22341D1*
X22091Y60653D2*
X21894D1*
X21829Y60689D1*
X21806Y60726D1*
X21785Y60798D1*
Y60908D1*
X21806Y60980D1*
X21829Y61017D1*
X21894Y61054D1*
X22091D1*
Y60288D1*
X21534Y60798D2*
X21578Y60762D1*
X21622Y60689D1*
X21643Y60579D1*
Y60507D1*
X21622Y60397D1*
X21578Y60325D1*
X21534Y60288D1*
X21469D1*
X21425Y60325D1*
X21381Y60397D1*
X21359Y60507D1*
Y60579D1*
X21381Y60689D1*
X21425Y60762D1*
X21469Y60798D1*
X21534D1*
X21218D2*
X21130Y60288D1*
X21043Y60798D1*
X20955Y60288D1*
X20868Y60798D1*
X20727Y60579D2*
X20465D1*
Y60653D1*
X20486Y60726D1*
X20508Y60762D1*
X20552Y60798D1*
X20618D1*
X20661Y60762D1*
X20705Y60689D1*
X20727Y60579D1*
Y60507D1*
X20705Y60397D1*
X20661Y60325D1*
X20618Y60288D1*
X20552D1*
X20508Y60325D1*
X20465Y60397D1*
X20323Y60798D2*
Y60288D1*
Y60579D2*
X20301Y60689D1*
X20258Y60762D1*
X20214Y60798D1*
X20148D1*
X27859Y66273D2*
D35*
X27311D1*
X27130Y66334D1*
X27069Y66396D1*
X27008Y66516D1*
Y66699D1*
X27069Y66819D1*
X27130Y66881D1*
X27311Y66942D1*
X27859D1*
Y65666D1*
X26313Y66516D2*
X26434Y66456D1*
X26556Y66334D1*
X26616Y66151D1*
Y66031D1*
X26556Y65848D1*
X26434Y65727D1*
X26313Y65666D1*
X26130D1*
X26008Y65727D1*
X25887Y65848D1*
X25826Y66031D1*
Y66151D1*
X25887Y66334D1*
X26008Y66456D1*
X26130Y66516D1*
X26313D1*
X25434D2*
X25191Y65666D1*
X24948Y66516D1*
X24705Y65666D1*
X24462Y66516D1*
X24070Y66151D2*
X23341D1*
Y66273D1*
X23402Y66396D1*
X23462Y66456D1*
X23584Y66516D1*
X23767D1*
X23887Y66456D1*
X24010Y66334D1*
X24070Y66151D1*
Y66031D1*
X24010Y65848D1*
X23887Y65727D1*
X23767Y65666D1*
X23584D1*
X23462Y65727D1*
X23341Y65848D1*
X22949Y66516D2*
Y65666D1*
Y66151D2*
X22887Y66334D1*
X22767Y66456D1*
X22645Y66516D1*
X22462D1*
X19985Y66759D2*
X20105Y66881D1*
X20288Y66942D1*
X20531D1*
X20713Y66881D1*
X20835Y66759D1*
Y66638D1*
X20774Y66516D1*
X20713Y66456D1*
X20593Y66396D1*
X20228Y66273D1*
X20105Y66213D1*
X20045Y66151D1*
X19985Y66031D1*
Y65848D1*
X20105Y65727D1*
X20288Y65666D1*
X20531D1*
X20713Y65727D1*
X20835Y65848D1*
X19593Y66151D2*
X18864D1*
Y66273D1*
X18924Y66396D1*
X18985Y66456D1*
X19107Y66516D1*
X19289D1*
X19410Y66456D1*
X19532Y66334D1*
X19593Y66151D1*
Y66031D1*
X19532Y65848D1*
X19410Y65727D1*
X19289Y65666D1*
X19107D1*
X18985Y65727D1*
X18864Y65848D1*
X18472Y66942D2*
Y65666D1*
X18080Y66151D2*
X17351D1*
Y66273D1*
X17411Y66396D1*
X17472Y66456D1*
X17594Y66516D1*
X17776D1*
X17897Y66456D1*
X18019Y66334D1*
X18080Y66151D1*
Y66031D1*
X18019Y65848D1*
X17897Y65727D1*
X17776Y65666D1*
X17594D1*
X17472Y65727D1*
X17351Y65848D1*
X16229Y66334D2*
X16351Y66456D1*
X16473Y66516D1*
X16654D1*
X16776Y66456D1*
X16897Y66334D1*
X16959Y66151D1*
Y66031D1*
X16897Y65848D1*
X16776Y65727D1*
X16654Y65666D1*
X16473D1*
X16351Y65727D1*
X16229Y65848D1*
X15654Y66942D2*
Y65908D1*
X15594Y65727D1*
X15472Y65666D1*
X15351D1*
X15837Y66516D2*
X15411D1*
X16336Y47768D2*
D36*
Y48739D1*
X17210Y48835D1*
X17113Y48739D1*
X17014Y48447D1*
Y48157D1*
X17113Y47865D1*
X17306Y47670D1*
X17598Y47573D1*
X17791D1*
X18083Y47670D1*
X18279Y47865D1*
X18375Y48157D1*
Y48447D1*
X18279Y48739D1*
X18180Y48835D1*
X17987Y48934D1*
X16334Y46946D2*
X18375Y46168D1*
X16334Y45391D1*
Y42108D2*
X18375D1*
X16334Y42789D2*
Y41428D1*
X17014Y40800D2*
X18375D1*
X17598D2*
X17306Y40701D1*
X17111Y40508D1*
X17014Y40313D1*
Y40021D1*
X16334Y39393D2*
X16430Y39297D1*
X16334Y39198D1*
X16235Y39297D1*
X16334Y39393D1*
X17014Y39297D2*
X18375D1*
X17014Y38570D2*
X18375D1*
X17403D2*
X17111Y38278D1*
X17014Y38083D1*
Y37793D1*
X17111Y37598D1*
X17403Y37501D1*
X18375D1*
X16334Y36874D2*
X18375D1*
X17014Y35901D2*
X17987Y36874D1*
X17598Y36485D2*
X18375Y35805D1*
X17598Y35177D2*
Y34011D1*
X17403D1*
X17207Y34108D1*
X17111Y34205D1*
X17014Y34400D1*
Y34692D1*
X17111Y34885D1*
X17306Y35081D1*
X17598Y35177D1*
X17791D1*
X18083Y35081D1*
X18277Y34885D1*
X18375Y34692D1*
Y34400D1*
X18277Y34205D1*
X18083Y34011D1*
X16334Y33092D2*
X17987D1*
X18277Y32995D1*
X18375Y32800D1*
Y32607D1*
X17014Y33384D2*
Y32703D1*
X73508Y74727D2*
D37*
X76670D1*
Y69622D1*
Y72295D2*
X74727D1*
X71693Y73025D2*
X70238Y69622D1*
X70721Y68651D1*
X71210Y68162D1*
X71693Y67921D1*
X71940D1*
X68778Y73025D2*
X70238Y69622D1*
X67209Y74727D2*
Y69622D1*
Y72295D2*
X66721Y72784D1*
X66238Y73025D1*
X65508D1*
X65025Y72784D1*
X64537Y72295D1*
X64295Y71565D1*
Y71082D1*
X64537Y70352D1*
X65025Y69870D1*
X65508Y69622D1*
X66238D1*
X66721Y69870D1*
X67209Y70352D1*
X62726Y71565D2*
X59812D1*
Y72054D1*
X60054Y72542D1*
X60295Y72784D1*
X60784Y73025D1*
X61514D1*
X61996Y72784D1*
X62485Y72295D1*
X62726Y71565D1*
Y71082D1*
X62485Y70352D1*
X61996Y69870D1*
X61514Y69622D1*
X60784D1*
X60295Y69870D1*
X59812Y70352D1*
X58243Y73025D2*
Y69622D1*
Y71565D2*
X57996Y72295D1*
X57513Y72784D1*
X57025Y73025D1*
X56295D1*
X49788Y74727D2*
Y69622D1*
X46874D1*
X42391Y73025D2*
Y69622D1*
Y72295D2*
X42874Y72784D1*
X43363Y73025D1*
X44087D1*
X44575Y72784D1*
X45058Y72295D1*
X45305Y71565D1*
Y71082D1*
X45058Y70352D1*
X44575Y69870D1*
X44087Y69622D1*
X43363D1*
X42874Y69870D1*
X42391Y70352D1*
X40822Y74727D2*
Y69622D1*
Y72295D2*
X40334Y72784D1*
X39851Y73025D1*
X39121D1*
X38638Y72784D1*
X38149Y72295D1*
X37908Y71565D1*
Y71082D1*
X38149Y70352D1*
X38638Y69870D1*
X39121Y69622D1*
X39851D1*
X40334Y69870D1*
X40822Y70352D1*
X33666Y72295D2*
X33908Y72784D1*
X34638Y73025D1*
X35368D1*
X36098Y72784D1*
X36339Y72295D1*
X36098Y71812D1*
X35609Y71565D1*
X34396Y71324D1*
X33908Y71082D1*
X33666Y70594D1*
Y70352D1*
X33908Y69870D1*
X34638Y69622D1*
X35368D1*
X36098Y69870D1*
X36339Y70352D1*
X27160Y74727D2*
Y69622D1*
X25591Y73025D2*
Y69622D1*
Y72054D2*
X24861Y72784D1*
X24373Y73025D1*
X23648D1*
X23160Y72784D1*
X22918Y72054D1*
Y69622D1*
X18430Y72295D2*
X18918Y72784D1*
X19407Y73025D1*
X20131D1*
X20620Y72784D1*
X21103Y72295D1*
X21350Y71565D1*
Y71082D1*
X21103Y70352D1*
X20620Y69870D1*
X20131Y69622D1*
X19407D1*
X18918Y69870D1*
X18430Y70352D1*
X16620Y70111D2*
X16861Y69864D1*
X16620Y69622D1*
X16373Y69864D1*
X16620Y70111D1*
X73832Y62532D2*
X74073Y63015D1*
X74803Y63257D1*
X75286D1*
X76016Y63015D1*
X76504Y62285D1*
X76746Y61072D1*
Y59859D1*
X76504Y58888D1*
X76016Y58399D1*
X75286Y58158D1*
X75044D1*
X74320Y58399D1*
X73832Y58888D1*
X73590Y59618D1*
Y59859D1*
X73832Y60589D1*
X74320Y61072D1*
X75044Y61314D1*
X75286D1*
X76016Y61072D1*
X76504Y60589D1*
X76746Y59859D1*
X69590Y58158D2*
Y63257D1*
X72021Y59859D1*
X68377D1*
X66808Y61561D2*
X64135Y58158D1*
Y61561D2*
X66808Y58158D1*
X53738D2*
X55686Y63262D1*
X57629Y58158D1*
X56899Y59859D2*
X54468D1*
X52169Y60589D2*
X49979D1*
X49255Y60831D1*
X49007Y61078D1*
X48766Y61561D1*
Y62291D1*
X49007Y62774D1*
X49255Y63021D1*
X49979Y63262D1*
X52169D1*
Y58158D1*
X43306D2*
X45254Y63262D1*
X47197Y58158D1*
X46467Y59859D2*
X44036D1*
X41737Y62285D2*
X41249Y62532D1*
X40519Y63257D1*
Y58158D1*
X37490Y63257D2*
X38220Y63015D1*
X38709Y62285D1*
X38950Y61072D1*
Y60342D1*
X38709Y59129D1*
X38220Y58399D1*
X37490Y58158D1*
X37007D1*
X36277Y58399D1*
X35794Y59129D1*
X35547Y60342D1*
Y61072D1*
X35794Y62285D1*
X36277Y63015D1*
X37007Y63257D1*
X37490D1*
X35794Y62285D2*
X38709Y59129D1*
X33731Y62044D2*
Y62285D1*
X33490Y62774D1*
X33249Y63015D1*
X32760Y63257D1*
X31789D1*
X31306Y63015D1*
X31064Y62774D1*
X30817Y62285D1*
Y61802D1*
X31064Y61314D1*
X31547Y60589D1*
X33979Y58158D1*
X30576D1*
X25363Y62049D2*
X25604Y62532D1*
X26093Y63021D1*
X26576Y63262D1*
X27547D1*
X28036Y63021D1*
X28518Y62532D1*
X28766Y62049D1*
X29007Y61319D1*
Y60101D1*
X28766Y59376D1*
X28518Y58888D1*
X28036Y58405D1*
X27547Y58158D1*
X26576D1*
X26093Y58405D1*
X25604Y58888D1*
X25363Y59376D1*
X75858Y45378D2*
Y40274D1*
X72943D1*
X71375Y45378D2*
X71133Y45137D1*
X70886Y45378D1*
X71133Y45625D1*
X71375Y45378D1*
X71133Y43677D2*
Y40274D1*
X66403Y43435D2*
Y39544D1*
X66645Y38820D1*
X66886Y38573D1*
X67375Y38331D1*
X68105D1*
X68588Y38573D1*
X66403Y42705D2*
X66886Y43188D1*
X67375Y43435D1*
X68105D1*
X68588Y43188D1*
X69076Y42705D1*
X69318Y41975D1*
Y41487D1*
X69076Y40763D1*
X68588Y40274D1*
X68105Y40033D1*
X67375D1*
X66886Y40274D1*
X66403Y40763D1*
X64835Y45378D2*
Y40274D1*
Y42705D2*
X64105Y43435D1*
X63616Y43677D1*
X62886D1*
X62403Y43435D1*
X62162Y42705D1*
Y40274D1*
X59863Y45378D2*
Y41245D1*
X59622Y40521D1*
X59133Y40274D1*
X58650D1*
X60593Y43677D2*
X58892D1*
X48741Y44648D2*
X49224Y45137D1*
X49954Y45378D1*
X50925D1*
X51655Y45137D1*
X52144Y44648D1*
Y44165D1*
X51896Y43677D1*
X51655Y43435D1*
X51172Y43194D1*
X49712Y42705D1*
X49224Y42464D1*
X48982Y42217D1*
X48741Y41734D1*
Y41004D1*
X49224Y40521D1*
X49954Y40274D1*
X50925D1*
X51655Y40521D1*
X52144Y41004D1*
X44258Y43677D2*
Y38573D1*
Y42947D2*
X44741Y43430D1*
X45229Y43677D1*
X45959D1*
X46442Y43430D1*
X46931Y42947D1*
X47172Y42217D1*
Y41728D1*
X46931Y41004D1*
X46442Y40515D1*
X45959Y40274D1*
X45229D1*
X44741Y40515D1*
X44258Y41004D1*
X42689Y43677D2*
Y41245D1*
X42448Y40521D1*
X41959Y40274D1*
X41229D1*
X40746Y40521D1*
X40016Y41245D1*
Y43677D2*
Y40274D1*
X35533Y43677D2*
Y40274D1*
Y42947D2*
X36016Y43435D1*
X36505Y43677D1*
X37229D1*
X37717Y43435D1*
X38200Y42947D1*
X38447Y42217D1*
Y41734D1*
X38200Y41004D1*
X37717Y40521D1*
X37229Y40274D1*
X36505D1*
X36016Y40521D1*
X35533Y41004D1*
X33964Y43677D2*
Y40274D1*
Y42217D2*
X33717Y42947D1*
X33234Y43435D1*
X32746Y43677D1*
X32016D1*
X30447Y42217D2*
X27533D1*
Y42705D1*
X27774Y43194D1*
X28016Y43435D1*
X28504Y43677D1*
X29234D1*
X29717Y43435D1*
X30206Y42947D1*
X30447Y42217D1*
Y41734D1*
X30206Y41004D1*
X29717Y40521D1*
X29234Y40274D1*
X28504D1*
X28016Y40521D1*
X27533Y41004D1*
X76160Y22595D2*
X73976D1*
X73246Y22842D1*
X72999Y23084D1*
X72757Y23566D1*
Y24055D1*
X72999Y24538D1*
X73246Y24785D1*
X73976Y25026D1*
X76160D1*
Y19922D1*
X74459Y22595D2*
X72757Y19922D1*
X71188Y21865D2*
X68274D1*
Y22354D1*
X68516Y22842D1*
X68757Y23084D1*
X69246Y23325D1*
X69976D1*
X70458Y23084D1*
X70947Y22595D1*
X71188Y21865D1*
Y21382D1*
X70947Y20652D1*
X70458Y20169D1*
X69976Y19922D1*
X69246D1*
X68757Y20169D1*
X68274Y20652D1*
X66705Y23325D2*
X65245Y19922D1*
X63791Y23325D1*
X61981Y20411D2*
X62222Y20164D1*
X61981Y19922D1*
X61734Y20164D1*
X61981Y20411D1*
X53767Y25021D2*
X54497Y24779D1*
X54986Y24049D1*
X55227Y22836D1*
Y22106D1*
X54986Y20894D1*
X54497Y20164D1*
X53767Y19922D1*
X53284D1*
X52554Y20164D1*
X52072Y20894D1*
X51824Y22106D1*
Y22836D1*
X52072Y24049D1*
X52554Y24779D1*
X53284Y25021D1*
X53767D1*
X52072Y24049D2*
X54986Y20894D1*
X47341Y24296D2*
X47583Y24779D1*
X48313Y25021D1*
X48796D1*
X49526Y24779D1*
X50014Y24049D1*
X50256Y22836D1*
Y21624D1*
X50014Y20652D1*
X49526Y20164D1*
X48796Y19922D1*
X48554D1*
X47830Y20164D1*
X47341Y20652D1*
X47100Y21382D1*
Y21624D1*
X47341Y22354D1*
X47830Y22836D1*
X48554Y23078D1*
X48796D1*
X49526Y22836D1*
X50014Y22354D1*
X50256Y21624D1*
X42668Y23798D2*
Y24040D1*
X42427Y24528D1*
X42185Y24770D1*
X41697Y25011D1*
X40725D1*
X40242Y24770D1*
X40001Y24528D1*
X39754Y24040D1*
Y23557D1*
X40001Y23068D1*
X40484Y22344D1*
X42915Y19913D1*
X39512D1*
X36484Y25011D2*
X37214Y24770D1*
X37702Y24040D1*
X37944Y22827D1*
Y22097D1*
X37702Y20884D1*
X37214Y20154D1*
X36484Y19913D1*
X36001D1*
X35271Y20154D1*
X34788Y20884D1*
X34541Y22097D1*
Y22827D1*
X34788Y24040D1*
X35271Y24770D1*
X36001Y25011D1*
X36484D1*
X34788Y24040D2*
X37702Y20884D1*
X32972Y24040D2*
X32483Y24287D1*
X31753Y25011D1*
Y19913D1*
X27270Y25011D2*
X29696D1*
X29938Y22827D1*
X29696Y23068D1*
X28966Y23316D1*
X28242D1*
X27512Y23068D1*
X27023Y22586D1*
X26782Y21856D1*
Y21373D1*
X27023Y20643D1*
X27512Y20154D1*
X28242Y19913D1*
X28966D1*
X29696Y20154D1*
X29938Y20401D1*
X30185Y20884D1*
X76072Y32610D2*
X73887D1*
X73157Y32857D1*
X72910Y33098D1*
X72669Y33581D1*
Y34070D1*
X72910Y34553D1*
X73157Y34800D1*
X73887Y35041D1*
X76072D1*
Y29937D1*
X74370Y32610D2*
X72669Y29937D1*
X71100Y35041D2*
X70859Y34800D1*
X70611Y35041D1*
X70859Y35288D1*
X71100Y35041D1*
X70859Y33340D2*
Y29937D1*
X66128Y33098D2*
Y29207D1*
X66370Y28482D1*
X66611Y28235D1*
X67100Y27994D1*
X67830D1*
X68313Y28235D1*
X66128Y32368D2*
X66611Y32851D1*
X67100Y33098D1*
X67830D1*
X68313Y32851D1*
X68801Y32368D1*
X69043Y31638D1*
Y31150D1*
X68801Y30425D1*
X68313Y29937D1*
X67830Y29695D1*
X67100D1*
X66611Y29937D1*
X66128Y30425D1*
X64560Y35041D2*
X64318Y34800D1*
X64071Y35041D1*
X64318Y35288D1*
X64560Y35041D1*
X64318Y33340D2*
Y29937D1*
X59588Y35041D2*
Y29937D1*
Y32610D2*
X60071Y33098D1*
X60560Y33340D1*
X61290D1*
X61773Y33098D1*
X62261Y32610D1*
X62503Y31880D1*
Y31397D1*
X62261Y30667D1*
X61773Y30184D1*
X61290Y29937D1*
X60560D1*
X60071Y30184D1*
X59588Y30667D1*
X51869Y35036D2*
X52593Y34794D1*
X52840Y34311D1*
Y33823D1*
X52593Y33340D1*
X52110Y33093D1*
X51139Y32851D1*
X50409Y32610D1*
X49926Y32121D1*
X49684Y31638D1*
Y30908D1*
X49926Y30425D1*
X50167Y30178D1*
X50897Y29937D1*
X51869D1*
X52593Y30178D1*
X52840Y30425D1*
X53082Y30908D1*
Y31638D1*
X52840Y32121D1*
X52352Y32610D1*
X51627Y32851D1*
X50656Y33093D1*
X50167Y33340D1*
X49926Y33823D1*
Y34311D1*
X50167Y34794D1*
X50897Y35036D1*
X51869D1*
X48116Y33340D2*
X45443Y29937D1*
Y33340D2*
X48116Y29937D1*
X42661Y35036D2*
X43386Y34794D1*
X43633Y34311D1*
Y33823D1*
X43386Y33340D1*
X42903Y33093D1*
X41931Y32851D1*
X41201Y32610D1*
X40718Y32121D1*
X40477Y31638D1*
Y30908D1*
X40718Y30425D1*
X40960Y30178D1*
X41690Y29937D1*
X42661D1*
X43386Y30178D1*
X43633Y30425D1*
X43874Y30908D1*
Y31638D1*
X43633Y32121D1*
X43144Y32610D1*
X42420Y32851D1*
X41448Y33093D1*
X40960Y33340D1*
X40718Y33823D1*
Y34311D1*
X40960Y34794D1*
X41690Y35036D1*
X42661D1*
M02*
