G04 DipTrace 2.4.0.2*
%IN64xAPA102Crigid.gtp*%
%MOMM*%
%ADD26O,1.0X1.5*%
%FSLAX53Y53*%
G04*
G71*
G90*
G75*
G01*
%LNTopPaste*%
%LPD*%
D26*
X18150Y15500D3*
X20000D3*
X21850D3*
Y20500D3*
X20000D3*
X18150D3*
Y23500D3*
X20000D3*
X21850D3*
Y28500D3*
X20000D3*
X18150D3*
Y31500D3*
X20000D3*
X21850D3*
Y36500D3*
X20000D3*
X18150D3*
Y39500D3*
X20000D3*
X21850D3*
Y44500D3*
X20000D3*
X18150D3*
Y47500D3*
X20000D3*
X21850D3*
Y52500D3*
X20000D3*
X18150D3*
Y55500D3*
X20000D3*
X21850D3*
Y60500D3*
X20000D3*
X18150D3*
Y63500D3*
X20000D3*
X21850D3*
Y68500D3*
X20000D3*
X18150D3*
Y71500D3*
X20000D3*
X21850D3*
Y76500D3*
X20000D3*
X18150D3*
X29850D3*
X28000D3*
X26150D3*
Y71500D3*
X28000D3*
X29850D3*
Y68500D3*
X28000D3*
X26150D3*
Y63500D3*
X28000D3*
X29850D3*
Y60500D3*
X28000D3*
X26150D3*
Y55500D3*
X28000D3*
X29850D3*
Y52500D3*
X28000D3*
X26150D3*
Y47500D3*
X28000D3*
X29850D3*
Y44500D3*
X28000D3*
X26150D3*
Y39500D3*
X28000D3*
X29850D3*
Y36500D3*
X28000D3*
X26150D3*
Y31500D3*
X28000D3*
X29850D3*
Y28500D3*
X28000D3*
X26150D3*
Y23500D3*
X28000D3*
X29850D3*
Y20500D3*
X28000D3*
X26150D3*
Y15500D3*
X28000D3*
X29850D3*
X34150D3*
X36000D3*
X37850D3*
Y20500D3*
X36000D3*
X34150D3*
Y23500D3*
X36000D3*
X37850D3*
Y28500D3*
X36000D3*
X34150D3*
Y31500D3*
X36000D3*
X37850D3*
Y36500D3*
X36000D3*
X34150D3*
Y39500D3*
X36000D3*
X37850D3*
Y44500D3*
X36000D3*
X34150D3*
Y47500D3*
X36000D3*
X37850D3*
Y52500D3*
X36000D3*
X34150D3*
Y55500D3*
X36000D3*
X37850D3*
Y60500D3*
X36000D3*
X34150D3*
Y63500D3*
X36000D3*
X37850D3*
Y68500D3*
X36000D3*
X34150D3*
Y71500D3*
X36000D3*
X37850D3*
Y76500D3*
X36000D3*
X34150D3*
X45850D3*
X44000D3*
X42150D3*
Y71500D3*
X44000D3*
X45850D3*
Y68500D3*
X44000D3*
X42150D3*
Y63500D3*
X44000D3*
X45850D3*
Y60500D3*
X44000D3*
X42150D3*
Y55500D3*
X44000D3*
X45850D3*
Y52500D3*
X44000D3*
X42150D3*
Y47500D3*
X44000D3*
X45850D3*
Y44500D3*
X44000D3*
X42150D3*
Y39500D3*
X44000D3*
X45850D3*
Y36500D3*
X44000D3*
X42150D3*
Y31500D3*
X44000D3*
X45850D3*
Y28500D3*
X44000D3*
X42150D3*
Y23500D3*
X44000D3*
X45850D3*
Y20500D3*
X44000D3*
X42150D3*
Y15500D3*
X44000D3*
X45850D3*
X50150D3*
X52000D3*
X53850D3*
Y20500D3*
X52000D3*
X50150D3*
Y23500D3*
X52000D3*
X53850D3*
Y28500D3*
X52000D3*
X50150D3*
Y31500D3*
X52000D3*
X53850D3*
Y36500D3*
X52000D3*
X50150D3*
Y39500D3*
X52000D3*
X53850D3*
Y44500D3*
X52000D3*
X50150D3*
Y47500D3*
X52000D3*
X53850D3*
Y52500D3*
X52000D3*
X50150D3*
Y55500D3*
X52000D3*
X53850D3*
Y60500D3*
X52000D3*
X50150D3*
Y63500D3*
X52000D3*
X53850D3*
Y68500D3*
X52000D3*
X50150D3*
Y71500D3*
X52000D3*
X53850D3*
Y76500D3*
X52000D3*
X50150D3*
X61850D3*
X60000D3*
X58150D3*
Y71500D3*
X60000D3*
X61850D3*
Y68500D3*
X60000D3*
X58150D3*
Y63500D3*
X60000D3*
X61850D3*
Y60500D3*
X60000D3*
X58150D3*
Y55500D3*
X60000D3*
X61850D3*
Y52500D3*
X60000D3*
X58150D3*
Y47500D3*
X60000D3*
X61850D3*
Y44500D3*
X60000D3*
X58150D3*
Y39500D3*
X60000D3*
X61850D3*
Y36500D3*
X60000D3*
X58150D3*
Y31500D3*
X60000D3*
X61850D3*
Y28500D3*
X60000D3*
X58150D3*
Y23500D3*
X60000D3*
X61850D3*
Y20500D3*
X60000D3*
X58150D3*
Y15500D3*
X60000D3*
X61850D3*
X66150D3*
X68000D3*
X69850D3*
Y20500D3*
X68000D3*
X66150D3*
Y23500D3*
X68000D3*
X69850D3*
Y28500D3*
X68000D3*
X66150D3*
Y31500D3*
X68000D3*
X69850D3*
Y36500D3*
X68000D3*
X66150D3*
Y39500D3*
X68000D3*
X69850D3*
Y44500D3*
X68000D3*
X66150D3*
Y47500D3*
X68000D3*
X69850D3*
Y52500D3*
X68000D3*
X66150D3*
Y55500D3*
X68000D3*
X69850D3*
Y60500D3*
X68000D3*
X66150D3*
Y63500D3*
X68000D3*
X69850D3*
Y68500D3*
X68000D3*
X66150D3*
Y71500D3*
X68000D3*
X69850D3*
Y76500D3*
X68000D3*
X66150D3*
X77850D3*
X76000D3*
X74150D3*
Y71500D3*
X76000D3*
X77850D3*
Y68500D3*
X76000D3*
X74150D3*
Y63500D3*
X76000D3*
X77850D3*
Y60500D3*
X76000D3*
X74150D3*
Y55500D3*
X76000D3*
X77850D3*
Y52500D3*
X76000D3*
X74150D3*
Y47500D3*
X76000D3*
X77850D3*
Y44500D3*
X76000D3*
X74150D3*
Y39500D3*
X76000D3*
X77850D3*
Y36500D3*
X76000D3*
X74150D3*
Y31500D3*
X76000D3*
X77850D3*
Y28500D3*
X76000D3*
X74150D3*
Y23500D3*
X76000D3*
X77850D3*
Y20500D3*
X76000D3*
X74150D3*
Y15500D3*
X76000D3*
X77850D3*
M02*
