M48
METRIC,0000.00
T01C1.0
T02C1.016
%
T01
X+001125Y+001673
X+001125Y+001419
X+001125Y+001927
X+001125Y+002181
X+001415Y+002852
X+002381Y+002901
X+002203Y+003493
X+002657Y+003835
X+002263Y+004469
X+003274Y+004263
X+001654Y+006055
X+002386Y+007467
X+003969Y+007400
X+005641Y+007432
X+007145Y+007416
X+007696Y+002625
X+008275Y+002181
X+008275Y+001927
X+008275Y+001673
X+008275Y+001419
X+006411Y+001794
X+004765Y+001770
X+003165Y+001791
X+001896Y+001799
T02
X+002419Y+003195
X+002419Y+003449
X+002419Y+003703
X+002419Y+003957
X+002419Y+004211
X+001149Y+004211
X+001149Y+003957
X+001149Y+003703
X+001149Y+003449
X+001149Y+003195
T00
M30
