G04 DipTrace 2.4.0.2*
%IN144xAPA102Cx16mm.gts*%
%MOMM*%
%ADD27O,4.55X2.05*%
%ADD28O,2.05X4.55*%
%ADD29O,1.05X1.55*%
%ADD30O,1.55X1.05*%
%ADD31C,2.05*%
%ADD32R,1.3X2.05*%
%FSLAX53Y53*%
G04*
G71*
G90*
G75*
G01*
%LNTopMask*%
%LPD*%
D32*
X204375Y16730D3*
D31*
X203750D3*
D32*
X204375Y14190D3*
Y19270D3*
D31*
X203750D3*
Y14190D3*
D32*
X204375Y21810D3*
D31*
X203750D3*
D30*
X15500Y19850D3*
Y18000D3*
Y16150D3*
X20500D3*
Y18000D3*
Y19850D3*
D29*
X16150Y31500D3*
X18000D3*
X19850D3*
Y36500D3*
X18000D3*
X16150D3*
D28*
X19270Y26000D3*
D31*
Y27250D3*
Y24750D3*
D28*
X21810Y26000D3*
X16730D3*
D31*
Y27250D3*
Y24750D3*
X21810Y27250D3*
Y24750D3*
D28*
X14190Y26000D3*
D31*
Y27250D3*
Y24750D3*
D30*
X31500Y35850D3*
Y34000D3*
Y32150D3*
X36500D3*
Y34000D3*
Y35850D3*
D27*
X26000Y32730D3*
D31*
X27250D3*
X24750D3*
D27*
X26000Y30190D3*
Y35270D3*
D31*
X27250D3*
X24750D3*
X27250Y30190D3*
X24750D3*
D27*
X26000Y37810D3*
D31*
X27250D3*
X24750D3*
D29*
X35850Y20500D3*
X34000D3*
X32150D3*
Y15500D3*
X34000D3*
X35850D3*
D28*
X32730Y26000D3*
D31*
Y24750D3*
Y27250D3*
D28*
X30190Y26000D3*
X35270D3*
D31*
Y24750D3*
Y27250D3*
X30190Y24750D3*
Y27250D3*
D28*
X37810Y26000D3*
D31*
Y24750D3*
Y27250D3*
D30*
X47500Y19850D3*
Y18000D3*
Y16150D3*
X52500D3*
Y18000D3*
Y19850D3*
D27*
X42000Y16730D3*
D31*
X43250D3*
X40750D3*
D27*
X42000Y14190D3*
Y19270D3*
D31*
X43250D3*
X40750D3*
X43250Y14190D3*
X40750D3*
D27*
X42000Y21810D3*
D31*
X43250D3*
X40750D3*
D29*
X48150Y31500D3*
X50000D3*
X51850D3*
Y36500D3*
X50000D3*
X48150D3*
D28*
X51270Y26000D3*
D31*
Y27250D3*
Y24750D3*
D28*
X53810Y26000D3*
X48730D3*
D31*
Y27250D3*
Y24750D3*
X53810Y27250D3*
Y24750D3*
D28*
X46190Y26000D3*
D31*
Y27250D3*
Y24750D3*
D29*
X48150Y47500D3*
X50000D3*
X51850D3*
Y52500D3*
X50000D3*
X48150D3*
D28*
X51270Y42000D3*
D31*
Y43250D3*
Y40750D3*
D28*
X53810Y42000D3*
X48730D3*
D31*
Y43250D3*
Y40750D3*
X53810Y43250D3*
Y40750D3*
D28*
X46190Y42000D3*
D31*
Y43250D3*
Y40750D3*
D30*
X36500Y48150D3*
Y50000D3*
Y51850D3*
X31500D3*
Y50000D3*
Y48150D3*
D27*
X42000Y51270D3*
D31*
X40750D3*
X43250D3*
D27*
X42000Y53810D3*
Y48730D3*
D31*
X40750D3*
X43250D3*
X40750Y53810D3*
X43250D3*
D27*
X42000Y46190D3*
D31*
X40750D3*
X43250D3*
D30*
X20500Y48150D3*
Y50000D3*
Y51850D3*
X15500D3*
Y50000D3*
Y48150D3*
D27*
X26000Y51270D3*
D31*
X24750D3*
X27250D3*
D27*
X26000Y53810D3*
Y48730D3*
D31*
X24750D3*
X27250D3*
X24750Y53810D3*
X27250D3*
D27*
X26000Y46190D3*
D31*
X24750D3*
X27250D3*
D29*
X16150Y63500D3*
X18000D3*
X19850D3*
Y68500D3*
X18000D3*
X16150D3*
D28*
X19270Y58000D3*
D31*
Y59250D3*
Y56750D3*
D28*
X21810Y58000D3*
X16730D3*
D31*
Y59250D3*
Y56750D3*
X21810Y59250D3*
Y56750D3*
D28*
X14190Y58000D3*
D31*
Y59250D3*
Y56750D3*
D30*
X31500Y67850D3*
Y66000D3*
Y64150D3*
X36500D3*
Y66000D3*
Y67850D3*
D27*
X26000Y64730D3*
D31*
X27250D3*
X24750D3*
D27*
X26000Y62190D3*
Y67270D3*
D31*
X27250D3*
X24750D3*
X27250Y62190D3*
X24750D3*
D27*
X26000Y69810D3*
D31*
X27250D3*
X24750D3*
D30*
X47500Y67850D3*
Y66000D3*
Y64150D3*
X52500D3*
Y66000D3*
Y67850D3*
D27*
X42000Y64730D3*
D31*
X43250D3*
X40750D3*
D27*
X42000Y62190D3*
Y67270D3*
D31*
X43250D3*
X40750D3*
X43250Y62190D3*
X40750D3*
D27*
X42000Y69810D3*
D31*
X43250D3*
X40750D3*
D30*
X63500Y67850D3*
Y66000D3*
Y64150D3*
X68500D3*
Y66000D3*
Y67850D3*
D27*
X58000Y64730D3*
D31*
X59250D3*
X56750D3*
D27*
X58000Y62190D3*
Y67270D3*
D31*
X59250D3*
X56750D3*
X59250Y62190D3*
X56750D3*
D27*
X58000Y69810D3*
D31*
X59250D3*
X56750D3*
D29*
X67850Y52500D3*
X66000D3*
X64150D3*
Y47500D3*
X66000D3*
X67850D3*
D28*
X64730Y58000D3*
D31*
Y56750D3*
Y59250D3*
D28*
X62190Y58000D3*
X67270D3*
D31*
Y56750D3*
Y59250D3*
X62190Y56750D3*
Y59250D3*
D28*
X69810Y58000D3*
D31*
Y56750D3*
Y59250D3*
D29*
X67850Y36500D3*
X66000D3*
X64150D3*
Y31500D3*
X66000D3*
X67850D3*
D28*
X64730Y42000D3*
D31*
Y40750D3*
Y43250D3*
D28*
X62190Y42000D3*
X67270D3*
D31*
Y40750D3*
Y43250D3*
X62190Y40750D3*
Y43250D3*
D28*
X69810Y42000D3*
D31*
Y40750D3*
Y43250D3*
D29*
X67850Y20500D3*
X66000D3*
X64150D3*
Y15500D3*
X66000D3*
X67850D3*
D28*
X64730Y26000D3*
D31*
Y24750D3*
Y27250D3*
D28*
X62190Y26000D3*
X67270D3*
D31*
Y24750D3*
Y27250D3*
X62190Y24750D3*
Y27250D3*
D28*
X69810Y26000D3*
D31*
Y24750D3*
Y27250D3*
D30*
X79500Y19850D3*
Y18000D3*
Y16150D3*
X84500D3*
Y18000D3*
Y19850D3*
D27*
X74000Y16730D3*
D31*
X75250D3*
X72750D3*
D27*
X74000Y14190D3*
Y19270D3*
D31*
X75250D3*
X72750D3*
X75250Y14190D3*
X72750D3*
D27*
X74000Y21810D3*
D31*
X75250D3*
X72750D3*
D29*
X80150Y31500D3*
X82000D3*
X83850D3*
Y36500D3*
X82000D3*
X80150D3*
D28*
X83270Y26000D3*
D31*
Y27250D3*
Y24750D3*
D28*
X85810Y26000D3*
X80730D3*
D31*
Y27250D3*
Y24750D3*
X85810Y27250D3*
Y24750D3*
D28*
X78190Y26000D3*
D31*
Y27250D3*
Y24750D3*
D29*
X80150Y47500D3*
X82000D3*
X83850D3*
Y52500D3*
X82000D3*
X80150D3*
D28*
X83270Y42000D3*
D31*
Y43250D3*
Y40750D3*
D28*
X85810Y42000D3*
X80730D3*
D31*
Y43250D3*
Y40750D3*
X85810Y43250D3*
Y40750D3*
D28*
X78190Y42000D3*
D31*
Y43250D3*
Y40750D3*
D29*
X80150Y63500D3*
X82000D3*
X83850D3*
Y68500D3*
X82000D3*
X80150D3*
D28*
X83270Y58000D3*
D31*
Y59250D3*
Y56750D3*
D28*
X85810Y58000D3*
X80730D3*
D31*
Y59250D3*
Y56750D3*
X85810Y59250D3*
Y56750D3*
D28*
X78190Y58000D3*
D31*
Y59250D3*
Y56750D3*
D29*
X80150Y79500D3*
X82000D3*
X83850D3*
Y84500D3*
X82000D3*
X80150D3*
D28*
X83270Y74000D3*
D31*
Y75250D3*
Y72750D3*
D28*
X85810Y74000D3*
X80730D3*
D31*
Y75250D3*
Y72750D3*
X85810Y75250D3*
Y72750D3*
D28*
X78190Y74000D3*
D31*
Y75250D3*
Y72750D3*
D30*
X68500Y80150D3*
Y82000D3*
Y83850D3*
X63500D3*
Y82000D3*
Y80150D3*
D27*
X74000Y83270D3*
D31*
X72750D3*
X75250D3*
D27*
X74000Y85810D3*
Y80730D3*
D31*
X72750D3*
X75250D3*
X72750Y85810D3*
X75250D3*
D27*
X74000Y78190D3*
D31*
X72750D3*
X75250D3*
D30*
X52500Y80150D3*
Y82000D3*
Y83850D3*
X47500D3*
Y82000D3*
Y80150D3*
D27*
X58000Y83270D3*
D31*
X56750D3*
X59250D3*
D27*
X58000Y85810D3*
Y80730D3*
D31*
X56750D3*
X59250D3*
X56750Y85810D3*
X59250D3*
D27*
X58000Y78190D3*
D31*
X56750D3*
X59250D3*
D30*
X36500Y80150D3*
Y82000D3*
Y83850D3*
X31500D3*
Y82000D3*
Y80150D3*
D27*
X42000Y83270D3*
D31*
X40750D3*
X43250D3*
D27*
X42000Y85810D3*
Y80730D3*
D31*
X40750D3*
X43250D3*
X40750Y85810D3*
X43250D3*
D27*
X42000Y78190D3*
D31*
X40750D3*
X43250D3*
D30*
X20500Y80150D3*
Y82000D3*
Y83850D3*
X15500D3*
Y82000D3*
Y80150D3*
D27*
X26000Y83270D3*
D31*
X24750D3*
X27250D3*
D27*
X26000Y85810D3*
Y80730D3*
D31*
X24750D3*
X27250D3*
X24750Y85810D3*
X27250D3*
D27*
X26000Y78190D3*
D31*
X24750D3*
X27250D3*
D29*
X16150Y95500D3*
X18000D3*
X19850D3*
Y100500D3*
X18000D3*
X16150D3*
D28*
X19270Y90000D3*
D31*
Y91250D3*
Y88750D3*
D28*
X21810Y90000D3*
X16730D3*
D31*
Y91250D3*
Y88750D3*
X21810Y91250D3*
Y88750D3*
D28*
X14190Y90000D3*
D31*
Y91250D3*
Y88750D3*
D30*
X31500Y99850D3*
Y98000D3*
Y96150D3*
X36500D3*
Y98000D3*
Y99850D3*
D27*
X26000Y96730D3*
D31*
X27250D3*
X24750D3*
D27*
X26000Y94190D3*
Y99270D3*
D31*
X27250D3*
X24750D3*
X27250Y94190D3*
X24750D3*
D27*
X26000Y101810D3*
D31*
X27250D3*
X24750D3*
D30*
X47500Y99850D3*
Y98000D3*
Y96150D3*
X52500D3*
Y98000D3*
Y99850D3*
D27*
X42000Y96730D3*
D31*
X43250D3*
X40750D3*
D27*
X42000Y94190D3*
Y99270D3*
D31*
X43250D3*
X40750D3*
X43250Y94190D3*
X40750D3*
D27*
X42000Y101810D3*
D31*
X43250D3*
X40750D3*
D30*
X63500Y99850D3*
Y98000D3*
Y96150D3*
X68500D3*
Y98000D3*
Y99850D3*
D27*
X58000Y96730D3*
D31*
X59250D3*
X56750D3*
D27*
X58000Y94190D3*
Y99270D3*
D31*
X59250D3*
X56750D3*
X59250Y94190D3*
X56750D3*
D27*
X58000Y101810D3*
D31*
X59250D3*
X56750D3*
D30*
X79500Y99850D3*
Y98000D3*
Y96150D3*
X84500D3*
Y98000D3*
Y99850D3*
D27*
X74000Y96730D3*
D31*
X75250D3*
X72750D3*
D27*
X74000Y94190D3*
Y99270D3*
D31*
X75250D3*
X72750D3*
X75250Y94190D3*
X72750D3*
D27*
X74000Y101810D3*
D31*
X75250D3*
X72750D3*
D30*
X95500Y99850D3*
Y98000D3*
Y96150D3*
X100500D3*
Y98000D3*
Y99850D3*
D27*
X90000Y96730D3*
D31*
X91250D3*
X88750D3*
D27*
X90000Y94190D3*
Y99270D3*
D31*
X91250D3*
X88750D3*
X91250Y94190D3*
X88750D3*
D27*
X90000Y101810D3*
D31*
X91250D3*
X88750D3*
D29*
X99850Y84500D3*
X98000D3*
X96150D3*
Y79500D3*
X98000D3*
X99850D3*
D28*
X96730Y90000D3*
D31*
Y88750D3*
Y91250D3*
D28*
X94190Y90000D3*
X99270D3*
D31*
Y88750D3*
Y91250D3*
X94190Y88750D3*
Y91250D3*
D28*
X101810Y90000D3*
D31*
Y88750D3*
Y91250D3*
D29*
X99850Y68500D3*
X98000D3*
X96150D3*
Y63500D3*
X98000D3*
X99850D3*
D28*
X96730Y74000D3*
D31*
Y72750D3*
Y75250D3*
D28*
X94190Y74000D3*
X99270D3*
D31*
Y72750D3*
Y75250D3*
X94190Y72750D3*
Y75250D3*
D28*
X101810Y74000D3*
D31*
Y72750D3*
Y75250D3*
D29*
X99850Y52500D3*
X98000D3*
X96150D3*
Y47500D3*
X98000D3*
X99850D3*
D28*
X96730Y58000D3*
D31*
Y56750D3*
Y59250D3*
D28*
X94190Y58000D3*
X99270D3*
D31*
Y56750D3*
Y59250D3*
X94190Y56750D3*
Y59250D3*
D28*
X101810Y58000D3*
D31*
Y56750D3*
Y59250D3*
D29*
X99850Y36500D3*
X98000D3*
X96150D3*
Y31500D3*
X98000D3*
X99850D3*
D28*
X96730Y42000D3*
D31*
Y40750D3*
Y43250D3*
D28*
X94190Y42000D3*
X99270D3*
D31*
Y40750D3*
Y43250D3*
X94190Y40750D3*
Y43250D3*
D28*
X101810Y42000D3*
D31*
Y40750D3*
Y43250D3*
D29*
X99850Y20500D3*
X98000D3*
X96150D3*
Y15500D3*
X98000D3*
X99850D3*
D28*
X96730Y26000D3*
D31*
Y24750D3*
Y27250D3*
D28*
X94190Y26000D3*
X99270D3*
D31*
Y24750D3*
Y27250D3*
X94190Y24750D3*
Y27250D3*
D28*
X101810Y26000D3*
D31*
Y24750D3*
Y27250D3*
D30*
X111500Y19850D3*
Y18000D3*
Y16150D3*
X116500D3*
Y18000D3*
Y19850D3*
D27*
X106000Y16730D3*
D31*
X107250D3*
X104750D3*
D27*
X106000Y14190D3*
Y19270D3*
D31*
X107250D3*
X104750D3*
X107250Y14190D3*
X104750D3*
D27*
X106000Y21810D3*
D31*
X107250D3*
X104750D3*
D29*
X112150Y31500D3*
X114000D3*
X115850D3*
Y36500D3*
X114000D3*
X112150D3*
D28*
X115270Y26000D3*
D31*
Y27250D3*
Y24750D3*
D28*
X117810Y26000D3*
X112730D3*
D31*
Y27250D3*
Y24750D3*
X117810Y27250D3*
Y24750D3*
D28*
X110190Y26000D3*
D31*
Y27250D3*
Y24750D3*
D29*
X112150Y47500D3*
X114000D3*
X115850D3*
Y52500D3*
X114000D3*
X112150D3*
D28*
X115270Y42000D3*
D31*
Y43250D3*
Y40750D3*
D28*
X117810Y42000D3*
X112730D3*
D31*
Y43250D3*
Y40750D3*
X117810Y43250D3*
Y40750D3*
D28*
X110190Y42000D3*
D31*
Y43250D3*
Y40750D3*
D29*
X112150Y63500D3*
X114000D3*
X115850D3*
Y68500D3*
X114000D3*
X112150D3*
D28*
X115270Y58000D3*
D31*
Y59250D3*
Y56750D3*
D28*
X117810Y58000D3*
X112730D3*
D31*
Y59250D3*
Y56750D3*
X117810Y59250D3*
Y56750D3*
D28*
X110190Y58000D3*
D31*
Y59250D3*
Y56750D3*
D29*
X112150Y79500D3*
X114000D3*
X115850D3*
Y84500D3*
X114000D3*
X112150D3*
D28*
X115270Y74000D3*
D31*
Y75250D3*
Y72750D3*
D28*
X117810Y74000D3*
X112730D3*
D31*
Y75250D3*
Y72750D3*
X117810Y75250D3*
Y72750D3*
D28*
X110190Y74000D3*
D31*
Y75250D3*
Y72750D3*
D29*
X112150Y95500D3*
X114000D3*
X115850D3*
Y100500D3*
X114000D3*
X112150D3*
D28*
X115270Y90000D3*
D31*
Y91250D3*
Y88750D3*
D28*
X117810Y90000D3*
X112730D3*
D31*
Y91250D3*
Y88750D3*
X117810Y91250D3*
Y88750D3*
D28*
X110190Y90000D3*
D31*
Y91250D3*
Y88750D3*
D29*
X112150Y111500D3*
X114000D3*
X115850D3*
Y116500D3*
X114000D3*
X112150D3*
D28*
X115270Y106000D3*
D31*
Y107250D3*
Y104750D3*
D28*
X117810Y106000D3*
X112730D3*
D31*
Y107250D3*
Y104750D3*
X117810Y107250D3*
Y104750D3*
D28*
X110190Y106000D3*
D31*
Y107250D3*
Y104750D3*
D30*
X100500Y112150D3*
Y114000D3*
Y115850D3*
X95500D3*
Y114000D3*
Y112150D3*
D27*
X106000Y115270D3*
D31*
X104750D3*
X107250D3*
D27*
X106000Y117810D3*
Y112730D3*
D31*
X104750D3*
X107250D3*
X104750Y117810D3*
X107250D3*
D27*
X106000Y110190D3*
D31*
X104750D3*
X107250D3*
D30*
X84500Y112150D3*
Y114000D3*
Y115850D3*
X79500D3*
Y114000D3*
Y112150D3*
D27*
X90000Y115270D3*
D31*
X88750D3*
X91250D3*
D27*
X90000Y117810D3*
Y112730D3*
D31*
X88750D3*
X91250D3*
X88750Y117810D3*
X91250D3*
D27*
X90000Y110190D3*
D31*
X88750D3*
X91250D3*
D30*
X68500Y112150D3*
Y114000D3*
Y115850D3*
X63500D3*
Y114000D3*
Y112150D3*
D27*
X74000Y115270D3*
D31*
X72750D3*
X75250D3*
D27*
X74000Y117810D3*
Y112730D3*
D31*
X72750D3*
X75250D3*
X72750Y117810D3*
X75250D3*
D27*
X74000Y110190D3*
D31*
X72750D3*
X75250D3*
D30*
X52500Y112150D3*
Y114000D3*
Y115850D3*
X47500D3*
Y114000D3*
Y112150D3*
D27*
X58000Y115270D3*
D31*
X56750D3*
X59250D3*
D27*
X58000Y117810D3*
Y112730D3*
D31*
X56750D3*
X59250D3*
X56750Y117810D3*
X59250D3*
D27*
X58000Y110190D3*
D31*
X56750D3*
X59250D3*
D30*
X36500Y112150D3*
Y114000D3*
Y115850D3*
X31500D3*
Y114000D3*
Y112150D3*
D27*
X42000Y115270D3*
D31*
X40750D3*
X43250D3*
D27*
X42000Y117810D3*
Y112730D3*
D31*
X40750D3*
X43250D3*
X40750Y117810D3*
X43250D3*
D27*
X42000Y110190D3*
D31*
X40750D3*
X43250D3*
D30*
X20500Y112150D3*
Y114000D3*
Y115850D3*
X15500D3*
Y114000D3*
Y112150D3*
D27*
X26000Y115270D3*
D31*
X24750D3*
X27250D3*
D27*
X26000Y117810D3*
Y112730D3*
D31*
X24750D3*
X27250D3*
X24750Y117810D3*
X27250D3*
D27*
X26000Y110190D3*
D31*
X24750D3*
X27250D3*
D29*
X16150Y127500D3*
X18000D3*
X19850D3*
Y132500D3*
X18000D3*
X16150D3*
D28*
X19270Y122000D3*
D31*
Y123250D3*
Y120750D3*
D28*
X21810Y122000D3*
X16730D3*
D31*
Y123250D3*
Y120750D3*
X21810Y123250D3*
Y120750D3*
D28*
X14190Y122000D3*
D31*
Y123250D3*
Y120750D3*
D30*
X31500Y131850D3*
Y130000D3*
Y128150D3*
X36500D3*
Y130000D3*
Y131850D3*
D27*
X26000Y128730D3*
D31*
X27250D3*
X24750D3*
D27*
X26000Y126190D3*
Y131270D3*
D31*
X27250D3*
X24750D3*
X27250Y126190D3*
X24750D3*
D27*
X26000Y133810D3*
D31*
X27250D3*
X24750D3*
D30*
X47500Y131850D3*
Y130000D3*
Y128150D3*
X52500D3*
Y130000D3*
Y131850D3*
D27*
X42000Y128730D3*
D31*
X43250D3*
X40750D3*
D27*
X42000Y126190D3*
Y131270D3*
D31*
X43250D3*
X40750D3*
X43250Y126190D3*
X40750D3*
D27*
X42000Y133810D3*
D31*
X43250D3*
X40750D3*
D30*
X63500Y131850D3*
Y130000D3*
Y128150D3*
X68500D3*
Y130000D3*
Y131850D3*
D27*
X58000Y128730D3*
D31*
X59250D3*
X56750D3*
D27*
X58000Y126190D3*
Y131270D3*
D31*
X59250D3*
X56750D3*
X59250Y126190D3*
X56750D3*
D27*
X58000Y133810D3*
D31*
X59250D3*
X56750D3*
D30*
X79500Y131850D3*
Y130000D3*
Y128150D3*
X84500D3*
Y130000D3*
Y131850D3*
D27*
X74000Y128730D3*
D31*
X75250D3*
X72750D3*
D27*
X74000Y126190D3*
Y131270D3*
D31*
X75250D3*
X72750D3*
X75250Y126190D3*
X72750D3*
D27*
X74000Y133810D3*
D31*
X75250D3*
X72750D3*
D30*
X95500Y131850D3*
Y130000D3*
Y128150D3*
X100500D3*
Y130000D3*
Y131850D3*
D27*
X90000Y128730D3*
D31*
X91250D3*
X88750D3*
D27*
X90000Y126190D3*
Y131270D3*
D31*
X91250D3*
X88750D3*
X91250Y126190D3*
X88750D3*
D27*
X90000Y133810D3*
D31*
X91250D3*
X88750D3*
D30*
X111500Y131850D3*
Y130000D3*
Y128150D3*
X116500D3*
Y130000D3*
Y131850D3*
D27*
X106000Y128730D3*
D31*
X107250D3*
X104750D3*
D27*
X106000Y126190D3*
Y131270D3*
D31*
X107250D3*
X104750D3*
X107250Y126190D3*
X104750D3*
D27*
X106000Y133810D3*
D31*
X107250D3*
X104750D3*
D30*
X127500Y131850D3*
Y130000D3*
Y128150D3*
X132500D3*
Y130000D3*
Y131850D3*
D27*
X122000Y128730D3*
D31*
X123250D3*
X120750D3*
D27*
X122000Y126190D3*
Y131270D3*
D31*
X123250D3*
X120750D3*
X123250Y126190D3*
X120750D3*
D27*
X122000Y133810D3*
D31*
X123250D3*
X120750D3*
D29*
X131850Y116500D3*
X130000D3*
X128150D3*
Y111500D3*
X130000D3*
X131850D3*
D28*
X128730Y122000D3*
D31*
Y120750D3*
Y123250D3*
D28*
X126190Y122000D3*
X131270D3*
D31*
Y120750D3*
Y123250D3*
X126190Y120750D3*
Y123250D3*
D28*
X133810Y122000D3*
D31*
Y120750D3*
Y123250D3*
D29*
X131850Y100500D3*
X130000D3*
X128150D3*
Y95500D3*
X130000D3*
X131850D3*
D28*
X128730Y106000D3*
D31*
Y104750D3*
Y107250D3*
D28*
X126190Y106000D3*
X131270D3*
D31*
Y104750D3*
Y107250D3*
X126190Y104750D3*
Y107250D3*
D28*
X133810Y106000D3*
D31*
Y104750D3*
Y107250D3*
D29*
X131850Y84500D3*
X130000D3*
X128150D3*
Y79500D3*
X130000D3*
X131850D3*
D28*
X128730Y90000D3*
D31*
Y88750D3*
Y91250D3*
D28*
X126190Y90000D3*
X131270D3*
D31*
Y88750D3*
Y91250D3*
X126190Y88750D3*
Y91250D3*
D28*
X133810Y90000D3*
D31*
Y88750D3*
Y91250D3*
D29*
X131850Y68500D3*
X130000D3*
X128150D3*
Y63500D3*
X130000D3*
X131850D3*
D28*
X128730Y74000D3*
D31*
Y72750D3*
Y75250D3*
D28*
X126190Y74000D3*
X131270D3*
D31*
Y72750D3*
Y75250D3*
X126190Y72750D3*
Y75250D3*
D28*
X133810Y74000D3*
D31*
Y72750D3*
Y75250D3*
D29*
X131850Y52500D3*
X130000D3*
X128150D3*
Y47500D3*
X130000D3*
X131850D3*
D28*
X128730Y58000D3*
D31*
Y56750D3*
Y59250D3*
D28*
X126190Y58000D3*
X131270D3*
D31*
Y56750D3*
Y59250D3*
X126190Y56750D3*
Y59250D3*
D28*
X133810Y58000D3*
D31*
Y56750D3*
Y59250D3*
D29*
X131850Y36500D3*
X130000D3*
X128150D3*
Y31500D3*
X130000D3*
X131850D3*
D28*
X128730Y42000D3*
D31*
Y40750D3*
Y43250D3*
D28*
X126190Y42000D3*
X131270D3*
D31*
Y40750D3*
Y43250D3*
X126190Y40750D3*
Y43250D3*
D28*
X133810Y42000D3*
D31*
Y40750D3*
Y43250D3*
D29*
X131850Y20500D3*
X130000D3*
X128150D3*
Y15500D3*
X130000D3*
X131850D3*
D28*
X128730Y26000D3*
D31*
Y24750D3*
Y27250D3*
D28*
X126190Y26000D3*
X131270D3*
D31*
Y24750D3*
Y27250D3*
X126190Y24750D3*
Y27250D3*
D28*
X133810Y26000D3*
D31*
Y24750D3*
Y27250D3*
D30*
X143500Y19850D3*
Y18000D3*
Y16150D3*
X148500D3*
Y18000D3*
Y19850D3*
D27*
X138000Y16730D3*
D31*
X139250D3*
X136750D3*
D27*
X138000Y14190D3*
Y19270D3*
D31*
X139250D3*
X136750D3*
X139250Y14190D3*
X136750D3*
D27*
X138000Y21810D3*
D31*
X139250D3*
X136750D3*
D29*
X144150Y31500D3*
X146000D3*
X147850D3*
Y36500D3*
X146000D3*
X144150D3*
D28*
X147270Y26000D3*
D31*
Y27250D3*
Y24750D3*
D28*
X149810Y26000D3*
X144730D3*
D31*
Y27250D3*
Y24750D3*
X149810Y27250D3*
Y24750D3*
D28*
X142190Y26000D3*
D31*
Y27250D3*
Y24750D3*
D29*
X144150Y47500D3*
X146000D3*
X147850D3*
Y52500D3*
X146000D3*
X144150D3*
D28*
X147270Y42000D3*
D31*
Y43250D3*
Y40750D3*
D28*
X149810Y42000D3*
X144730D3*
D31*
Y43250D3*
Y40750D3*
X149810Y43250D3*
Y40750D3*
D28*
X142190Y42000D3*
D31*
Y43250D3*
Y40750D3*
D29*
X144150Y63500D3*
X146000D3*
X147850D3*
Y68500D3*
X146000D3*
X144150D3*
D28*
X147270Y58000D3*
D31*
Y59250D3*
Y56750D3*
D28*
X149810Y58000D3*
X144730D3*
D31*
Y59250D3*
Y56750D3*
X149810Y59250D3*
Y56750D3*
D28*
X142190Y58000D3*
D31*
Y59250D3*
Y56750D3*
D29*
X144150Y79500D3*
X146000D3*
X147850D3*
Y84500D3*
X146000D3*
X144150D3*
D28*
X147270Y74000D3*
D31*
Y75250D3*
Y72750D3*
D28*
X149810Y74000D3*
X144730D3*
D31*
Y75250D3*
Y72750D3*
X149810Y75250D3*
Y72750D3*
D28*
X142190Y74000D3*
D31*
Y75250D3*
Y72750D3*
D29*
X144150Y95500D3*
X146000D3*
X147850D3*
Y100500D3*
X146000D3*
X144150D3*
D28*
X147270Y90000D3*
D31*
Y91250D3*
Y88750D3*
D28*
X149810Y90000D3*
X144730D3*
D31*
Y91250D3*
Y88750D3*
X149810Y91250D3*
Y88750D3*
D28*
X142190Y90000D3*
D31*
Y91250D3*
Y88750D3*
D29*
X144150Y111500D3*
X146000D3*
X147850D3*
Y116500D3*
X146000D3*
X144150D3*
D28*
X147270Y106000D3*
D31*
Y107250D3*
Y104750D3*
D28*
X149810Y106000D3*
X144730D3*
D31*
Y107250D3*
Y104750D3*
X149810Y107250D3*
Y104750D3*
D28*
X142190Y106000D3*
D31*
Y107250D3*
Y104750D3*
D29*
X144150Y127500D3*
X146000D3*
X147850D3*
Y132500D3*
X146000D3*
X144150D3*
D28*
X147270Y122000D3*
D31*
Y123250D3*
Y120750D3*
D28*
X149810Y122000D3*
X144730D3*
D31*
Y123250D3*
Y120750D3*
X149810Y123250D3*
Y120750D3*
D28*
X142190Y122000D3*
D31*
Y123250D3*
Y120750D3*
D29*
X144150Y143500D3*
X146000D3*
X147850D3*
Y148500D3*
X146000D3*
X144150D3*
D28*
X147270Y138000D3*
D31*
Y139250D3*
Y136750D3*
D28*
X149810Y138000D3*
X144730D3*
D31*
Y139250D3*
Y136750D3*
X149810Y139250D3*
Y136750D3*
D28*
X142190Y138000D3*
D31*
Y139250D3*
Y136750D3*
D30*
X132500Y144150D3*
Y146000D3*
Y147850D3*
X127500D3*
Y146000D3*
Y144150D3*
D27*
X138000Y147270D3*
D31*
X136750D3*
X139250D3*
D27*
X138000Y149810D3*
Y144730D3*
D31*
X136750D3*
X139250D3*
X136750Y149810D3*
X139250D3*
D27*
X138000Y142190D3*
D31*
X136750D3*
X139250D3*
D30*
X116500Y144150D3*
Y146000D3*
Y147850D3*
X111500D3*
Y146000D3*
Y144150D3*
D27*
X122000Y147270D3*
D31*
X120750D3*
X123250D3*
D27*
X122000Y149810D3*
Y144730D3*
D31*
X120750D3*
X123250D3*
X120750Y149810D3*
X123250D3*
D27*
X122000Y142190D3*
D31*
X120750D3*
X123250D3*
D30*
X100500Y144150D3*
Y146000D3*
Y147850D3*
X95500D3*
Y146000D3*
Y144150D3*
D27*
X106000Y147270D3*
D31*
X104750D3*
X107250D3*
D27*
X106000Y149810D3*
Y144730D3*
D31*
X104750D3*
X107250D3*
X104750Y149810D3*
X107250D3*
D27*
X106000Y142190D3*
D31*
X104750D3*
X107250D3*
D30*
X84500Y144150D3*
Y146000D3*
Y147850D3*
X79500D3*
Y146000D3*
Y144150D3*
D27*
X90000Y147270D3*
D31*
X88750D3*
X91250D3*
D27*
X90000Y149810D3*
Y144730D3*
D31*
X88750D3*
X91250D3*
X88750Y149810D3*
X91250D3*
D27*
X90000Y142190D3*
D31*
X88750D3*
X91250D3*
D30*
X68500Y144150D3*
Y146000D3*
Y147850D3*
X63500D3*
Y146000D3*
Y144150D3*
D27*
X74000Y147270D3*
D31*
X72750D3*
X75250D3*
D27*
X74000Y149810D3*
Y144730D3*
D31*
X72750D3*
X75250D3*
X72750Y149810D3*
X75250D3*
D27*
X74000Y142190D3*
D31*
X72750D3*
X75250D3*
D30*
X52500Y144150D3*
Y146000D3*
Y147850D3*
X47500D3*
Y146000D3*
Y144150D3*
D27*
X58000Y147270D3*
D31*
X56750D3*
X59250D3*
D27*
X58000Y149810D3*
Y144730D3*
D31*
X56750D3*
X59250D3*
X56750Y149810D3*
X59250D3*
D27*
X58000Y142190D3*
D31*
X56750D3*
X59250D3*
D30*
X36500Y144150D3*
Y146000D3*
Y147850D3*
X31500D3*
Y146000D3*
Y144150D3*
D27*
X42000Y147270D3*
D31*
X40750D3*
X43250D3*
D27*
X42000Y149810D3*
Y144730D3*
D31*
X40750D3*
X43250D3*
X40750Y149810D3*
X43250D3*
D27*
X42000Y142190D3*
D31*
X40750D3*
X43250D3*
D30*
X20500Y144150D3*
Y146000D3*
Y147850D3*
X15500D3*
Y146000D3*
Y144150D3*
D27*
X26000Y147270D3*
D31*
X24750D3*
X27250D3*
D27*
X26000Y149810D3*
Y144730D3*
D31*
X24750D3*
X27250D3*
X24750Y149810D3*
X27250D3*
D27*
X26000Y142190D3*
D31*
X24750D3*
X27250D3*
D29*
X16150Y159500D3*
X18000D3*
X19850D3*
Y164500D3*
X18000D3*
X16150D3*
D28*
X19270Y154000D3*
D31*
Y155250D3*
Y152750D3*
D28*
X21810Y154000D3*
X16730D3*
D31*
Y155250D3*
Y152750D3*
X21810Y155250D3*
Y152750D3*
D28*
X14190Y154000D3*
D31*
Y155250D3*
Y152750D3*
D30*
X31500Y163850D3*
Y162000D3*
Y160150D3*
X36500D3*
Y162000D3*
Y163850D3*
D27*
X26000Y160730D3*
D31*
X27250D3*
X24750D3*
D27*
X26000Y158190D3*
Y163270D3*
D31*
X27250D3*
X24750D3*
X27250Y158190D3*
X24750D3*
D27*
X26000Y165810D3*
D31*
X27250D3*
X24750D3*
D30*
X47500Y163850D3*
Y162000D3*
Y160150D3*
X52500D3*
Y162000D3*
Y163850D3*
D27*
X42000Y160730D3*
D31*
X43250D3*
X40750D3*
D27*
X42000Y158190D3*
Y163270D3*
D31*
X43250D3*
X40750D3*
X43250Y158190D3*
X40750D3*
D27*
X42000Y165810D3*
D31*
X43250D3*
X40750D3*
D30*
X63500Y163850D3*
Y162000D3*
Y160150D3*
X68500D3*
Y162000D3*
Y163850D3*
D27*
X58000Y160730D3*
D31*
X59250D3*
X56750D3*
D27*
X58000Y158190D3*
Y163270D3*
D31*
X59250D3*
X56750D3*
X59250Y158190D3*
X56750D3*
D27*
X58000Y165810D3*
D31*
X59250D3*
X56750D3*
D30*
X79500Y163850D3*
Y162000D3*
Y160150D3*
X84500D3*
Y162000D3*
Y163850D3*
D27*
X74000Y160730D3*
D31*
X75250D3*
X72750D3*
D27*
X74000Y158190D3*
Y163270D3*
D31*
X75250D3*
X72750D3*
X75250Y158190D3*
X72750D3*
D27*
X74000Y165810D3*
D31*
X75250D3*
X72750D3*
D30*
X95500Y163850D3*
Y162000D3*
Y160150D3*
X100500D3*
Y162000D3*
Y163850D3*
D27*
X90000Y160730D3*
D31*
X91250D3*
X88750D3*
D27*
X90000Y158190D3*
Y163270D3*
D31*
X91250D3*
X88750D3*
X91250Y158190D3*
X88750D3*
D27*
X90000Y165810D3*
D31*
X91250D3*
X88750D3*
D30*
X111500Y163850D3*
Y162000D3*
Y160150D3*
X116500D3*
Y162000D3*
Y163850D3*
D27*
X106000Y160730D3*
D31*
X107250D3*
X104750D3*
D27*
X106000Y158190D3*
Y163270D3*
D31*
X107250D3*
X104750D3*
X107250Y158190D3*
X104750D3*
D27*
X106000Y165810D3*
D31*
X107250D3*
X104750D3*
D30*
X127500Y163850D3*
Y162000D3*
Y160150D3*
X132500D3*
Y162000D3*
Y163850D3*
D27*
X122000Y160730D3*
D31*
X123250D3*
X120750D3*
D27*
X122000Y158190D3*
Y163270D3*
D31*
X123250D3*
X120750D3*
X123250Y158190D3*
X120750D3*
D27*
X122000Y165810D3*
D31*
X123250D3*
X120750D3*
D30*
X143500Y163850D3*
Y162000D3*
Y160150D3*
X148500D3*
Y162000D3*
Y163850D3*
D27*
X138000Y160730D3*
D31*
X139250D3*
X136750D3*
D27*
X138000Y158190D3*
Y163270D3*
D31*
X139250D3*
X136750D3*
X139250Y158190D3*
X136750D3*
D27*
X138000Y165810D3*
D31*
X139250D3*
X136750D3*
D30*
X159500Y163850D3*
Y162000D3*
Y160150D3*
X164500D3*
Y162000D3*
Y163850D3*
D27*
X154000Y160730D3*
D31*
X155250D3*
X152750D3*
D27*
X154000Y158190D3*
Y163270D3*
D31*
X155250D3*
X152750D3*
X155250Y158190D3*
X152750D3*
D27*
X154000Y165810D3*
D31*
X155250D3*
X152750D3*
D29*
X163850Y148500D3*
X162000D3*
X160150D3*
Y143500D3*
X162000D3*
X163850D3*
D28*
X160730Y154000D3*
D31*
Y152750D3*
Y155250D3*
D28*
X158190Y154000D3*
X163270D3*
D31*
Y152750D3*
Y155250D3*
X158190Y152750D3*
Y155250D3*
D28*
X165810Y154000D3*
D31*
Y152750D3*
Y155250D3*
D29*
X163850Y132500D3*
X162000D3*
X160150D3*
Y127500D3*
X162000D3*
X163850D3*
D28*
X160730Y138000D3*
D31*
Y136750D3*
Y139250D3*
D28*
X158190Y138000D3*
X163270D3*
D31*
Y136750D3*
Y139250D3*
X158190Y136750D3*
Y139250D3*
D28*
X165810Y138000D3*
D31*
Y136750D3*
Y139250D3*
D29*
X163850Y116500D3*
X162000D3*
X160150D3*
Y111500D3*
X162000D3*
X163850D3*
D28*
X160730Y122000D3*
D31*
Y120750D3*
Y123250D3*
D28*
X158190Y122000D3*
X163270D3*
D31*
Y120750D3*
Y123250D3*
X158190Y120750D3*
Y123250D3*
D28*
X165810Y122000D3*
D31*
Y120750D3*
Y123250D3*
D29*
X163850Y100500D3*
X162000D3*
X160150D3*
Y95500D3*
X162000D3*
X163850D3*
D28*
X160730Y106000D3*
D31*
Y104750D3*
Y107250D3*
D28*
X158190Y106000D3*
X163270D3*
D31*
Y104750D3*
Y107250D3*
X158190Y104750D3*
Y107250D3*
D28*
X165810Y106000D3*
D31*
Y104750D3*
Y107250D3*
D29*
X163850Y84500D3*
X162000D3*
X160150D3*
Y79500D3*
X162000D3*
X163850D3*
D28*
X160730Y90000D3*
D31*
Y88750D3*
Y91250D3*
D28*
X158190Y90000D3*
X163270D3*
D31*
Y88750D3*
Y91250D3*
X158190Y88750D3*
Y91250D3*
D28*
X165810Y90000D3*
D31*
Y88750D3*
Y91250D3*
D29*
X163850Y68500D3*
X162000D3*
X160150D3*
Y63500D3*
X162000D3*
X163850D3*
D28*
X160730Y74000D3*
D31*
Y72750D3*
Y75250D3*
D28*
X158190Y74000D3*
X163270D3*
D31*
Y72750D3*
Y75250D3*
X158190Y72750D3*
Y75250D3*
D28*
X165810Y74000D3*
D31*
Y72750D3*
Y75250D3*
D29*
X163850Y52500D3*
X162000D3*
X160150D3*
Y47500D3*
X162000D3*
X163850D3*
D28*
X160730Y58000D3*
D31*
Y56750D3*
Y59250D3*
D28*
X158190Y58000D3*
X163270D3*
D31*
Y56750D3*
Y59250D3*
X158190Y56750D3*
Y59250D3*
D28*
X165810Y58000D3*
D31*
Y56750D3*
Y59250D3*
D29*
X163850Y36500D3*
X162000D3*
X160150D3*
Y31500D3*
X162000D3*
X163850D3*
D28*
X160730Y42000D3*
D31*
Y40750D3*
Y43250D3*
D28*
X158190Y42000D3*
X163270D3*
D31*
Y40750D3*
Y43250D3*
X158190Y40750D3*
Y43250D3*
D28*
X165810Y42000D3*
D31*
Y40750D3*
Y43250D3*
D29*
X163850Y20500D3*
X162000D3*
X160150D3*
Y15500D3*
X162000D3*
X163850D3*
D28*
X160730Y26000D3*
D31*
Y24750D3*
Y27250D3*
D28*
X158190Y26000D3*
X163270D3*
D31*
Y24750D3*
Y27250D3*
X158190Y24750D3*
Y27250D3*
D28*
X165810Y26000D3*
D31*
Y24750D3*
Y27250D3*
D30*
X175500Y19850D3*
Y18000D3*
Y16150D3*
X180500D3*
Y18000D3*
Y19850D3*
D27*
X170000Y16730D3*
D31*
X171250D3*
X168750D3*
D27*
X170000Y14190D3*
Y19270D3*
D31*
X171250D3*
X168750D3*
X171250Y14190D3*
X168750D3*
D27*
X170000Y21810D3*
D31*
X171250D3*
X168750D3*
D29*
X176150Y31500D3*
X178000D3*
X179850D3*
Y36500D3*
X178000D3*
X176150D3*
D28*
X179270Y26000D3*
D31*
Y27250D3*
Y24750D3*
D28*
X181810Y26000D3*
X176730D3*
D31*
Y27250D3*
Y24750D3*
X181810Y27250D3*
Y24750D3*
D28*
X174190Y26000D3*
D31*
Y27250D3*
Y24750D3*
D29*
X176150Y47500D3*
X178000D3*
X179850D3*
Y52500D3*
X178000D3*
X176150D3*
D28*
X179270Y42000D3*
D31*
Y43250D3*
Y40750D3*
D28*
X181810Y42000D3*
X176730D3*
D31*
Y43250D3*
Y40750D3*
X181810Y43250D3*
Y40750D3*
D28*
X174190Y42000D3*
D31*
Y43250D3*
Y40750D3*
D29*
X176150Y63500D3*
X178000D3*
X179850D3*
Y68500D3*
X178000D3*
X176150D3*
D28*
X179270Y58000D3*
D31*
Y59250D3*
Y56750D3*
D28*
X181810Y58000D3*
X176730D3*
D31*
Y59250D3*
Y56750D3*
X181810Y59250D3*
Y56750D3*
D28*
X174190Y58000D3*
D31*
Y59250D3*
Y56750D3*
D29*
X176150Y79500D3*
X178000D3*
X179850D3*
Y84500D3*
X178000D3*
X176150D3*
D28*
X179270Y74000D3*
D31*
Y75250D3*
Y72750D3*
D28*
X181810Y74000D3*
X176730D3*
D31*
Y75250D3*
Y72750D3*
X181810Y75250D3*
Y72750D3*
D28*
X174190Y74000D3*
D31*
Y75250D3*
Y72750D3*
D29*
X176150Y95500D3*
X178000D3*
X179850D3*
Y100500D3*
X178000D3*
X176150D3*
D28*
X179270Y90000D3*
D31*
Y91250D3*
Y88750D3*
D28*
X181810Y90000D3*
X176730D3*
D31*
Y91250D3*
Y88750D3*
X181810Y91250D3*
Y88750D3*
D28*
X174190Y90000D3*
D31*
Y91250D3*
Y88750D3*
D29*
X176150Y111500D3*
X178000D3*
X179850D3*
Y116500D3*
X178000D3*
X176150D3*
D28*
X179270Y106000D3*
D31*
Y107250D3*
Y104750D3*
D28*
X181810Y106000D3*
X176730D3*
D31*
Y107250D3*
Y104750D3*
X181810Y107250D3*
Y104750D3*
D28*
X174190Y106000D3*
D31*
Y107250D3*
Y104750D3*
D29*
X176150Y127500D3*
X178000D3*
X179850D3*
Y132500D3*
X178000D3*
X176150D3*
D28*
X179270Y122000D3*
D31*
Y123250D3*
Y120750D3*
D28*
X181810Y122000D3*
X176730D3*
D31*
Y123250D3*
Y120750D3*
X181810Y123250D3*
Y120750D3*
D28*
X174190Y122000D3*
D31*
Y123250D3*
Y120750D3*
D29*
X176150Y143500D3*
X178000D3*
X179850D3*
Y148500D3*
X178000D3*
X176150D3*
D28*
X179270Y138000D3*
D31*
Y139250D3*
Y136750D3*
D28*
X181810Y138000D3*
X176730D3*
D31*
Y139250D3*
Y136750D3*
X181810Y139250D3*
Y136750D3*
D28*
X174190Y138000D3*
D31*
Y139250D3*
Y136750D3*
D29*
X176150Y159500D3*
X178000D3*
X179850D3*
Y164500D3*
X178000D3*
X176150D3*
D28*
X179270Y154000D3*
D31*
Y155250D3*
Y152750D3*
D28*
X181810Y154000D3*
X176730D3*
D31*
Y155250D3*
Y152750D3*
X181810Y155250D3*
Y152750D3*
D28*
X174190Y154000D3*
D31*
Y155250D3*
Y152750D3*
D29*
X176150Y175500D3*
X178000D3*
X179850D3*
Y180500D3*
X178000D3*
X176150D3*
D28*
X179270Y170000D3*
D31*
Y171250D3*
Y168750D3*
D28*
X181810Y170000D3*
X176730D3*
D31*
Y171250D3*
Y168750D3*
X181810Y171250D3*
Y168750D3*
D28*
X174190Y170000D3*
D31*
Y171250D3*
Y168750D3*
D30*
X164500Y176150D3*
Y178000D3*
Y179850D3*
X159500D3*
Y178000D3*
Y176150D3*
D27*
X170000Y179270D3*
D31*
X168750D3*
X171250D3*
D27*
X170000Y181810D3*
Y176730D3*
D31*
X168750D3*
X171250D3*
X168750Y181810D3*
X171250D3*
D27*
X170000Y174190D3*
D31*
X168750D3*
X171250D3*
D30*
X148500Y176150D3*
Y178000D3*
Y179850D3*
X143500D3*
Y178000D3*
Y176150D3*
D27*
X154000Y179270D3*
D31*
X152750D3*
X155250D3*
D27*
X154000Y181810D3*
Y176730D3*
D31*
X152750D3*
X155250D3*
X152750Y181810D3*
X155250D3*
D27*
X154000Y174190D3*
D31*
X152750D3*
X155250D3*
D30*
X132500Y176150D3*
Y178000D3*
Y179850D3*
X127500D3*
Y178000D3*
Y176150D3*
D27*
X138000Y179270D3*
D31*
X136750D3*
X139250D3*
D27*
X138000Y181810D3*
Y176730D3*
D31*
X136750D3*
X139250D3*
X136750Y181810D3*
X139250D3*
D27*
X138000Y174190D3*
D31*
X136750D3*
X139250D3*
D30*
X116500Y176150D3*
Y178000D3*
Y179850D3*
X111500D3*
Y178000D3*
Y176150D3*
D27*
X122000Y179270D3*
D31*
X120750D3*
X123250D3*
D27*
X122000Y181810D3*
Y176730D3*
D31*
X120750D3*
X123250D3*
X120750Y181810D3*
X123250D3*
D27*
X122000Y174190D3*
D31*
X120750D3*
X123250D3*
D30*
X100500Y176150D3*
Y178000D3*
Y179850D3*
X95500D3*
Y178000D3*
Y176150D3*
D27*
X106000Y179270D3*
D31*
X104750D3*
X107250D3*
D27*
X106000Y181810D3*
Y176730D3*
D31*
X104750D3*
X107250D3*
X104750Y181810D3*
X107250D3*
D27*
X106000Y174190D3*
D31*
X104750D3*
X107250D3*
D30*
X84500Y176150D3*
Y178000D3*
Y179850D3*
X79500D3*
Y178000D3*
Y176150D3*
D27*
X90000Y179270D3*
D31*
X88750D3*
X91250D3*
D27*
X90000Y181810D3*
Y176730D3*
D31*
X88750D3*
X91250D3*
X88750Y181810D3*
X91250D3*
D27*
X90000Y174190D3*
D31*
X88750D3*
X91250D3*
D30*
X68500Y176150D3*
Y178000D3*
Y179850D3*
X63500D3*
Y178000D3*
Y176150D3*
D27*
X74000Y179270D3*
D31*
X72750D3*
X75250D3*
D27*
X74000Y181810D3*
Y176730D3*
D31*
X72750D3*
X75250D3*
X72750Y181810D3*
X75250D3*
D27*
X74000Y174190D3*
D31*
X72750D3*
X75250D3*
D30*
X52500Y176150D3*
Y178000D3*
Y179850D3*
X47500D3*
Y178000D3*
Y176150D3*
D27*
X58000Y179270D3*
D31*
X56750D3*
X59250D3*
D27*
X58000Y181810D3*
Y176730D3*
D31*
X56750D3*
X59250D3*
X56750Y181810D3*
X59250D3*
D27*
X58000Y174190D3*
D31*
X56750D3*
X59250D3*
D30*
X36500Y176150D3*
Y178000D3*
Y179850D3*
X31500D3*
Y178000D3*
Y176150D3*
D27*
X42000Y179270D3*
D31*
X40750D3*
X43250D3*
D27*
X42000Y181810D3*
Y176730D3*
D31*
X40750D3*
X43250D3*
X40750Y181810D3*
X43250D3*
D27*
X42000Y174190D3*
D31*
X40750D3*
X43250D3*
D30*
X20500Y176150D3*
Y178000D3*
Y179850D3*
X15500D3*
Y178000D3*
Y176150D3*
D27*
X26000Y179270D3*
D31*
X24750D3*
X27250D3*
D27*
X26000Y181810D3*
Y176730D3*
D31*
X24750D3*
X27250D3*
X24750Y181810D3*
X27250D3*
D27*
X26000Y174190D3*
D31*
X24750D3*
X27250D3*
D29*
X16150Y191500D3*
X18000D3*
X19850D3*
Y196500D3*
X18000D3*
X16150D3*
D28*
X19270Y186000D3*
D31*
Y187250D3*
Y184750D3*
D28*
X21810Y186000D3*
X16730D3*
D31*
Y187250D3*
Y184750D3*
X21810Y187250D3*
Y184750D3*
D28*
X14190Y186000D3*
D31*
Y187250D3*
Y184750D3*
D30*
X31500Y195850D3*
Y194000D3*
Y192150D3*
X36500D3*
Y194000D3*
Y195850D3*
D27*
X26000Y192730D3*
D31*
X27250D3*
X24750D3*
D27*
X26000Y190190D3*
Y195270D3*
D31*
X27250D3*
X24750D3*
X27250Y190190D3*
X24750D3*
D27*
X26000Y197810D3*
D31*
X27250D3*
X24750D3*
D30*
X47500Y195850D3*
Y194000D3*
Y192150D3*
X52500D3*
Y194000D3*
Y195850D3*
D27*
X42000Y192730D3*
D31*
X43250D3*
X40750D3*
D27*
X42000Y190190D3*
Y195270D3*
D31*
X43250D3*
X40750D3*
X43250Y190190D3*
X40750D3*
D27*
X42000Y197810D3*
D31*
X43250D3*
X40750D3*
D30*
X63500Y195850D3*
Y194000D3*
Y192150D3*
X68500D3*
Y194000D3*
Y195850D3*
D27*
X58000Y192730D3*
D31*
X59250D3*
X56750D3*
D27*
X58000Y190190D3*
Y195270D3*
D31*
X59250D3*
X56750D3*
X59250Y190190D3*
X56750D3*
D27*
X58000Y197810D3*
D31*
X59250D3*
X56750D3*
D30*
X79500Y195850D3*
Y194000D3*
Y192150D3*
X84500D3*
Y194000D3*
Y195850D3*
D27*
X74000Y192730D3*
D31*
X75250D3*
X72750D3*
D27*
X74000Y190190D3*
Y195270D3*
D31*
X75250D3*
X72750D3*
X75250Y190190D3*
X72750D3*
D27*
X74000Y197810D3*
D31*
X75250D3*
X72750D3*
D30*
X95500Y195850D3*
Y194000D3*
Y192150D3*
X100500D3*
Y194000D3*
Y195850D3*
D27*
X90000Y192730D3*
D31*
X91250D3*
X88750D3*
D27*
X90000Y190190D3*
Y195270D3*
D31*
X91250D3*
X88750D3*
X91250Y190190D3*
X88750D3*
D27*
X90000Y197810D3*
D31*
X91250D3*
X88750D3*
D30*
X111500Y195850D3*
Y194000D3*
Y192150D3*
X116500D3*
Y194000D3*
Y195850D3*
D27*
X106000Y192730D3*
D31*
X107250D3*
X104750D3*
D27*
X106000Y190190D3*
Y195270D3*
D31*
X107250D3*
X104750D3*
X107250Y190190D3*
X104750D3*
D27*
X106000Y197810D3*
D31*
X107250D3*
X104750D3*
D30*
X127500Y195850D3*
Y194000D3*
Y192150D3*
X132500D3*
Y194000D3*
Y195850D3*
D27*
X122000Y192730D3*
D31*
X123250D3*
X120750D3*
D27*
X122000Y190190D3*
Y195270D3*
D31*
X123250D3*
X120750D3*
X123250Y190190D3*
X120750D3*
D27*
X122000Y197810D3*
D31*
X123250D3*
X120750D3*
D30*
X143500Y195850D3*
Y194000D3*
Y192150D3*
X148500D3*
Y194000D3*
Y195850D3*
D27*
X138000Y192730D3*
D31*
X139250D3*
X136750D3*
D27*
X138000Y190190D3*
Y195270D3*
D31*
X139250D3*
X136750D3*
X139250Y190190D3*
X136750D3*
D27*
X138000Y197810D3*
D31*
X139250D3*
X136750D3*
D30*
X159500Y195850D3*
Y194000D3*
Y192150D3*
X164500D3*
Y194000D3*
Y195850D3*
D27*
X154000Y192730D3*
D31*
X155250D3*
X152750D3*
D27*
X154000Y190190D3*
Y195270D3*
D31*
X155250D3*
X152750D3*
X155250Y190190D3*
X152750D3*
D27*
X154000Y197810D3*
D31*
X155250D3*
X152750D3*
D30*
X175500Y195850D3*
Y194000D3*
Y192150D3*
X180500D3*
Y194000D3*
Y195850D3*
D27*
X170000Y192730D3*
D31*
X171250D3*
X168750D3*
D27*
X170000Y190190D3*
Y195270D3*
D31*
X171250D3*
X168750D3*
X171250Y190190D3*
X168750D3*
D27*
X170000Y197810D3*
D31*
X171250D3*
X168750D3*
D30*
X191500Y195850D3*
Y194000D3*
Y192150D3*
X196500D3*
Y194000D3*
Y195850D3*
D27*
X186000Y192730D3*
D31*
X187250D3*
X184750D3*
D27*
X186000Y190190D3*
Y195270D3*
D31*
X187250D3*
X184750D3*
X187250Y190190D3*
X184750D3*
D27*
X186000Y197810D3*
D31*
X187250D3*
X184750D3*
D29*
X195850Y180500D3*
X194000D3*
X192150D3*
Y175500D3*
X194000D3*
X195850D3*
D28*
X192730Y186000D3*
D31*
Y184750D3*
Y187250D3*
D28*
X190190Y186000D3*
X195270D3*
D31*
Y184750D3*
Y187250D3*
X190190Y184750D3*
Y187250D3*
D28*
X197810Y186000D3*
D31*
Y184750D3*
Y187250D3*
D29*
X195850Y164500D3*
X194000D3*
X192150D3*
Y159500D3*
X194000D3*
X195850D3*
D28*
X192730Y170000D3*
D31*
Y168750D3*
Y171250D3*
D28*
X190190Y170000D3*
X195270D3*
D31*
Y168750D3*
Y171250D3*
X190190Y168750D3*
Y171250D3*
D28*
X197810Y170000D3*
D31*
Y168750D3*
Y171250D3*
D29*
X195850Y148500D3*
X194000D3*
X192150D3*
Y143500D3*
X194000D3*
X195850D3*
D28*
X192730Y154000D3*
D31*
Y152750D3*
Y155250D3*
D28*
X190190Y154000D3*
X195270D3*
D31*
Y152750D3*
Y155250D3*
X190190Y152750D3*
Y155250D3*
D28*
X197810Y154000D3*
D31*
Y152750D3*
Y155250D3*
D29*
X195850Y132500D3*
X194000D3*
X192150D3*
Y127500D3*
X194000D3*
X195850D3*
D28*
X192730Y138000D3*
D31*
Y136750D3*
Y139250D3*
D28*
X190190Y138000D3*
X195270D3*
D31*
Y136750D3*
Y139250D3*
X190190Y136750D3*
Y139250D3*
D28*
X197810Y138000D3*
D31*
Y136750D3*
Y139250D3*
D29*
X195850Y116500D3*
X194000D3*
X192150D3*
Y111500D3*
X194000D3*
X195850D3*
D28*
X192730Y122000D3*
D31*
Y120750D3*
Y123250D3*
D28*
X190190Y122000D3*
X195270D3*
D31*
Y120750D3*
Y123250D3*
X190190Y120750D3*
Y123250D3*
D28*
X197810Y122000D3*
D31*
Y120750D3*
Y123250D3*
D29*
X195850Y100500D3*
X194000D3*
X192150D3*
Y95500D3*
X194000D3*
X195850D3*
D28*
X192730Y106000D3*
D31*
Y104750D3*
Y107250D3*
D28*
X190190Y106000D3*
X195270D3*
D31*
Y104750D3*
Y107250D3*
X190190Y104750D3*
Y107250D3*
D28*
X197810Y106000D3*
D31*
Y104750D3*
Y107250D3*
D29*
X195850Y84500D3*
X194000D3*
X192150D3*
Y79500D3*
X194000D3*
X195850D3*
D28*
X192730Y90000D3*
D31*
Y88750D3*
Y91250D3*
D28*
X190190Y90000D3*
X195270D3*
D31*
Y88750D3*
Y91250D3*
X190190Y88750D3*
Y91250D3*
D28*
X197810Y90000D3*
D31*
Y88750D3*
Y91250D3*
D29*
X195850Y68500D3*
X194000D3*
X192150D3*
Y63500D3*
X194000D3*
X195850D3*
D28*
X192730Y74000D3*
D31*
Y72750D3*
Y75250D3*
D28*
X190190Y74000D3*
X195270D3*
D31*
Y72750D3*
Y75250D3*
X190190Y72750D3*
Y75250D3*
D28*
X197810Y74000D3*
D31*
Y72750D3*
Y75250D3*
D29*
X195850Y52500D3*
X194000D3*
X192150D3*
Y47500D3*
X194000D3*
X195850D3*
D28*
X192730Y58000D3*
D31*
Y56750D3*
Y59250D3*
D28*
X190190Y58000D3*
X195270D3*
D31*
Y56750D3*
Y59250D3*
X190190Y56750D3*
Y59250D3*
D28*
X197810Y58000D3*
D31*
Y56750D3*
Y59250D3*
D29*
X195850Y36500D3*
X194000D3*
X192150D3*
Y31500D3*
X194000D3*
X195850D3*
D28*
X192730Y42000D3*
D31*
Y40750D3*
Y43250D3*
D28*
X190190Y42000D3*
X195270D3*
D31*
Y40750D3*
Y43250D3*
X190190Y40750D3*
Y43250D3*
D28*
X197810Y42000D3*
D31*
Y40750D3*
Y43250D3*
D29*
X195850Y20500D3*
X194000D3*
X192150D3*
Y15500D3*
X194000D3*
X195850D3*
D28*
X192730Y26000D3*
D31*
Y24750D3*
Y27250D3*
D28*
X190190Y26000D3*
X195270D3*
D31*
Y24750D3*
Y27250D3*
X190190Y24750D3*
Y27250D3*
D28*
X197810Y26000D3*
D31*
Y24750D3*
Y27250D3*
M02*
