G04 DipTrace 2.4.0.2*
%IN144xAPA102Cx16mm.gbo*%
%MOMM*%
%ADD34C,1.882*%
%FSLAX53Y53*%
G04*
G71*
G90*
G75*
G01*
%LNBotSilk*%
%LPD*%
X174031Y186300D2*
D34*
X181618D1*
Y174049D1*
Y180464D2*
X176955D1*
X169673Y182216D2*
X166182Y174049D1*
X167341Y171718D1*
X168514Y170545D1*
X169673Y169966D1*
X170266D1*
X162678Y182216D2*
X166182Y174049D1*
X158914Y186300D2*
Y174049D1*
Y180464D2*
X157741Y181637D1*
X156582Y182216D1*
X154830D1*
X153671Y181637D1*
X152499Y180464D1*
X151919Y178712D1*
Y177553D1*
X152499Y175801D1*
X153671Y174642D1*
X154830Y174049D1*
X156582D1*
X157741Y174642D1*
X158914Y175801D1*
X148155Y178712D2*
X141160D1*
Y179885D1*
X141740Y181057D1*
X142319Y181637D1*
X143492Y182216D1*
X145244D1*
X146403Y181637D1*
X147575Y180464D1*
X148155Y178712D1*
Y177553D1*
X147575Y175801D1*
X146403Y174642D1*
X145244Y174049D1*
X143492D1*
X142319Y174642D1*
X141160Y175801D1*
X137395Y182216D2*
Y174049D1*
Y178712D2*
X136802Y180464D1*
X135643Y181637D1*
X134471Y182216D1*
X132719D1*
X117103Y186300D2*
Y174049D1*
X110109D1*
X99349Y182216D2*
Y174049D1*
Y180464D2*
X100508Y181637D1*
X101681Y182216D1*
X103420D1*
X104592Y181637D1*
X105751Y180464D1*
X106344Y178712D1*
Y177553D1*
X105751Y175801D1*
X104592Y174642D1*
X103420Y174049D1*
X101681D1*
X100508Y174642D1*
X99349Y175801D1*
X95585Y186300D2*
Y174049D1*
Y180464D2*
X94412Y181637D1*
X93253Y182216D1*
X91501D1*
X90342Y181637D1*
X89170Y180464D1*
X88590Y178712D1*
Y177553D1*
X89170Y175801D1*
X90342Y174642D1*
X91501Y174049D1*
X93253D1*
X94412Y174642D1*
X95585Y175801D1*
X78411Y180464D2*
X78990Y181637D1*
X80742Y182216D1*
X82494D1*
X84246Y181637D1*
X84826Y180464D1*
X84246Y179305D1*
X83074Y178712D1*
X80163Y178133D1*
X78990Y177553D1*
X78411Y176381D1*
Y175801D1*
X78990Y174642D1*
X80742Y174049D1*
X82494D1*
X84246Y174642D1*
X84826Y175801D1*
X62795Y186300D2*
Y174049D1*
X59030Y182216D2*
Y174049D1*
Y179885D2*
X57278Y181637D1*
X56106Y182216D1*
X54367D1*
X53195Y181637D1*
X52615Y179885D1*
Y174049D1*
X41843Y180464D2*
X43015Y181637D1*
X44188Y182216D1*
X45926D1*
X47099Y181637D1*
X48258Y180464D1*
X48851Y178712D1*
Y177553D1*
X48258Y175801D1*
X47099Y174642D1*
X45926Y174049D1*
X44188D1*
X43015Y174642D1*
X41843Y175801D1*
X37498Y175222D2*
X38078Y174629D1*
X37498Y174049D1*
X36905Y174629D1*
X37498Y175222D1*
X77630Y87161D2*
Y87740D1*
X77051Y88913D1*
X76471Y89492D1*
X75299Y90072D1*
X72967D1*
X71808Y89492D1*
X71229Y88913D1*
X70636Y87740D1*
Y86581D1*
X71229Y85409D1*
X72388Y83670D1*
X78223Y77835D1*
X70056D1*
X62787Y90072D2*
X64539Y89492D1*
X65712Y87740D1*
X66291Y84829D1*
Y83077D1*
X65712Y80166D1*
X64539Y78414D1*
X62787Y77835D1*
X61628D1*
X59876Y78414D1*
X58717Y80166D1*
X58124Y83077D1*
Y84829D1*
X58717Y87740D1*
X59876Y89492D1*
X61628Y90072D1*
X62787D1*
X58717Y87740D2*
X65712Y80166D1*
X54360Y87740D2*
X53187Y88333D1*
X51435Y90072D1*
Y77835D1*
X40676Y90072D2*
X46498D1*
X47077Y84829D1*
X46498Y85409D1*
X44746Y86002D1*
X43007D1*
X41255Y85409D1*
X40083Y84250D1*
X39503Y82498D1*
Y81339D1*
X40083Y79587D1*
X41255Y78414D1*
X43007Y77835D1*
X44746D1*
X46498Y78414D1*
X47077Y79007D1*
X47670Y80166D1*
X179964Y83957D2*
X174721D1*
X172969Y84550D1*
X172376Y85129D1*
X171797Y86288D1*
Y87461D1*
X172376Y88620D1*
X172969Y89213D1*
X174721Y89792D1*
X179964D1*
Y77542D1*
X175880Y83957D2*
X171797Y77542D1*
X168032Y82205D2*
X161038D1*
Y83377D1*
X161617Y84550D1*
X162197Y85129D1*
X163369Y85709D1*
X165121D1*
X166280Y85129D1*
X167453Y83957D1*
X168032Y82205D1*
Y81046D1*
X167453Y79294D1*
X166280Y78135D1*
X165121Y77542D1*
X163369D1*
X162197Y78135D1*
X161038Y79294D1*
X157273Y85709D2*
X153769Y77542D1*
X150278Y85709D1*
X131159Y89779D2*
X132911Y89199D1*
X134083Y87447D1*
X134663Y84536D1*
Y82784D1*
X134083Y79873D1*
X132911Y78121D1*
X131159Y77542D1*
X130000D1*
X128248Y78121D1*
X127089Y79873D1*
X126496Y82784D1*
Y84536D1*
X127089Y87447D1*
X128248Y89199D1*
X130000Y89779D1*
X131159D1*
X127089Y87447D2*
X134083Y79873D1*
X122152Y78714D2*
X122731Y78121D1*
X122152Y77542D1*
X121559Y78121D1*
X122152Y78714D1*
X110799Y88040D2*
X111379Y89199D1*
X113131Y89779D1*
X114290D1*
X116042Y89199D1*
X117214Y87447D1*
X117794Y84536D1*
Y81625D1*
X117214Y79294D1*
X116042Y78121D1*
X114290Y77542D1*
X113710D1*
X111972Y78121D1*
X110799Y79294D1*
X110220Y81046D1*
Y81625D1*
X110799Y83377D1*
X111972Y84536D1*
X113710Y85116D1*
X114290D1*
X116042Y84536D1*
X117214Y83377D1*
X117794Y81625D1*
X181393Y159213D2*
Y146962D1*
X174398D1*
X170633Y159213D2*
X170054Y158633D1*
X169461Y159213D1*
X170054Y159806D1*
X170633Y159213D1*
X170054Y155129D2*
Y146962D1*
X158702Y154550D2*
Y145210D1*
X159281Y143472D1*
X159861Y142879D1*
X161033Y142299D1*
X162785D1*
X163944Y142879D1*
X158702Y152798D2*
X159861Y153957D1*
X161033Y154550D1*
X162785D1*
X163944Y153957D1*
X165117Y152798D1*
X165696Y151046D1*
Y149873D1*
X165117Y148135D1*
X163944Y146962D1*
X162785Y146383D1*
X161033D1*
X159861Y146962D1*
X158702Y148135D1*
X154937Y159213D2*
Y146962D1*
Y152798D2*
X153185Y154550D1*
X152012Y155129D1*
X150260D1*
X149101Y154550D1*
X148522Y152798D1*
Y146962D1*
X143005Y159213D2*
Y149294D1*
X142426Y147555D1*
X141253Y146962D1*
X140094D1*
X144757Y155129D2*
X140674D1*
X116312Y157461D2*
X117471Y158633D1*
X119223Y159213D1*
X121554D1*
X123306Y158633D1*
X124479Y157461D1*
Y156302D1*
X123886Y155129D1*
X123306Y154550D1*
X122147Y153970D1*
X118643Y152798D1*
X117471Y152218D1*
X116891Y151625D1*
X116312Y150466D1*
Y148714D1*
X117471Y147555D1*
X119223Y146962D1*
X121554D1*
X123306Y147555D1*
X124479Y148714D1*
X105552Y155129D2*
Y142879D1*
Y153377D2*
X106711Y154536D1*
X107884Y155129D1*
X109636D1*
X110795Y154536D1*
X111967Y153377D1*
X112547Y151625D1*
Y150453D1*
X111967Y148714D1*
X110795Y147542D1*
X109636Y146962D1*
X107884D1*
X106711Y147542D1*
X105552Y148714D1*
X101788Y155129D2*
Y149294D1*
X101208Y147555D1*
X100036Y146962D1*
X98284D1*
X97125Y147555D1*
X95373Y149294D1*
Y155129D2*
Y146962D1*
X84613Y155129D2*
Y146962D1*
Y153377D2*
X85772Y154550D1*
X86945Y155129D1*
X88683D1*
X89856Y154550D1*
X91015Y153377D1*
X91608Y151625D1*
Y150466D1*
X91015Y148714D1*
X89856Y147555D1*
X88683Y146962D1*
X86945D1*
X85772Y147555D1*
X84613Y148714D1*
X80849Y155129D2*
Y146962D1*
Y151625D2*
X80256Y153377D1*
X79097Y154550D1*
X77924Y155129D1*
X76172D1*
X72408Y151625D2*
X65413D1*
Y152798D1*
X65993Y153970D1*
X66572Y154550D1*
X67745Y155129D1*
X69497D1*
X70656Y154550D1*
X71828Y153377D1*
X72408Y151625D1*
Y150466D1*
X71828Y148714D1*
X70656Y147555D1*
X69497Y146962D1*
X67745D1*
X66572Y147555D1*
X65413Y148714D1*
X182523Y133471D2*
X181350Y134064D1*
X179598Y135803D1*
Y123566D1*
X169998D2*
Y135803D1*
X175834Y127649D1*
X167087D1*
X157487Y123566D2*
Y135803D1*
X163323Y127649D1*
X154576D1*
X129621Y123566D2*
X134297Y135816D1*
X138960Y123566D1*
X137208Y127649D2*
X131373D1*
X125856Y129401D2*
X120600D1*
X118862Y129981D1*
X118269Y130574D1*
X117689Y131733D1*
Y133485D1*
X118269Y134644D1*
X118862Y135237D1*
X120600Y135816D1*
X125856D1*
Y123566D1*
X104585D2*
X109261Y135816D1*
X113924Y123566D1*
X112172Y127649D2*
X106337D1*
X92074Y132905D2*
X92653Y134064D1*
X93826Y135237D1*
X94985Y135816D1*
X97316D1*
X98489Y135237D1*
X99648Y134064D1*
X100241Y132905D1*
X100820Y131153D1*
Y128229D1*
X100241Y126490D1*
X99648Y125318D1*
X98489Y124159D1*
X97316Y123566D1*
X94985D1*
X93826Y124159D1*
X92653Y125318D1*
X92074Y126490D1*
X88309Y133471D2*
X87137Y134064D1*
X85385Y135803D1*
Y123566D1*
X78116Y135803D2*
X79868Y135223D1*
X81040Y133471D1*
X81620Y130560D1*
Y128808D1*
X81040Y125897D1*
X79868Y124145D1*
X78116Y123566D1*
X76957D1*
X75205Y124145D1*
X74046Y125897D1*
X73453Y128808D1*
Y130560D1*
X74046Y133471D1*
X75205Y135223D1*
X76957Y135803D1*
X78116D1*
X74046Y133471D2*
X81040Y125897D1*
X69095Y132892D2*
Y133471D1*
X68516Y134644D1*
X67936Y135223D1*
X66764Y135803D1*
X64432D1*
X63273Y135223D1*
X62694Y134644D1*
X62101Y133471D1*
Y132312D1*
X62694Y131140D1*
X63853Y129401D1*
X69688Y123566D1*
X61521D1*
X182155Y111878D2*
X180982Y112471D1*
X179230Y114210D1*
Y101973D1*
X168471Y112471D2*
X169051Y113630D1*
X170803Y114210D1*
X171962D1*
X173714Y113630D1*
X174886Y111878D1*
X175466Y108967D1*
Y106056D1*
X174886Y103725D1*
X173714Y102552D1*
X171962Y101973D1*
X171382D1*
X169643Y102552D1*
X168471Y103725D1*
X167891Y105477D1*
Y106056D1*
X168471Y107808D1*
X169643Y108967D1*
X171382Y109547D1*
X171962D1*
X173714Y108967D1*
X174886Y107808D1*
X175466Y106056D1*
X164127Y110140D2*
Y101973D1*
Y107808D2*
X162375Y109560D1*
X161202Y110140D1*
X159464D1*
X158291Y109560D1*
X157712Y107808D1*
Y101973D1*
Y107808D2*
X155960Y109560D1*
X154787Y110140D1*
X153049D1*
X151876Y109560D1*
X151283Y107808D1*
Y101973D1*
X147519Y110140D2*
Y101973D1*
Y107808D2*
X145767Y109560D1*
X144594Y110140D1*
X142856D1*
X141683Y109560D1*
X141104Y107808D1*
Y101973D1*
Y107808D2*
X139352Y109560D1*
X138179Y110140D1*
X136441D1*
X135268Y109560D1*
X134675Y107808D1*
Y101973D1*
X130910Y110126D2*
X126247Y114210D1*
X121584Y110126D1*
X117227Y111299D2*
Y111878D1*
X116647Y113051D1*
X116068Y113630D1*
X114895Y114210D1*
X112564D1*
X111405Y113630D1*
X110825Y113051D1*
X110232Y111878D1*
Y110719D1*
X110825Y109547D1*
X111984Y107808D1*
X117820Y101973D1*
X109653D1*
M02*
