M48
METRIC,0000.00
T01C1.0
%
T01
X+001125Y+001673
X+001125Y+001419
X+001125Y+001927
X+001125Y+002181
X+001419Y+002475
X+001419Y+002725
X+001673Y+002725
X+001673Y+002475
X+001927Y+002475
X+001927Y+002725
X+002181Y+002725
X+002181Y+002475
X+002475Y+003019
X+002725Y+003019
X+002725Y+003273
X+002475Y+003273
X+002475Y+003527
X+002725Y+003527
X+002725Y+003781
X+002475Y+003781
X+002475Y+004619
X+002725Y+004619
X+002725Y+004873
X+002475Y+004873
X+002475Y+005127
X+002725Y+005127
X+002725Y+005381
X+002475Y+005381
X+002181Y+005675
X+002181Y+005925
X+001927Y+005925
X+001927Y+005675
X+001673Y+005675
X+001673Y+005925
X+001419Y+005925
X+001419Y+005675
X+002475Y+006219
X+002725Y+006219
X+002725Y+006473
X+002475Y+006473
X+002475Y+006727
X+002725Y+006727
X+002725Y+006981
X+002475Y+006981
X+002475Y+007819
X+002725Y+007819
X+002725Y+008073
X+002475Y+008073
X+002475Y+008327
X+002725Y+008327
X+002725Y+008581
X+002475Y+008581
X+002181Y+008875
X+002181Y+009125
X+001927Y+009125
X+001927Y+008875
X+001673Y+008875
X+001673Y+009125
X+001419Y+009125
X+001419Y+008875
X+002475Y+009419
X+002725Y+009419
X+002725Y+009673
X+002475Y+009673
X+002475Y+009927
X+002725Y+009927
X+002725Y+010181
X+002475Y+010181
X+002475Y+011019
X+002725Y+011019
X+002725Y+011273
X+002475Y+011273
X+002475Y+011527
X+002725Y+011527
X+002725Y+011781
X+002475Y+011781
X+002181Y+012075
X+002181Y+012325
X+001927Y+012325
X+001927Y+012075
X+001673Y+012075
X+001673Y+012325
X+001419Y+012325
X+001419Y+012075
X+002475Y+012619
X+002725Y+012619
X+002725Y+012873
X+002475Y+012873
X+002475Y+013127
X+002725Y+013127
X+002725Y+013381
X+002475Y+013381
X+002475Y+014219
X+002725Y+014219
X+002725Y+014473
X+002475Y+014473
X+002475Y+014727
X+002725Y+014727
X+002725Y+014981
X+002475Y+014981
X+002181Y+015275
X+002181Y+015525
X+001927Y+015525
X+001927Y+015275
X+001673Y+015275
X+001673Y+015525
X+001419Y+015525
X+001419Y+015275
X+002475Y+015819
X+002725Y+015819
X+002725Y+016073
X+002475Y+016073
X+002475Y+016327
X+002725Y+016327
X+002725Y+016581
X+002475Y+016581
X+002475Y+017419
X+002725Y+017419
X+002725Y+017673
X+002475Y+017673
X+002475Y+017927
X+002725Y+017927
X+002725Y+018181
X+002475Y+018181
X+002181Y+018475
X+002181Y+018725
X+001927Y+018725
X+001927Y+018475
X+001673Y+018475
X+001673Y+018725
X+001419Y+018725
X+001419Y+018475
X+002475Y+019019
X+002725Y+019019
X+002725Y+019273
X+002475Y+019273
X+002475Y+019527
X+002725Y+019527
X+002725Y+019781
X+002475Y+019781
X+004075Y+019781
X+004325Y+019781
X+004325Y+019527
X+004075Y+019527
X+004075Y+019273
X+004325Y+019273
X+004325Y+019019
X+004075Y+019019
X+004075Y+018181
X+004325Y+018181
X+004325Y+017927
X+004075Y+017927
X+004075Y+017673
X+004325Y+017673
X+004325Y+017419
X+004075Y+017419
X+004075Y+016581
X+004325Y+016581
X+004325Y+016327
X+004075Y+016327
X+004075Y+016073
X+004325Y+016073
X+004325Y+015819
X+004075Y+015819
X+004075Y+014981
X+004325Y+014981
X+004325Y+014727
X+004075Y+014727
X+004075Y+014473
X+004325Y+014473
X+004325Y+014219
X+004075Y+014219
X+004075Y+013381
X+004325Y+013381
X+004325Y+013127
X+004075Y+013127
X+004075Y+012873
X+004325Y+012873
X+004325Y+012619
X+004075Y+012619
X+004075Y+011781
X+004325Y+011781
X+004325Y+011527
X+004075Y+011527
X+004075Y+011273
X+004325Y+011273
X+004325Y+011019
X+004075Y+011019
X+004075Y+010181
X+004325Y+010181
X+004325Y+009927
X+004075Y+009927
X+004075Y+009673
X+004325Y+009673
X+004325Y+009419
X+004075Y+009419
X+004075Y+008581
X+004325Y+008581
X+004325Y+008327
X+004075Y+008327
X+004075Y+008073
X+004325Y+008073
X+004325Y+007819
X+004075Y+007819
X+004075Y+006981
X+004325Y+006981
X+004325Y+006727
X+004075Y+006727
X+004075Y+006473
X+004325Y+006473
X+004325Y+006219
X+004075Y+006219
X+004075Y+005381
X+004325Y+005381
X+004325Y+005127
X+004075Y+005127
X+004075Y+004873
X+004325Y+004873
X+004325Y+004619
X+004075Y+004619
X+004619Y+004325
X+004619Y+004075
X+004873Y+004075
X+004873Y+004325
X+005127Y+004325
X+005127Y+004075
X+005381Y+004075
X+005381Y+004325
X+006219Y+004325
X+006219Y+004075
X+006473Y+004075
X+006473Y+004325
X+006727Y+004325
X+006727Y+004075
X+006981Y+004075
X+006981Y+004325
X+007819Y+004325
X+007819Y+004075
X+008073Y+004075
X+008073Y+004325
X+008327Y+004325
X+008327Y+004075
X+008581Y+004075
X+008581Y+004325
X+009419Y+004325
X+009419Y+004075
X+009673Y+004075
X+009673Y+004325
X+009927Y+004325
X+009927Y+004075
X+010181Y+004075
X+010181Y+004325
X+011019Y+004325
X+011019Y+004075
X+011273Y+004075
X+011273Y+004325
X+011527Y+004325
X+011527Y+004075
X+011781Y+004075
X+011781Y+004325
X+012619Y+004325
X+012619Y+004075
X+012873Y+004075
X+012873Y+004325
X+013127Y+004325
X+013127Y+004075
X+013381Y+004075
X+013381Y+004325
X+014219Y+004325
X+014219Y+004075
X+014473Y+004075
X+014473Y+004325
X+014727Y+004325
X+014727Y+004075
X+014981Y+004075
X+014981Y+004325
X+015819Y+004325
X+015819Y+004075
X+016073Y+004075
X+016073Y+004325
X+016327Y+004325
X+016327Y+004075
X+016581Y+004075
X+016581Y+004325
X+017419Y+004325
X+017419Y+004075
X+017673Y+004075
X+017673Y+004325
X+017927Y+004325
X+017927Y+004075
X+018181Y+004075
X+018181Y+004325
X+019019Y+004325
X+019019Y+004075
X+019273Y+004075
X+019273Y+004325
X+019527Y+004325
X+019527Y+004075
X+019781Y+004075
X+019781Y+004325
X+019781Y+005675
X+019781Y+005925
X+019527Y+005925
X+019527Y+005675
X+019273Y+005675
X+019273Y+005925
X+019019Y+005925
X+019019Y+005675
X+018181Y+005675
X+018181Y+005925
X+017927Y+005925
X+017927Y+005675
X+017673Y+005675
X+017673Y+005925
X+017419Y+005925
X+017419Y+005675
X+016581Y+005675
X+016581Y+005925
X+016327Y+005925
X+016327Y+005675
X+016073Y+005675
X+016073Y+005925
X+015819Y+005925
X+015819Y+005675
X+014981Y+005675
X+014981Y+005925
X+014727Y+005925
X+014727Y+005675
X+014473Y+005675
X+014473Y+005925
X+014219Y+005925
X+014219Y+005675
X+013381Y+005675
X+013381Y+005925
X+013127Y+005925
X+013127Y+005675
X+012873Y+005675
X+012873Y+005925
X+012619Y+005925
X+012619Y+005675
X+011781Y+005675
X+011781Y+005925
X+011527Y+005925
X+011527Y+005675
X+011273Y+005675
X+011273Y+005925
X+011019Y+005925
X+011019Y+005675
X+010181Y+005675
X+010181Y+005925
X+009927Y+005925
X+009927Y+005675
X+009673Y+005675
X+009673Y+005925
X+009419Y+005925
X+009419Y+005675
X+008581Y+005675
X+008581Y+005925
X+008327Y+005925
X+008327Y+005675
X+008073Y+005675
X+008073Y+005925
X+007819Y+005925
X+007819Y+005675
X+006981Y+005675
X+006981Y+005925
X+006727Y+005925
X+006727Y+005675
X+006473Y+005675
X+006473Y+005925
X+006219Y+005925
X+006219Y+005675
X+005925Y+006219
X+005675Y+006219
X+005675Y+006473
X+005925Y+006473
X+005925Y+006727
X+005675Y+006727
X+005675Y+006981
X+005925Y+006981
X+005925Y+007819
X+005675Y+007819
X+005675Y+008073
X+005925Y+008073
X+005925Y+008327
X+005675Y+008327
X+005675Y+008581
X+005925Y+008581
X+005925Y+009419
X+005675Y+009419
X+005675Y+009673
X+005925Y+009673
X+005925Y+009927
X+005675Y+009927
X+005675Y+010181
X+005925Y+010181
X+005925Y+011019
X+005675Y+011019
X+005675Y+011273
X+005925Y+011273
X+005925Y+011527
X+005675Y+011527
X+005675Y+011781
X+005925Y+011781
X+005925Y+012619
X+005675Y+012619
X+005675Y+012873
X+005925Y+012873
X+005925Y+013127
X+005675Y+013127
X+005675Y+013381
X+005925Y+013381
X+005925Y+014219
X+005675Y+014219
X+005675Y+014473
X+005925Y+014473
X+005925Y+014727
X+005675Y+014727
X+005675Y+014981
X+005925Y+014981
X+005925Y+015819
X+005675Y+015819
X+005675Y+016073
X+005925Y+016073
X+005925Y+016327
X+005675Y+016327
X+005675Y+016581
X+005925Y+016581
X+005925Y+017419
X+005675Y+017419
X+005675Y+017673
X+005925Y+017673
X+005925Y+017927
X+005675Y+017927
X+005675Y+018181
X+005925Y+018181
X+005925Y+019019
X+005675Y+019019
X+005675Y+019273
X+005925Y+019273
X+005925Y+019527
X+005675Y+019527
X+005675Y+019781
X+005925Y+019781
X+007275Y+019781
X+007525Y+019781
X+007525Y+019527
X+007275Y+019527
X+007275Y+019273
X+007525Y+019273
X+007525Y+019019
X+007275Y+019019
X+007275Y+018181
X+007525Y+018181
X+007525Y+017927
X+007275Y+017927
X+007275Y+017673
X+007525Y+017673
X+007525Y+017419
X+007275Y+017419
X+007275Y+016581
X+007525Y+016581
X+007525Y+016327
X+007275Y+016327
X+007275Y+016073
X+007525Y+016073
X+007525Y+015819
X+007275Y+015819
X+007275Y+014981
X+007525Y+014981
X+007525Y+014727
X+007275Y+014727
X+007275Y+014473
X+007525Y+014473
X+007525Y+014219
X+007275Y+014219
X+007275Y+013381
X+007525Y+013381
X+007525Y+013127
X+007275Y+013127
X+007275Y+012873
X+007525Y+012873
X+007525Y+012619
X+007275Y+012619
X+007275Y+011781
X+007525Y+011781
X+007525Y+011527
X+007275Y+011527
X+007275Y+011273
X+007525Y+011273
X+007525Y+011019
X+007275Y+011019
X+007275Y+010181
X+007525Y+010181
X+007525Y+009927
X+007275Y+009927
X+007275Y+009673
X+007525Y+009673
X+007525Y+009419
X+007275Y+009419
X+007275Y+008581
X+007525Y+008581
X+007525Y+008327
X+007275Y+008327
X+007275Y+008073
X+007525Y+008073
X+007525Y+007819
X+007275Y+007819
X+007819Y+007525
X+007819Y+007275
X+008073Y+007275
X+008073Y+007525
X+008327Y+007525
X+008327Y+007275
X+008581Y+007275
X+008581Y+007525
X+009419Y+007525
X+009419Y+007275
X+009673Y+007275
X+009673Y+007525
X+009927Y+007525
X+009927Y+007275
X+010181Y+007275
X+010181Y+007525
X+011019Y+007525
X+011019Y+007275
X+011273Y+007275
X+011273Y+007525
X+011527Y+007525
X+011527Y+007275
X+011781Y+007275
X+011781Y+007525
X+012619Y+007525
X+012619Y+007275
X+012873Y+007275
X+012873Y+007525
X+013127Y+007525
X+013127Y+007275
X+013381Y+007275
X+013381Y+007525
X+014219Y+007525
X+014219Y+007275
X+014473Y+007275
X+014473Y+007525
X+014727Y+007525
X+014727Y+007275
X+014981Y+007275
X+014981Y+007525
X+015819Y+007525
X+015819Y+007275
X+016073Y+007275
X+016073Y+007525
X+016327Y+007525
X+016327Y+007275
X+016581Y+007275
X+016581Y+007525
X+017419Y+007525
X+017419Y+007275
X+017673Y+007275
X+017673Y+007525
X+017927Y+007525
X+017927Y+007275
X+018181Y+007275
X+018181Y+007525
X+019019Y+007525
X+019019Y+007275
X+019273Y+007275
X+019273Y+007525
X+019527Y+007525
X+019527Y+007275
X+019781Y+007275
X+019781Y+007525
X+019781Y+008875
X+019781Y+009125
X+019527Y+009125
X+019527Y+008875
X+019273Y+008875
X+019273Y+009125
X+019019Y+009125
X+019019Y+008875
X+018181Y+008875
X+018181Y+009125
X+017927Y+009125
X+017927Y+008875
X+017673Y+008875
X+017673Y+009125
X+017419Y+009125
X+017419Y+008875
X+016581Y+008875
X+016581Y+009125
X+016327Y+009125
X+016327Y+008875
X+016073Y+008875
X+016073Y+009125
X+015819Y+009125
X+015819Y+008875
X+014981Y+008875
X+014981Y+009125
X+014727Y+009125
X+014727Y+008875
X+014473Y+008875
X+014473Y+009125
X+014219Y+009125
X+014219Y+008875
X+013381Y+008875
X+013381Y+009125
X+013127Y+009125
X+013127Y+008875
X+012873Y+008875
X+012873Y+009125
X+012619Y+009125
X+012619Y+008875
X+011781Y+008875
X+011781Y+009125
X+011527Y+009125
X+011527Y+008875
X+011273Y+008875
X+011273Y+009125
X+011019Y+009125
X+011019Y+008875
X+010181Y+008875
X+010181Y+009125
X+009927Y+009125
X+009927Y+008875
X+009673Y+008875
X+009673Y+009125
X+009419Y+009125
X+009419Y+008875
X+009125Y+009419
X+008875Y+009419
X+008875Y+009673
X+009125Y+009673
X+009125Y+009927
X+008875Y+009927
X+008875Y+010181
X+009125Y+010181
X+009125Y+011019
X+008875Y+011019
X+008875Y+011273
X+009125Y+011273
X+009125Y+011527
X+008875Y+011527
X+008875Y+011781
X+009125Y+011781
X+009125Y+012619
X+008875Y+012619
X+008875Y+012873
X+009125Y+012873
X+009125Y+013127
X+008875Y+013127
X+008875Y+013381
X+009125Y+013381
X+009125Y+014219
X+008875Y+014219
X+008875Y+014473
X+009125Y+014473
X+009125Y+014727
X+008875Y+014727
X+008875Y+014981
X+009125Y+014981
X+009125Y+015819
X+008875Y+015819
X+008875Y+016073
X+009125Y+016073
X+009125Y+016327
X+008875Y+016327
X+008875Y+016581
X+009125Y+016581
X+009125Y+017419
X+008875Y+017419
X+008875Y+017673
X+009125Y+017673
X+009125Y+017927
X+008875Y+017927
X+008875Y+018181
X+009125Y+018181
X+009125Y+019019
X+008875Y+019019
X+008875Y+019273
X+009125Y+019273
X+009125Y+019527
X+008875Y+019527
X+008875Y+019781
X+009125Y+019781
X+010475Y+019781
X+010725Y+019781
X+010725Y+019527
X+010475Y+019527
X+010475Y+019273
X+010725Y+019273
X+010725Y+019019
X+010475Y+019019
X+010475Y+018181
X+010725Y+018181
X+010725Y+017927
X+010475Y+017927
X+010475Y+017673
X+010725Y+017673
X+010725Y+017419
X+010475Y+017419
X+010475Y+016581
X+010725Y+016581
X+010725Y+016327
X+010475Y+016327
X+010475Y+016073
X+010725Y+016073
X+010725Y+015819
X+010475Y+015819
X+010475Y+014981
X+010725Y+014981
X+010725Y+014727
X+010475Y+014727
X+010475Y+014473
X+010725Y+014473
X+010725Y+014219
X+010475Y+014219
X+010475Y+013381
X+010725Y+013381
X+010725Y+013127
X+010475Y+013127
X+010475Y+012873
X+010725Y+012873
X+010725Y+012619
X+010475Y+012619
X+010475Y+011781
X+010725Y+011781
X+010725Y+011527
X+010475Y+011527
X+010475Y+011273
X+010725Y+011273
X+010725Y+011019
X+010475Y+011019
X+011019Y+010725
X+011019Y+010475
X+011273Y+010475
X+011273Y+010725
X+011527Y+010725
X+011527Y+010475
X+011781Y+010475
X+011781Y+010725
X+012619Y+010725
X+012619Y+010475
X+012873Y+010475
X+012873Y+010725
X+013127Y+010725
X+013127Y+010475
X+013381Y+010475
X+013381Y+010725
X+014219Y+010725
X+014219Y+010475
X+014473Y+010475
X+014473Y+010725
X+014727Y+010725
X+014727Y+010475
X+014981Y+010475
X+014981Y+010725
X+015819Y+010725
X+015819Y+010475
X+016073Y+010475
X+016073Y+010725
X+016327Y+010725
X+016327Y+010475
X+016581Y+010475
X+016581Y+010725
X+017419Y+010725
X+017419Y+010475
X+017673Y+010475
X+017673Y+010725
X+017927Y+010725
X+017927Y+010475
X+018181Y+010475
X+018181Y+010725
X+019019Y+010725
X+019019Y+010475
X+019273Y+010475
X+019273Y+010725
X+019527Y+010725
X+019527Y+010475
X+019781Y+010475
X+019781Y+010725
X+019781Y+012075
X+019781Y+012325
X+019527Y+012325
X+019527Y+012075
X+019273Y+012075
X+019273Y+012325
X+019019Y+012325
X+019019Y+012075
X+018181Y+012075
X+018181Y+012325
X+017927Y+012325
X+017927Y+012075
X+017673Y+012075
X+017673Y+012325
X+017419Y+012325
X+017419Y+012075
X+016581Y+012075
X+016581Y+012325
X+016327Y+012325
X+016327Y+012075
X+016073Y+012075
X+016073Y+012325
X+015819Y+012325
X+015819Y+012075
X+014981Y+012075
X+014981Y+012325
X+014727Y+012325
X+014727Y+012075
X+014473Y+012075
X+014473Y+012325
X+014219Y+012325
X+014219Y+012075
X+013381Y+012075
X+013381Y+012325
X+013127Y+012325
X+013127Y+012075
X+012873Y+012075
X+012873Y+012325
X+012619Y+012325
X+012619Y+012075
X+012325Y+012619
X+012075Y+012619
X+012075Y+012873
X+012325Y+012873
X+012325Y+013127
X+012075Y+013127
X+012075Y+013381
X+012325Y+013381
X+012325Y+014219
X+012075Y+014219
X+012075Y+014473
X+012325Y+014473
X+012325Y+014727
X+012075Y+014727
X+012075Y+014981
X+012325Y+014981
X+012325Y+015819
X+012075Y+015819
X+012075Y+016073
X+012325Y+016073
X+012325Y+016327
X+012075Y+016327
X+012075Y+016581
X+012325Y+016581
X+012325Y+017419
X+012075Y+017419
X+012075Y+017673
X+012325Y+017673
X+012325Y+017927
X+012075Y+017927
X+012075Y+018181
X+012325Y+018181
X+012325Y+019019
X+012075Y+019019
X+012075Y+019273
X+012325Y+019273
X+012325Y+019527
X+012075Y+019527
X+012075Y+019781
X+012325Y+019781
X+013675Y+019781
X+013925Y+019781
X+013925Y+019527
X+013675Y+019527
X+013675Y+019273
X+013925Y+019273
X+013925Y+019019
X+013675Y+019019
X+013675Y+018181
X+013925Y+018181
X+013925Y+017927
X+013675Y+017927
X+013675Y+017673
X+013925Y+017673
X+013925Y+017419
X+013675Y+017419
X+013675Y+016581
X+013925Y+016581
X+013925Y+016327
X+013675Y+016327
X+013675Y+016073
X+013925Y+016073
X+013925Y+015819
X+013675Y+015819
X+013675Y+014981
X+013925Y+014981
X+013925Y+014727
X+013675Y+014727
X+013675Y+014473
X+013925Y+014473
X+013925Y+014219
X+013675Y+014219
X+014219Y+013925
X+014219Y+013675
X+014473Y+013675
X+014473Y+013925
X+014727Y+013925
X+014727Y+013675
X+014981Y+013675
X+014981Y+013925
X+015819Y+013925
X+015819Y+013675
X+016073Y+013675
X+016073Y+013925
X+016327Y+013925
X+016327Y+013675
X+016581Y+013675
X+016581Y+013925
X+017419Y+013925
X+017419Y+013675
X+017673Y+013675
X+017673Y+013925
X+017927Y+013925
X+017927Y+013675
X+018181Y+013675
X+018181Y+013925
X+019019Y+013925
X+019019Y+013675
X+019273Y+013675
X+019273Y+013925
X+019527Y+013925
X+019527Y+013675
X+019781Y+013675
X+019781Y+013925
X+019781Y+015275
X+019781Y+015525
X+019527Y+015525
X+019527Y+015275
X+019273Y+015275
X+019273Y+015525
X+019019Y+015525
X+019019Y+015275
X+018181Y+015275
X+018181Y+015525
X+017927Y+015525
X+017927Y+015275
X+017673Y+015275
X+017673Y+015525
X+017419Y+015525
X+017419Y+015275
X+016581Y+015275
X+016581Y+015525
X+016327Y+015525
X+016327Y+015275
X+016073Y+015275
X+016073Y+015525
X+015819Y+015525
X+015819Y+015275
X+015525Y+015819
X+015275Y+015819
X+015275Y+016073
X+015525Y+016073
X+015525Y+016327
X+015275Y+016327
X+015275Y+016581
X+015525Y+016581
X+015525Y+017419
X+015275Y+017419
X+015275Y+017673
X+015525Y+017673
X+015525Y+017927
X+015275Y+017927
X+015275Y+018181
X+015525Y+018181
X+015525Y+019019
X+015275Y+019019
X+015275Y+019273
X+015525Y+019273
X+015525Y+019527
X+015275Y+019527
X+015275Y+019781
X+015525Y+019781
X+016875Y+019781
X+017125Y+019781
X+017125Y+019527
X+016875Y+019527
X+016875Y+019273
X+017125Y+019273
X+017125Y+019019
X+016875Y+019019
X+016875Y+018181
X+017125Y+018181
X+017125Y+017927
X+016875Y+017927
X+016875Y+017673
X+017125Y+017673
X+017125Y+017419
X+016875Y+017419
X+017419Y+017125
X+017419Y+016875
X+017673Y+016875
X+017673Y+017125
X+017927Y+017125
X+017927Y+016875
X+018181Y+016875
X+018181Y+017125
X+019019Y+017125
X+019019Y+016875
X+019273Y+016875
X+019273Y+017125
X+019527Y+017125
X+019527Y+016875
X+019781Y+016875
X+019781Y+017125
X+019781Y+018475
X+019781Y+018725
X+019527Y+018725
X+019527Y+018475
X+019273Y+018475
X+019273Y+018725
X+019019Y+018725
X+019019Y+018475
X+018725Y+019019
X+018475Y+019019
X+018475Y+019273
X+018725Y+019273
X+018725Y+019527
X+018475Y+019527
X+018475Y+019781
X+018725Y+019781
X+019019Y+002725
X+019019Y+002475
X+019273Y+002475
X+019273Y+002725
X+019527Y+002725
X+019527Y+002475
X+019781Y+002475
X+019781Y+002725
X+020375Y+002181
X+020375Y+001927
X+020375Y+001673
X+020375Y+001419
X+018181Y+002475
X+018181Y+002725
X+017927Y+002725
X+017927Y+002475
X+017673Y+002475
X+017673Y+002725
X+017419Y+002725
X+017419Y+002475
X+017125Y+002181
X+016875Y+002181
X+016875Y+001927
X+017125Y+001927
X+017125Y+001673
X+016875Y+001673
X+016875Y+001419
X+017125Y+001419
X+016581Y+002475
X+016581Y+002725
X+016327Y+002725
X+016327Y+002475
X+016073Y+002475
X+016073Y+002725
X+015819Y+002725
X+015819Y+002475
X+014981Y+002475
X+014981Y+002725
X+014727Y+002725
X+014727Y+002475
X+014473Y+002475
X+014473Y+002725
X+014219Y+002725
X+014219Y+002475
X+013925Y+002181
X+013675Y+002181
X+013675Y+001927
X+013925Y+001927
X+013925Y+001673
X+013675Y+001673
X+013675Y+001419
X+013925Y+001419
X+013381Y+002475
X+013381Y+002725
X+013127Y+002725
X+013127Y+002475
X+012873Y+002475
X+012873Y+002725
X+012619Y+002725
X+012619Y+002475
X+011781Y+002475
X+011781Y+002725
X+011527Y+002725
X+011527Y+002475
X+011273Y+002475
X+011273Y+002725
X+011019Y+002725
X+011019Y+002475
X+010725Y+002181
X+010475Y+002181
X+010475Y+001927
X+010725Y+001927
X+010725Y+001673
X+010475Y+001673
X+010475Y+001419
X+010725Y+001419
X+010181Y+002475
X+010181Y+002725
X+009927Y+002725
X+009927Y+002475
X+009673Y+002475
X+009673Y+002725
X+009419Y+002725
X+009419Y+002475
X+008581Y+002475
X+008581Y+002725
X+008327Y+002725
X+008327Y+002475
X+008073Y+002475
X+008073Y+002725
X+007819Y+002725
X+007819Y+002475
X+007525Y+002181
X+007275Y+002181
X+007275Y+001927
X+007525Y+001927
X+007525Y+001673
X+007275Y+001673
X+007275Y+001419
X+007525Y+001419
X+006981Y+002475
X+006981Y+002725
X+006727Y+002725
X+006727Y+002475
X+006473Y+002475
X+006473Y+002725
X+006219Y+002725
X+006219Y+002475
X+005381Y+002475
X+005381Y+002725
X+005127Y+002725
X+005127Y+002475
X+004873Y+002475
X+004873Y+002725
X+004619Y+002725
X+004619Y+002475
X+004325Y+002181
X+004075Y+002181
X+004075Y+001927
X+004325Y+001927
X+004325Y+001673
X+004075Y+001673
X+004075Y+001419
X+004325Y+001419
X+003781Y+002475
X+003781Y+002725
X+003527Y+002725
X+003527Y+002475
X+003273Y+002475
X+003273Y+002725
X+003019Y+002725
X+003019Y+002475
T00
M30
