G04 DipTrace 2.4.0.2*
%IN144xAPA102Cx16mm.gtp*%
%MOMM*%
%ADD18R,1.25X2.0*%
%ADD21O,1.5X1.0*%
%ADD23O,1.0X1.5*%
%ADD24O,2.0X4.5*%
%ADD25O,4.5X2.0*%
%FSLAX53Y53*%
G04*
G71*
G90*
G75*
G01*
%LNTopPaste*%
%LPD*%
D18*
X204375Y16730D3*
Y14190D3*
Y19270D3*
Y21810D3*
D21*
X15500Y19850D3*
Y18000D3*
Y16150D3*
X20500D3*
Y18000D3*
Y19850D3*
D23*
X16150Y31500D3*
X18000D3*
X19850D3*
Y36500D3*
X18000D3*
X16150D3*
D24*
X19270Y26000D3*
X21810D3*
X16730D3*
X14190D3*
D21*
X31500Y35850D3*
Y34000D3*
Y32150D3*
X36500D3*
Y34000D3*
Y35850D3*
D25*
X26000Y32730D3*
Y30190D3*
Y35270D3*
Y37810D3*
D23*
X35850Y20500D3*
X34000D3*
X32150D3*
Y15500D3*
X34000D3*
X35850D3*
D24*
X32730Y26000D3*
X30190D3*
X35270D3*
X37810D3*
D21*
X47500Y19850D3*
Y18000D3*
Y16150D3*
X52500D3*
Y18000D3*
Y19850D3*
D25*
X42000Y16730D3*
Y14190D3*
Y19270D3*
Y21810D3*
D23*
X48150Y31500D3*
X50000D3*
X51850D3*
Y36500D3*
X50000D3*
X48150D3*
D24*
X51270Y26000D3*
X53810D3*
X48730D3*
X46190D3*
D23*
X48150Y47500D3*
X50000D3*
X51850D3*
Y52500D3*
X50000D3*
X48150D3*
D24*
X51270Y42000D3*
X53810D3*
X48730D3*
X46190D3*
D21*
X36500Y48150D3*
Y50000D3*
Y51850D3*
X31500D3*
Y50000D3*
Y48150D3*
D25*
X42000Y51270D3*
Y53810D3*
Y48730D3*
Y46190D3*
D21*
X20500Y48150D3*
Y50000D3*
Y51850D3*
X15500D3*
Y50000D3*
Y48150D3*
D25*
X26000Y51270D3*
Y53810D3*
Y48730D3*
Y46190D3*
D23*
X16150Y63500D3*
X18000D3*
X19850D3*
Y68500D3*
X18000D3*
X16150D3*
D24*
X19270Y58000D3*
X21810D3*
X16730D3*
X14190D3*
D21*
X31500Y67850D3*
Y66000D3*
Y64150D3*
X36500D3*
Y66000D3*
Y67850D3*
D25*
X26000Y64730D3*
Y62190D3*
Y67270D3*
Y69810D3*
D21*
X47500Y67850D3*
Y66000D3*
Y64150D3*
X52500D3*
Y66000D3*
Y67850D3*
D25*
X42000Y64730D3*
Y62190D3*
Y67270D3*
Y69810D3*
D21*
X63500Y67850D3*
Y66000D3*
Y64150D3*
X68500D3*
Y66000D3*
Y67850D3*
D25*
X58000Y64730D3*
Y62190D3*
Y67270D3*
Y69810D3*
D23*
X67850Y52500D3*
X66000D3*
X64150D3*
Y47500D3*
X66000D3*
X67850D3*
D24*
X64730Y58000D3*
X62190D3*
X67270D3*
X69810D3*
D23*
X67850Y36500D3*
X66000D3*
X64150D3*
Y31500D3*
X66000D3*
X67850D3*
D24*
X64730Y42000D3*
X62190D3*
X67270D3*
X69810D3*
D23*
X67850Y20500D3*
X66000D3*
X64150D3*
Y15500D3*
X66000D3*
X67850D3*
D24*
X64730Y26000D3*
X62190D3*
X67270D3*
X69810D3*
D21*
X79500Y19850D3*
Y18000D3*
Y16150D3*
X84500D3*
Y18000D3*
Y19850D3*
D25*
X74000Y16730D3*
Y14190D3*
Y19270D3*
Y21810D3*
D23*
X80150Y31500D3*
X82000D3*
X83850D3*
Y36500D3*
X82000D3*
X80150D3*
D24*
X83270Y26000D3*
X85810D3*
X80730D3*
X78190D3*
D23*
X80150Y47500D3*
X82000D3*
X83850D3*
Y52500D3*
X82000D3*
X80150D3*
D24*
X83270Y42000D3*
X85810D3*
X80730D3*
X78190D3*
D23*
X80150Y63500D3*
X82000D3*
X83850D3*
Y68500D3*
X82000D3*
X80150D3*
D24*
X83270Y58000D3*
X85810D3*
X80730D3*
X78190D3*
D23*
X80150Y79500D3*
X82000D3*
X83850D3*
Y84500D3*
X82000D3*
X80150D3*
D24*
X83270Y74000D3*
X85810D3*
X80730D3*
X78190D3*
D21*
X68500Y80150D3*
Y82000D3*
Y83850D3*
X63500D3*
Y82000D3*
Y80150D3*
D25*
X74000Y83270D3*
Y85810D3*
Y80730D3*
Y78190D3*
D21*
X52500Y80150D3*
Y82000D3*
Y83850D3*
X47500D3*
Y82000D3*
Y80150D3*
D25*
X58000Y83270D3*
Y85810D3*
Y80730D3*
Y78190D3*
D21*
X36500Y80150D3*
Y82000D3*
Y83850D3*
X31500D3*
Y82000D3*
Y80150D3*
D25*
X42000Y83270D3*
Y85810D3*
Y80730D3*
Y78190D3*
D21*
X20500Y80150D3*
Y82000D3*
Y83850D3*
X15500D3*
Y82000D3*
Y80150D3*
D25*
X26000Y83270D3*
Y85810D3*
Y80730D3*
Y78190D3*
D23*
X16150Y95500D3*
X18000D3*
X19850D3*
Y100500D3*
X18000D3*
X16150D3*
D24*
X19270Y90000D3*
X21810D3*
X16730D3*
X14190D3*
D21*
X31500Y99850D3*
Y98000D3*
Y96150D3*
X36500D3*
Y98000D3*
Y99850D3*
D25*
X26000Y96730D3*
Y94190D3*
Y99270D3*
Y101810D3*
D21*
X47500Y99850D3*
Y98000D3*
Y96150D3*
X52500D3*
Y98000D3*
Y99850D3*
D25*
X42000Y96730D3*
Y94190D3*
Y99270D3*
Y101810D3*
D21*
X63500Y99850D3*
Y98000D3*
Y96150D3*
X68500D3*
Y98000D3*
Y99850D3*
D25*
X58000Y96730D3*
Y94190D3*
Y99270D3*
Y101810D3*
D21*
X79500Y99850D3*
Y98000D3*
Y96150D3*
X84500D3*
Y98000D3*
Y99850D3*
D25*
X74000Y96730D3*
Y94190D3*
Y99270D3*
Y101810D3*
D21*
X95500Y99850D3*
Y98000D3*
Y96150D3*
X100500D3*
Y98000D3*
Y99850D3*
D25*
X90000Y96730D3*
Y94190D3*
Y99270D3*
Y101810D3*
D23*
X99850Y84500D3*
X98000D3*
X96150D3*
Y79500D3*
X98000D3*
X99850D3*
D24*
X96730Y90000D3*
X94190D3*
X99270D3*
X101810D3*
D23*
X99850Y68500D3*
X98000D3*
X96150D3*
Y63500D3*
X98000D3*
X99850D3*
D24*
X96730Y74000D3*
X94190D3*
X99270D3*
X101810D3*
D23*
X99850Y52500D3*
X98000D3*
X96150D3*
Y47500D3*
X98000D3*
X99850D3*
D24*
X96730Y58000D3*
X94190D3*
X99270D3*
X101810D3*
D23*
X99850Y36500D3*
X98000D3*
X96150D3*
Y31500D3*
X98000D3*
X99850D3*
D24*
X96730Y42000D3*
X94190D3*
X99270D3*
X101810D3*
D23*
X99850Y20500D3*
X98000D3*
X96150D3*
Y15500D3*
X98000D3*
X99850D3*
D24*
X96730Y26000D3*
X94190D3*
X99270D3*
X101810D3*
D21*
X111500Y19850D3*
Y18000D3*
Y16150D3*
X116500D3*
Y18000D3*
Y19850D3*
D25*
X106000Y16730D3*
Y14190D3*
Y19270D3*
Y21810D3*
D23*
X112150Y31500D3*
X114000D3*
X115850D3*
Y36500D3*
X114000D3*
X112150D3*
D24*
X115270Y26000D3*
X117810D3*
X112730D3*
X110190D3*
D23*
X112150Y47500D3*
X114000D3*
X115850D3*
Y52500D3*
X114000D3*
X112150D3*
D24*
X115270Y42000D3*
X117810D3*
X112730D3*
X110190D3*
D23*
X112150Y63500D3*
X114000D3*
X115850D3*
Y68500D3*
X114000D3*
X112150D3*
D24*
X115270Y58000D3*
X117810D3*
X112730D3*
X110190D3*
D23*
X112150Y79500D3*
X114000D3*
X115850D3*
Y84500D3*
X114000D3*
X112150D3*
D24*
X115270Y74000D3*
X117810D3*
X112730D3*
X110190D3*
D23*
X112150Y95500D3*
X114000D3*
X115850D3*
Y100500D3*
X114000D3*
X112150D3*
D24*
X115270Y90000D3*
X117810D3*
X112730D3*
X110190D3*
D23*
X112150Y111500D3*
X114000D3*
X115850D3*
Y116500D3*
X114000D3*
X112150D3*
D24*
X115270Y106000D3*
X117810D3*
X112730D3*
X110190D3*
D21*
X100500Y112150D3*
Y114000D3*
Y115850D3*
X95500D3*
Y114000D3*
Y112150D3*
D25*
X106000Y115270D3*
Y117810D3*
Y112730D3*
Y110190D3*
D21*
X84500Y112150D3*
Y114000D3*
Y115850D3*
X79500D3*
Y114000D3*
Y112150D3*
D25*
X90000Y115270D3*
Y117810D3*
Y112730D3*
Y110190D3*
D21*
X68500Y112150D3*
Y114000D3*
Y115850D3*
X63500D3*
Y114000D3*
Y112150D3*
D25*
X74000Y115270D3*
Y117810D3*
Y112730D3*
Y110190D3*
D21*
X52500Y112150D3*
Y114000D3*
Y115850D3*
X47500D3*
Y114000D3*
Y112150D3*
D25*
X58000Y115270D3*
Y117810D3*
Y112730D3*
Y110190D3*
D21*
X36500Y112150D3*
Y114000D3*
Y115850D3*
X31500D3*
Y114000D3*
Y112150D3*
D25*
X42000Y115270D3*
Y117810D3*
Y112730D3*
Y110190D3*
D21*
X20500Y112150D3*
Y114000D3*
Y115850D3*
X15500D3*
Y114000D3*
Y112150D3*
D25*
X26000Y115270D3*
Y117810D3*
Y112730D3*
Y110190D3*
D23*
X16150Y127500D3*
X18000D3*
X19850D3*
Y132500D3*
X18000D3*
X16150D3*
D24*
X19270Y122000D3*
X21810D3*
X16730D3*
X14190D3*
D21*
X31500Y131850D3*
Y130000D3*
Y128150D3*
X36500D3*
Y130000D3*
Y131850D3*
D25*
X26000Y128730D3*
Y126190D3*
Y131270D3*
Y133810D3*
D21*
X47500Y131850D3*
Y130000D3*
Y128150D3*
X52500D3*
Y130000D3*
Y131850D3*
D25*
X42000Y128730D3*
Y126190D3*
Y131270D3*
Y133810D3*
D21*
X63500Y131850D3*
Y130000D3*
Y128150D3*
X68500D3*
Y130000D3*
Y131850D3*
D25*
X58000Y128730D3*
Y126190D3*
Y131270D3*
Y133810D3*
D21*
X79500Y131850D3*
Y130000D3*
Y128150D3*
X84500D3*
Y130000D3*
Y131850D3*
D25*
X74000Y128730D3*
Y126190D3*
Y131270D3*
Y133810D3*
D21*
X95500Y131850D3*
Y130000D3*
Y128150D3*
X100500D3*
Y130000D3*
Y131850D3*
D25*
X90000Y128730D3*
Y126190D3*
Y131270D3*
Y133810D3*
D21*
X111500Y131850D3*
Y130000D3*
Y128150D3*
X116500D3*
Y130000D3*
Y131850D3*
D25*
X106000Y128730D3*
Y126190D3*
Y131270D3*
Y133810D3*
D21*
X127500Y131850D3*
Y130000D3*
Y128150D3*
X132500D3*
Y130000D3*
Y131850D3*
D25*
X122000Y128730D3*
Y126190D3*
Y131270D3*
Y133810D3*
D23*
X131850Y116500D3*
X130000D3*
X128150D3*
Y111500D3*
X130000D3*
X131850D3*
D24*
X128730Y122000D3*
X126190D3*
X131270D3*
X133810D3*
D23*
X131850Y100500D3*
X130000D3*
X128150D3*
Y95500D3*
X130000D3*
X131850D3*
D24*
X128730Y106000D3*
X126190D3*
X131270D3*
X133810D3*
D23*
X131850Y84500D3*
X130000D3*
X128150D3*
Y79500D3*
X130000D3*
X131850D3*
D24*
X128730Y90000D3*
X126190D3*
X131270D3*
X133810D3*
D23*
X131850Y68500D3*
X130000D3*
X128150D3*
Y63500D3*
X130000D3*
X131850D3*
D24*
X128730Y74000D3*
X126190D3*
X131270D3*
X133810D3*
D23*
X131850Y52500D3*
X130000D3*
X128150D3*
Y47500D3*
X130000D3*
X131850D3*
D24*
X128730Y58000D3*
X126190D3*
X131270D3*
X133810D3*
D23*
X131850Y36500D3*
X130000D3*
X128150D3*
Y31500D3*
X130000D3*
X131850D3*
D24*
X128730Y42000D3*
X126190D3*
X131270D3*
X133810D3*
D23*
X131850Y20500D3*
X130000D3*
X128150D3*
Y15500D3*
X130000D3*
X131850D3*
D24*
X128730Y26000D3*
X126190D3*
X131270D3*
X133810D3*
D21*
X143500Y19850D3*
Y18000D3*
Y16150D3*
X148500D3*
Y18000D3*
Y19850D3*
D25*
X138000Y16730D3*
Y14190D3*
Y19270D3*
Y21810D3*
D23*
X144150Y31500D3*
X146000D3*
X147850D3*
Y36500D3*
X146000D3*
X144150D3*
D24*
X147270Y26000D3*
X149810D3*
X144730D3*
X142190D3*
D23*
X144150Y47500D3*
X146000D3*
X147850D3*
Y52500D3*
X146000D3*
X144150D3*
D24*
X147270Y42000D3*
X149810D3*
X144730D3*
X142190D3*
D23*
X144150Y63500D3*
X146000D3*
X147850D3*
Y68500D3*
X146000D3*
X144150D3*
D24*
X147270Y58000D3*
X149810D3*
X144730D3*
X142190D3*
D23*
X144150Y79500D3*
X146000D3*
X147850D3*
Y84500D3*
X146000D3*
X144150D3*
D24*
X147270Y74000D3*
X149810D3*
X144730D3*
X142190D3*
D23*
X144150Y95500D3*
X146000D3*
X147850D3*
Y100500D3*
X146000D3*
X144150D3*
D24*
X147270Y90000D3*
X149810D3*
X144730D3*
X142190D3*
D23*
X144150Y111500D3*
X146000D3*
X147850D3*
Y116500D3*
X146000D3*
X144150D3*
D24*
X147270Y106000D3*
X149810D3*
X144730D3*
X142190D3*
D23*
X144150Y127500D3*
X146000D3*
X147850D3*
Y132500D3*
X146000D3*
X144150D3*
D24*
X147270Y122000D3*
X149810D3*
X144730D3*
X142190D3*
D23*
X144150Y143500D3*
X146000D3*
X147850D3*
Y148500D3*
X146000D3*
X144150D3*
D24*
X147270Y138000D3*
X149810D3*
X144730D3*
X142190D3*
D21*
X132500Y144150D3*
Y146000D3*
Y147850D3*
X127500D3*
Y146000D3*
Y144150D3*
D25*
X138000Y147270D3*
Y149810D3*
Y144730D3*
Y142190D3*
D21*
X116500Y144150D3*
Y146000D3*
Y147850D3*
X111500D3*
Y146000D3*
Y144150D3*
D25*
X122000Y147270D3*
Y149810D3*
Y144730D3*
Y142190D3*
D21*
X100500Y144150D3*
Y146000D3*
Y147850D3*
X95500D3*
Y146000D3*
Y144150D3*
D25*
X106000Y147270D3*
Y149810D3*
Y144730D3*
Y142190D3*
D21*
X84500Y144150D3*
Y146000D3*
Y147850D3*
X79500D3*
Y146000D3*
Y144150D3*
D25*
X90000Y147270D3*
Y149810D3*
Y144730D3*
Y142190D3*
D21*
X68500Y144150D3*
Y146000D3*
Y147850D3*
X63500D3*
Y146000D3*
Y144150D3*
D25*
X74000Y147270D3*
Y149810D3*
Y144730D3*
Y142190D3*
D21*
X52500Y144150D3*
Y146000D3*
Y147850D3*
X47500D3*
Y146000D3*
Y144150D3*
D25*
X58000Y147270D3*
Y149810D3*
Y144730D3*
Y142190D3*
D21*
X36500Y144150D3*
Y146000D3*
Y147850D3*
X31500D3*
Y146000D3*
Y144150D3*
D25*
X42000Y147270D3*
Y149810D3*
Y144730D3*
Y142190D3*
D21*
X20500Y144150D3*
Y146000D3*
Y147850D3*
X15500D3*
Y146000D3*
Y144150D3*
D25*
X26000Y147270D3*
Y149810D3*
Y144730D3*
Y142190D3*
D23*
X16150Y159500D3*
X18000D3*
X19850D3*
Y164500D3*
X18000D3*
X16150D3*
D24*
X19270Y154000D3*
X21810D3*
X16730D3*
X14190D3*
D21*
X31500Y163850D3*
Y162000D3*
Y160150D3*
X36500D3*
Y162000D3*
Y163850D3*
D25*
X26000Y160730D3*
Y158190D3*
Y163270D3*
Y165810D3*
D21*
X47500Y163850D3*
Y162000D3*
Y160150D3*
X52500D3*
Y162000D3*
Y163850D3*
D25*
X42000Y160730D3*
Y158190D3*
Y163270D3*
Y165810D3*
D21*
X63500Y163850D3*
Y162000D3*
Y160150D3*
X68500D3*
Y162000D3*
Y163850D3*
D25*
X58000Y160730D3*
Y158190D3*
Y163270D3*
Y165810D3*
D21*
X79500Y163850D3*
Y162000D3*
Y160150D3*
X84500D3*
Y162000D3*
Y163850D3*
D25*
X74000Y160730D3*
Y158190D3*
Y163270D3*
Y165810D3*
D21*
X95500Y163850D3*
Y162000D3*
Y160150D3*
X100500D3*
Y162000D3*
Y163850D3*
D25*
X90000Y160730D3*
Y158190D3*
Y163270D3*
Y165810D3*
D21*
X111500Y163850D3*
Y162000D3*
Y160150D3*
X116500D3*
Y162000D3*
Y163850D3*
D25*
X106000Y160730D3*
Y158190D3*
Y163270D3*
Y165810D3*
D21*
X127500Y163850D3*
Y162000D3*
Y160150D3*
X132500D3*
Y162000D3*
Y163850D3*
D25*
X122000Y160730D3*
Y158190D3*
Y163270D3*
Y165810D3*
D21*
X143500Y163850D3*
Y162000D3*
Y160150D3*
X148500D3*
Y162000D3*
Y163850D3*
D25*
X138000Y160730D3*
Y158190D3*
Y163270D3*
Y165810D3*
D21*
X159500Y163850D3*
Y162000D3*
Y160150D3*
X164500D3*
Y162000D3*
Y163850D3*
D25*
X154000Y160730D3*
Y158190D3*
Y163270D3*
Y165810D3*
D23*
X163850Y148500D3*
X162000D3*
X160150D3*
Y143500D3*
X162000D3*
X163850D3*
D24*
X160730Y154000D3*
X158190D3*
X163270D3*
X165810D3*
D23*
X163850Y132500D3*
X162000D3*
X160150D3*
Y127500D3*
X162000D3*
X163850D3*
D24*
X160730Y138000D3*
X158190D3*
X163270D3*
X165810D3*
D23*
X163850Y116500D3*
X162000D3*
X160150D3*
Y111500D3*
X162000D3*
X163850D3*
D24*
X160730Y122000D3*
X158190D3*
X163270D3*
X165810D3*
D23*
X163850Y100500D3*
X162000D3*
X160150D3*
Y95500D3*
X162000D3*
X163850D3*
D24*
X160730Y106000D3*
X158190D3*
X163270D3*
X165810D3*
D23*
X163850Y84500D3*
X162000D3*
X160150D3*
Y79500D3*
X162000D3*
X163850D3*
D24*
X160730Y90000D3*
X158190D3*
X163270D3*
X165810D3*
D23*
X163850Y68500D3*
X162000D3*
X160150D3*
Y63500D3*
X162000D3*
X163850D3*
D24*
X160730Y74000D3*
X158190D3*
X163270D3*
X165810D3*
D23*
X163850Y52500D3*
X162000D3*
X160150D3*
Y47500D3*
X162000D3*
X163850D3*
D24*
X160730Y58000D3*
X158190D3*
X163270D3*
X165810D3*
D23*
X163850Y36500D3*
X162000D3*
X160150D3*
Y31500D3*
X162000D3*
X163850D3*
D24*
X160730Y42000D3*
X158190D3*
X163270D3*
X165810D3*
D23*
X163850Y20500D3*
X162000D3*
X160150D3*
Y15500D3*
X162000D3*
X163850D3*
D24*
X160730Y26000D3*
X158190D3*
X163270D3*
X165810D3*
D21*
X175500Y19850D3*
Y18000D3*
Y16150D3*
X180500D3*
Y18000D3*
Y19850D3*
D25*
X170000Y16730D3*
Y14190D3*
Y19270D3*
Y21810D3*
D23*
X176150Y31500D3*
X178000D3*
X179850D3*
Y36500D3*
X178000D3*
X176150D3*
D24*
X179270Y26000D3*
X181810D3*
X176730D3*
X174190D3*
D23*
X176150Y47500D3*
X178000D3*
X179850D3*
Y52500D3*
X178000D3*
X176150D3*
D24*
X179270Y42000D3*
X181810D3*
X176730D3*
X174190D3*
D23*
X176150Y63500D3*
X178000D3*
X179850D3*
Y68500D3*
X178000D3*
X176150D3*
D24*
X179270Y58000D3*
X181810D3*
X176730D3*
X174190D3*
D23*
X176150Y79500D3*
X178000D3*
X179850D3*
Y84500D3*
X178000D3*
X176150D3*
D24*
X179270Y74000D3*
X181810D3*
X176730D3*
X174190D3*
D23*
X176150Y95500D3*
X178000D3*
X179850D3*
Y100500D3*
X178000D3*
X176150D3*
D24*
X179270Y90000D3*
X181810D3*
X176730D3*
X174190D3*
D23*
X176150Y111500D3*
X178000D3*
X179850D3*
Y116500D3*
X178000D3*
X176150D3*
D24*
X179270Y106000D3*
X181810D3*
X176730D3*
X174190D3*
D23*
X176150Y127500D3*
X178000D3*
X179850D3*
Y132500D3*
X178000D3*
X176150D3*
D24*
X179270Y122000D3*
X181810D3*
X176730D3*
X174190D3*
D23*
X176150Y143500D3*
X178000D3*
X179850D3*
Y148500D3*
X178000D3*
X176150D3*
D24*
X179270Y138000D3*
X181810D3*
X176730D3*
X174190D3*
D23*
X176150Y159500D3*
X178000D3*
X179850D3*
Y164500D3*
X178000D3*
X176150D3*
D24*
X179270Y154000D3*
X181810D3*
X176730D3*
X174190D3*
D23*
X176150Y175500D3*
X178000D3*
X179850D3*
Y180500D3*
X178000D3*
X176150D3*
D24*
X179270Y170000D3*
X181810D3*
X176730D3*
X174190D3*
D21*
X164500Y176150D3*
Y178000D3*
Y179850D3*
X159500D3*
Y178000D3*
Y176150D3*
D25*
X170000Y179270D3*
Y181810D3*
Y176730D3*
Y174190D3*
D21*
X148500Y176150D3*
Y178000D3*
Y179850D3*
X143500D3*
Y178000D3*
Y176150D3*
D25*
X154000Y179270D3*
Y181810D3*
Y176730D3*
Y174190D3*
D21*
X132500Y176150D3*
Y178000D3*
Y179850D3*
X127500D3*
Y178000D3*
Y176150D3*
D25*
X138000Y179270D3*
Y181810D3*
Y176730D3*
Y174190D3*
D21*
X116500Y176150D3*
Y178000D3*
Y179850D3*
X111500D3*
Y178000D3*
Y176150D3*
D25*
X122000Y179270D3*
Y181810D3*
Y176730D3*
Y174190D3*
D21*
X100500Y176150D3*
Y178000D3*
Y179850D3*
X95500D3*
Y178000D3*
Y176150D3*
D25*
X106000Y179270D3*
Y181810D3*
Y176730D3*
Y174190D3*
D21*
X84500Y176150D3*
Y178000D3*
Y179850D3*
X79500D3*
Y178000D3*
Y176150D3*
D25*
X90000Y179270D3*
Y181810D3*
Y176730D3*
Y174190D3*
D21*
X68500Y176150D3*
Y178000D3*
Y179850D3*
X63500D3*
Y178000D3*
Y176150D3*
D25*
X74000Y179270D3*
Y181810D3*
Y176730D3*
Y174190D3*
D21*
X52500Y176150D3*
Y178000D3*
Y179850D3*
X47500D3*
Y178000D3*
Y176150D3*
D25*
X58000Y179270D3*
Y181810D3*
Y176730D3*
Y174190D3*
D21*
X36500Y176150D3*
Y178000D3*
Y179850D3*
X31500D3*
Y178000D3*
Y176150D3*
D25*
X42000Y179270D3*
Y181810D3*
Y176730D3*
Y174190D3*
D21*
X20500Y176150D3*
Y178000D3*
Y179850D3*
X15500D3*
Y178000D3*
Y176150D3*
D25*
X26000Y179270D3*
Y181810D3*
Y176730D3*
Y174190D3*
D23*
X16150Y191500D3*
X18000D3*
X19850D3*
Y196500D3*
X18000D3*
X16150D3*
D24*
X19270Y186000D3*
X21810D3*
X16730D3*
X14190D3*
D21*
X31500Y195850D3*
Y194000D3*
Y192150D3*
X36500D3*
Y194000D3*
Y195850D3*
D25*
X26000Y192730D3*
Y190190D3*
Y195270D3*
Y197810D3*
D21*
X47500Y195850D3*
Y194000D3*
Y192150D3*
X52500D3*
Y194000D3*
Y195850D3*
D25*
X42000Y192730D3*
Y190190D3*
Y195270D3*
Y197810D3*
D21*
X63500Y195850D3*
Y194000D3*
Y192150D3*
X68500D3*
Y194000D3*
Y195850D3*
D25*
X58000Y192730D3*
Y190190D3*
Y195270D3*
Y197810D3*
D21*
X79500Y195850D3*
Y194000D3*
Y192150D3*
X84500D3*
Y194000D3*
Y195850D3*
D25*
X74000Y192730D3*
Y190190D3*
Y195270D3*
Y197810D3*
D21*
X95500Y195850D3*
Y194000D3*
Y192150D3*
X100500D3*
Y194000D3*
Y195850D3*
D25*
X90000Y192730D3*
Y190190D3*
Y195270D3*
Y197810D3*
D21*
X111500Y195850D3*
Y194000D3*
Y192150D3*
X116500D3*
Y194000D3*
Y195850D3*
D25*
X106000Y192730D3*
Y190190D3*
Y195270D3*
Y197810D3*
D21*
X127500Y195850D3*
Y194000D3*
Y192150D3*
X132500D3*
Y194000D3*
Y195850D3*
D25*
X122000Y192730D3*
Y190190D3*
Y195270D3*
Y197810D3*
D21*
X143500Y195850D3*
Y194000D3*
Y192150D3*
X148500D3*
Y194000D3*
Y195850D3*
D25*
X138000Y192730D3*
Y190190D3*
Y195270D3*
Y197810D3*
D21*
X159500Y195850D3*
Y194000D3*
Y192150D3*
X164500D3*
Y194000D3*
Y195850D3*
D25*
X154000Y192730D3*
Y190190D3*
Y195270D3*
Y197810D3*
D21*
X175500Y195850D3*
Y194000D3*
Y192150D3*
X180500D3*
Y194000D3*
Y195850D3*
D25*
X170000Y192730D3*
Y190190D3*
Y195270D3*
Y197810D3*
D21*
X191500Y195850D3*
Y194000D3*
Y192150D3*
X196500D3*
Y194000D3*
Y195850D3*
D25*
X186000Y192730D3*
Y190190D3*
Y195270D3*
Y197810D3*
D23*
X195850Y180500D3*
X194000D3*
X192150D3*
Y175500D3*
X194000D3*
X195850D3*
D24*
X192730Y186000D3*
X190190D3*
X195270D3*
X197810D3*
D23*
X195850Y164500D3*
X194000D3*
X192150D3*
Y159500D3*
X194000D3*
X195850D3*
D24*
X192730Y170000D3*
X190190D3*
X195270D3*
X197810D3*
D23*
X195850Y148500D3*
X194000D3*
X192150D3*
Y143500D3*
X194000D3*
X195850D3*
D24*
X192730Y154000D3*
X190190D3*
X195270D3*
X197810D3*
D23*
X195850Y132500D3*
X194000D3*
X192150D3*
Y127500D3*
X194000D3*
X195850D3*
D24*
X192730Y138000D3*
X190190D3*
X195270D3*
X197810D3*
D23*
X195850Y116500D3*
X194000D3*
X192150D3*
Y111500D3*
X194000D3*
X195850D3*
D24*
X192730Y122000D3*
X190190D3*
X195270D3*
X197810D3*
D23*
X195850Y100500D3*
X194000D3*
X192150D3*
Y95500D3*
X194000D3*
X195850D3*
D24*
X192730Y106000D3*
X190190D3*
X195270D3*
X197810D3*
D23*
X195850Y84500D3*
X194000D3*
X192150D3*
Y79500D3*
X194000D3*
X195850D3*
D24*
X192730Y90000D3*
X190190D3*
X195270D3*
X197810D3*
D23*
X195850Y68500D3*
X194000D3*
X192150D3*
Y63500D3*
X194000D3*
X195850D3*
D24*
X192730Y74000D3*
X190190D3*
X195270D3*
X197810D3*
D23*
X195850Y52500D3*
X194000D3*
X192150D3*
Y47500D3*
X194000D3*
X195850D3*
D24*
X192730Y58000D3*
X190190D3*
X195270D3*
X197810D3*
D23*
X195850Y36500D3*
X194000D3*
X192150D3*
Y31500D3*
X194000D3*
X195850D3*
D24*
X192730Y42000D3*
X190190D3*
X195270D3*
X197810D3*
D23*
X195850Y20500D3*
X194000D3*
X192150D3*
Y15500D3*
X194000D3*
X195850D3*
D24*
X192730Y26000D3*
X190190D3*
X195270D3*
X197810D3*
M02*
