G04 DipTrace 2.4.0.2*
%IN112xAPA102Cx8x14.gts*%
%MOMM*%
%ADD27C,2.05*%
%ADD28O,4.55X2.05*%
%ADD29O,1.05X1.55*%
%ADD30O,1.55X1.05*%
%FSLAX53Y53*%
G04*
G71*
G90*
G75*
G01*
%LNTopMask*%
%LPD*%
D30*
X15500Y19850D3*
Y18000D3*
Y16150D3*
X20500D3*
Y18000D3*
Y19850D3*
D29*
X16150Y31500D3*
X18000D3*
X19850D3*
Y36500D3*
X18000D3*
X16150D3*
Y47500D3*
X18000D3*
X19850D3*
Y52500D3*
X18000D3*
X16150D3*
Y63500D3*
X18000D3*
X19850D3*
Y68500D3*
X18000D3*
X16150D3*
Y79500D3*
X18000D3*
X19850D3*
Y84500D3*
X18000D3*
X16150D3*
Y95500D3*
X18000D3*
X19850D3*
Y100500D3*
X18000D3*
X16150D3*
Y111500D3*
X18000D3*
X19850D3*
Y116500D3*
X18000D3*
X16150D3*
Y127500D3*
X18000D3*
X19850D3*
Y132500D3*
X18000D3*
X16150D3*
D30*
X31500Y131850D3*
Y130000D3*
Y128150D3*
X36500D3*
Y130000D3*
Y131850D3*
D28*
X26000Y128730D3*
D27*
X27250D3*
X24750D3*
D28*
X26000Y126190D3*
Y131270D3*
D27*
X27250D3*
X24750D3*
X27250Y126190D3*
X24750D3*
D28*
X26000Y133810D3*
D27*
X27250D3*
X24750D3*
D29*
X35850Y116500D3*
X34000D3*
X32150D3*
Y111500D3*
X34000D3*
X35850D3*
Y100500D3*
X34000D3*
X32150D3*
Y95500D3*
X34000D3*
X35850D3*
Y84500D3*
X34000D3*
X32150D3*
Y79500D3*
X34000D3*
X35850D3*
Y68500D3*
X34000D3*
X32150D3*
Y63500D3*
X34000D3*
X35850D3*
Y52500D3*
X34000D3*
X32150D3*
Y47500D3*
X34000D3*
X35850D3*
Y36500D3*
X34000D3*
X32150D3*
Y31500D3*
X34000D3*
X35850D3*
Y20500D3*
X34000D3*
X32150D3*
Y15500D3*
X34000D3*
X35850D3*
D30*
X47500Y19850D3*
Y18000D3*
Y16150D3*
X52500D3*
Y18000D3*
Y19850D3*
D28*
X42000Y16730D3*
D27*
X43250D3*
X40750D3*
D28*
X42000Y14190D3*
Y19270D3*
D27*
X43250D3*
X40750D3*
X43250Y14190D3*
X40750D3*
D28*
X42000Y21810D3*
D27*
X43250D3*
X40750D3*
D29*
X48150Y31500D3*
X50000D3*
X51850D3*
Y36500D3*
X50000D3*
X48150D3*
Y47500D3*
X50000D3*
X51850D3*
Y52500D3*
X50000D3*
X48150D3*
Y63500D3*
X50000D3*
X51850D3*
Y68500D3*
X50000D3*
X48150D3*
Y79500D3*
X50000D3*
X51850D3*
Y84500D3*
X50000D3*
X48150D3*
Y95500D3*
X50000D3*
X51850D3*
Y100500D3*
X50000D3*
X48150D3*
Y111500D3*
X50000D3*
X51850D3*
Y116500D3*
X50000D3*
X48150D3*
Y127500D3*
X50000D3*
X51850D3*
Y132500D3*
X50000D3*
X48150D3*
D30*
X63500Y131850D3*
Y130000D3*
Y128150D3*
X68500D3*
Y130000D3*
Y131850D3*
D28*
X58000Y128730D3*
D27*
X59250D3*
X56750D3*
D28*
X58000Y126190D3*
Y131270D3*
D27*
X59250D3*
X56750D3*
X59250Y126190D3*
X56750D3*
D28*
X58000Y133810D3*
D27*
X59250D3*
X56750D3*
D29*
X67850Y116500D3*
X66000D3*
X64150D3*
Y111500D3*
X66000D3*
X67850D3*
Y100500D3*
X66000D3*
X64150D3*
Y95500D3*
X66000D3*
X67850D3*
Y84500D3*
X66000D3*
X64150D3*
Y79500D3*
X66000D3*
X67850D3*
Y68500D3*
X66000D3*
X64150D3*
Y63500D3*
X66000D3*
X67850D3*
Y52500D3*
X66000D3*
X64150D3*
Y47500D3*
X66000D3*
X67850D3*
Y36500D3*
X66000D3*
X64150D3*
Y31500D3*
X66000D3*
X67850D3*
Y20500D3*
X66000D3*
X64150D3*
Y15500D3*
X66000D3*
X67850D3*
D30*
X79500Y19850D3*
Y18000D3*
Y16150D3*
X84500D3*
Y18000D3*
Y19850D3*
D28*
X74000Y16730D3*
D27*
X75250D3*
X72750D3*
D28*
X74000Y14190D3*
Y19270D3*
D27*
X75250D3*
X72750D3*
X75250Y14190D3*
X72750D3*
D28*
X74000Y21810D3*
D27*
X75250D3*
X72750D3*
D29*
X80150Y31500D3*
X82000D3*
X83850D3*
Y36500D3*
X82000D3*
X80150D3*
Y47500D3*
X82000D3*
X83850D3*
Y52500D3*
X82000D3*
X80150D3*
Y63500D3*
X82000D3*
X83850D3*
Y68500D3*
X82000D3*
X80150D3*
Y79500D3*
X82000D3*
X83850D3*
Y84500D3*
X82000D3*
X80150D3*
Y95500D3*
X82000D3*
X83850D3*
Y100500D3*
X82000D3*
X80150D3*
Y111500D3*
X82000D3*
X83850D3*
Y116500D3*
X82000D3*
X80150D3*
Y127500D3*
X82000D3*
X83850D3*
Y132500D3*
X82000D3*
X80150D3*
D30*
X95500Y131850D3*
Y130000D3*
Y128150D3*
X100500D3*
Y130000D3*
Y131850D3*
D28*
X90000Y128730D3*
D27*
X91250D3*
X88750D3*
D28*
X90000Y126190D3*
Y131270D3*
D27*
X91250D3*
X88750D3*
X91250Y126190D3*
X88750D3*
D28*
X90000Y133810D3*
D27*
X91250D3*
X88750D3*
D29*
X99850Y116500D3*
X98000D3*
X96150D3*
Y111500D3*
X98000D3*
X99850D3*
Y100500D3*
X98000D3*
X96150D3*
Y95500D3*
X98000D3*
X99850D3*
Y84500D3*
X98000D3*
X96150D3*
Y79500D3*
X98000D3*
X99850D3*
Y68500D3*
X98000D3*
X96150D3*
Y63500D3*
X98000D3*
X99850D3*
Y52500D3*
X98000D3*
X96150D3*
Y47500D3*
X98000D3*
X99850D3*
Y36500D3*
X98000D3*
X96150D3*
Y31500D3*
X98000D3*
X99850D3*
Y20500D3*
X98000D3*
X96150D3*
Y15500D3*
X98000D3*
X99850D3*
D30*
X111500Y19850D3*
Y18000D3*
Y16150D3*
X116500D3*
Y18000D3*
Y19850D3*
D28*
X106000Y16730D3*
D27*
X107250D3*
X104750D3*
D28*
X106000Y14190D3*
Y19270D3*
D27*
X107250D3*
X104750D3*
X107250Y14190D3*
X104750D3*
D28*
X106000Y21810D3*
D27*
X107250D3*
X104750D3*
D29*
X112150Y31500D3*
X114000D3*
X115850D3*
Y36500D3*
X114000D3*
X112150D3*
Y47500D3*
X114000D3*
X115850D3*
Y52500D3*
X114000D3*
X112150D3*
Y63500D3*
X114000D3*
X115850D3*
Y68500D3*
X114000D3*
X112150D3*
Y79500D3*
X114000D3*
X115850D3*
Y84500D3*
X114000D3*
X112150D3*
Y95500D3*
X114000D3*
X115850D3*
Y100500D3*
X114000D3*
X112150D3*
Y111500D3*
X114000D3*
X115850D3*
Y116500D3*
X114000D3*
X112150D3*
Y127500D3*
X114000D3*
X115850D3*
Y132500D3*
X114000D3*
X112150D3*
D30*
X127500Y131850D3*
Y130000D3*
Y128150D3*
X132500D3*
Y130000D3*
Y131850D3*
D28*
X122000Y128730D3*
D27*
X123250D3*
X120750D3*
D28*
X122000Y126190D3*
Y131270D3*
D27*
X123250D3*
X120750D3*
X123250Y126190D3*
X120750D3*
D28*
X122000Y133810D3*
D27*
X123250D3*
X120750D3*
D29*
X131850Y116500D3*
X130000D3*
X128150D3*
Y111500D3*
X130000D3*
X131850D3*
Y100500D3*
X130000D3*
X128150D3*
Y95500D3*
X130000D3*
X131850D3*
Y84500D3*
X130000D3*
X128150D3*
Y79500D3*
X130000D3*
X131850D3*
Y68500D3*
X130000D3*
X128150D3*
Y63500D3*
X130000D3*
X131850D3*
Y52500D3*
X130000D3*
X128150D3*
Y47500D3*
X130000D3*
X131850D3*
Y36500D3*
X130000D3*
X128150D3*
Y31500D3*
X130000D3*
X131850D3*
Y20500D3*
X130000D3*
X128150D3*
Y15500D3*
X130000D3*
X131850D3*
D30*
X143500Y19850D3*
Y18000D3*
Y16150D3*
X148500D3*
Y18000D3*
Y19850D3*
D28*
X138000Y16730D3*
D27*
X139250D3*
X136750D3*
D28*
X138000Y14190D3*
Y19270D3*
D27*
X139250D3*
X136750D3*
X139250Y14190D3*
X136750D3*
D28*
X138000Y21810D3*
D27*
X139250D3*
X136750D3*
D29*
X144150Y31500D3*
X146000D3*
X147850D3*
Y36500D3*
X146000D3*
X144150D3*
Y47500D3*
X146000D3*
X147850D3*
Y52500D3*
X146000D3*
X144150D3*
Y63500D3*
X146000D3*
X147850D3*
Y68500D3*
X146000D3*
X144150D3*
Y79500D3*
X146000D3*
X147850D3*
Y84500D3*
X146000D3*
X144150D3*
Y95500D3*
X146000D3*
X147850D3*
Y100500D3*
X146000D3*
X144150D3*
Y111500D3*
X146000D3*
X147850D3*
Y116500D3*
X146000D3*
X144150D3*
Y127500D3*
X146000D3*
X147850D3*
Y132500D3*
X146000D3*
X144150D3*
D30*
X159500Y131850D3*
Y130000D3*
Y128150D3*
X164500D3*
Y130000D3*
Y131850D3*
D28*
X154000Y128730D3*
D27*
X155250D3*
X152750D3*
D28*
X154000Y126190D3*
Y131270D3*
D27*
X155250D3*
X152750D3*
X155250Y126190D3*
X152750D3*
D28*
X154000Y133810D3*
D27*
X155250D3*
X152750D3*
D29*
X163850Y116500D3*
X162000D3*
X160150D3*
Y111500D3*
X162000D3*
X163850D3*
Y100500D3*
X162000D3*
X160150D3*
Y95500D3*
X162000D3*
X163850D3*
Y84500D3*
X162000D3*
X160150D3*
Y79500D3*
X162000D3*
X163850D3*
Y68500D3*
X162000D3*
X160150D3*
Y63500D3*
X162000D3*
X163850D3*
Y52500D3*
X162000D3*
X160150D3*
Y47500D3*
X162000D3*
X163850D3*
Y36500D3*
X162000D3*
X160150D3*
Y31500D3*
X162000D3*
X163850D3*
Y20500D3*
X162000D3*
X160150D3*
Y15500D3*
X162000D3*
X163850D3*
D30*
X175500Y19850D3*
Y18000D3*
Y16150D3*
X180500D3*
Y18000D3*
Y19850D3*
D28*
X170000Y16730D3*
D27*
X171250D3*
X168750D3*
D28*
X170000Y14190D3*
Y19270D3*
D27*
X171250D3*
X168750D3*
X171250Y14190D3*
X168750D3*
D28*
X170000Y21810D3*
D27*
X171250D3*
X168750D3*
D29*
X176150Y31500D3*
X178000D3*
X179850D3*
Y36500D3*
X178000D3*
X176150D3*
Y47500D3*
X178000D3*
X179850D3*
Y52500D3*
X178000D3*
X176150D3*
Y63500D3*
X178000D3*
X179850D3*
Y68500D3*
X178000D3*
X176150D3*
Y79500D3*
X178000D3*
X179850D3*
Y84500D3*
X178000D3*
X176150D3*
Y95500D3*
X178000D3*
X179850D3*
Y100500D3*
X178000D3*
X176150D3*
Y111500D3*
X178000D3*
X179850D3*
Y116500D3*
X178000D3*
X176150D3*
Y127500D3*
X178000D3*
X179850D3*
Y132500D3*
X178000D3*
X176150D3*
D30*
X191500Y131850D3*
Y130000D3*
Y128150D3*
X196500D3*
Y130000D3*
Y131850D3*
D28*
X186000Y128730D3*
D27*
X187250D3*
X184750D3*
D28*
X186000Y126190D3*
Y131270D3*
D27*
X187250D3*
X184750D3*
X187250Y126190D3*
X184750D3*
D28*
X186000Y133810D3*
D27*
X187250D3*
X184750D3*
D29*
X195850Y116500D3*
X194000D3*
X192150D3*
Y111500D3*
X194000D3*
X195850D3*
Y100500D3*
X194000D3*
X192150D3*
Y95500D3*
X194000D3*
X195850D3*
Y84500D3*
X194000D3*
X192150D3*
Y79500D3*
X194000D3*
X195850D3*
Y68500D3*
X194000D3*
X192150D3*
Y63500D3*
X194000D3*
X195850D3*
Y52500D3*
X194000D3*
X192150D3*
Y47500D3*
X194000D3*
X195850D3*
Y36500D3*
X194000D3*
X192150D3*
Y31500D3*
X194000D3*
X195850D3*
Y20500D3*
X194000D3*
X192150D3*
Y15500D3*
X194000D3*
X195850D3*
D30*
X207500Y19850D3*
Y18000D3*
Y16150D3*
X212500D3*
Y18000D3*
Y19850D3*
D28*
X202000Y16730D3*
D27*
X203250D3*
X200750D3*
D28*
X202000Y14190D3*
Y19270D3*
D27*
X203250D3*
X200750D3*
X203250Y14190D3*
X200750D3*
D28*
X202000Y21810D3*
D27*
X203250D3*
X200750D3*
D29*
X208150Y31500D3*
X210000D3*
X211850D3*
Y36500D3*
X210000D3*
X208150D3*
Y47500D3*
X210000D3*
X211850D3*
Y52500D3*
X210000D3*
X208150D3*
Y63500D3*
X210000D3*
X211850D3*
Y68500D3*
X210000D3*
X208150D3*
Y79500D3*
X210000D3*
X211850D3*
Y84500D3*
X210000D3*
X208150D3*
Y95500D3*
X210000D3*
X211850D3*
Y100500D3*
X210000D3*
X208150D3*
Y111500D3*
X210000D3*
X211850D3*
Y116500D3*
X210000D3*
X208150D3*
Y127500D3*
X210000D3*
X211850D3*
Y132500D3*
X210000D3*
X208150D3*
D30*
X223500Y131850D3*
Y130000D3*
Y128150D3*
X228500D3*
Y130000D3*
Y131850D3*
D28*
X218000Y128730D3*
D27*
X219250D3*
X216750D3*
D28*
X218000Y126190D3*
Y131270D3*
D27*
X219250D3*
X216750D3*
X219250Y126190D3*
X216750D3*
D28*
X218000Y133810D3*
D27*
X219250D3*
X216750D3*
D29*
X227850Y116500D3*
X226000D3*
X224150D3*
Y111500D3*
X226000D3*
X227850D3*
Y100500D3*
X226000D3*
X224150D3*
Y95500D3*
X226000D3*
X227850D3*
Y84500D3*
X226000D3*
X224150D3*
Y79500D3*
X226000D3*
X227850D3*
Y68500D3*
X226000D3*
X224150D3*
Y63500D3*
X226000D3*
X227850D3*
Y52500D3*
X226000D3*
X224150D3*
Y47500D3*
X226000D3*
X227850D3*
Y36500D3*
X226000D3*
X224150D3*
Y31500D3*
X226000D3*
X227850D3*
Y20500D3*
X226000D3*
X224150D3*
Y15500D3*
X226000D3*
X227850D3*
M02*
