M48
METRIC,0000.00
T01C1.0
%
T01
X+002725Y+012873
X+002475Y+012873
X+002475Y+013127
X+002725Y+013127
X+002725Y+013381
X+002475Y+013381
X+002475Y+012619
X+002725Y+012619
X+005675Y+012619
X+005925Y+012619
X+005925Y+012873
X+005675Y+012873
X+005675Y+013127
X+005925Y+013127
X+005925Y+013381
X+005675Y+013381
X+008875Y+013381
X+009125Y+013381
X+009125Y+013127
X+008875Y+013127
X+008875Y+012873
X+009125Y+012873
X+009125Y+012619
X+008875Y+012619
X+012075Y+012619
X+012325Y+012619
X+012325Y+012873
X+012075Y+012873
X+012075Y+013127
X+012325Y+013127
X+012325Y+013381
X+012075Y+013381
X+015275Y+013381
X+015525Y+013381
X+015525Y+013127
X+015275Y+013127
X+015275Y+012873
X+015525Y+012873
X+015525Y+012619
X+015275Y+012619
X+018475Y+012619
X+018725Y+012619
X+018725Y+012873
X+018475Y+012873
X+018475Y+013127
X+018725Y+013127
X+018725Y+013381
X+018475Y+013381
X+021675Y+013381
X+021925Y+013381
X+021925Y+013127
X+021675Y+013127
X+021675Y+012873
X+021925Y+012873
X+021925Y+012619
X+021675Y+012619
X+020325Y+002181
X+020075Y+002181
X+020075Y+001927
X+020325Y+001927
X+020325Y+001673
X+020075Y+001673
X+020075Y+001419
X+020325Y+001419
X+023275Y+001419
X+023275Y+001673
X+023275Y+001927
X+023275Y+002181
X+017125Y+002181
X+016875Y+002181
X+016875Y+001927
X+017125Y+001927
X+017125Y+001673
X+016875Y+001673
X+016875Y+001419
X+017125Y+001419
X+013925Y+001419
X+013675Y+001419
X+013675Y+001673
X+013925Y+001673
X+013925Y+001927
X+013675Y+001927
X+013675Y+002181
X+013925Y+002181
X+010725Y+002181
X+010475Y+002181
X+010475Y+001927
X+010725Y+001927
X+010725Y+001673
X+010475Y+001673
X+010475Y+001419
X+010725Y+001419
X+007525Y+001419
X+007275Y+001419
X+007275Y+001673
X+007525Y+001673
X+007525Y+001927
X+007275Y+001927
X+007275Y+002181
X+007525Y+002181
X+004325Y+002181
X+004075Y+002181
X+004075Y+001927
X+004325Y+001927
X+004325Y+001673
X+004075Y+001673
X+004075Y+001419
X+004325Y+001419
X+001125Y+001419
X+001125Y+001673
X+001125Y+001927
X+001125Y+002181
T00
M30
