G04 DipTrace 2.4.0.2*
%IN112xAPA102Cx8x14.gtp*%
%MOMM*%
%ADD19O,1.5X1.0*%
%ADD21O,1.0X1.5*%
%ADD22O,4.5X2.0*%
%FSLAX53Y53*%
G04*
G71*
G90*
G75*
G01*
%LNTopPaste*%
%LPD*%
D19*
X15500Y19850D3*
Y18000D3*
Y16150D3*
X20500D3*
Y18000D3*
Y19850D3*
D21*
X16150Y31500D3*
X18000D3*
X19850D3*
Y36500D3*
X18000D3*
X16150D3*
Y47500D3*
X18000D3*
X19850D3*
Y52500D3*
X18000D3*
X16150D3*
Y63500D3*
X18000D3*
X19850D3*
Y68500D3*
X18000D3*
X16150D3*
Y79500D3*
X18000D3*
X19850D3*
Y84500D3*
X18000D3*
X16150D3*
Y95500D3*
X18000D3*
X19850D3*
Y100500D3*
X18000D3*
X16150D3*
Y111500D3*
X18000D3*
X19850D3*
Y116500D3*
X18000D3*
X16150D3*
Y127500D3*
X18000D3*
X19850D3*
Y132500D3*
X18000D3*
X16150D3*
D19*
X31500Y131850D3*
Y130000D3*
Y128150D3*
X36500D3*
Y130000D3*
Y131850D3*
D22*
X26000Y128730D3*
Y126190D3*
Y131270D3*
Y133810D3*
D21*
X35850Y116500D3*
X34000D3*
X32150D3*
Y111500D3*
X34000D3*
X35850D3*
Y100500D3*
X34000D3*
X32150D3*
Y95500D3*
X34000D3*
X35850D3*
Y84500D3*
X34000D3*
X32150D3*
Y79500D3*
X34000D3*
X35850D3*
Y68500D3*
X34000D3*
X32150D3*
Y63500D3*
X34000D3*
X35850D3*
Y52500D3*
X34000D3*
X32150D3*
Y47500D3*
X34000D3*
X35850D3*
Y36500D3*
X34000D3*
X32150D3*
Y31500D3*
X34000D3*
X35850D3*
Y20500D3*
X34000D3*
X32150D3*
Y15500D3*
X34000D3*
X35850D3*
D19*
X47500Y19850D3*
Y18000D3*
Y16150D3*
X52500D3*
Y18000D3*
Y19850D3*
D22*
X42000Y16730D3*
Y14190D3*
Y19270D3*
Y21810D3*
D21*
X48150Y31500D3*
X50000D3*
X51850D3*
Y36500D3*
X50000D3*
X48150D3*
Y47500D3*
X50000D3*
X51850D3*
Y52500D3*
X50000D3*
X48150D3*
Y63500D3*
X50000D3*
X51850D3*
Y68500D3*
X50000D3*
X48150D3*
Y79500D3*
X50000D3*
X51850D3*
Y84500D3*
X50000D3*
X48150D3*
Y95500D3*
X50000D3*
X51850D3*
Y100500D3*
X50000D3*
X48150D3*
Y111500D3*
X50000D3*
X51850D3*
Y116500D3*
X50000D3*
X48150D3*
Y127500D3*
X50000D3*
X51850D3*
Y132500D3*
X50000D3*
X48150D3*
D19*
X63500Y131850D3*
Y130000D3*
Y128150D3*
X68500D3*
Y130000D3*
Y131850D3*
D22*
X58000Y128730D3*
Y126190D3*
Y131270D3*
Y133810D3*
D21*
X67850Y116500D3*
X66000D3*
X64150D3*
Y111500D3*
X66000D3*
X67850D3*
Y100500D3*
X66000D3*
X64150D3*
Y95500D3*
X66000D3*
X67850D3*
Y84500D3*
X66000D3*
X64150D3*
Y79500D3*
X66000D3*
X67850D3*
Y68500D3*
X66000D3*
X64150D3*
Y63500D3*
X66000D3*
X67850D3*
Y52500D3*
X66000D3*
X64150D3*
Y47500D3*
X66000D3*
X67850D3*
Y36500D3*
X66000D3*
X64150D3*
Y31500D3*
X66000D3*
X67850D3*
Y20500D3*
X66000D3*
X64150D3*
Y15500D3*
X66000D3*
X67850D3*
D19*
X79500Y19850D3*
Y18000D3*
Y16150D3*
X84500D3*
Y18000D3*
Y19850D3*
D22*
X74000Y16730D3*
Y14190D3*
Y19270D3*
Y21810D3*
D21*
X80150Y31500D3*
X82000D3*
X83850D3*
Y36500D3*
X82000D3*
X80150D3*
Y47500D3*
X82000D3*
X83850D3*
Y52500D3*
X82000D3*
X80150D3*
Y63500D3*
X82000D3*
X83850D3*
Y68500D3*
X82000D3*
X80150D3*
Y79500D3*
X82000D3*
X83850D3*
Y84500D3*
X82000D3*
X80150D3*
Y95500D3*
X82000D3*
X83850D3*
Y100500D3*
X82000D3*
X80150D3*
Y111500D3*
X82000D3*
X83850D3*
Y116500D3*
X82000D3*
X80150D3*
Y127500D3*
X82000D3*
X83850D3*
Y132500D3*
X82000D3*
X80150D3*
D19*
X95500Y131850D3*
Y130000D3*
Y128150D3*
X100500D3*
Y130000D3*
Y131850D3*
D22*
X90000Y128730D3*
Y126190D3*
Y131270D3*
Y133810D3*
D21*
X99850Y116500D3*
X98000D3*
X96150D3*
Y111500D3*
X98000D3*
X99850D3*
Y100500D3*
X98000D3*
X96150D3*
Y95500D3*
X98000D3*
X99850D3*
Y84500D3*
X98000D3*
X96150D3*
Y79500D3*
X98000D3*
X99850D3*
Y68500D3*
X98000D3*
X96150D3*
Y63500D3*
X98000D3*
X99850D3*
Y52500D3*
X98000D3*
X96150D3*
Y47500D3*
X98000D3*
X99850D3*
Y36500D3*
X98000D3*
X96150D3*
Y31500D3*
X98000D3*
X99850D3*
Y20500D3*
X98000D3*
X96150D3*
Y15500D3*
X98000D3*
X99850D3*
D19*
X111500Y19850D3*
Y18000D3*
Y16150D3*
X116500D3*
Y18000D3*
Y19850D3*
D22*
X106000Y16730D3*
Y14190D3*
Y19270D3*
Y21810D3*
D21*
X112150Y31500D3*
X114000D3*
X115850D3*
Y36500D3*
X114000D3*
X112150D3*
Y47500D3*
X114000D3*
X115850D3*
Y52500D3*
X114000D3*
X112150D3*
Y63500D3*
X114000D3*
X115850D3*
Y68500D3*
X114000D3*
X112150D3*
Y79500D3*
X114000D3*
X115850D3*
Y84500D3*
X114000D3*
X112150D3*
Y95500D3*
X114000D3*
X115850D3*
Y100500D3*
X114000D3*
X112150D3*
Y111500D3*
X114000D3*
X115850D3*
Y116500D3*
X114000D3*
X112150D3*
Y127500D3*
X114000D3*
X115850D3*
Y132500D3*
X114000D3*
X112150D3*
D19*
X127500Y131850D3*
Y130000D3*
Y128150D3*
X132500D3*
Y130000D3*
Y131850D3*
D22*
X122000Y128730D3*
Y126190D3*
Y131270D3*
Y133810D3*
D21*
X131850Y116500D3*
X130000D3*
X128150D3*
Y111500D3*
X130000D3*
X131850D3*
Y100500D3*
X130000D3*
X128150D3*
Y95500D3*
X130000D3*
X131850D3*
Y84500D3*
X130000D3*
X128150D3*
Y79500D3*
X130000D3*
X131850D3*
Y68500D3*
X130000D3*
X128150D3*
Y63500D3*
X130000D3*
X131850D3*
Y52500D3*
X130000D3*
X128150D3*
Y47500D3*
X130000D3*
X131850D3*
Y36500D3*
X130000D3*
X128150D3*
Y31500D3*
X130000D3*
X131850D3*
Y20500D3*
X130000D3*
X128150D3*
Y15500D3*
X130000D3*
X131850D3*
D19*
X143500Y19850D3*
Y18000D3*
Y16150D3*
X148500D3*
Y18000D3*
Y19850D3*
D22*
X138000Y16730D3*
Y14190D3*
Y19270D3*
Y21810D3*
D21*
X144150Y31500D3*
X146000D3*
X147850D3*
Y36500D3*
X146000D3*
X144150D3*
Y47500D3*
X146000D3*
X147850D3*
Y52500D3*
X146000D3*
X144150D3*
Y63500D3*
X146000D3*
X147850D3*
Y68500D3*
X146000D3*
X144150D3*
Y79500D3*
X146000D3*
X147850D3*
Y84500D3*
X146000D3*
X144150D3*
Y95500D3*
X146000D3*
X147850D3*
Y100500D3*
X146000D3*
X144150D3*
Y111500D3*
X146000D3*
X147850D3*
Y116500D3*
X146000D3*
X144150D3*
Y127500D3*
X146000D3*
X147850D3*
Y132500D3*
X146000D3*
X144150D3*
D19*
X159500Y131850D3*
Y130000D3*
Y128150D3*
X164500D3*
Y130000D3*
Y131850D3*
D22*
X154000Y128730D3*
Y126190D3*
Y131270D3*
Y133810D3*
D21*
X163850Y116500D3*
X162000D3*
X160150D3*
Y111500D3*
X162000D3*
X163850D3*
Y100500D3*
X162000D3*
X160150D3*
Y95500D3*
X162000D3*
X163850D3*
Y84500D3*
X162000D3*
X160150D3*
Y79500D3*
X162000D3*
X163850D3*
Y68500D3*
X162000D3*
X160150D3*
Y63500D3*
X162000D3*
X163850D3*
Y52500D3*
X162000D3*
X160150D3*
Y47500D3*
X162000D3*
X163850D3*
Y36500D3*
X162000D3*
X160150D3*
Y31500D3*
X162000D3*
X163850D3*
Y20500D3*
X162000D3*
X160150D3*
Y15500D3*
X162000D3*
X163850D3*
D19*
X175500Y19850D3*
Y18000D3*
Y16150D3*
X180500D3*
Y18000D3*
Y19850D3*
D22*
X170000Y16730D3*
Y14190D3*
Y19270D3*
Y21810D3*
D21*
X176150Y31500D3*
X178000D3*
X179850D3*
Y36500D3*
X178000D3*
X176150D3*
Y47500D3*
X178000D3*
X179850D3*
Y52500D3*
X178000D3*
X176150D3*
Y63500D3*
X178000D3*
X179850D3*
Y68500D3*
X178000D3*
X176150D3*
Y79500D3*
X178000D3*
X179850D3*
Y84500D3*
X178000D3*
X176150D3*
Y95500D3*
X178000D3*
X179850D3*
Y100500D3*
X178000D3*
X176150D3*
Y111500D3*
X178000D3*
X179850D3*
Y116500D3*
X178000D3*
X176150D3*
Y127500D3*
X178000D3*
X179850D3*
Y132500D3*
X178000D3*
X176150D3*
D19*
X191500Y131850D3*
Y130000D3*
Y128150D3*
X196500D3*
Y130000D3*
Y131850D3*
D22*
X186000Y128730D3*
Y126190D3*
Y131270D3*
Y133810D3*
D21*
X195850Y116500D3*
X194000D3*
X192150D3*
Y111500D3*
X194000D3*
X195850D3*
Y100500D3*
X194000D3*
X192150D3*
Y95500D3*
X194000D3*
X195850D3*
Y84500D3*
X194000D3*
X192150D3*
Y79500D3*
X194000D3*
X195850D3*
Y68500D3*
X194000D3*
X192150D3*
Y63500D3*
X194000D3*
X195850D3*
Y52500D3*
X194000D3*
X192150D3*
Y47500D3*
X194000D3*
X195850D3*
Y36500D3*
X194000D3*
X192150D3*
Y31500D3*
X194000D3*
X195850D3*
Y20500D3*
X194000D3*
X192150D3*
Y15500D3*
X194000D3*
X195850D3*
D19*
X207500Y19850D3*
Y18000D3*
Y16150D3*
X212500D3*
Y18000D3*
Y19850D3*
D22*
X202000Y16730D3*
Y14190D3*
Y19270D3*
Y21810D3*
D21*
X208150Y31500D3*
X210000D3*
X211850D3*
Y36500D3*
X210000D3*
X208150D3*
Y47500D3*
X210000D3*
X211850D3*
Y52500D3*
X210000D3*
X208150D3*
Y63500D3*
X210000D3*
X211850D3*
Y68500D3*
X210000D3*
X208150D3*
Y79500D3*
X210000D3*
X211850D3*
Y84500D3*
X210000D3*
X208150D3*
Y95500D3*
X210000D3*
X211850D3*
Y100500D3*
X210000D3*
X208150D3*
Y111500D3*
X210000D3*
X211850D3*
Y116500D3*
X210000D3*
X208150D3*
Y127500D3*
X210000D3*
X211850D3*
Y132500D3*
X210000D3*
X208150D3*
D19*
X223500Y131850D3*
Y130000D3*
Y128150D3*
X228500D3*
Y130000D3*
Y131850D3*
D22*
X218000Y128730D3*
Y126190D3*
Y131270D3*
Y133810D3*
D21*
X227850Y116500D3*
X226000D3*
X224150D3*
Y111500D3*
X226000D3*
X227850D3*
Y100500D3*
X226000D3*
X224150D3*
Y95500D3*
X226000D3*
X227850D3*
Y84500D3*
X226000D3*
X224150D3*
Y79500D3*
X226000D3*
X227850D3*
Y68500D3*
X226000D3*
X224150D3*
Y63500D3*
X226000D3*
X227850D3*
Y52500D3*
X226000D3*
X224150D3*
Y47500D3*
X226000D3*
X227850D3*
Y36500D3*
X226000D3*
X224150D3*
Y31500D3*
X226000D3*
X227850D3*
Y20500D3*
X226000D3*
X224150D3*
Y15500D3*
X226000D3*
X227850D3*
M02*
