G04 DipTrace 2.4.0.2*
%IN112xAPA102Cx8x14.gtl*%
%MOMM*%
%ADD13C,1.25*%
%ADD14C,1.0*%
%ADD15C,1.27*%
%ADD16C,0.711*%
%ADD19O,1.5X1.0*%
%ADD21O,1.0X1.5*%
%ADD22O,4.5X2.0*%
%ADD23C,2.0*%
%ADD24R,1.25X2.0*%
%FSLAX53Y53*%
G04*
G71*
G90*
G75*
G01*
%LNTop*%
%LPD*%
X11250Y21810D2*
D13*
X10625D1*
X15500Y16150D2*
D14*
X16391D1*
D15*
X17980Y17739D1*
Y20377D1*
X16524Y21832D1*
X13862D1*
X11272D1*
X11250Y21810D1*
X19850Y31500D2*
D14*
Y32651D1*
D15*
X18480Y34021D1*
X15251D1*
X14796Y33566D1*
Y22766D1*
X13862Y21832D1*
X19850Y47500D2*
D14*
Y48397D1*
D15*
X18371Y49876D1*
X16099D1*
X14796Y48574D1*
Y33566D1*
X19850Y63500D2*
D14*
Y64762D1*
D15*
X18797Y65815D1*
X16001D1*
X14796Y64610D1*
Y48574D1*
X19850Y79500D2*
D14*
Y80326D1*
D15*
X18286Y81891D1*
X15650D1*
X14796Y81037D1*
Y64610D1*
X19850Y95500D2*
D14*
Y96186D1*
D15*
X18360Y97676D1*
X15819D1*
X14796Y96653D1*
Y81037D1*
X19850Y111500D2*
D14*
Y112105D1*
D15*
X17837Y114118D1*
X15450D1*
X14796Y113464D1*
Y96653D1*
X19850Y127500D2*
D14*
Y128371D1*
D15*
X18397Y129825D1*
X14796D1*
Y113464D1*
Y129825D2*
Y134265D1*
X16689Y136158D1*
X23652D1*
X26000Y133810D1*
X31500Y128150D2*
D14*
X32293D1*
D15*
X33868Y129725D1*
Y131780D1*
X31894Y133755D1*
X26055D1*
X26000Y133810D1*
X32150Y116500D2*
D14*
Y115708D1*
D15*
X33793Y114065D1*
X38372D1*
Y122927D1*
X39886Y124441D1*
Y130764D1*
X36895Y133755D1*
X31894D1*
X32150Y100500D2*
D14*
Y99626D1*
D15*
X33867Y97909D1*
X38372D1*
Y114065D1*
X32150Y84500D2*
D14*
Y83552D1*
D15*
X33661Y82042D1*
X38372D1*
Y97909D1*
X32150Y68500D2*
D14*
Y67675D1*
D15*
X33875Y65950D1*
X36988D1*
X38372Y67335D1*
Y82042D1*
X32150Y52500D2*
D14*
Y51649D1*
D15*
X33749Y50050D1*
X38372D1*
Y67335D1*
X32150Y36500D2*
D14*
Y35326D1*
D15*
X33641Y33836D1*
X38372D1*
Y50050D1*
X32150Y20500D2*
D14*
Y19685D1*
D15*
X33848Y17987D1*
X35654D1*
X37726Y20059D1*
Y21175D1*
X38417Y21866D1*
X39746D1*
X41944D1*
X42000Y21810D1*
X38372Y33836D2*
Y23239D1*
X39746Y21866D1*
X47500Y16150D2*
D14*
X48144D1*
D15*
X49958Y17964D1*
Y20234D1*
X48386Y21806D1*
X45688D1*
X42004D1*
X42000Y21810D1*
X51850Y31500D2*
D14*
Y32571D1*
D15*
X50281Y34140D1*
X47789D1*
X46543Y32894D1*
Y22661D1*
X45688Y21806D1*
X51850Y47500D2*
D14*
Y48654D1*
D15*
X50394Y50110D1*
X48129D1*
X46543Y48524D1*
Y32894D1*
X51850Y63500D2*
D14*
Y64885D1*
D15*
Y65529D1*
X50811Y66568D1*
X48715D1*
X46543Y64397D1*
Y48524D1*
X51850Y79500D2*
D14*
Y81084D1*
D15*
X50590Y82343D1*
X48053D1*
X46543Y80834D1*
Y64397D1*
X51850Y95500D2*
D14*
Y96307D1*
D15*
X50370Y97788D1*
X47832D1*
X46543Y96498D1*
Y80834D1*
X51850Y111500D2*
D14*
Y112735D1*
D15*
X50428Y114156D1*
X48009D1*
X46543Y112690D1*
Y96498D1*
X51850Y127500D2*
D14*
Y128385D1*
D15*
X50105Y130131D1*
X47811D1*
X46543Y128863D1*
Y112690D1*
X58000Y133810D2*
X56561D1*
X54174Y136197D1*
X49069D1*
X46543Y133672D1*
Y128863D1*
X63500Y128150D2*
D14*
X64400D1*
D15*
X66233Y129983D1*
Y132646D1*
X64975Y133904D1*
X58094D1*
X58000Y133810D1*
X64975Y133904D2*
X69044D1*
X71990Y130958D1*
Y125926D1*
X69302Y123238D1*
Y114150D1*
X65419D1*
X64235Y115334D1*
D14*
Y116415D1*
X64150Y116500D1*
Y100500D2*
Y99538D1*
D15*
X65931Y97756D1*
X68653D1*
X69302Y98405D1*
Y114150D1*
X64150Y84500D2*
D14*
Y83902D1*
D15*
X65838Y82215D1*
X69302D1*
Y98405D1*
X64150Y68500D2*
D14*
Y67156D1*
D15*
X65612Y65694D1*
X68000D1*
X69302Y66995D1*
Y82215D1*
X64150Y52500D2*
D14*
Y51673D1*
D15*
X65873Y49950D1*
X68059D1*
X69302Y51192D1*
Y66995D1*
X64150Y36500D2*
D14*
Y35943D1*
D15*
X66168Y33925D1*
X68088D1*
X69302Y35139D1*
Y51192D1*
X64150Y20500D2*
D14*
Y20007D1*
D15*
X65880Y18277D1*
X68472D1*
X69528Y19333D1*
Y20485D1*
X71160Y22117D1*
X73693D1*
X74000Y21810D1*
X69302Y35139D2*
Y23862D1*
X71354Y21810D1*
X74000D1*
X79500Y16150D2*
D14*
X80699D1*
D15*
X82170Y17622D1*
Y21016D1*
X81122Y22064D1*
X77207D1*
X74254D1*
X74000Y21810D1*
X83850Y31500D2*
D14*
Y32647D1*
D15*
X82786Y33711D1*
X79491D1*
X78612Y32832D1*
Y23469D1*
X77207Y22064D1*
X83850Y47500D2*
D14*
Y48568D1*
D15*
X82411Y50007D1*
X80388D1*
X78612Y48231D1*
Y32832D1*
X83850Y63500D2*
D14*
Y64099D1*
D15*
X82306Y65643D1*
X79623D1*
X78612Y64632D1*
Y48231D1*
X83850Y79500D2*
D14*
Y80523D1*
D15*
X82367Y82006D1*
X80166D1*
X78612Y80452D1*
Y64632D1*
X83850Y95500D2*
D14*
Y96532D1*
D15*
X82456Y97926D1*
X79891D1*
X78612Y96647D1*
Y80452D1*
X83850Y127500D2*
D14*
Y128194D1*
D15*
X82093Y129951D1*
X80113D1*
X78612Y128450D1*
Y112133D1*
Y96647D1*
X83850Y111500D2*
D14*
Y112257D1*
D15*
X82291Y113816D1*
X80295D1*
X78612Y112133D1*
X90000Y133810D2*
X88133D1*
X85360Y136583D1*
X81499D1*
X78612Y133696D1*
Y128450D1*
X95500Y128150D2*
D14*
X96031D1*
D15*
X97931Y130050D1*
Y132129D1*
X96545Y133515D1*
X90295D1*
X90000Y133810D1*
X96150Y116500D2*
D14*
Y115399D1*
D15*
X97733Y113816D1*
X101351D1*
Y123211D1*
X103935Y125796D1*
Y130678D1*
X101099Y133515D1*
X96545D1*
X96150Y100500D2*
D14*
Y99619D1*
D15*
X97898Y97872D1*
X100513D1*
X101351Y98709D1*
Y113816D1*
X96150Y84500D2*
D14*
Y83647D1*
D15*
X97925Y81872D1*
X101351D1*
Y98709D1*
X96150Y68500D2*
D14*
Y67631D1*
D15*
X97824Y65957D1*
X100763D1*
X101351Y66546D1*
Y81872D1*
X96150Y52500D2*
D14*
Y51775D1*
D15*
X97838Y50087D1*
X101351D1*
Y66546D1*
X96150Y36500D2*
D14*
Y35661D1*
D15*
X98089Y33722D1*
X100760D1*
X101351Y34313D1*
Y50087D1*
Y34313D2*
Y23177D1*
X102718Y21810D1*
X106000D1*
X96150Y20500D2*
D14*
Y19454D1*
D15*
X97580Y18024D1*
X100007D1*
X101939Y19956D1*
Y20405D1*
X103377Y21843D1*
X105967D1*
X106000Y21810D1*
X111500Y16150D2*
D14*
X111986D1*
D15*
X113965Y18129D1*
Y19612D1*
X112098Y21479D1*
X109296D1*
X106331D1*
X106000Y21810D1*
X115850Y31500D2*
D14*
Y32693D1*
D15*
X114438Y34105D1*
X111993D1*
X110618Y32730D1*
Y22800D1*
X109296Y21479D1*
X115850Y47500D2*
D14*
Y48536D1*
D15*
X114268Y50117D1*
X111851D1*
X110618Y48884D1*
Y32730D1*
X115850Y63500D2*
D14*
Y64469D1*
D15*
X114268Y66050D1*
X111961D1*
X110618Y64707D1*
Y48884D1*
X115850Y79500D2*
D14*
Y80326D1*
D15*
X114112Y82064D1*
X111880D1*
X110618Y80802D1*
Y64707D1*
X115850Y95500D2*
D14*
Y96649D1*
D15*
X114112Y98386D1*
X111880D1*
X110618Y97125D1*
Y80802D1*
X115850Y111500D2*
D14*
Y112413D1*
D15*
X114112Y114151D1*
X112298D1*
X110618Y112471D1*
Y97125D1*
X115850Y127500D2*
D14*
Y128073D1*
D15*
X113921Y130002D1*
X112100D1*
X110618Y128520D1*
Y112471D1*
X122000Y133810D2*
X120638D1*
X118501Y135947D1*
X113209D1*
X110618Y133355D1*
Y128520D1*
X127500Y128150D2*
D14*
X128565D1*
D15*
X130012Y129597D1*
Y133544D1*
X122266D1*
X122000Y133810D1*
X128150Y116500D2*
D14*
Y115704D1*
D15*
X130152Y113702D1*
X133347D1*
Y123349D1*
X136051Y126054D1*
Y130549D1*
X133056Y133544D1*
X130012D1*
X128150Y100500D2*
D14*
Y99693D1*
D15*
X130146Y97696D1*
X133347D1*
Y113702D1*
X128150Y84500D2*
D14*
Y83685D1*
D15*
X129774Y82060D1*
X133347D1*
Y80348D1*
Y97696D1*
X128150Y68500D2*
D14*
Y67477D1*
D15*
X129774Y65852D1*
X133347D1*
Y64732D1*
Y80348D1*
X128150Y52500D2*
D14*
Y51830D1*
D15*
X129827Y50153D1*
X133347D1*
Y64732D1*
X128150Y36500D2*
D14*
Y35707D1*
D15*
X129827Y34031D1*
X133347D1*
Y50153D1*
Y34031D2*
Y23711D1*
X135248Y21810D1*
X138000D1*
X128150Y20500D2*
D14*
Y19687D1*
D15*
X129235Y18602D1*
X132325D1*
X135534Y21811D1*
X137999D1*
X138000Y21810D1*
X143500Y16150D2*
D14*
X144476D1*
D15*
X146093Y17767D1*
Y20561D1*
X145061Y21592D1*
X140995D1*
X138218D1*
X138000Y21810D1*
X147850Y31500D2*
D14*
Y32635D1*
D15*
X146375Y34110D1*
X143876D1*
X142573Y32806D1*
Y23170D1*
X140995Y21592D1*
X147850Y47500D2*
D14*
Y48406D1*
D15*
X146467Y49789D1*
X143601D1*
X142573Y48761D1*
Y32806D1*
X147850Y63500D2*
D14*
Y64643D1*
D15*
X146254Y66239D1*
X144344D1*
X142573Y64467D1*
Y48761D1*
X147850Y79500D2*
D14*
Y80522D1*
D15*
X146488Y81884D1*
X143439D1*
X142573Y81019D1*
Y64467D1*
X147850Y95500D2*
D14*
Y96510D1*
D15*
X146488Y97872D1*
X142515D1*
Y97726D1*
Y80961D1*
X147850Y111500D2*
D14*
Y112392D1*
D15*
X146361Y113881D1*
X143847D1*
X142102Y112136D1*
Y98069D1*
X142445Y97726D1*
X147850Y127500D2*
D14*
Y128491D1*
D15*
X146500Y129841D1*
X143778D1*
X142242Y128305D1*
Y112457D1*
X142102Y112136D1*
X142242Y128305D2*
Y133104D1*
X145123Y135985D1*
X151825D1*
X154000Y133810D1*
X159500Y128150D2*
D14*
X160213D1*
D15*
X161920Y129857D1*
Y132009D1*
X160208Y133721D1*
X154089D1*
X154000Y133810D1*
X160150Y116500D2*
D14*
Y115588D1*
D15*
X161964Y113774D1*
X164840D1*
X165447Y114382D1*
Y123790D1*
X167873Y126215D1*
Y131916D1*
X166059Y133731D1*
X160457D1*
X160208Y133721D1*
X160150Y100500D2*
D14*
Y99608D1*
D15*
X161752Y98006D1*
X165447D1*
Y114382D1*
X160150Y84500D2*
D14*
Y83680D1*
D15*
X162032Y81798D1*
X165662D1*
Y97663D1*
X165447Y98006D1*
X160150Y68500D2*
D14*
Y67675D1*
D15*
X162122Y65703D1*
X165662D1*
Y81798D1*
X160150Y52500D2*
D14*
Y51812D1*
D15*
X161876Y50085D1*
X164795D1*
X165662Y50953D1*
Y65703D1*
X160150Y36500D2*
D14*
Y35496D1*
D15*
X161694Y33952D1*
X165662D1*
Y50953D1*
Y33952D2*
Y23006D1*
X166858Y21810D1*
X170000D1*
X160150Y20500D2*
D14*
Y19537D1*
D15*
X161565Y18122D1*
X163889D1*
X167263Y21496D1*
X169686D1*
X170000Y21810D1*
X175500Y16150D2*
D14*
X176474D1*
D15*
X178235Y17911D1*
Y19560D1*
X176257Y21539D1*
X173201D1*
X170271D1*
X170000Y21810D1*
X179850Y31500D2*
D14*
Y32210D1*
D15*
X178235Y33825D1*
X175432D1*
X174516Y32909D1*
Y22854D1*
X173201Y21539D1*
X179850Y47500D2*
D14*
Y48206D1*
D15*
X178400Y49655D1*
X175403D1*
X174516Y48769D1*
Y32909D1*
X179850Y63500D2*
D14*
Y64652D1*
D15*
X178617Y65885D1*
X175720D1*
X174516Y64681D1*
Y48769D1*
X179850Y79500D2*
D14*
Y80380D1*
D15*
X178514Y81716D1*
X175833D1*
X174516Y80400D1*
Y64681D1*
X179850Y95500D2*
D14*
Y96851D1*
D15*
X178821Y97880D1*
X175761D1*
X174516Y96636D1*
Y80400D1*
X179850Y111500D2*
D14*
Y112060D1*
D15*
X178191Y113720D1*
X175491D1*
X174516Y112745D1*
Y96636D1*
X179850Y127500D2*
D14*
Y128662D1*
D15*
X178776Y129736D1*
X175428D1*
X174516Y128825D1*
Y112745D1*
Y128825D2*
Y133675D1*
X176931Y136090D1*
X183720D1*
X186000Y133810D1*
X191500Y128150D2*
D14*
X192424D1*
D15*
X194079Y129805D1*
Y132469D1*
X192917Y133630D1*
X186180D1*
X186000Y133810D1*
X192150Y116500D2*
D14*
Y115816D1*
D15*
X194011Y113955D1*
X197339D1*
Y112918D1*
Y122915D1*
X200040Y125617D1*
Y130916D1*
X197168Y133789D1*
X192849D1*
X192917Y133630D1*
X192150Y100500D2*
D14*
Y99553D1*
D15*
X193744Y97959D1*
X197339D1*
Y112918D1*
X192150Y84500D2*
D14*
Y83726D1*
D15*
X193848Y82027D1*
X197339D1*
Y97959D1*
X192150Y68500D2*
D14*
Y67543D1*
D15*
X194084Y65608D1*
X197339D1*
Y82027D1*
X192150Y52500D2*
D14*
Y51478D1*
D15*
X193730Y49898D1*
X195974D1*
X197339Y51263D1*
Y65608D1*
X192150Y36500D2*
D14*
Y35398D1*
D15*
X193835Y33712D1*
X196100D1*
X197339Y34951D1*
Y51263D1*
Y34951D2*
Y23849D1*
X199411Y21777D1*
X201967D1*
X202000Y21810D1*
X192150Y20500D2*
D14*
Y19456D1*
D15*
X193748Y17857D1*
X195938D1*
X199635Y21554D1*
X199411Y21777D1*
X207500Y16150D2*
D14*
X208318D1*
D15*
X209811Y17643D1*
Y20192D1*
X208271Y21732D1*
X205702D1*
X202078D1*
X202000Y21810D1*
X211850Y31500D2*
D14*
Y32467D1*
D15*
X210467Y33850D1*
X207761D1*
X206776Y32865D1*
Y22805D1*
X205702Y21732D1*
X211850Y47500D2*
D14*
Y48332D1*
D15*
X210434Y49749D1*
X207968D1*
X206776Y48557D1*
Y32865D1*
X211850Y63500D2*
D14*
Y64518D1*
D15*
X210638Y65730D1*
X207400D1*
X206776Y65107D1*
Y48557D1*
X211850Y79500D2*
D14*
Y80466D1*
D15*
X210202Y82114D1*
X208237D1*
X206776Y80654D1*
Y65107D1*
X211850Y95500D2*
D14*
Y96336D1*
D15*
X210360Y97826D1*
X207596D1*
X206776Y97006D1*
Y80654D1*
X211850Y111500D2*
D14*
Y112714D1*
D15*
X210820Y113743D1*
X207697D1*
X206776Y112823D1*
Y97006D1*
X211850Y127500D2*
D14*
Y128463D1*
D15*
X210401Y129912D1*
X207972D1*
X206776Y128716D1*
Y112823D1*
Y128716D2*
Y134413D1*
X208260Y135896D1*
X215914D1*
X218000Y133810D1*
X223500Y128150D2*
D14*
X223901D1*
D15*
X225842Y130091D1*
Y132054D1*
X224547Y133349D1*
X218461D1*
X218000Y133810D1*
X224150Y116500D2*
D14*
Y115371D1*
D15*
X225530Y113990D1*
X229399D1*
Y123972D1*
X231850Y126423D1*
Y130672D1*
X229173Y133349D1*
X224547D1*
X224150Y100500D2*
D14*
Y99379D1*
D15*
X225650Y97880D1*
X229315D1*
Y113848D1*
X225530Y113990D1*
X224150Y84500D2*
D14*
Y83727D1*
D15*
X226061Y81816D1*
X229315D1*
Y97880D1*
X224150Y68500D2*
D14*
Y67857D1*
D15*
X225968Y66039D1*
X227720D1*
X229315Y67634D1*
Y81816D1*
X224150Y52500D2*
D14*
Y51652D1*
D15*
X225858Y49943D1*
X228486D1*
X229315Y50772D1*
Y67634D1*
X224150Y36500D2*
D14*
Y35427D1*
D15*
X225659Y33918D1*
X228471D1*
X229315Y34761D1*
Y50772D1*
Y34761D2*
Y23059D1*
X230563Y21810D1*
X232750D1*
X233375D2*
D13*
X232750D1*
X224150Y20500D2*
D14*
Y19577D1*
D15*
X225692Y18036D1*
X227694D1*
X229770Y20112D1*
Y21113D1*
X230289Y21632D1*
X232236D1*
X232750Y21810D1*
X20500Y19850D2*
D16*
Y20085D1*
X16161Y24424D1*
Y31489D1*
X16150Y31500D1*
X20500Y18000D2*
X21016D1*
X21891Y18876D1*
Y20695D1*
X17980Y24606D1*
Y31480D1*
X18000Y31500D1*
X138000Y19270D2*
X135620D1*
X131850Y15500D1*
X143500Y19850D2*
X141256D1*
X140548Y19142D1*
X138128D1*
X138000Y19270D1*
X130000Y15500D2*
Y15282D1*
X131088Y14194D1*
X132373D1*
X134999Y16820D1*
X137910D1*
X138000Y16730D1*
X143500Y18000D2*
X142028D1*
X140634Y16606D1*
X138124D1*
X138000Y16730D1*
X16150Y36500D2*
Y47500D1*
X18000D2*
Y36500D1*
X16150Y52500D2*
Y63500D1*
X18000D2*
Y52500D1*
X16150Y79500D2*
Y68500D1*
X18000D2*
Y79500D1*
X16150Y84500D2*
Y95500D1*
X18000Y84500D2*
Y95500D1*
X16150Y100500D2*
Y111500D1*
X18000Y100500D2*
Y111500D1*
X16150Y116500D2*
Y127500D1*
X18000Y116500D2*
Y127500D1*
X35850Y116500D2*
Y123005D1*
X38737Y125892D1*
Y129613D1*
X36500Y131850D1*
X34000Y116500D2*
Y122991D1*
X37791Y126782D1*
Y128709D1*
X36500Y130000D1*
X99850Y15500D2*
Y15800D1*
X103287Y19237D1*
X105967D1*
X106000Y19270D1*
X111500Y19850D2*
X109317D1*
X108529Y19063D1*
X106207D1*
X106000Y19270D1*
X98000Y15500D2*
Y15447D1*
X99422Y14024D1*
X100321D1*
X102748Y16451D1*
X105721D1*
X106000Y16730D1*
X111500Y18000D2*
X110047D1*
X108639Y16592D1*
X106138D1*
X106000Y16730D1*
X35850Y100500D2*
Y111500D1*
X34000D2*
Y100500D1*
X35850Y95500D2*
Y84500D1*
X34000D2*
Y95500D1*
X35850Y68500D2*
Y79500D1*
X34000D2*
Y68500D1*
X35850Y52500D2*
Y63500D1*
X34000D2*
Y52500D1*
X35850Y36500D2*
Y47500D1*
X34000D2*
Y36500D1*
X35850Y31500D2*
Y20500D1*
X34000D2*
Y31500D1*
X52500Y19850D2*
Y20935D1*
X48242Y25192D1*
Y31408D1*
X48150Y31500D1*
X52500Y18000D2*
X53056D1*
X53905Y18850D1*
Y21794D1*
X50054Y25645D1*
Y31446D1*
X50000Y31500D1*
X148500Y19850D2*
Y20158D1*
X144216Y24442D1*
Y31434D1*
X144150Y31500D1*
X48150Y47500D2*
Y36500D1*
X50000D2*
Y47500D1*
X48150Y63500D2*
Y52500D1*
X50000D2*
Y63500D1*
X48150Y68500D2*
Y79500D1*
X50000Y68500D2*
Y79500D1*
X48150Y84500D2*
Y95500D1*
X50000Y84500D2*
Y95500D1*
X48150Y100500D2*
Y111500D1*
X50000Y100500D2*
Y111500D1*
X48150Y116500D2*
Y127500D1*
X50000Y116500D2*
Y127500D1*
X67850Y116500D2*
Y123906D1*
X70783Y126839D1*
Y129567D1*
X68500Y131850D1*
Y130000D2*
X69027D1*
X69800Y129227D1*
Y127410D1*
X65937Y123546D1*
Y116563D1*
X66000Y116500D1*
X148500Y18000D2*
X149100D1*
X149820Y18720D1*
Y20908D1*
X146013Y24715D1*
Y31487D1*
X146000Y31500D1*
X144150Y36500D2*
Y47500D1*
X67850Y100500D2*
Y111500D1*
X66000D2*
Y100500D1*
X67850Y95500D2*
Y84500D1*
X66000D2*
Y95500D1*
X67850Y68500D2*
Y79500D1*
X66000D2*
Y68500D1*
X67850Y52500D2*
Y63500D1*
X66000D2*
Y52500D1*
X67850Y47500D2*
Y36500D1*
X66000D2*
Y47500D1*
X67850Y20500D2*
Y31500D1*
X66000D2*
Y20500D1*
X84500Y19850D2*
Y20786D1*
X80114Y25171D1*
Y31464D1*
X80150Y31500D1*
X82000D2*
Y24693D1*
X86025Y20668D1*
Y19525D1*
X84500Y18000D1*
X146000Y36500D2*
Y47500D1*
X144150Y63500D2*
Y52500D1*
X80150Y47500D2*
Y36500D1*
X82000D2*
Y47500D1*
X80150Y52500D2*
Y63500D1*
X82000D2*
Y52500D1*
X80150Y79500D2*
Y68500D1*
X82000D2*
Y79500D1*
X80150Y84500D2*
Y95500D1*
X82000D2*
Y84500D1*
X80150Y111500D2*
Y100500D1*
X82000D2*
Y111500D1*
X80150Y116500D2*
Y127500D1*
X82000Y116500D2*
Y127500D1*
X99850Y116500D2*
Y123654D1*
X102727Y126531D1*
Y129623D1*
X100500Y131850D1*
Y130000D2*
X101050D1*
X101851Y129198D1*
Y127635D1*
X98030Y123814D1*
Y116530D1*
X98000Y116500D1*
X146000Y52500D2*
Y63500D1*
X144150Y79500D2*
Y68500D1*
X99850Y111500D2*
Y100500D1*
X98000D2*
Y111500D1*
X99850Y95500D2*
Y84500D1*
X98000D2*
Y95500D1*
X99850Y68500D2*
Y79500D1*
X98000Y68500D2*
Y79500D1*
X99850Y52500D2*
Y63500D1*
X98000Y52500D2*
Y63500D1*
X99850Y36500D2*
Y47500D1*
X98000Y36500D2*
Y47500D1*
X99850Y20500D2*
Y31500D1*
X98000Y20500D2*
Y31500D1*
X116500Y19850D2*
Y20431D1*
X112146Y24785D1*
Y31496D1*
X112150Y31500D1*
X116500Y18000D2*
X116667D1*
X117783Y19116D1*
Y21134D1*
X113979Y24938D1*
Y31479D1*
X114000Y31500D1*
X146000Y68500D2*
Y79500D1*
X144150Y84500D2*
Y95500D1*
X112150Y47500D2*
Y36500D1*
X114000D2*
Y47500D1*
X112150Y52500D2*
Y63500D1*
X114000Y52500D2*
Y63500D1*
X112150Y68500D2*
Y79500D1*
X114000Y68500D2*
Y79500D1*
X112150Y84500D2*
Y95500D1*
X114000Y84500D2*
Y95500D1*
X112150Y100500D2*
Y111500D1*
X114000Y100500D2*
Y111500D1*
X112150Y116500D2*
Y127500D1*
X114000D2*
Y116500D1*
X132500Y131850D2*
X132750D1*
X134801Y129799D1*
Y126649D1*
X131702Y123550D1*
Y116648D1*
X131850Y116500D1*
X132500Y130000D2*
X132601D1*
X133802Y128799D1*
Y127749D1*
X129952Y123900D1*
Y116548D1*
X130000Y116500D1*
X122000Y131270D2*
X119433D1*
X118779Y131924D1*
Y133544D1*
X117566Y134756D1*
X114406D1*
X112150Y132500D1*
X127500Y131850D2*
X125978D1*
X125396Y131268D1*
X122002D1*
X122000Y131270D1*
X114000Y132500D2*
Y132712D1*
X115143Y133854D1*
X116748D1*
X117362Y133240D1*
Y130912D1*
X119690Y128585D1*
X121855D1*
X122000Y128730D1*
X127500Y130000D2*
X125745D1*
X124633Y128887D1*
X122157D1*
X122000Y128730D1*
X131850Y100500D2*
Y111500D1*
X130000D2*
Y100500D1*
X131850Y84500D2*
Y95500D1*
X130000D2*
Y84500D1*
X131850Y68500D2*
Y79500D1*
X130000Y68500D2*
Y79500D1*
X131850Y52500D2*
Y63500D1*
X130000D2*
Y52500D1*
X131850Y36500D2*
Y47500D1*
X130000D2*
Y36500D1*
X131850Y20500D2*
Y31500D1*
X130000D2*
Y20500D1*
X18000Y132500D2*
Y132634D1*
X19201Y133835D1*
X20531D1*
X21458Y132908D1*
Y131337D1*
X23513Y129282D1*
X25448D1*
X26000Y128730D1*
X31500Y130000D2*
X29912D1*
X28590Y128678D1*
X26052D1*
X26000Y128730D1*
X16150Y132500D2*
Y132637D1*
X18355Y134843D1*
X21136D1*
X22707Y133271D1*
Y131861D1*
X23070Y131498D1*
X25772D1*
X26000Y131270D1*
X31500Y131850D2*
X29143D1*
X28388Y131095D1*
X26175D1*
X26000Y131270D1*
X58000D2*
X55846D1*
X54840Y132276D1*
Y133090D1*
X52990Y134939D1*
X50590D1*
X48150Y132500D1*
X63500Y131850D2*
X58580D1*
X58000Y131270D1*
Y128730D2*
X56462D1*
X53508Y131684D1*
Y132942D1*
X52472Y133978D1*
X51478D1*
X50000Y132500D1*
X63500Y130000D2*
X61885D1*
X60536Y128651D1*
X58079D1*
X58000Y128730D1*
X82000Y132500D2*
Y133125D1*
X83083Y134208D1*
X84370D1*
X85657Y132921D1*
Y131040D1*
X87636Y129060D1*
X89670D1*
X90000Y128730D1*
X95500Y130000D2*
X94515D1*
X93279Y128763D1*
X90033D1*
X90000Y128730D1*
Y131270D2*
X87604D1*
X87240Y131634D1*
Y132822D1*
X84667Y135396D1*
X83046D1*
X80150Y132500D1*
X95500Y131850D2*
X90580D1*
X90000Y131270D1*
X35850Y15500D2*
Y15846D1*
X39214Y19209D1*
X41939D1*
X42000Y19270D1*
X47500Y19850D2*
X45077D1*
X44457Y19230D1*
X42040D1*
X42000Y19270D1*
X34000Y15500D2*
Y15179D1*
X35017Y14162D1*
X36770D1*
X39214Y16606D1*
X41876D1*
X42000Y16730D1*
X47500Y18000D2*
X45803D1*
X44457Y16654D1*
X42076D1*
X42000Y16730D1*
X67850Y15500D2*
Y15830D1*
X71239Y19219D1*
X73949D1*
X74000Y19270D1*
X79500Y19850D2*
X76961D1*
X76331Y19219D1*
X74051D1*
X74000Y19270D1*
X66000Y15500D2*
Y14975D1*
X66997Y13978D1*
X68344D1*
X70990Y16624D1*
X73894D1*
X74000Y16730D1*
X79500Y18000D2*
X78056D1*
X76680Y16624D1*
X74106D1*
X74000Y16730D1*
X146000Y84500D2*
Y95500D1*
X144150Y100500D2*
Y111500D1*
X146000D2*
Y100500D1*
X144150Y116500D2*
Y127500D1*
X146000Y116500D2*
Y127500D1*
X164500Y131850D2*
X164553D1*
X166681Y129721D1*
Y126997D1*
X163860Y124176D1*
Y116510D1*
X163850Y116500D1*
X164500Y130000D2*
X164771D1*
X165807Y128964D1*
Y127649D1*
X161913Y123755D1*
Y116587D1*
X162000Y116500D1*
X226000Y15500D2*
Y15128D1*
X226925Y14203D1*
X228601D1*
X231089Y16692D1*
X232712D1*
X232750Y16730D1*
X233375D1*
X227850Y15500D2*
Y15586D1*
X231394Y19130D1*
X232610D1*
X232750Y19270D1*
X233375D1*
X163850Y100500D2*
Y111500D1*
X162000D2*
Y100500D1*
X163850Y84500D2*
Y95500D1*
X162000Y84500D2*
Y95500D1*
X163850Y68500D2*
Y79500D1*
X162000D2*
Y68500D1*
X163850Y52500D2*
Y63500D1*
X162000D2*
Y52500D1*
X163850Y36500D2*
Y47500D1*
X162000D2*
Y36500D1*
X163850Y31500D2*
Y20500D1*
X162000D2*
Y31500D1*
X180500Y19850D2*
X180419D1*
X176092Y24178D1*
Y31442D1*
X176150Y31500D1*
X180500Y18000D2*
X180880D1*
X181796Y18916D1*
Y20782D1*
X177988Y24590D1*
Y31488D1*
X178000Y31500D1*
X176150Y36500D2*
Y47500D1*
X178000D2*
Y36500D1*
X176150Y52500D2*
Y63500D1*
X178000D2*
Y52500D1*
X176150Y79500D2*
Y68500D1*
X178000D2*
Y79500D1*
X176150Y84500D2*
Y95500D1*
X178000D2*
Y84500D1*
X176150Y100500D2*
Y111500D1*
X178000D2*
Y100500D1*
X176150Y116500D2*
Y127500D1*
X178000D2*
Y116500D1*
X196500Y131850D2*
X196884D1*
X198745Y129989D1*
Y126409D1*
X195650Y123315D1*
Y116700D1*
X195850Y116500D1*
X196500Y130000D2*
X196821D1*
X197798Y129023D1*
Y127580D1*
X194079Y123861D1*
Y116579D1*
X194000Y116500D1*
X195850Y100500D2*
Y111500D1*
X194000Y100500D2*
Y111500D1*
X195850Y84500D2*
Y95500D1*
X194000D2*
Y84500D1*
X195850Y79500D2*
Y68500D1*
X194000D2*
Y79500D1*
X195850Y52500D2*
Y63500D1*
X194000D2*
Y52500D1*
X195850Y47500D2*
Y36500D1*
X194000D2*
Y47500D1*
X195850Y31500D2*
Y20500D1*
X194000D2*
Y31500D1*
X212500Y19850D2*
X212262D1*
X208154Y23957D1*
Y31496D1*
X208150Y31500D1*
X212500Y18000D2*
X212926D1*
X213795Y18870D1*
Y20433D1*
X209975Y24253D1*
Y31475D1*
X210000Y31500D1*
X208150Y36500D2*
Y47500D1*
X210000D2*
Y36500D1*
X208150Y63500D2*
Y52500D1*
X210000D2*
Y63500D1*
X208150Y68500D2*
Y79500D1*
X210000D2*
Y68500D1*
X208150Y95500D2*
Y84500D1*
X210000D2*
Y95500D1*
X208150Y100500D2*
Y111500D1*
X210000D2*
Y100500D1*
X208150Y116500D2*
Y127500D1*
X210000D2*
Y116500D1*
X228500Y131850D2*
X228591D1*
X230672Y129769D1*
Y127100D1*
X227846Y124274D1*
Y116504D1*
X227850Y116500D1*
X228500Y130000D2*
X229809Y128691D1*
Y127650D1*
X226001Y123842D1*
Y116501D1*
X226000Y116500D1*
X227850Y100500D2*
Y111500D1*
X226000D2*
Y100500D1*
X227850Y84500D2*
Y95500D1*
X226000D2*
Y84500D1*
X227850Y68500D2*
Y79500D1*
X226000D2*
Y68500D1*
X227850Y63500D2*
Y52500D1*
X226000D2*
Y63500D1*
X227850Y36500D2*
Y47500D1*
X226000Y36500D2*
Y47500D1*
X227850Y20500D2*
Y31500D1*
X226000D2*
Y20500D1*
X11250Y16730D2*
X10625D1*
X15500Y18000D2*
X13830D1*
X12568Y16738D1*
X11258D1*
X11250Y16730D1*
Y19270D2*
X10625D1*
X15500Y19850D2*
X13315D1*
X12613Y19149D1*
X11371D1*
X11250Y19270D1*
X154000Y128730D2*
X152092D1*
X149278Y131544D1*
Y133011D1*
X148422Y133867D1*
X147367D1*
X146000Y132500D1*
X159500Y130000D2*
X157877D1*
X156652Y128774D1*
X154044D1*
X154000Y128730D1*
X144150Y132500D2*
Y132609D1*
X146304Y134763D1*
X148911D1*
X150296Y133378D1*
Y132563D1*
X151559Y131300D1*
X153970D1*
X154000Y131270D1*
X159500Y131850D2*
X157242D1*
X156652Y131259D1*
X154011D1*
X176150Y132500D2*
Y132644D1*
X178298Y134792D1*
X181030D1*
X182260Y133562D1*
Y132264D1*
X183216Y131308D1*
X185962D1*
X186000Y131270D1*
X191500Y131850D2*
X189156D1*
X188477Y131171D1*
X186099D1*
X186000Y131270D1*
X178000Y132500D2*
Y132581D1*
X179322Y133904D1*
X180347D1*
X181303Y132947D1*
Y131581D1*
X183490Y129395D1*
X185335D1*
X186000Y128730D1*
X191500Y130000D2*
X189834D1*
X188613Y128780D1*
X186050D1*
X186000Y128730D1*
X210000Y132500D2*
Y132778D1*
X211032Y133809D1*
X212870D1*
X213333Y133346D1*
Y131222D1*
X215009Y129547D1*
Y128906D1*
X215344Y128571D1*
X217841D1*
X218000Y128730D1*
X223500Y130000D2*
X221825D1*
X220537Y128712D1*
X218018D1*
X218000Y128730D1*
X208150Y132500D2*
Y132687D1*
X210185Y134722D1*
X213465D1*
X214451Y133737D1*
Y132029D1*
X214977Y131503D1*
X217767D1*
X218000Y131270D1*
X223500Y131850D2*
X221336D1*
X220579Y131093D1*
X218177D1*
X218000Y131270D1*
X163850Y15500D2*
Y16058D1*
X167038Y19246D1*
X169976D1*
X170000Y19270D1*
X175500Y19850D2*
X173166D1*
X172464Y19148D1*
X170122D1*
X170000Y19270D1*
X162000Y15500D2*
Y15265D1*
X163064Y14201D1*
X164548D1*
X167022Y16674D1*
X169944D1*
X170000Y16730D1*
X175500Y18000D2*
X173872D1*
X172629Y16757D1*
X170027D1*
X170000Y16730D1*
X195850Y15500D2*
Y16039D1*
X199324Y19512D1*
X201758D1*
X202000Y19270D1*
X207500Y19850D2*
X205381D1*
X204554Y19023D1*
X202247D1*
X202000Y19270D1*
X194000Y15500D2*
Y15428D1*
X195215Y14213D1*
X196550D1*
X199062Y16725D1*
X201995D1*
X202000Y16730D1*
X207500Y18000D2*
X205920D1*
X204660Y16740D1*
X202010D1*
X11250Y14190D2*
D13*
X10625D1*
X20500Y16150D2*
D14*
Y15119D1*
D15*
X19572Y14191D1*
X11251D1*
X11250Y14190D1*
X19572Y14191D2*
X21755D1*
X23165Y15601D1*
Y21511D1*
X21649Y23027D1*
D14*
Y35521D1*
X20829D1*
X19850Y36500D1*
Y52500D2*
X20735D1*
D15*
X21649Y51587D1*
Y35521D1*
X19850Y68500D2*
D14*
X21649D1*
D15*
Y51587D1*
X19850Y84500D2*
D14*
X20947D1*
D15*
X21649Y83799D1*
Y68500D1*
X19850Y100500D2*
D14*
X20545D1*
D15*
X21649Y99396D1*
Y83799D1*
X19850Y116500D2*
D14*
X21649D1*
D15*
Y99396D1*
Y116500D2*
Y124680D1*
X23159Y126190D1*
X26000D1*
X19850Y132500D2*
D14*
Y130970D1*
D15*
X21418Y129403D1*
Y127106D1*
X22183Y126341D1*
X25849D1*
X26000Y126190D1*
X36500Y128150D2*
D14*
X35033D1*
D15*
X33103Y126220D1*
X28838D1*
X26030D1*
X26000Y126190D1*
X32150Y111500D2*
D14*
X31419D1*
D15*
X30699Y112219D1*
Y124359D1*
X28838Y126220D1*
X32150Y95500D2*
D14*
X31208D1*
D15*
X30699Y96009D1*
Y112219D1*
X32150Y79500D2*
D14*
X31463D1*
D15*
X30699Y80263D1*
Y96009D1*
X32150Y63500D2*
D14*
X31225D1*
D15*
X30699Y64026D1*
Y80263D1*
X32150Y47500D2*
D14*
X31167D1*
D15*
X30699Y47968D1*
Y64026D1*
X32150Y31500D2*
D14*
X30699D1*
D15*
Y47968D1*
X32150Y15500D2*
D14*
X31501D1*
D15*
X30699Y16302D1*
Y31500D1*
Y16302D2*
Y13945D1*
X31916Y12728D1*
X40538D1*
X42000Y14190D1*
X52500Y16150D2*
D14*
X53169D1*
D15*
X54149Y15170D1*
X53276Y14296D1*
X42106D1*
X42000Y14190D1*
X53276Y14296D2*
X53888Y14415D1*
X55378Y15905D1*
Y22622D1*
X53529Y24471D1*
Y35697D1*
X52653D1*
X51850Y36500D1*
Y52500D2*
D14*
X52863D1*
D15*
X53529Y51835D1*
Y35697D1*
X51850Y68500D2*
D14*
X53529D1*
D15*
Y51835D1*
X51850Y84500D2*
D14*
X53529D1*
D15*
Y68500D1*
X51850Y100500D2*
D14*
X52869D1*
D15*
X53529Y99841D1*
Y84500D1*
X51850Y116500D2*
D14*
X53033D1*
D15*
X53529Y116004D1*
Y99841D1*
Y116004D2*
Y124035D1*
X55684Y126190D1*
X58000D1*
X51850Y132500D2*
D14*
Y130901D1*
D15*
X53656Y129095D1*
Y127911D1*
X55358Y126210D1*
X57980D1*
X58000Y126190D1*
X64150Y111500D2*
D14*
X63557D1*
D15*
X62568Y112489D1*
Y123729D1*
X60107Y126190D1*
X58000D1*
X68500Y128150D2*
D14*
X67138D1*
D15*
X65123Y126136D1*
X58054D1*
X58000Y126190D1*
X64150Y95500D2*
D14*
X63372D1*
D15*
X62568Y96304D1*
Y112489D1*
X64150Y79500D2*
D14*
X63122D1*
D15*
X62568Y80054D1*
Y96304D1*
X64150Y63500D2*
D14*
X63022D1*
D15*
X62568Y63954D1*
Y80054D1*
X64150Y47500D2*
D14*
X62568D1*
D15*
Y63954D1*
X64150Y31500D2*
D14*
X62568D1*
D15*
Y47500D1*
X64150Y15500D2*
D14*
X62568D1*
D15*
Y31500D1*
Y15500D2*
X62610Y14504D1*
X63902Y12730D1*
X72540D1*
X74000Y14190D1*
X84500Y16150D2*
D14*
Y15309D1*
D15*
X83468Y14278D1*
X74088D1*
X74000Y14190D1*
X83850Y36500D2*
D14*
X84985D1*
D15*
X86040D1*
X87290Y35249D1*
Y15585D1*
X85984Y14278D1*
X83468D1*
X83850Y52500D2*
D14*
X84802D1*
D15*
X86040Y51262D1*
Y36500D1*
X83850Y68500D2*
D14*
X84849D1*
D15*
X86040Y67309D1*
Y51262D1*
X83850Y84500D2*
D14*
X84693D1*
D15*
X85993Y83199D1*
Y67625D1*
X86040Y67309D1*
X83850Y100500D2*
D14*
X84617D1*
D15*
X85993Y99124D1*
Y83199D1*
X83850Y116500D2*
D14*
X85052D1*
D15*
X85993Y115558D1*
Y99124D1*
Y115558D2*
Y122183D1*
X90000Y126190D1*
X83850Y132500D2*
D14*
Y131115D1*
D15*
Y130273D1*
X85558Y128565D1*
Y127972D1*
X87240Y126289D1*
X89901D1*
X90000Y126190D1*
X100500Y128150D2*
D14*
X99115D1*
D15*
X98406D1*
X96347Y126091D1*
X90099D1*
X90000Y126190D1*
X96150Y111500D2*
D14*
X94565D1*
D15*
Y121625D1*
X90000Y126190D1*
X96150Y95500D2*
D14*
X95674D1*
D15*
X94565Y96609D1*
Y111500D1*
X96150Y79500D2*
D14*
X95327D1*
D15*
X94565Y80261D1*
Y96609D1*
X96150Y63500D2*
D14*
X94565D1*
D15*
Y80261D1*
X96150Y47500D2*
D14*
X95332D1*
D15*
X94565Y48266D1*
Y63500D1*
X96150Y31500D2*
D14*
X95051D1*
D15*
X94565Y31985D1*
Y48266D1*
X96150Y15500D2*
D14*
X95161D1*
D15*
X94565Y16095D1*
Y31985D1*
X106000Y14190D2*
X102913D1*
X101490Y12766D1*
X96277D1*
X94565Y14478D1*
Y16095D1*
X116500Y16150D2*
D14*
Y14605D1*
D15*
X105585D1*
X106000Y14190D1*
X115850Y36500D2*
D14*
X117371D1*
D15*
Y23427D1*
X118956Y21842D1*
Y16049D1*
X117511Y14605D1*
X116500D1*
X115850Y52500D2*
D14*
X117371D1*
D15*
Y36500D1*
X115850Y68500D2*
D14*
X117371D1*
D15*
Y52500D1*
X115850Y84500D2*
D14*
X117371D1*
D15*
Y68500D1*
X115850Y100500D2*
D14*
X116518D1*
D15*
X117371Y99647D1*
Y84500D1*
X115850Y116500D2*
D14*
X116736D1*
D15*
X117371Y115865D1*
Y99647D1*
X122000Y126190D2*
X118935D1*
X117371Y124626D1*
Y115865D1*
X115850Y132500D2*
D14*
Y131115D1*
D15*
Y130299D1*
X118172Y127978D1*
Y127674D1*
X119386Y126460D1*
X121730D1*
X122000Y126190D1*
X132500Y128150D2*
D14*
X131708D1*
D15*
X129638Y126080D1*
X124991D1*
X122110D1*
X122000Y126190D1*
X128150Y111500D2*
D14*
X127680D1*
D15*
X126629Y112551D1*
Y124442D1*
X124991Y126080D1*
X128150Y95500D2*
D14*
X127284D1*
D15*
X126629Y96155D1*
Y112551D1*
X128150Y79500D2*
D14*
X126629D1*
D15*
Y96155D1*
X128150Y63500D2*
D14*
X127147D1*
D15*
X126629Y64018D1*
Y79500D1*
X128150Y47500D2*
D14*
X126629D1*
D15*
Y64018D1*
X128150Y31500D2*
D14*
X127205D1*
D15*
X126513Y32192D1*
Y48599D1*
X126742Y47919D1*
D14*
X126629Y47500D1*
X126513Y32192D2*
D15*
Y17137D1*
X127347Y16303D1*
D14*
X128150Y15500D1*
X126513Y17137D2*
D15*
Y14701D1*
X128232Y12982D1*
X136792D1*
X138000Y14190D1*
X148500Y16150D2*
D14*
X149171D1*
D15*
X150004Y15317D1*
X148930Y14242D1*
X138052D1*
X138000Y14190D1*
X147850Y36500D2*
D14*
X149399D1*
D15*
Y23647D1*
X150980Y22066D1*
Y16292D1*
X150004Y15317D1*
X149399Y36500D2*
Y52347D1*
X149247Y52500D1*
D14*
X147850D1*
Y68500D2*
X148434D1*
D15*
X149399Y67535D1*
Y52347D1*
X147850Y84500D2*
D14*
X148919D1*
D15*
X149399Y84020D1*
Y67535D1*
X147850Y100500D2*
D14*
X148494D1*
D15*
X149399Y99594D1*
Y84020D1*
X147850Y132500D2*
D14*
Y130976D1*
D15*
X149359Y129467D1*
Y128041D1*
X150989Y126411D1*
X153779D1*
X154000Y126190D1*
X164500Y128150D2*
D14*
X162952D1*
D15*
X161187Y126385D1*
X157337D1*
X154195D1*
X154000Y126190D1*
X160150Y111500D2*
D14*
X159724D1*
D15*
X158496Y112728D1*
Y125226D1*
X157337Y126385D1*
X160150Y95500D2*
D14*
X159759D1*
D15*
X158496Y96763D1*
Y112728D1*
X160150Y79500D2*
D14*
X159115D1*
D15*
X158496Y80119D1*
Y96763D1*
X160150Y63500D2*
D14*
X159290D1*
D15*
X158628Y64162D1*
Y79500D1*
D14*
X159115D1*
X160150Y47500D2*
X159819D1*
D15*
X158628Y48692D1*
Y64162D1*
X160150Y31500D2*
D14*
X159495D1*
D15*
X158628Y32367D1*
Y48692D1*
Y32367D2*
Y17022D1*
X159347Y16303D1*
D14*
X160150Y15500D1*
X170000Y14190D2*
D15*
X167093D1*
X165905Y13002D1*
X160306D1*
X158628Y14680D1*
Y17022D1*
X180500Y16150D2*
D14*
X181398D1*
D15*
X182234Y15314D1*
X181286Y14366D1*
X170176D1*
X170000Y14190D1*
X179850Y36500D2*
D14*
X181337D1*
D15*
Y23599D1*
X183094Y21841D1*
Y16174D1*
X182234Y15314D1*
X179850Y52500D2*
D14*
X181337D1*
D15*
Y36500D1*
X179850Y68500D2*
D14*
X181337D1*
D15*
Y52500D1*
X179850Y84500D2*
D14*
X181337D1*
D15*
Y68500D1*
X179850Y100500D2*
D14*
X180701D1*
D15*
X181337Y99864D1*
Y84500D1*
X179850Y116500D2*
D14*
X180736D1*
D15*
X181337Y115899D1*
Y99864D1*
X186000Y126190D2*
X182881D1*
X182734Y126043D1*
X181337Y124646D1*
Y115899D1*
X179850Y132500D2*
D14*
Y131122D1*
D15*
X182055Y128917D1*
Y126721D1*
X182734Y126043D1*
X196500Y128150D2*
D14*
X195020D1*
D15*
X193191Y126320D1*
X189170D1*
X186130D1*
X186000Y126190D1*
X192150Y111500D2*
D14*
X191547D1*
D15*
X190619Y112428D1*
Y124871D1*
X189170Y126320D1*
X192150Y95500D2*
D14*
X191335D1*
D15*
X190619Y96216D1*
Y112428D1*
X192150Y79500D2*
D14*
X191178D1*
D15*
X190619Y80059D1*
Y96216D1*
X192150Y63500D2*
D14*
X191350D1*
D15*
X190619Y64231D1*
Y80059D1*
X192150Y47500D2*
D14*
X191285D1*
D15*
X190619Y48166D1*
Y64231D1*
X192150Y31500D2*
D14*
X191605D1*
D15*
X190619Y32486D1*
Y48166D1*
X192150Y15500D2*
D14*
X191750D1*
D15*
X190619Y16631D1*
Y32486D1*
Y16631D2*
Y14227D1*
X191868Y12978D1*
X200788D1*
X202000Y14190D1*
X212500Y16150D2*
D14*
X213206D1*
D15*
X214036Y15320D1*
X212928Y14213D1*
X202023D1*
X202000Y14190D1*
X211850Y36500D2*
D14*
X213305D1*
D15*
Y22996D1*
X215024Y21277D1*
Y16309D1*
X214036Y15320D1*
X211850Y52500D2*
D14*
X213305D1*
D15*
Y36500D1*
X211850Y68500D2*
D14*
X213305D1*
D15*
Y52500D1*
X211850Y84500D2*
D14*
X213305D1*
D15*
Y68500D1*
X211850Y100500D2*
D14*
X213305D1*
D15*
Y84500D1*
X211850Y132500D2*
D14*
Y130809D1*
D15*
X213668Y128990D1*
Y127817D1*
X215260Y126226D1*
X217964D1*
X218000Y126190D1*
X211850Y116500D2*
D14*
X212587D1*
D15*
X213305Y115782D1*
Y100500D1*
X228500Y128150D2*
D14*
X226992D1*
D15*
X225257Y126415D1*
X221080D1*
X218225D1*
X218000Y126190D1*
X224150Y111500D2*
D14*
X223223D1*
D15*
X222604Y112119D1*
Y124891D1*
X221080Y126415D1*
X224150Y95500D2*
D14*
X223469D1*
D15*
X222604Y96365D1*
Y112119D1*
X224150Y79500D2*
D14*
X223706D1*
D15*
X222604Y80602D1*
Y96365D1*
X224150Y63500D2*
D14*
X223579D1*
D15*
X222604Y64476D1*
Y80602D1*
X224150Y47500D2*
D14*
X223484D1*
D15*
X222633Y48351D1*
Y64447D1*
X224150Y31500D2*
D14*
X223332D1*
D15*
X222633Y32199D1*
Y48351D1*
X224150Y15500D2*
D14*
X223342D1*
D15*
X222658Y16184D1*
Y31500D1*
D14*
X223332D1*
X233375Y14190D2*
D13*
X232750D1*
D15*
X230924D1*
X229718Y12984D1*
X223877D1*
X222658Y14203D1*
Y16184D1*
X147850Y116500D2*
D14*
X148671D1*
D15*
X149399Y115772D1*
Y99594D1*
Y115772D2*
Y124490D1*
X151155Y126245D1*
X150989Y126411D1*
X213305Y115782D2*
Y124271D1*
X215260Y126226D1*
D19*
X15500Y19850D3*
Y18000D3*
Y16150D3*
X20500D3*
Y18000D3*
Y19850D3*
D21*
X16150Y31500D3*
X18000D3*
X19850D3*
Y36500D3*
X18000D3*
X16150D3*
Y47500D3*
X18000D3*
X19850D3*
Y52500D3*
X18000D3*
X16150D3*
Y63500D3*
X18000D3*
X19850D3*
Y68500D3*
X18000D3*
X16150D3*
Y79500D3*
X18000D3*
X19850D3*
Y84500D3*
X18000D3*
X16150D3*
Y95500D3*
X18000D3*
X19850D3*
Y100500D3*
X18000D3*
X16150D3*
Y111500D3*
X18000D3*
X19850D3*
Y116500D3*
X18000D3*
X16150D3*
Y127500D3*
X18000D3*
X19850D3*
Y132500D3*
X18000D3*
X16150D3*
D19*
X31500Y131850D3*
Y130000D3*
Y128150D3*
X36500D3*
Y130000D3*
Y131850D3*
D22*
X26000Y128730D3*
D23*
X27250D3*
X24750D3*
D22*
X26000Y126190D3*
Y131270D3*
D23*
X27250D3*
X24750D3*
X27250Y126190D3*
X24750D3*
D22*
X26000Y133810D3*
D23*
X27250D3*
X24750D3*
D21*
X35850Y116500D3*
X34000D3*
X32150D3*
Y111500D3*
X34000D3*
X35850D3*
Y100500D3*
X34000D3*
X32150D3*
Y95500D3*
X34000D3*
X35850D3*
Y84500D3*
X34000D3*
X32150D3*
Y79500D3*
X34000D3*
X35850D3*
Y68500D3*
X34000D3*
X32150D3*
Y63500D3*
X34000D3*
X35850D3*
Y52500D3*
X34000D3*
X32150D3*
Y47500D3*
X34000D3*
X35850D3*
Y36500D3*
X34000D3*
X32150D3*
Y31500D3*
X34000D3*
X35850D3*
Y20500D3*
X34000D3*
X32150D3*
Y15500D3*
X34000D3*
X35850D3*
D19*
X47500Y19850D3*
Y18000D3*
Y16150D3*
X52500D3*
Y18000D3*
Y19850D3*
D22*
X42000Y16730D3*
D23*
X43250D3*
X40750D3*
D22*
X42000Y14190D3*
Y19270D3*
D23*
X43250D3*
X40750D3*
X43250Y14190D3*
X40750D3*
D22*
X42000Y21810D3*
D23*
X43250D3*
X40750D3*
D21*
X48150Y31500D3*
X50000D3*
X51850D3*
Y36500D3*
X50000D3*
X48150D3*
Y47500D3*
X50000D3*
X51850D3*
Y52500D3*
X50000D3*
X48150D3*
Y63500D3*
X50000D3*
X51850D3*
Y68500D3*
X50000D3*
X48150D3*
Y79500D3*
X50000D3*
X51850D3*
Y84500D3*
X50000D3*
X48150D3*
Y95500D3*
X50000D3*
X51850D3*
Y100500D3*
X50000D3*
X48150D3*
Y111500D3*
X50000D3*
X51850D3*
Y116500D3*
X50000D3*
X48150D3*
Y127500D3*
X50000D3*
X51850D3*
Y132500D3*
X50000D3*
X48150D3*
D19*
X63500Y131850D3*
Y130000D3*
Y128150D3*
X68500D3*
Y130000D3*
Y131850D3*
D22*
X58000Y128730D3*
D23*
X59250D3*
X56750D3*
D22*
X58000Y126190D3*
Y131270D3*
D23*
X59250D3*
X56750D3*
X59250Y126190D3*
X56750D3*
D22*
X58000Y133810D3*
D23*
X59250D3*
X56750D3*
D21*
X67850Y116500D3*
X66000D3*
X64150D3*
Y111500D3*
X66000D3*
X67850D3*
Y100500D3*
X66000D3*
X64150D3*
Y95500D3*
X66000D3*
X67850D3*
Y84500D3*
X66000D3*
X64150D3*
Y79500D3*
X66000D3*
X67850D3*
Y68500D3*
X66000D3*
X64150D3*
Y63500D3*
X66000D3*
X67850D3*
Y52500D3*
X66000D3*
X64150D3*
Y47500D3*
X66000D3*
X67850D3*
Y36500D3*
X66000D3*
X64150D3*
Y31500D3*
X66000D3*
X67850D3*
Y20500D3*
X66000D3*
X64150D3*
Y15500D3*
X66000D3*
X67850D3*
D19*
X79500Y19850D3*
Y18000D3*
Y16150D3*
X84500D3*
Y18000D3*
Y19850D3*
D22*
X74000Y16730D3*
D23*
X75250D3*
X72750D3*
D22*
X74000Y14190D3*
Y19270D3*
D23*
X75250D3*
X72750D3*
X75250Y14190D3*
X72750D3*
D22*
X74000Y21810D3*
D23*
X75250D3*
X72750D3*
D21*
X80150Y31500D3*
X82000D3*
X83850D3*
Y36500D3*
X82000D3*
X80150D3*
Y47500D3*
X82000D3*
X83850D3*
Y52500D3*
X82000D3*
X80150D3*
Y63500D3*
X82000D3*
X83850D3*
Y68500D3*
X82000D3*
X80150D3*
Y79500D3*
X82000D3*
X83850D3*
Y84500D3*
X82000D3*
X80150D3*
Y95500D3*
X82000D3*
X83850D3*
Y100500D3*
X82000D3*
X80150D3*
Y111500D3*
X82000D3*
X83850D3*
Y116500D3*
X82000D3*
X80150D3*
Y127500D3*
X82000D3*
X83850D3*
Y132500D3*
X82000D3*
X80150D3*
D19*
X95500Y131850D3*
Y130000D3*
Y128150D3*
X100500D3*
Y130000D3*
Y131850D3*
D22*
X90000Y128730D3*
D23*
X91250D3*
X88750D3*
D22*
X90000Y126190D3*
Y131270D3*
D23*
X91250D3*
X88750D3*
X91250Y126190D3*
X88750D3*
D22*
X90000Y133810D3*
D23*
X91250D3*
X88750D3*
D21*
X99850Y116500D3*
X98000D3*
X96150D3*
Y111500D3*
X98000D3*
X99850D3*
Y100500D3*
X98000D3*
X96150D3*
Y95500D3*
X98000D3*
X99850D3*
Y84500D3*
X98000D3*
X96150D3*
Y79500D3*
X98000D3*
X99850D3*
Y68500D3*
X98000D3*
X96150D3*
Y63500D3*
X98000D3*
X99850D3*
Y52500D3*
X98000D3*
X96150D3*
Y47500D3*
X98000D3*
X99850D3*
Y36500D3*
X98000D3*
X96150D3*
Y31500D3*
X98000D3*
X99850D3*
Y20500D3*
X98000D3*
X96150D3*
Y15500D3*
X98000D3*
X99850D3*
D19*
X111500Y19850D3*
Y18000D3*
Y16150D3*
X116500D3*
Y18000D3*
Y19850D3*
D22*
X106000Y16730D3*
D23*
X107250D3*
X104750D3*
D22*
X106000Y14190D3*
Y19270D3*
D23*
X107250D3*
X104750D3*
X107250Y14190D3*
X104750D3*
D22*
X106000Y21810D3*
D23*
X107250D3*
X104750D3*
D21*
X112150Y31500D3*
X114000D3*
X115850D3*
Y36500D3*
X114000D3*
X112150D3*
Y47500D3*
X114000D3*
X115850D3*
Y52500D3*
X114000D3*
X112150D3*
Y63500D3*
X114000D3*
X115850D3*
Y68500D3*
X114000D3*
X112150D3*
Y79500D3*
X114000D3*
X115850D3*
Y84500D3*
X114000D3*
X112150D3*
Y95500D3*
X114000D3*
X115850D3*
Y100500D3*
X114000D3*
X112150D3*
Y111500D3*
X114000D3*
X115850D3*
Y116500D3*
X114000D3*
X112150D3*
Y127500D3*
X114000D3*
X115850D3*
Y132500D3*
X114000D3*
X112150D3*
D19*
X127500Y131850D3*
Y130000D3*
Y128150D3*
X132500D3*
Y130000D3*
Y131850D3*
D22*
X122000Y128730D3*
D23*
X123250D3*
X120750D3*
D22*
X122000Y126190D3*
Y131270D3*
D23*
X123250D3*
X120750D3*
X123250Y126190D3*
X120750D3*
D22*
X122000Y133810D3*
D23*
X123250D3*
X120750D3*
D21*
X131850Y116500D3*
X130000D3*
X128150D3*
Y111500D3*
X130000D3*
X131850D3*
Y100500D3*
X130000D3*
X128150D3*
Y95500D3*
X130000D3*
X131850D3*
Y84500D3*
X130000D3*
X128150D3*
Y79500D3*
X130000D3*
X131850D3*
Y68500D3*
X130000D3*
X128150D3*
Y63500D3*
X130000D3*
X131850D3*
Y52500D3*
X130000D3*
X128150D3*
Y47500D3*
X130000D3*
X131850D3*
Y36500D3*
X130000D3*
X128150D3*
Y31500D3*
X130000D3*
X131850D3*
Y20500D3*
X130000D3*
X128150D3*
Y15500D3*
X130000D3*
X131850D3*
D19*
X143500Y19850D3*
Y18000D3*
Y16150D3*
X148500D3*
Y18000D3*
Y19850D3*
D22*
X138000Y16730D3*
D23*
X139250D3*
X136750D3*
D22*
X138000Y14190D3*
Y19270D3*
D23*
X139250D3*
X136750D3*
X139250Y14190D3*
X136750D3*
D22*
X138000Y21810D3*
D23*
X139250D3*
X136750D3*
D21*
X144150Y31500D3*
X146000D3*
X147850D3*
Y36500D3*
X146000D3*
X144150D3*
Y47500D3*
X146000D3*
X147850D3*
Y52500D3*
X146000D3*
X144150D3*
Y63500D3*
X146000D3*
X147850D3*
Y68500D3*
X146000D3*
X144150D3*
Y79500D3*
X146000D3*
X147850D3*
Y84500D3*
X146000D3*
X144150D3*
Y95500D3*
X146000D3*
X147850D3*
Y100500D3*
X146000D3*
X144150D3*
Y111500D3*
X146000D3*
X147850D3*
Y116500D3*
X146000D3*
X144150D3*
Y127500D3*
X146000D3*
X147850D3*
Y132500D3*
X146000D3*
X144150D3*
D19*
X159500Y131850D3*
Y130000D3*
Y128150D3*
X164500D3*
Y130000D3*
Y131850D3*
D22*
X154000Y128730D3*
D23*
X155250D3*
X152750D3*
D22*
X154000Y126190D3*
Y131270D3*
D23*
X155250D3*
X152750D3*
X155250Y126190D3*
X152750D3*
D22*
X154000Y133810D3*
D23*
X155250D3*
X152750D3*
D21*
X163850Y116500D3*
X162000D3*
X160150D3*
Y111500D3*
X162000D3*
X163850D3*
Y100500D3*
X162000D3*
X160150D3*
Y95500D3*
X162000D3*
X163850D3*
Y84500D3*
X162000D3*
X160150D3*
Y79500D3*
X162000D3*
X163850D3*
Y68500D3*
X162000D3*
X160150D3*
Y63500D3*
X162000D3*
X163850D3*
Y52500D3*
X162000D3*
X160150D3*
Y47500D3*
X162000D3*
X163850D3*
Y36500D3*
X162000D3*
X160150D3*
Y31500D3*
X162000D3*
X163850D3*
Y20500D3*
X162000D3*
X160150D3*
Y15500D3*
X162000D3*
X163850D3*
D19*
X175500Y19850D3*
Y18000D3*
Y16150D3*
X180500D3*
Y18000D3*
Y19850D3*
D22*
X170000Y16730D3*
D23*
X171250D3*
X168750D3*
D22*
X170000Y14190D3*
Y19270D3*
D23*
X171250D3*
X168750D3*
X171250Y14190D3*
X168750D3*
D22*
X170000Y21810D3*
D23*
X171250D3*
X168750D3*
D21*
X176150Y31500D3*
X178000D3*
X179850D3*
Y36500D3*
X178000D3*
X176150D3*
Y47500D3*
X178000D3*
X179850D3*
Y52500D3*
X178000D3*
X176150D3*
Y63500D3*
X178000D3*
X179850D3*
Y68500D3*
X178000D3*
X176150D3*
Y79500D3*
X178000D3*
X179850D3*
Y84500D3*
X178000D3*
X176150D3*
Y95500D3*
X178000D3*
X179850D3*
Y100500D3*
X178000D3*
X176150D3*
Y111500D3*
X178000D3*
X179850D3*
Y116500D3*
X178000D3*
X176150D3*
Y127500D3*
X178000D3*
X179850D3*
Y132500D3*
X178000D3*
X176150D3*
D19*
X191500Y131850D3*
Y130000D3*
Y128150D3*
X196500D3*
Y130000D3*
Y131850D3*
D22*
X186000Y128730D3*
D23*
X187250D3*
X184750D3*
D22*
X186000Y126190D3*
Y131270D3*
D23*
X187250D3*
X184750D3*
X187250Y126190D3*
X184750D3*
D22*
X186000Y133810D3*
D23*
X187250D3*
X184750D3*
D21*
X195850Y116500D3*
X194000D3*
X192150D3*
Y111500D3*
X194000D3*
X195850D3*
Y100500D3*
X194000D3*
X192150D3*
Y95500D3*
X194000D3*
X195850D3*
Y84500D3*
X194000D3*
X192150D3*
Y79500D3*
X194000D3*
X195850D3*
Y68500D3*
X194000D3*
X192150D3*
Y63500D3*
X194000D3*
X195850D3*
Y52500D3*
X194000D3*
X192150D3*
Y47500D3*
X194000D3*
X195850D3*
Y36500D3*
X194000D3*
X192150D3*
Y31500D3*
X194000D3*
X195850D3*
Y20500D3*
X194000D3*
X192150D3*
Y15500D3*
X194000D3*
X195850D3*
D19*
X207500Y19850D3*
Y18000D3*
Y16150D3*
X212500D3*
Y18000D3*
Y19850D3*
D22*
X202000Y16730D3*
D23*
X203250D3*
X200750D3*
D22*
X202000Y14190D3*
Y19270D3*
D23*
X203250D3*
X200750D3*
X203250Y14190D3*
X200750D3*
D22*
X202000Y21810D3*
D23*
X203250D3*
X200750D3*
D21*
X208150Y31500D3*
X210000D3*
X211850D3*
Y36500D3*
X210000D3*
X208150D3*
Y47500D3*
X210000D3*
X211850D3*
Y52500D3*
X210000D3*
X208150D3*
Y63500D3*
X210000D3*
X211850D3*
Y68500D3*
X210000D3*
X208150D3*
Y79500D3*
X210000D3*
X211850D3*
Y84500D3*
X210000D3*
X208150D3*
Y95500D3*
X210000D3*
X211850D3*
Y100500D3*
X210000D3*
X208150D3*
Y111500D3*
X210000D3*
X211850D3*
Y116500D3*
X210000D3*
X208150D3*
Y127500D3*
X210000D3*
X211850D3*
Y132500D3*
X210000D3*
X208150D3*
D19*
X223500Y131850D3*
Y130000D3*
Y128150D3*
X228500D3*
Y130000D3*
Y131850D3*
D22*
X218000Y128730D3*
D23*
X219250D3*
X216750D3*
D22*
X218000Y126190D3*
Y131270D3*
D23*
X219250D3*
X216750D3*
X219250Y126190D3*
X216750D3*
D22*
X218000Y133810D3*
D23*
X219250D3*
X216750D3*
D21*
X227850Y116500D3*
X226000D3*
X224150D3*
Y111500D3*
X226000D3*
X227850D3*
Y100500D3*
X226000D3*
X224150D3*
Y95500D3*
X226000D3*
X227850D3*
Y84500D3*
X226000D3*
X224150D3*
Y79500D3*
X226000D3*
X227850D3*
Y68500D3*
X226000D3*
X224150D3*
Y63500D3*
X226000D3*
X227850D3*
Y52500D3*
X226000D3*
X224150D3*
Y47500D3*
X226000D3*
X227850D3*
Y36500D3*
X226000D3*
X224150D3*
Y31500D3*
X226000D3*
X227850D3*
Y20500D3*
X226000D3*
X224150D3*
Y15500D3*
X226000D3*
X227850D3*
D24*
X10625Y16730D3*
D23*
X11250D3*
D24*
X10625Y14190D3*
Y19270D3*
D23*
X11250D3*
Y14190D3*
D24*
X10625Y21810D3*
D23*
X11250D3*
D24*
X233375Y16730D3*
D23*
X232750D3*
D24*
X233375Y14190D3*
Y19270D3*
D23*
X232750D3*
Y14190D3*
D24*
X233375Y21810D3*
D23*
X232750D3*
M02*
